<svg xmlns="http://www.w3.org/2000/svg" viewBox="0 0 824 540" width="824" height="540">
	<style>
		tspan { white-space:pre }
		.shp0 { fill: #e6e6e6 } 
		.shp1 { fill: #9f616a } 
		.shp2 { fill: #2f2e41 } 
		.shp3 { fill: #6c63ff } 
		.shp4 { fill: #70add8 } 
		.shp5 { fill: #ffffff } 
	</style>
	<path id="Layer" class="shp0" d="M706 539.23C771.25 539.23 824 535.21 824 530.23C824 525.26 771.25 521.23 706 521.23C640.75 521.23 588 525.26 588 530.23C588 535.21 640.75 539.23 706 539.23Z" />
	<path id="Layer" class="shp1" d="M667.78 135.46L714.86 122.62C702.29 110.76 696.82 99.59 698.45 89.1L667.78 89.1L667.78 135.46Z" />
	<path id="Layer" class="shp2" d="M662.79 496.38L678 498.51L696.31 330.18L725.56 497.8L741.25 498.51L741.25 285.96L644.24 285.96L662.79 496.38L662.79 496.38Z" />
	<path id="Layer" class="shp2" d="M733.35 530.31L733.35 530.31C732.17 530.34 730.98 530.18 729.85 529.83C728.72 529.47 727.66 528.93 726.7 528.23C725.75 527.53 724.92 526.67 724.24 525.69C723.57 524.72 723.06 523.64 722.74 522.49L721.63 505.92L723.87 494.16C729.78 489.31 735.75 489.41 741.79 494.16L743.71 518.79C743.82 520.23 743.64 521.68 743.17 523.05C742.71 524.43 741.97 525.69 741 526.77C740.03 527.85 738.85 528.72 737.54 529.32C736.22 529.93 734.8 530.27 733.35 530.31L733.35 530.31Z" />
	<path id="Layer" class="shp2" d="M670.58 530.31L670.58 530.31C669.4 530.34 668.22 530.18 667.08 529.83C665.95 529.47 664.89 528.93 663.93 528.23C662.98 527.53 662.15 526.67 661.48 525.69C660.8 524.72 660.3 523.64 659.98 522.49L658.87 505.92L661.11 494.16C667.01 489.31 672.98 489.41 679.02 494.16L680.94 518.79C681.05 520.23 680.87 521.68 680.41 523.05C679.94 524.43 679.2 525.69 678.23 526.77C677.26 527.85 676.09 528.72 674.77 529.32C673.46 529.93 672.03 530.27 670.58 530.31Z" />
	<path id="Layer" class="shp1" d="M674.2 111.21C689.19 111.21 701.31 99.09 701.31 84.11C701.31 69.12 689.19 57 674.2 57C659.21 57 647.1 69.12 647.1 84.11C647.1 99.09 659.21 111.21 674.2 111.21Z" />
	<path id="Layer" class="shp0" d="M639.96 289.53L743.39 289.53C729.98 227.4 730.02 177.37 740.7 136.9C741.04 135.63 741.14 134.3 740.99 132.99C740.85 131.67 740.47 130.4 739.87 129.22C739.27 128.04 738.46 126.99 737.47 126.1C736.49 125.22 735.36 124.53 734.12 124.05L706.3 113.35C697.94 124.14 686.16 128.85 667.78 121.91L653.2 124.9C651.44 125.26 649.76 125.93 648.24 126.89C646.71 127.84 645.37 129.06 644.28 130.49C643.19 131.92 642.37 133.53 641.85 135.25C641.33 136.97 641.13 138.77 641.24 140.57C642.32 156.39 641.89 172.34 642.82 186.1C645.68 228.73 646.91 261.96 639.96 289.53Z" />
	<path id="Layer" class="shp2" d="M688.47 48.44C688.47 48.44 672.77 30.61 654.23 47.73L649.24 49.16L652.8 52.01C652.8 52.01 634.26 60.57 635.68 78.4C635.68 78.4 638.54 77.69 639.96 78.4C641.39 79.11 642.1 86.96 642.1 86.96C642.1 86.96 644.24 81.25 644.96 80.54C645.67 79.83 655.66 88.39 672.06 75.55C672.06 75.55 677.05 88.39 682.76 86.96C688.47 85.53 696.31 86.25 699.88 95.52C699.88 95.52 719.14 54.15 688.47 48.44Z" />
	<path id="Layer" class="shp1" d="M634.97 273.84L644.13 286.11C645.08 287.39 645.77 288.84 646.16 290.39C646.54 291.94 646.62 293.54 646.38 295.12C646.14 296.7 645.58 298.21 644.75 299.57C643.92 300.93 642.83 302.11 641.53 303.05L641.53 303.05C639.87 304.25 637.92 305.01 635.88 305.24C633.84 305.48 631.78 305.2 629.88 304.41C627.98 303.62 626.32 302.36 625.05 300.75C623.78 299.14 622.94 297.23 622.61 295.2L619.99 278.83L615 208.21L618.57 172.55L641.39 181.11L634.97 211.78L634.97 273.84Z" />
	<path id="Layer" class="shp0" d="M644.24 189.67L616.43 176.83L617.85 166.72C617.85 162.56 618.48 158.43 619.71 154.46C620.94 150.48 622.76 146.72 625.11 143.28C627.46 139.85 630.31 136.79 633.57 134.21C636.83 131.63 640.46 129.55 644.34 128.04L652.8 124.76L644.24 189.67Z" />
	<path id="Layer" class="shp1" d="M745.53 270.98L736.37 283.25C735.42 284.53 734.73 285.99 734.34 287.53C733.96 289.08 733.88 290.69 734.12 292.27C734.36 293.84 734.92 295.36 735.75 296.72C736.58 298.08 737.67 299.26 738.97 300.19L738.97 300.19C740.63 301.4 742.58 302.15 744.62 302.39C746.66 302.63 748.72 302.34 750.62 301.56C752.52 300.77 754.18 299.51 755.45 297.9C756.72 296.29 757.56 294.37 757.89 292.35L760.51 275.98L765.5 205.36L761.93 169.7L739.11 178.26L745.53 208.93L745.53 270.98Z" />
	<path id="Layer" class="shp0" d="M736.26 186.82L764.07 173.98L762.65 163.87C762.65 159.71 762.02 155.58 760.79 151.6C759.56 147.63 757.74 143.86 755.39 140.43C753.04 137 750.19 133.94 746.93 131.36C743.67 128.77 740.04 126.69 736.16 125.19L727.7 121.91L736.26 186.82Z" />
	<path id="Layer" fill-rule="evenodd" class="shp0" d="M5.13 459.16C4.22 458.78 3.4 458.23 2.7 457.53C2 456.84 1.45 456.01 1.07 455.1C0.7 454.19 0.5 453.22 0.5 452.23L0.5 245.23C0.5 244.25 0.7 243.27 1.07 242.36C1.45 241.45 2 240.63 2.7 239.93C3.4 239.24 4.22 238.68 5.13 238.31C6.04 237.93 7.02 237.73 8 237.73L484 237.73C484.98 237.73 485.96 237.93 486.87 238.31C487.78 238.68 488.6 239.24 489.3 239.93C490 240.63 490.55 241.45 490.93 242.36C491.3 243.27 491.5 244.25 491.5 245.23L491.5 452.23C491.5 453.22 491.3 454.19 490.93 455.1C490.55 456.01 490 456.84 489.3 457.53C488.6 458.23 487.78 458.78 486.87 459.16C485.96 459.54 484.98 459.73 484 459.73L8 459.73C7.02 459.73 6.04 459.54 5.13 459.16ZM8 240.73C7.41 240.73 6.82 240.85 6.28 241.08C5.73 241.3 5.24 241.63 4.82 242.05C4.4 242.47 4.07 242.97 3.84 243.51C3.62 244.06 3.5 244.64 3.5 245.23L3.5 452.23C3.5 452.82 3.62 453.41 3.84 453.95C4.07 454.5 4.4 455 4.82 455.41C5.24 455.83 5.73 456.16 6.28 456.39C6.82 456.62 7.41 456.73 8 456.73L484 456.73C484.59 456.73 485.18 456.62 485.72 456.39C486.27 456.16 486.76 455.83 487.18 455.41C487.6 455 487.93 454.5 488.16 453.95C488.38 453.41 488.5 452.82 488.5 452.23L488.5 245.23C488.5 244.64 488.38 244.06 488.16 243.51C487.93 242.97 487.6 242.47 487.18 242.05C486.76 241.63 486.27 241.3 485.72 241.08C485.18 240.85 484.59 240.73 484 240.73L8 240.73Z" />
	<path id="Layer" class="shp0" d="M464.5 263.23C465.69 263.23 466.84 263.71 467.68 264.55C468.53 265.39 469 266.54 469 267.73C469 268.93 468.53 270.07 467.68 270.91C466.84 271.76 465.69 272.23 464.5 272.23L401.5 272.23C400.31 272.23 399.16 271.76 398.32 270.91C397.47 270.07 397 268.93 397 267.73C397 266.54 397.47 265.39 398.32 264.55C399.16 263.71 400.31 263.23 401.5 263.23L464.5 263.23Z" />
	<path id="Layer" class="shp0" d="M33.21 294.53L33.21 377.98L458.04 377.98L458.04 334.04C455.1 332.15 452.14 330.27 449.15 328.45C436.4 320.65 422.75 313.35 407.87 310.64C406.11 310.32 404.35 310.06 402.57 309.89C400.79 309.71 399.01 309.61 397.22 309.59C395.44 309.57 393.65 309.62 391.87 309.76C390.09 309.89 388.32 310.09 386.56 310.38C379.09 311.61 371.95 314.18 364.87 316.76C357.89 319.32 350.9 321.95 343.6 323.43C341.83 323.78 340.04 324.05 338.24 324.24C336.45 324.44 334.64 324.55 332.84 324.59C331.03 324.62 329.22 324.58 327.42 324.46C325.62 324.34 323.82 324.14 322.03 323.86C308.37 321.81 295.54 316.32 282.76 311.35C269.9 306.36 256.65 301.64 242.73 301.02C228.99 300.4 215.42 303.65 202.38 307.67C175.79 315.88 148.65 328.04 120.5 319.7C91.92 311.24 65.63 286.81 33.96 294.06C33.88 294.07 33.81 294.09 33.74 294.12C33.67 294.15 33.6 294.18 33.54 294.22C33.47 294.26 33.41 294.31 33.36 294.36C33.3 294.41 33.25 294.47 33.21 294.53Z" />
	<path id="Layer" class="shp3" d="M33.21 295.98C33.28 296.11 33.36 296.22 33.47 296.32C33.57 296.42 33.7 296.5 33.83 296.55C33.96 296.61 34.1 296.65 34.24 296.66C34.38 296.67 34.53 296.66 34.66 296.62C35.61 296.4 36.56 296.22 37.51 296.06C38.46 295.9 39.42 295.77 40.38 295.67C41.35 295.57 42.31 295.5 43.28 295.46C44.24 295.42 45.21 295.41 46.18 295.43C77.33 295.98 101.29 321.06 131.75 324.82C159.22 328.19 185.08 314.84 210.9 307.86C224.32 304.23 238.16 302.31 251.97 304.77C265.67 307.21 278.53 312.82 291.44 317.79C303.88 322.58 316.8 327.03 330.26 327.25C345.07 327.5 358.4 321.4 372.13 316.75C379.26 314.33 386.59 312.42 394.16 312.23C396 312.21 397.84 312.26 399.67 312.39C401.5 312.52 403.33 312.73 405.15 313.01C406.97 313.29 408.77 313.65 410.56 314.08C412.35 314.51 414.12 315.01 415.87 315.59C430.46 320.23 443.6 328.5 456.4 336.71C456.45 336.75 456.51 336.78 456.57 336.81C456.63 336.84 456.69 336.86 456.76 336.88C456.82 336.9 456.89 336.91 456.95 336.91C457.02 336.92 457.09 336.92 457.15 336.91C457.43 336.88 457.69 336.76 457.89 336.57C458.1 336.38 458.25 336.14 458.31 335.86C458.37 335.59 458.35 335.31 458.25 335.05C458.15 334.79 457.97 334.57 457.74 334.41L457.15 334.04C454.22 332.15 451.26 330.27 448.28 328.45C435.56 320.65 421.93 313.35 407.09 310.64C405.34 310.32 403.57 310.06 401.8 309.89C400.03 309.71 398.25 309.61 396.46 309.59C394.68 309.57 392.9 309.62 391.13 309.76C389.35 309.89 387.58 310.09 385.82 310.38C378.37 311.61 371.24 314.18 364.18 316.76C357.22 319.32 350.24 321.95 342.95 323.43C341.19 323.78 339.4 324.05 337.61 324.24C335.81 324.44 334.01 324.55 332.21 324.59C330.41 324.62 328.6 324.58 326.8 324.46C325 324.34 323.21 324.14 321.43 323.86C307.8 321.81 294.99 316.32 282.24 311.35C269.4 306.36 256.18 301.64 242.29 301.02C228.58 300.4 215.04 303.65 202.02 307.67C175.5 315.88 148.41 328.04 120.32 319.7C91.8 311.24 65.56 286.81 33.95 294.06C33.88 294.07 33.81 294.09 33.74 294.12C33.67 294.15 33.6 294.18 33.54 294.22C33.47 294.26 33.41 294.31 33.36 294.36C33.3 294.41 33.25 294.47 33.21 294.53C33.14 294.64 33.09 294.75 33.05 294.88C33.02 295 33 295.13 33 295.25C33 295.38 33.02 295.51 33.05 295.63C33.09 295.76 33.14 295.87 33.21 295.98L33.21 295.98Z" />
	<path id="Layer" class="shp4" d="M399.5 317.67C402.94 317.67 405.71 314.89 405.71 311.46C405.71 308.03 402.94 305.25 399.5 305.25C396.07 305.25 393.3 308.03 393.3 311.46C393.3 314.89 396.07 317.67 399.5 317.67Z" />
	<path id="Layer" class="shp4" d="M242.52 309.69C245.95 309.69 248.73 306.91 248.73 303.48C248.73 300.04 245.95 297.27 242.52 297.27C239.09 297.27 236.31 300.04 236.31 303.48C236.31 306.91 239.09 309.69 242.52 309.69Z" />
	<path id="Layer" class="shp4" d="M50.95 301.7C54.38 301.7 57.16 298.93 57.16 295.49C57.16 292.06 54.38 289.29 50.95 289.29C47.51 289.29 44.74 292.06 44.74 295.49C44.74 298.93 47.51 301.7 50.95 301.7Z" />
	<path id="Layer" class="shp0" d="M403 413.23C404.19 413.23 405.34 413.71 406.18 414.55C407.03 415.39 407.5 416.54 407.5 417.73C407.5 418.93 407.03 420.07 406.18 420.91C405.34 421.76 404.19 422.23 403 422.23L340 422.23C338.81 422.23 337.66 421.76 336.82 420.91C335.97 420.07 335.5 418.93 335.5 417.73C335.5 416.54 335.97 415.39 336.82 414.55C337.66 413.71 338.81 413.23 340 413.23L403 413.23Z" />
	<path id="Layer" class="shp4" d="M443.5 434.23C452.9 434.23 460.5 426.63 460.5 417.23C460.5 407.83 452.9 400.23 443.5 400.23C434.1 400.23 426.5 407.83 426.5 417.23C426.5 426.63 434.1 434.23 443.5 434.23Z" />
	<path id="Layer" class="shp0" d="M251 413.23C252.19 413.23 253.34 413.71 254.18 414.55C255.03 415.39 255.5 416.54 255.5 417.73C255.5 418.93 255.03 420.07 254.18 420.91C253.34 421.76 252.19 422.23 251 422.23L188 422.23C186.81 422.23 185.66 421.76 184.82 420.91C183.97 420.07 183.5 418.93 183.5 417.73C183.5 416.54 183.97 415.39 184.82 414.55C185.66 413.71 186.81 413.23 188 413.23L251 413.23Z" />
	<path id="Layer" class="shp4" d="M291.5 434.23C300.9 434.23 308.5 426.63 308.5 417.23C308.5 407.83 300.9 400.23 291.5 400.23C282.1 400.23 274.5 407.83 274.5 417.23C274.5 426.63 282.1 434.23 291.5 434.23Z" />
	<path id="Layer" class="shp0" d="M99 413.23C100.19 413.23 101.34 413.71 102.18 414.55C103.03 415.39 103.5 416.54 103.5 417.73C103.5 418.93 103.03 420.07 102.18 420.91C101.34 421.76 100.19 422.23 99 422.23L36 422.23C34.81 422.23 33.66 421.76 32.82 420.91C31.97 420.07 31.5 418.93 31.5 417.73C31.5 416.54 31.97 415.39 32.82 414.55C33.66 413.71 34.81 413.23 36 413.23L99 413.23Z" />
	<path id="Layer" class="shp4" d="M139.5 434.23C148.9 434.23 156.5 426.63 156.5 417.23C156.5 407.83 148.9 400.23 139.5 400.23C130.1 400.23 122.5 407.83 122.5 417.23C122.5 426.63 130.1 434.23 139.5 434.23Z" />
	<path id="e1cfef3e-7788-4f0f-b252-d185c9336b04" fill-rule="evenodd" class="shp0" d="M32.29 175.94L32.29 124.9C32.29 121.64 36 119 40.58 119L275.42 119C280 119 283.71 121.64 283.71 124.9L283.71 175.94C283.71 179.2 280 181.84 275.42 181.84L40.58 181.84C36 181.84 32.29 179.2 32.29 175.94ZM40.58 121.36C37.83 121.36 35.61 122.95 35.61 124.9L35.61 175.94C35.61 177.89 37.83 179.48 40.58 179.48L275.42 179.48C278.17 179.48 280.39 177.89 280.39 175.94L280.39 124.9C280.39 122.94 278.17 121.36 275.42 121.36L40.58 121.36Z" />
	<path id="Layer" class="shp4" d="M222.32 148.01C222.98 148.01 223.63 148.14 224.23 148.39C224.84 148.64 225.39 149.01 225.85 149.47C226.32 149.94 226.69 150.49 226.94 151.09C227.19 151.7 227.32 152.35 227.32 153.01L227.32 188.01C227.32 188.66 227.19 189.31 226.94 189.92C226.69 190.53 226.32 191.08 225.85 191.54C225.39 192.01 224.84 192.37 224.23 192.62C223.63 192.88 222.98 193.01 222.32 193.01L43.32 193.01C42.66 193.01 42.01 192.88 41.41 192.62C40.8 192.37 40.25 192.01 39.79 191.54C39.32 191.08 38.95 190.53 38.7 189.92C38.45 189.31 38.32 188.66 38.32 188.01L38.32 153.01C38.32 152.35 38.45 151.7 38.7 151.09C38.95 150.49 39.32 149.94 39.79 149.47C40.25 149.01 40.8 148.64 41.41 148.39C42.01 148.14 42.66 148.01 43.32 148.01L222.32 148.01Z" />
	<path id="Layer" class="shp5" d="M197.32 182.01C203.4 182.01 208.32 177.09 208.32 171.01C208.32 164.92 203.4 160.01 197.32 160.01C191.24 160.01 186.32 164.92 186.32 171.01C186.32 177.09 191.24 182.01 197.32 182.01Z" />
	<path id="Layer" class="shp5" d="M147.19 166.23C148.38 166.23 149.53 166.71 150.37 167.55C151.21 168.39 151.69 169.54 151.69 170.73C151.69 171.93 151.21 173.07 150.37 173.91C149.53 174.76 148.38 175.23 147.19 175.23L84.19 175.23C83 175.23 81.85 174.76 81.01 173.91C80.16 173.07 79.69 171.93 79.69 170.73C79.69 169.54 80.16 168.39 81.01 167.55C81.85 166.71 83 166.23 84.19 166.23L147.19 166.23Z" />
	<path id="b00e8b21-64f0-4b6c-8490-a93637cb24e1" fill-rule="evenodd" class="shp0" d="M208.29 56.94L208.29 5.9C208.29 2.64 212 0 216.58 0L451.42 0C456 0 459.71 2.64 459.71 5.9L459.71 56.94C459.71 60.2 456 62.84 451.42 62.84L216.58 62.84C212 62.84 208.29 60.2 208.29 56.94ZM216.58 2.36C213.83 2.36 211.61 3.95 211.61 5.9L211.61 56.94C211.61 58.89 213.83 60.48 216.58 60.48L451.42 60.48C454.17 60.48 456.39 58.89 456.39 56.94L456.39 5.9C456.39 3.94 454.17 2.36 451.42 2.36L216.58 2.36Z" />
	<path id="Layer" class="shp4" d="M398.32 29.01C398.98 29.01 399.63 29.14 400.23 29.39C400.84 29.64 401.39 30.01 401.85 30.47C402.32 30.94 402.69 31.49 402.94 32.09C403.19 32.7 403.32 33.35 403.32 34.01L403.32 69.01C403.32 69.66 403.19 70.31 402.94 70.92C402.69 71.53 402.32 72.08 401.85 72.54C401.39 73.01 400.84 73.37 400.23 73.62C399.63 73.88 398.98 74.01 398.32 74.01L219.32 74.01C218.66 74.01 218.01 73.88 217.41 73.62C216.8 73.37 216.25 73.01 215.79 72.54C215.32 72.08 214.95 71.53 214.7 70.92C214.45 70.31 214.32 69.66 214.32 69.01L214.32 34.01C214.32 33.35 214.45 32.7 214.7 32.09C214.95 31.49 215.32 30.94 215.79 30.47C216.25 30.01 216.8 29.64 217.41 29.39C218.01 29.14 218.66 29.01 219.32 29.01L398.32 29.01Z" />
	<path id="Layer" class="shp5" d="M373.32 63.01C379.4 63.01 384.32 58.09 384.32 52.01C384.32 45.92 379.4 41.01 373.32 41.01C367.24 41.01 362.32 45.92 362.32 52.01C362.32 58.09 367.24 63.01 373.32 63.01Z" />
	<path id="Layer" class="shp5" d="M323.19 47.23C324.38 47.23 325.53 47.71 326.37 48.55C327.21 49.39 327.69 50.54 327.69 51.73C327.69 52.93 327.21 54.07 326.37 54.91C325.53 55.76 324.38 56.23 323.19 56.23L260.19 56.23C259 56.23 257.85 55.76 257.01 54.91C256.16 54.07 255.69 52.93 255.69 51.73C255.69 50.54 256.16 49.39 257.01 48.55C257.85 47.71 259 47.23 260.19 47.23L323.19 47.23Z" />
</svg>