<svg xmlns="http://www.w3.org/2000/svg" viewBox="0 0 1028 599" width="720" height="420"><style>tspan { white-space:pre }.shp0 { fill: #f2f2f2 } .shp1 { fill: #3f3d56 } .shp2 { opacity: 0.102;fill: #000000 } .shp3 { fill: #70add8 } .shp4 { fill: #8a8b8c } .shp5 { fill: #2f2e41 } .shp6 { fill: #a0616a } .shp7 { fill: #d0cde1 } .shp8 { fill: #ffb9b9 } .shp9 { fill: #ff6584 } .shp10 { opacity: 0.051;fill: #000000 } </style><path class="shp0" d="M332 584.01C170.53 584.01 40 453.48 40 292C40 130.53 170.53 0 332 0C493.48 0 624.01 130.53 624.01 292C624.01 453.48 493.48 584.01 332 584.01Z" /><path class="shp1" d="M1028 518C1028 518.17 1028 518.35 1027.99 518.53C1027.98 518.71 1027.97 518.88 1027.96 519.06C1027.94 519.24 1027.92 519.41 1027.9 519.59C1027.88 519.77 1027.86 519.94 1027.83 520.12C1020.69 563.88 793.37 599 514 599C234.63 599 7.31 563.88 0.17 520.12C0.14 519.94 0.12 519.77 0.1 519.59C0.08 519.41 0.06 519.24 0.04 519.06C0.03 518.88 0.02 518.71 0.01 518.53C0 518.35 0 518.17 0 518C0 517.8 0 517.59 0.02 517.39C0.02 517.28 0.03 517.18 0.03 517.07C0.03 517.06 0.03 517.05 0.04 517.04C0.04 517.03 0.04 517.02 0.04 517.01C0.04 517 0.04 516.99 0.04 516.98C0.04 516.97 0.04 516.96 0.04 516.95C0.08 516.5 0.14 516.07 0.22 515.63C3.48 497.74 43.57 481.3 108.96 468.13C162.44 457.36 232.85 448.77 313.89 443.37C375.39 439.27 443.01 437 514 437C571.12 437 626.06 438.47 677.38 441.17L677.4 441.17C688.14 441.74 698.72 442.36 709.14 443.04C780.47 447.66 843.77 454.73 894.77 463.58C926.14 469.03 952.87 475.16 973.96 481.8L973.97 481.8C1006.43 492.03 1025.57 503.5 1027.78 515.63C1027.86 516.07 1027.92 516.5 1027.96 516.95C1027.96 516.96 1027.96 516.97 1027.96 516.98C1027.96 516.99 1027.96 517 1027.96 517.01C1027.96 517.02 1027.96 517.03 1027.96 517.04C1027.97 517.05 1027.97 517.06 1027.97 517.07C1027.97 517.18 1027.98 517.28 1027.98 517.39C1028 517.59 1028 517.8 1028 518Z" /><path class="shp2" d="M501 596C409.75 596 336 585.27 336 572C336 558.73 409.75 548 501 548C592.25 548 666 558.73 666 572C666 585.27 592.25 596 501 596Z" /><path class="shp2" d="M973.96 481.8C968.19 483.45 961.69 484.98 954.56 486.38C925.2 492.16 885.14 495.71 841.03 495.71C791.75 495.71 747.58 491.28 717.65 484.27C692.81 478.45 677.77 470.88 677.77 462.57C677.77 455.27 689.41 448.51 709.14 443.04C780.47 447.66 843.77 454.73 894.77 463.58C926.14 469.03 952.87 475.16 973.96 481.8Z" /><path class="shp2" d="M532 470.75C532 485.88 437.08 498.15 320 498.15C202.92 498.15 108 485.88 108 470.75C108.01 470.51 108.03 470.27 108.08 470.04C108.12 469.81 108.18 469.58 108.27 469.36C108.35 469.14 108.45 468.92 108.56 468.71C108.68 468.51 108.81 468.31 108.96 468.13C162.44 457.36 232.85 448.77 313.89 443.37C315.92 443.36 317.96 443.35 320 443.36C437.08 443.36 532 455.62 532 470.75Z" /><path class="shp3" d="M416.47 334.97L458.16 334.97L458.16 469.56L416.47 469.56L416.47 334.97Z" /><path class="shp3" d="M279.51 271.85L321.19 271.85L321.19 469.56L279.51 469.56L279.51 271.85Z" /><path class="shp3" d="M143.73 271.85L185.42 271.85L185.42 469.56L143.73 469.56L143.73 271.85Z" /><path class="shp3" d="M211.62 271.85L253.3 271.85L253.3 406.44L211.62 406.44L211.62 271.85Z" /><path class="shp3" d="M347.39 271.85L389.08 271.85L389.08 311.15L347.39 311.15L347.39 271.85Z" /><path class="shp4" d="M347.39 334.97L389.08 334.97L389.08 469.56L347.39 469.56L347.39 334.97Z" /><path class="shp3" d="M416.47 271.85L526.04 271.85L526.04 311.15L416.47 311.15L416.47 271.85Z" /><path fill-rule="evenodd" class="shp3" d="M815.06 260.03C843.56 260.03 867.82 269.98 887.84 289.87C890.19 292.2 892.41 294.65 894.52 297.2C896.62 299.76 898.59 302.42 900.42 305.18C902.25 307.93 903.94 310.78 905.49 313.71C907.03 316.63 908.43 319.64 909.67 322.71C912.12 328.94 913.98 335.38 915.24 341.95C916.49 348.53 917.12 355.21 917.13 361.9C917.14 368.6 916.52 375.28 915.28 381.85C914.05 388.43 912.2 394.88 909.76 401.12C908.54 404.15 907.16 407.11 905.63 410C904.1 412.89 902.42 415.69 900.59 418.41C898.77 421.12 896.8 423.73 894.7 426.24C892.6 428.74 890.37 431.14 888.02 433.41C885.61 435.82 883.07 438.11 880.43 440.27C877.79 442.43 875.05 444.46 872.21 446.35C869.37 448.24 866.44 449.99 863.43 451.6C860.42 453.21 857.33 454.67 854.18 455.97C851.09 457.26 847.94 458.39 844.74 459.37C841.54 460.35 838.3 461.17 835.01 461.82C831.73 462.48 828.42 462.97 825.09 463.3C821.76 463.63 818.41 463.8 815.07 463.79C811.76 463.8 808.45 463.65 805.16 463.33C801.87 463.01 798.59 462.52 795.35 461.87C792.1 461.22 788.89 460.41 785.73 459.44C782.57 458.47 779.46 457.34 776.41 456.06C770.25 453.44 764.35 450.23 758.8 446.48C753.25 442.74 748.07 438.47 743.34 433.73C738.6 429 734.33 423.82 730.59 418.27C726.84 412.72 723.63 406.82 721.01 400.66C718.48 394.52 716.57 388.15 715.28 381.64C714 375.12 713.36 368.5 713.37 361.86C713.37 355.22 714.03 348.6 715.33 342.08C716.63 335.57 718.56 329.2 721.1 323.07C722.39 319.95 723.84 316.9 725.44 313.93C727.04 310.95 728.79 308.06 730.67 305.26C732.56 302.46 734.58 299.75 736.73 297.15C738.89 294.55 741.17 292.06 743.56 289.68C762.97 269.92 786.8 260.03 815.06 260.03ZM815.43 278.41C792.14 278.41 772.56 286.53 756.66 302.79C754.71 304.75 752.85 306.8 751.09 308.94C749.33 311.08 747.68 313.3 746.13 315.6C744.58 317.89 743.14 320.26 741.82 322.69C740.49 325.13 739.28 327.62 738.2 330.17C736.07 335.16 734.45 340.35 733.37 345.67C732.28 350.98 731.74 356.4 731.74 361.82C731.74 367.25 732.28 372.66 733.37 377.98C734.45 383.29 736.07 388.49 738.2 393.48C740.37 398.52 743.02 403.35 746.11 407.89C749.2 412.43 752.71 416.66 756.61 420.54C760.5 424.41 764.76 427.9 769.32 430.96C773.88 434.02 778.72 436.65 783.77 438.79C788.79 440.86 794 442.44 799.32 443.49C804.65 444.54 810.06 445.07 815.49 445.06C820.92 445.06 826.33 444.51 831.65 443.44C836.97 442.38 842.17 440.79 847.18 438.7C849.76 437.63 852.28 436.43 854.74 435.12C857.21 433.8 859.6 432.38 861.93 430.83C864.26 429.29 866.51 427.64 868.68 425.89C870.85 424.13 872.93 422.28 874.93 420.32C890.81 404.8 898.76 385.33 898.75 361.92C898.77 359.18 898.65 356.45 898.39 353.72C898.14 351 897.75 348.29 897.24 345.6C896.72 342.92 896.07 340.26 895.29 337.64C894.51 335.01 893.6 332.43 892.57 329.9C891.54 327.38 890.38 324.92 889.1 322.52C887.83 320.12 886.43 317.79 884.92 315.53C883.41 313.27 881.78 311.09 880.06 308.99C878.33 306.89 876.49 304.88 874.57 302.97C858.18 286.6 838.47 278.41 815.43 278.41ZM814.15 345L800.51 352.09C800.23 351.44 799.91 350.82 799.54 350.21C799.17 349.61 798.76 349.04 798.31 348.5C797.85 347.96 797.36 347.46 796.83 346.99C796.3 346.53 795.73 346.11 795.14 345.73C794.7 345.45 794.24 345.2 793.76 344.99C793.29 344.77 792.8 344.59 792.3 344.43C791.8 344.28 791.29 344.16 790.78 344.07C790.27 343.98 789.75 343.93 789.22 343.91C780.13 343.91 775.58 349.91 775.58 361.92C775.58 367.38 776.73 371.74 779.03 375.01C781.34 378.29 784.74 379.93 789.22 379.93C795.17 379.93 799.35 377.02 801.78 371.2L814.33 377.56C813.06 379.99 811.46 382.22 809.58 384.21C807.7 386.19 805.55 387.91 803.2 389.32C800.86 390.72 798.33 391.8 795.69 392.52C793.05 393.24 790.32 393.6 787.59 393.58C778.49 393.58 771.15 390.79 765.57 385.21C759.99 379.63 757.2 371.87 757.2 361.92C757.2 352.22 760.02 344.52 765.66 338.82C771.3 333.12 778.43 330.27 787.04 330.27C799.66 330.26 808.7 335.17 814.15 345ZM872.92 345L859.45 352.09C859.18 351.44 858.86 350.82 858.49 350.21C858.12 349.61 857.71 349.04 857.26 348.5C856.8 347.96 856.31 347.46 855.78 346.99C855.25 346.53 854.68 346.11 854.09 345.73C853.63 345.45 853.15 345.2 852.67 344.98C852.18 344.76 851.67 344.57 851.16 344.42C850.64 344.27 850.12 344.15 849.59 344.06C849.06 343.98 848.53 343.92 847.99 343.91C838.9 343.91 834.35 349.91 834.34 361.92C834.34 367.38 835.5 371.74 837.8 375.01C840.1 378.29 843.5 379.93 847.99 379.93C853.93 379.93 858.11 377.02 860.54 371.2L873.28 377.56C872.62 378.77 871.88 379.93 871.06 381.03C870.25 382.14 869.37 383.19 868.42 384.18C867.46 385.17 866.45 386.09 865.38 386.95C864.3 387.81 863.18 388.59 862 389.3C860.84 390 859.64 390.63 858.4 391.16C857.15 391.7 855.87 392.15 854.57 392.51C853.26 392.87 851.93 393.15 850.59 393.32C849.25 393.5 847.89 393.59 846.54 393.58C837.32 393.58 829.95 390.79 824.44 385.21C818.91 379.63 816.15 371.87 816.15 361.92C816.15 352.22 818.97 344.52 824.62 338.82C830.25 333.12 837.38 330.27 845.99 330.27C858.6 330.26 867.58 335.17 872.92 345Z" /><path class="shp2" d="M753.42 510.34C753.42 559.07 685.48 544 602.3 544C519.13 544 452.2 559.07 452.2 510.34C452.2 461.6 520.13 451 603.3 451C686.48 451 753.42 461.6 753.42 510.34Z" /><path class="shp1" d="M753.42 498.34C753.42 547.07 685.48 532 602.3 532C519.13 532 452.2 547.07 452.2 498.34C452.2 449.6 520.13 439 603.3 439C686.48 439 753.42 449.6 753.42 498.34Z" /><path class="shp5" d="M739.54 410.84L742.98 425.01C742.98 425.04 742.99 425.08 743 425.12C743 425.16 743 425.21 743 425.25C743 425.29 742.99 425.33 742.99 425.37C742.98 425.41 742.97 425.45 742.96 425.48L727.38 474.16C727.32 474.35 727.19 474.52 727.03 474.63C726.86 474.74 726.65 474.79 726.45 474.77C726.25 474.75 726.06 474.66 725.92 474.52C725.77 474.38 725.68 474.19 725.66 473.99L723.51 455.03C723.5 454.99 723.5 454.96 723.5 454.93C723.5 454.9 723.5 454.87 723.51 454.84C723.51 454.81 723.51 454.77 723.52 454.74C723.53 454.71 723.53 454.68 723.54 454.65L737.84 410.78C737.9 410.59 738.02 410.43 738.18 410.32C738.33 410.21 738.52 410.16 738.72 410.17C738.91 410.17 739.09 410.24 739.24 410.37C739.39 410.49 739.5 410.65 739.54 410.84L739.54 410.84Z" /><path class="shp0" d="M738.28 412.04L741.45 424.19L727.71 468.57L724.54 454.83L738.28 412.04L738.28 412.04Z" /><path class="shp5" d="M669.06 478.08C669.59 479.67 724.01 477.55 724.54 477.03C724.66 476.86 724.77 476.69 724.87 476.52C724.98 476.35 725.08 476.18 725.18 476C725.28 475.82 725.37 475.64 725.46 475.46C725.54 475.28 725.63 475.1 725.7 474.91C726.2 473.86 726.65 472.8 726.65 472.8L724.54 455.69L670.65 453.78C670.65 453.78 669.3 468.28 669.03 474.91C669 475.18 668.99 475.44 668.98 475.7C668.97 475.97 668.96 476.23 668.97 476.5C668.97 476.76 668.98 477.03 669 477.29C669.01 477.56 669.03 477.82 669.06 478.08Z" /><path class="shp2" d="M717.67 458L718.73 472.8L694.95 472.8L694.95 458L717.67 458L717.67 458Z" /><path class="shp2" d="M687.03 462.76L687.17 462.73L686.5 469.1L673.29 469.1L673.29 462.76L687.03 462.76L687.03 462.76Z" /><path class="shp2" d="M669.06 478.08C669.59 479.67 724.01 477.55 724.54 477.03C724.66 476.86 724.77 476.69 724.87 476.52C724.98 476.35 725.08 476.18 725.18 476C725.28 475.82 725.37 475.64 725.46 475.46C725.54 475.28 725.63 475.1 725.7 474.91L669.03 474.91C669 475.18 668.99 475.44 668.98 475.7C668.97 475.97 668.96 476.23 668.97 476.5C668.97 476.76 668.98 477.03 669 477.29C669.01 477.56 669.03 477.82 669.06 478.08Z" /><path class="shp5" d="M585.06 422.61L599.85 422.61L636.31 408.34C636.31 408.34 662.2 397.77 660.08 417.85C657.97 437.93 654.27 464.87 654.27 464.87C654.27 464.87 642.65 459.59 636.31 461.18C629.97 462.76 634.19 428.95 634.19 428.95C634.19 428.95 582.41 453.78 577.66 450.61C572.9 447.44 571.85 425.25 571.85 425.25L585.06 422.61Z" /><path class="shp2" d="M585.06 422.61L599.85 422.61L636.31 408.34C636.31 408.34 662.2 397.77 660.08 417.85C657.97 437.93 654.27 464.87 654.27 464.87C654.27 464.87 642.65 459.59 636.31 461.18C629.97 462.76 634.19 428.95 634.19 428.95C634.19 428.95 582.41 453.78 577.66 450.61C572.9 447.44 571.85 425.25 571.85 425.25L585.06 422.61Z" /><path class="shp6" d="M608.36 376.28L626.27 402L668.01 436.87C668.01 436.87 706.58 445.85 701.29 452.19C696.01 458.53 663.78 445.85 663.78 445.85C663.78 445.85 615.7 410.98 614.12 408.34C612.53 405.7 595.09 380.87 595.09 380.87L608.36 376.28Z" /><path class="shp2" d="M608.36 376.28L626.27 402L668.01 436.87C668.01 436.87 706.58 445.85 701.29 452.19C696.01 458.53 663.78 445.85 663.78 445.85C663.78 445.85 615.7 410.98 614.12 408.34C612.53 405.7 595.09 380.87 595.09 380.87L608.36 376.28Z" /><path class="shp6" d="M605.66 348.11C592.51 348.11 581.89 337.48 581.89 324.33C581.89 311.18 592.51 300.56 605.66 300.56C618.81 300.56 629.44 311.18 629.44 324.33C629.44 337.48 618.81 348.11 605.66 348.11Z" /><path class="shp6" d="M604.08 345.47C604.08 345.47 596.15 359.2 594.57 366.6C592.98 374 570.79 351.81 570.79 351.81L567.88 344.14C567.88 344.14 588.75 334.37 587.17 326.44C585.58 318.52 604.08 345.47 604.08 345.47Z" /><path class="shp7" d="M597.74 355.5L609.36 378.22C609.36 378.22 606.72 389.32 602.49 390.38C598.26 391.43 580.3 376.64 580.3 376.64L597.74 355.5Z" /><path class="shp6" d="M608.3 386.68L629.97 415.21L681.74 453.78C681.74 453.78 719.26 461.7 710.8 467.52C702.35 473.33 678.05 462.23 678.05 462.23C678.05 462.23 625.74 434.23 614.64 422.61C603.55 410.98 582.94 391.43 582.94 391.43L608.3 386.68Z" /><path class="shp5" d="M579.24 431.06L585.58 441.1L623.42 429.19C625.47 428.53 627.58 428.1 629.71 427.89C631.85 427.68 634 427.71 636.14 427.97C638.27 428.22 640.37 428.71 642.39 429.42C644.42 430.13 646.37 431.05 648.19 432.18C654.8 436.34 659.03 442.95 649.51 452.72C630.49 472.27 617.81 461.7 617.81 461.7C617.81 461.7 553.88 491.82 543.32 477.03C532.75 462.23 532.22 454.83 532.22 454.83C532.22 454.83 572.9 429.47 579.24 431.06Z" /><path class="shp7" d="M658.5 465.93C658.5 465.93 675.4 477.03 655.33 482.31C635.25 487.59 620.46 480.2 620.46 480.2C620.46 480.2 603.02 480.2 603.02 471.21C603.02 462.23 608.83 461.18 608.83 461.18L626.8 463.82C626.8 463.82 648.46 458.01 658.5 465.93Z" /><path class="shp5" d="M625.17 318.35C625.56 318.56 625.95 318.76 626.36 318.94C626.76 319.12 627.17 319.28 627.59 319.43C628.01 319.58 628.43 319.71 628.86 319.83C629.28 319.95 629.71 320.05 630.15 320.13C630.58 320.21 631.03 320.23 631.47 320.18C631.91 320.13 632.33 320.01 632.74 319.84C633.15 319.66 633.53 319.43 633.86 319.15C634.2 318.87 634.5 318.53 634.74 318.17C634.84 317.95 634.92 317.72 635 317.49C635.07 317.27 635.12 317.03 635.17 316.8C635.21 316.56 635.24 316.33 635.26 316.09C635.27 315.85 635.28 315.61 635.27 315.37C635.33 312.47 635.12 309.33 633.28 307.09C632.11 305.66 630.4 304.76 629.19 303.36C628.99 303.1 628.79 302.84 628.6 302.56C628.42 302.29 628.24 302.02 628.06 301.73C627.89 301.45 627.73 301.16 627.57 300.87C627.41 300.58 627.26 300.29 627.12 299.99C624.77 295.56 621.28 291.31 616.43 290.03C615.92 289.92 615.41 289.83 614.89 289.76C614.37 289.68 613.85 289.62 613.33 289.58C612.81 289.54 612.29 289.52 611.76 289.52C611.24 289.51 610.72 289.53 610.19 289.56L597.99 289.73C597.49 289.71 597 289.72 596.51 289.73C596.01 289.75 595.52 289.79 595.03 289.84C594.54 289.89 594.05 289.96 593.56 290.05C593.08 290.14 592.59 290.24 592.12 290.36C588.19 291.55 585.33 294.85 582.71 298.01C582.2 298.59 581.7 299.18 581.22 299.78C580.74 300.37 580.28 300.99 579.83 301.61C579.38 302.23 578.94 302.86 578.52 303.5C578.1 304.15 577.7 304.8 577.31 305.46C576.79 306.44 576.32 307.45 575.93 308.49C575.53 309.52 575.2 310.59 574.94 311.66C574.68 312.74 574.49 313.84 574.37 314.94C574.24 316.05 574.19 317.16 574.21 318.27C574.21 318.55 574.21 318.84 574.23 319.12C574.25 319.41 574.27 319.69 574.31 319.97C574.35 320.26 574.39 320.54 574.45 320.82C574.51 321.1 574.57 321.38 574.65 321.65C574.74 321.91 574.84 322.16 574.94 322.41C575.04 322.65 575.14 322.9 575.25 323.14C575.37 323.39 575.48 323.63 575.6 323.87C575.72 324.11 575.85 324.34 575.98 324.58C578.27 329.07 579.63 334.69 577.05 339.03C581.53 337.2 585.96 334.8 588.92 330.97C590.24 329.26 591.27 327.25 593.04 325.99C594.8 324.73 597.67 324.63 598.8 326.47C598.89 326.66 598.98 326.85 599.05 327.04C599.12 327.24 599.19 327.44 599.23 327.64C599.28 327.85 599.32 328.05 599.34 328.26C599.37 328.47 599.38 328.68 599.38 328.89C599.37 329.24 599.38 329.58 599.4 329.93C599.42 330.27 599.46 330.62 599.52 330.96C599.58 331.3 599.65 331.64 599.74 331.98C599.82 332.31 599.93 332.64 600.05 332.97C600.17 333.29 600.35 333.59 600.58 333.85C600.81 334.11 601.07 334.33 601.37 334.5C601.67 334.67 602 334.79 602.34 334.85C602.68 334.92 603.03 334.92 603.37 334.87C605.67 334.22 605.45 330.69 607.22 329.08C608.57 327.87 610.64 328.1 612.37 327.55C612.86 327.36 613.34 327.12 613.78 326.83C614.23 326.55 614.64 326.22 615.02 325.85C615.39 325.48 615.73 325.07 616.02 324.63C616.32 324.19 616.56 323.72 616.76 323.23C617.41 321.76 617.4 317.92 618.64 317.12C620.19 316.12 623.73 317.71 625.17 318.35Z" /><path class="shp7" d="M566 341.64C566.26 341.57 566.53 341.51 566.81 341.48C567.08 341.44 567.35 341.43 567.63 341.43C567.9 341.43 568.18 341.45 568.45 341.48C568.72 341.52 568.99 341.57 569.26 341.65C572.65 342.56 580.26 344.97 581.89 348.64C584 353.39 591.4 360.79 591.4 360.79C591.4 360.79 601.43 370.83 599.32 377.7C597.21 384.56 589.28 392.49 589.28 392.49C589.28 392.49 591.4 425.25 580.83 433.7C570.26 442.15 566.03 436.34 566.03 444.27C566.03 452.19 533.28 477.03 526.94 461.7C526.94 461.7 530.11 433.17 529.05 423.13C528.01 413.24 529.53 351.51 566 341.64Z" /><path class="shp7" d="M582.94 354.98C582.94 354.98 615.17 378.75 609.36 388.79C609.36 388.79 589.81 398.3 585.58 397.77C581.36 397.24 564.98 378.75 560.75 377.17C556.52 375.58 554.41 347.05 582.94 354.98Z" /><path class="shp5" d="M493.81 376.28C488.8 377.97 484.26 381.93 483.23 387.12C482.75 389.53 483.05 392.03 482.65 394.45C481.72 400.06 477.31 404.35 473.25 408.33C469.19 412.31 464.99 416.93 464.69 422.61C464.37 428.83 468.88 434.66 468.1 440.84C467.19 448.02 459.61 452.67 457.74 459.66C456.48 464.33 458.02 469.36 460.54 473.48C465.35 481.33 473.57 486.66 482.32 489.52C491.08 492.38 500.4 492.98 509.6 493.07C520.82 493.19 532.99 492.23 541.41 484.83C542.6 483.77 543.69 482.61 544.66 481.35C545.63 480.1 546.49 478.75 547.21 477.34C547.93 475.92 548.52 474.44 548.97 472.91C549.41 471.39 549.71 469.82 549.87 468.24C550.67 459.67 547.09 450.81 549.56 442.57C551.11 437.38 555.01 432.64 554.43 427.25C553.86 421.99 549.26 418.25 546.1 414C543.16 410.03 541.37 405.33 539.62 400.71L533.62 384.89C532.44 381.78 531.15 378.5 528.52 376.46C523.61 372.64 515.7 373.39 509.95 374.18C504.62 374.91 498.94 374.55 493.81 376.28Z" /><path class="shp8" d="M495.69 422.38C495.69 422.38 498.35 431.01 478.41 440.98C458.48 450.94 480.41 461.57 480.41 461.57L503.66 466.89C503.66 466.89 527.58 463.57 530.24 459.58C532.89 455.59 537.54 442.31 536.21 440.31C535.97 439.96 535.71 439.61 535.45 439.27C535.18 438.92 534.91 438.58 534.64 438.25C534.36 437.92 534.08 437.59 533.79 437.27C533.49 436.95 533.2 436.64 532.89 436.33C532.59 436.02 516.95 433.67 517.61 426.36C518.28 419.05 495.69 422.38 495.69 422.38Z" /><path class="shp2" d="M495.69 422.38C495.69 422.38 498.35 431.01 478.41 440.98C458.48 450.94 480.41 461.57 480.41 461.57L503.66 466.89C503.66 466.89 527.58 463.57 530.24 459.58C532.89 455.59 537.54 442.31 536.21 440.31C535.97 439.96 535.71 439.61 535.45 439.27C535.18 438.92 534.91 438.58 534.64 438.25C534.36 437.92 534.08 437.59 533.79 437.27C533.49 436.95 533.2 436.64 532.89 436.33C532.59 436.02 516.95 433.67 517.61 426.36C518.28 419.05 495.69 422.38 495.69 422.38Z" /><path class="shp8" d="M508.64 436C496.89 436 487.38 426.49 487.38 414.74C487.38 402.98 496.89 393.48 508.64 393.48C520.4 393.48 529.9 402.98 529.9 414.74C529.9 426.49 520.4 436 508.64 436Z" /><path class="shp9" d="M506.32 459.58C506.32 459.58 480.71 457.71 480.23 440.04C480.23 440.04 471.11 438.99 468.45 441.64C465.79 444.3 457.15 446.29 457.15 452.94C457.15 459.58 471.77 479.51 471.77 479.51C471.77 479.51 479.74 506.09 476.42 510.74C473.1 515.39 472.44 527.35 472.44 527.35C472.44 527.35 505.65 524.69 510.97 527.35C516.28 530 537.54 530 538.87 527.35C540.2 524.69 537.54 491.47 537.54 491.47C537.54 491.47 543.52 483.5 542.19 474.2L558.14 455.59C558.14 455.59 552.16 437.66 542.86 437.66C542.86 437.66 530.24 434.33 529.9 436C529.57 437.66 536.21 456.26 506.32 459.58Z" /><path class="shp8" d="M446.52 518.05C446.52 518.05 452.5 527.35 467.78 529.34C483.07 531.33 485.72 526.02 484.39 524.69C483.07 523.36 467.12 517.38 467.12 517.38L457.82 510.07L446.52 518.05Z" /><path class="shp8" d="M555.48 510.07L538.21 520.04C538.21 520.04 515.62 518.71 524.26 525.35C532.89 532 548.84 529.34 548.84 529.34L564.12 522.03L555.48 510.07Z" /><path class="shp5" d="M469.11 527.35C469.11 527.35 453.17 566.54 472.44 572.52C491.7 578.5 544.85 577.17 556.81 569.2C568.77 561.23 572.09 550.6 570.1 547.28C568.1 543.96 554.82 534.65 545.52 533.99C536.21 533.33 469.11 527.35 469.11 527.35Z" /><path class="shp10" d="M469.11 527.35C469.11 527.35 453.17 566.54 472.44 572.52C491.7 578.5 544.85 577.17 556.81 569.2C568.77 561.23 572.09 550.6 570.1 547.28C568.1 543.96 554.82 534.65 545.52 533.99C536.21 533.33 469.11 527.35 469.11 527.35Z" /><path class="shp5" d="M544.38 529.78C544.38 529.78 600.66 509.41 599.99 533.99C599.33 558.57 564.12 565.22 564.12 565.22L553.49 566.54L495.02 568.54C495.02 568.54 497.02 557.91 492.37 556.58C492.37 556.58 507.65 552.59 508.31 551.93C508.98 551.26 546.84 537.98 549.5 537.31C552.16 536.65 560.13 531.33 566.11 532C566.11 532 572.75 526.68 580.06 528.01L559.47 529.34L544.38 529.78Z" /><path class="shp2" d="M544.38 529.78C544.38 529.78 600.66 509.41 599.99 533.99C599.33 558.57 564.12 565.22 564.12 565.22L553.49 566.54L495.02 568.54C495.02 568.54 497.02 557.91 492.37 556.58C492.37 556.58 507.65 552.59 508.31 551.93C508.98 551.26 546.84 537.98 549.5 537.31C552.16 536.65 560.13 531.33 566.11 532C566.11 532 572.75 526.68 580.06 528.01L559.47 529.34L544.38 529.78Z" /><path class="shp5" d="M534.43 533.08L541.53 549.27L584.71 533.99L588.04 525.35L576.74 523.36L554.03 527.35L544.19 530L534.43 533.08L534.43 533.08Z" /><path class="shp2" d="M534.43 533.08L541.53 549.27L584.71 533.99L588.04 525.35L576.74 523.36L554.03 527.35L544.19 530L534.43 533.08L534.43 533.08Z" /><path class="shp5" d="M442.54 552.59C442.54 552.59 455.16 568.54 469.78 572.52C484.39 576.51 492.37 571.2 492.37 571.2L487.72 552.59L485.72 540.63L477.09 534.65L459.81 526.68L439.22 520.04C439.22 520.04 430.58 518.71 430.58 520.04C430.58 521.37 438.55 541.3 438.55 541.3L442.54 552.59Z" /><path class="shp0" d="M457.82 561.23C457.82 561.23 460.48 580.5 463.8 581.82C467.12 583.15 477.09 580.5 479.74 579.17C482.4 577.84 491.43 571.71 491.43 571.71C491.43 571.71 459.81 559.9 457.82 561.23Z" /><path class="shp8" d="M518.28 563.22L530.9 565.22L529.57 580.5L511.96 576.22L518.28 563.22L518.28 563.22Z" /><path class="shp0" d="M526.19 567.48C526.19 567.48 520.27 574.52 526.25 578.5L530.24 581.82C530.24 581.82 543.52 584.48 544.85 585.81C546.18 587.14 551.5 583.82 551.5 583.82C551.5 583.82 552.16 563.89 551.5 562.56C550.83 561.23 542.86 559.9 542.19 561.23C541.53 562.56 533.56 564.55 528.91 563.22L526.19 567.48Z" /><path class="shp5" d="M473.1 532C473.1 532 426.59 504.76 419.29 514.72C411.98 524.69 404 538.64 425.26 549.27C446.52 559.9 512.96 581.82 512.96 581.82C512.96 581.82 522.93 566.54 522.93 562.56C522.93 562.56 487.72 546.61 481.74 545.28C475.76 543.96 451.84 528.68 448.52 527.35C445.2 526.02 440.55 522.03 440.55 522.03L473.1 532Z" /><path class="shp9" d="M459.81 449.62L457.15 451.61C457.15 451.61 451.18 466.89 450.51 475.53C449.85 484.16 441.87 510.74 442.54 514.06C443.2 517.38 443.87 520.04 447.85 523.36C447.85 523.36 453.17 511.4 462.47 513.39L473.76 472.2L459.81 449.62Z" /><path class="shp9" d="M552.82 449.62L558.14 455.59C558.14 455.59 561.46 463.57 561.46 465.56C561.46 467.55 568.1 496.79 568.77 498.11C569.43 499.44 572.09 516.05 568.77 520.04C565.45 524.02 559.47 526.68 559.47 526.68C559.47 526.68 563.45 512.73 550.83 512.07L552.16 506.75L540.2 466.89L552.82 449.62Z" /><path class="shp1" d="M461.14 495.36L461.14 530.35C461.14 531.45 461.35 532.53 461.77 533.54C462.18 534.55 462.79 535.48 463.56 536.26C464.33 537.04 465.24 537.66 466.25 538.09C467.25 538.52 468.34 538.75 469.43 538.76L542.61 539.85C543.7 539.86 544.78 539.67 545.8 539.27C546.81 538.88 547.74 538.29 548.53 537.54C549.32 536.79 549.95 535.9 550.4 534.91C550.85 533.92 551.1 532.85 551.15 531.76L552.49 496.76C552.54 495.64 552.35 494.52 551.96 493.47C551.56 492.42 550.96 491.46 550.19 490.65C549.42 489.83 548.49 489.18 547.46 488.73C546.44 488.28 545.33 488.04 544.21 488.02L469.68 486.94C468.56 486.93 467.45 487.13 466.42 487.55C465.38 487.96 464.44 488.58 463.65 489.36C462.85 490.15 462.22 491.08 461.79 492.11C461.36 493.14 461.14 494.24 461.14 495.36Z" /><path class="shp5" d="M509.89 414.05C497.24 414.05 487.01 408.55 487.01 401.73C487.01 394.92 497.24 389.41 509.89 389.41C522.55 389.41 532.77 394.92 532.77 401.73C532.77 408.55 522.55 414.05 509.89 414.05Z" /><path class="shp0" d="M505.99 519.04C503.05 519.04 500.67 516.67 500.67 513.73C500.67 510.79 503.05 508.41 505.99 508.41C508.92 508.41 511.3 510.79 511.3 513.73C511.3 516.67 508.92 519.04 505.99 519.04Z" /></svg>