<svg xmlns="http://www.w3.org/2000/svg" viewBox="0 0 966 818" width="720" height="610"><style>tspan { white-space:pre }.shp0 { fill: #f2f2f2 } .shp1 { fill: #3f3d56 } .shp2 { fill: none } .shp3 { fill: #fa5959 } .shp4 { opacity: 0.302;fill: #fa5959 } .shp5 { fill: none;stroke: #2f2e41;stroke-width: 2 } .shp6 { fill: #ff6584 } .shp7 { opacity: 0.102;fill: #000000 } .shp8 { fill: #575a89 } .shp9 { fill: #2f2e41 } .shp10 { fill: #ffb9b9 } </style><path class="shp0" d="M517.29 755.94C274.89 737.49 -14.18 549.67 0.54 356.28C15.26 162.89 295.23 -17.14 537.62 1.31C780.02 19.75 919.56 381.17 904.84 574.56C890.12 767.95 759.69 774.38 517.29 755.94Z" /><path class="shp1" d="M1.25 71.01L461.25 71.01L461.25 547.01L1.25 547.01L1.25 71.01Z" /><path class="shp2" d="M233.52 213.04C232.77 213.02 232.01 213.01 231.25 213.01C188.07 213.03 150.23 241.89 138.78 283.52C127.33 325.15 145.1 369.3 182.19 391.39C219.29 413.49 266.57 408.09 297.73 378.19C328.88 348.3 336.23 301.28 315.69 263.3L236.25 323.01L233.52 213.04Z" /><path class="shp3" d="M315.69 263.3C336.26 301.3 328.92 348.36 297.75 378.29C266.57 408.21 219.25 413.62 182.13 391.51C145 369.4 127.22 325.21 138.69 283.55C150.15 241.88 188.03 213.01 231.25 213.01C232.01 213.01 232.77 213.02 233.52 213.04L232.51 172.02C232.09 172.02 231.67 172.01 231.25 172.01C169.04 172.03 114.67 213.96 98.83 274.11C83 334.26 109.7 397.53 163.83 428.17C217.97 458.8 285.95 449.11 329.36 404.57C372.78 360.02 380.73 291.82 348.72 238.48L315.69 263.3Z" /><path class="shp4" d="M315.69 263.3L348.72 238.48C342.71 228.48 335.45 219.28 327.11 211.11C318.77 202.94 309.42 195.88 299.29 190.08C289.16 184.29 278.33 179.81 267.06 176.77C255.79 173.72 244.18 172.13 232.51 172.02L233.52 213.04C241.94 213.23 250.3 214.54 258.38 216.92C266.45 219.29 274.18 222.72 281.37 227.12C288.55 231.51 295.12 236.83 300.92 242.94C306.71 249.05 311.68 255.9 315.69 263.3L315.69 263.3Z" /><path class="shp5" d="M300.14 427.44L348.25 476.01" /><path class="shp5" d="M332.91 129.91L299.47 189.54" /><path class="shp0" d="M309.25 476.01L388.25 476.01L388.25 494.01L309.25 494.01L309.25 476.01Z" /><path class="shp0" d="M291.25 112.01L370.25 112.01L370.25 130.01L291.25 130.01L291.25 112.01Z" /><path class="shp1" d="M505.25 67.01L965.25 67.01L965.25 259.01L505.25 259.01L505.25 67.01Z" /><path class="shp6" d="M691.08 215.01L639.08 215.01C638.19 209.89 637.53 204.74 637.08 199.56C636.64 194.39 636.41 189.2 636.41 184.01C636.41 178.81 636.64 173.62 637.08 168.45C637.53 163.28 638.19 158.12 639.08 153.01L691.08 153.01C689.62 158.04 688.52 163.17 687.79 168.35C687.05 173.54 686.68 178.77 686.68 184.01C686.68 189.25 687.05 194.48 687.79 199.66C688.52 204.85 689.62 209.98 691.08 215.01Z" /><path class="shp6" d="M836.41 215.01L784.41 215.01C783.52 209.89 782.86 204.74 782.41 199.56C781.97 194.39 781.75 189.2 781.75 184.01C781.75 178.81 781.97 173.62 782.41 168.45C782.86 163.28 783.52 158.12 784.41 153.01L836.41 153.01C834.95 158.04 833.85 163.17 833.12 168.35C832.38 173.54 832.01 178.77 832.01 184.01C832.01 189.25 832.38 194.48 833.12 199.66C833.85 204.85 834.95 209.98 836.41 215.01L836.41 215.01Z" /><path class="shp3" d="M617.25 173.01L565.25 173.01C564.36 167.89 563.69 162.74 563.25 157.56C562.81 152.39 562.58 147.2 562.58 142.01C562.58 136.81 562.81 131.62 563.25 126.45C563.69 121.28 564.36 116.12 565.25 111.01L617.25 111.01C615.79 116.04 614.69 121.17 613.96 126.35C613.22 131.54 612.85 136.77 612.85 142.01C612.85 147.25 613.22 152.48 613.96 157.66C614.69 162.85 615.79 167.98 617.25 173.01Z" /><path class="shp3" d="M710.25 173.01L762.25 173.01C763.13 167.89 763.8 162.74 764.24 157.56C764.68 152.39 764.91 147.2 764.91 142.01C764.91 136.81 764.68 131.62 764.24 126.45C763.8 121.28 763.13 116.12 762.25 111.01L710.25 111.01C711.7 116.04 712.8 121.17 713.54 126.35C714.27 131.54 714.64 136.77 714.64 142.01C714.64 147.25 714.27 152.48 713.54 157.66C712.8 162.85 711.7 167.98 710.25 173.01Z" /><path class="shp3" d="M853.25 173.01L905.25 173.01C906.13 167.89 906.8 162.74 907.24 157.56C907.68 152.39 907.91 147.2 907.91 142.01C907.91 136.81 907.68 131.62 907.24 126.45C906.8 121.28 906.13 116.12 905.25 111.01L853.25 111.01C854.7 116.04 855.8 121.17 856.54 126.35C857.27 131.54 857.64 136.77 857.64 142.01C857.64 147.25 857.27 152.48 856.54 157.66C855.8 162.85 854.7 167.98 853.25 173.01Z" /><path class="shp1" d="M877.25 758.01C877.25 777.95 784.07 817.22 669.75 817.22C555.42 817.22 463.25 777.95 463.25 758.01C463.25 738.07 555.42 745.01 669.75 745.01C784.07 745.01 877.25 738.07 877.25 758.01Z" /><path class="shp7" d="M877.25 758.01C877.25 777.95 784.07 817.22 669.75 817.22C555.42 817.22 463.25 777.95 463.25 758.01C463.25 738.07 555.42 745.01 669.75 745.01C784.07 745.01 877.25 738.07 877.25 758.01Z" /><path class="shp1" d="M669.75 794.22C555.27 794.22 462.75 778.08 462.75 758.12C462.75 738.15 555.27 722.01 669.75 722.01C784.22 722.01 876.75 738.15 876.75 758.12C876.75 778.08 784.22 794.22 669.75 794.22Z" /><path class="shp7" d="M669.75 786.37C580.16 786.37 507.75 773.74 507.75 758.12C507.75 742.49 580.16 729.86 669.75 729.86C759.33 729.86 831.75 742.49 831.75 758.12C831.75 773.74 759.33 786.37 669.75 786.37Z" /><path class="shp3" d="M598.25 544.01L546.25 544.01C545.36 538.89 544.69 533.74 544.25 528.56C543.81 523.39 543.58 518.2 543.58 513.01C543.58 507.81 543.81 502.62 544.25 497.45C544.69 492.28 545.36 487.12 546.25 482.01L598.25 482.01C596.79 487.04 595.69 492.17 594.96 497.35C594.22 502.54 593.85 507.77 593.85 513.01C593.85 518.25 594.22 523.48 594.96 528.66C595.69 533.85 596.79 538.98 598.25 544.01Z" /><path class="shp8" d="M762.76 230.06L769.91 233.63C769.91 233.63 808.65 330.76 795.54 354C782.43 377.24 741.31 420.74 741.31 420.74L733.56 398.7L765.25 330.01L762.76 230.06Z" /><path class="shp7" d="M762.76 230.06L769.91 233.63C769.91 233.63 808.65 330.76 795.54 354C782.43 377.24 741.31 420.74 741.31 420.74L733.56 398.7L765.25 330.01L762.76 230.06Z" /><path class="shp0" d="M755.02 715.72C755.02 715.72 765.15 738.96 759.78 740.74C754.42 742.53 747.86 742.53 741.31 742.53C734.75 742.53 727.01 740.15 725.82 737.76C724.62 735.38 730.58 719.89 730.58 719.89L755.02 715.72Z" /><path class="shp0" d="M618.55 727.63C618.55 727.63 625.11 748.49 622.13 749.68C619.15 750.87 609.62 756.24 604.25 754.45C598.89 752.66 590.55 748.49 588.76 746.7C586.97 744.91 588.76 735.38 588.76 735.38L597.1 723.46L618.55 727.63Z" /><path class="shp9" d="M735.95 417.76L744.49 420.74C744.49 420.74 746.67 441 744.29 448.16C741.91 455.31 736.54 507.15 739.52 517.88C742.5 528.6 740.71 545.88 740.71 545.88C740.71 545.88 758.59 604.28 755.02 616.8C751.44 629.31 752.04 647.19 755.61 656.13C759.19 665.06 762.17 668.64 760.38 675.79C758.59 682.94 755.02 686.52 758.59 692.48C762.17 698.43 769.32 700.22 765.74 705.59C762.17 710.95 758.59 715.12 759.78 718.69C760.97 722.27 728.2 728.83 725.22 723.46C725.22 723.46 734.75 715.12 725.22 710.35C715.69 705.59 718.67 687.71 718.67 687.71C718.67 687.71 701.98 619.18 702.58 613.82C703.17 608.45 676.36 525.03 676.36 525.03C676.36 525.03 637.03 644.21 634.64 649.57C632.26 654.93 637.62 668.04 634.64 671.62C631.66 675.19 635.83 684.13 631.66 687.71C627.49 691.28 638.81 704.39 631.66 709.16C624.51 713.93 620.94 728.83 621.53 731.8C622.13 734.78 591.74 731.21 591.74 727.04C591.74 722.87 592.33 719.29 589.35 712.14C586.38 704.99 584.59 700.22 586.97 697.84C589.35 695.45 591.14 692.48 588.76 684.13C586.38 675.79 592.33 650.17 590.55 645.4C588.76 640.63 589.35 608.45 589.35 608.45C589.35 608.45 595.31 561.38 593.53 553.63C591.74 545.88 593.53 544.1 594.12 541.12C594.72 538.14 598.29 505.96 600.68 501.19C603.06 496.42 606.04 414.78 619.75 410.61C633.45 406.44 735.95 417.76 735.95 417.76Z" /><path class="shp9" d="M740.71 737.17C740.71 737.17 762.17 733.59 763.36 737.17C764.55 740.74 768.13 768.75 759.78 769.35C751.44 769.94 737.14 771.73 734.75 766.37C732.37 761 721.05 757.43 721.05 757.43C721.05 757.43 704.36 752.66 704.36 747.3C704.36 741.94 704.96 733.59 707.94 733C710.92 732.4 722.84 725.85 722.84 723.46C722.84 721.08 740.71 737.17 740.71 737.17Z" /><path class="shp9" d="M606.64 746.7C606.64 746.7 622.13 741.94 625.7 744.91C629.28 747.89 634.05 780.67 625.7 780.07C617.36 779.48 595.31 783.05 594.12 778.29C592.93 773.52 576.84 772.33 576.84 772.33C576.84 772.33 559.56 763.98 560.75 755.04C561.94 746.11 563.73 743.13 570.88 742.53C578.03 741.94 583.4 733.59 583.99 733C584.59 732.4 589.84 728.04 590.49 732.9C591.14 737.76 598.89 748.49 606.64 746.7Z" /><path class="shp10" d="M655.5 169.27C635.4 169.27 619.15 153.02 619.15 132.92C619.15 112.82 635.4 96.57 655.5 96.57C675.6 96.57 691.85 112.82 691.85 132.92C691.85 153.02 675.6 169.27 655.5 169.27Z" /><path class="shp10" d="M687.08 141.27C687.08 141.27 689.47 181.19 698.4 184.77C707.34 188.34 653.12 188.34 653.12 188.34C653.12 188.34 652.52 163.31 644.77 157.36C637.03 151.4 687.08 141.27 687.08 141.27Z" /><path class="shp8" d="M701.38 175.83C701.38 175.83 664.44 162.12 651.33 183.57C651.33 183.57 609.62 203.24 606.64 215.16C603.66 227.08 631.66 316.46 631.66 316.46C631.66 316.46 631.66 390.35 625.7 398.1C619.75 405.85 608.42 414.19 616.17 415.98C623.92 417.76 745.48 430.87 744.89 423.13C744.29 415.38 736.54 408.83 744.89 404.06C753.23 399.29 746.08 393.93 751.44 378.43C756.8 362.94 769.91 234.82 769.91 234.82C769.91 234.82 760.97 218.73 759.19 216.95C757.4 215.16 701.38 175.83 701.38 175.83Z" /><path class="shp10" d="M594.72 436.83C594.72 436.83 571.48 489.27 591.74 496.42C612 503.57 610.81 441 610.81 441L594.72 436.83Z" /><path class="shp9" d="M672.94 139.68C670.83 135.46 667.67 130.59 662.96 130.85C660.58 130.98 658.53 132.46 656.4 133.55C654.28 134.64 651.56 135.31 649.62 133.92C646.78 131.9 647.66 127.08 645.12 124.69C642.35 122.08 636.77 123.54 634.98 120.17C634.02 118.38 634.8 116.15 634.38 114.16C631.48 114.21 628.48 114.25 625.79 113.16C623.1 112.07 620.77 109.54 620.85 106.64C620.89 106.15 620.97 105.66 621.11 105.19C621.25 104.71 621.43 104.25 621.66 103.81C621.89 103.37 622.16 102.96 622.47 102.57C622.78 102.19 623.13 101.83 623.51 101.52C627.17 98.18 632.47 97.55 636.99 95.53C640.59 93.92 643.72 91.41 647.25 89.67C653.34 86.68 660.36 86.1 667.12 86.62C677.37 87.4 687.74 90.8 695.17 97.91C702.61 105.01 706.54 116.21 703.34 125.98C701.52 131.52 697.67 136.17 695.52 141.59C695.19 142.51 694.89 143.45 694.61 144.39C694.33 145.33 694.08 146.28 693.85 147.24C693.62 148.19 693.42 149.16 693.24 150.12C693.07 151.09 692.92 152.06 692.8 153.03L691.29 162.29C691.52 160.85 688.36 157.24 687.32 156.38C685.06 154.5 681.77 155.14 679.67 153.4C676.56 150.83 674.76 143.35 672.94 139.68Z" /><path class="shp7" d="M620.34 210.99L610.81 216.95C610.81 216.95 595.31 310.5 597.1 323.61C598.89 336.72 589.95 410.61 592.93 416.57C595.91 422.53 597.1 423.72 597.1 427.3C597.1 430.87 588.76 443.98 594.12 446.37C599.48 448.75 619.15 452.92 619.15 446.37C619.15 439.81 615.57 430.87 622.13 426.7C628.68 422.53 633.45 395.72 633.45 395.72C633.45 395.72 636.43 368.3 639.41 362.94C642.39 357.58 646.56 337.91 646.56 329.57C646.56 321.23 653.71 287.26 649.54 269.98C645.37 252.7 644.18 206.22 620.34 210.99Z" /><path class="shp8" d="M616.17 209.2L606.64 215.16C606.64 215.16 591.14 308.71 592.93 321.82C594.72 334.93 585.78 408.83 588.76 414.78C591.74 420.74 592.93 421.94 592.93 425.51C592.93 429.09 584.59 442.2 589.95 444.58C595.31 446.96 614.98 451.13 614.98 444.58C614.98 438.02 611.4 429.09 617.96 424.92C624.51 420.74 629.28 393.93 629.28 393.93C629.28 393.93 632.26 366.52 635.24 361.15C638.22 355.79 642.39 336.13 642.39 327.78C642.39 319.44 649.54 285.47 645.37 268.19C641.2 250.91 640.01 204.43 616.17 209.2Z" /></svg>