<svg xmlns="http://www.w3.org/2000/svg" viewBox="0 0 860 768" width="720" height="643"><defs><linearGradient id="grd1" gradientUnits="userSpaceOnUse"  x1="344.921" y1="369.397" x2="505.399" y2="369.397"><stop offset="0" stop-color="#808080" stop-opacity="0.25" /><stop offset="0.535" stop-color="#808080" stop-opacity="0.12" /><stop offset="1" stop-color="#808080" stop-opacity="0.1" /></linearGradient></defs><style>tspan { white-space:pre }.shp0 { fill: #3f3d56 } .shp1 { opacity: 0.039;fill: #6c63ff } .shp2 { fill: url(#grd1) } .shp3 { fill: #3ad29f } .shp4 { opacity: 0.502;fill: #4d8af0 } .shp5 { opacity: 0.502;fill: #f55f44 } .shp6 { opacity: 0.502;fill: #47e6b1 } .shp7 { fill: #47e6b1 } .shp8 { fill: #70add8 } .shp9 { fill: #ffb9b9 } .shp10 { fill: #575a89 } .shp11 { opacity: 0.102;fill: #000000 } .shp12 { fill: #2f2e41 } </style><path class="shp0" d="M431.4 10.75L161.7 176.72C161.7 176.72 161.7 519.03 431.4 705.75C701.1 519.03 701.1 176.72 701.1 176.72L431.4 10.75Z" /><path class="shp1" d="M433.01 10.75L428.4 13.58L428.4 702.51C429.93 703.59 431.46 704.68 433.01 705.75C702.71 519.03 702.71 176.72 702.71 176.72L433.01 10.75Z" /><g style="opacity: 0.702"><path class="shp2" d="M366.11 347.07L416.95 393.67L479.98 302.75L505.4 323.94L416.95 436.04L344.92 355.54L366.11 347.07L366.11 347.07Z" /></g><path class="shp3" d="M378.11 349.87L419.35 387.67L477.78 301.75L498.4 318.94L419.35 422.04L360.92 356.74L378.11 349.87L378.11 349.87Z" /><path class="shp4" d="M165.29 47.96C164.88 47.78 164.51 47.53 164.19 47.21C163.87 46.9 163.61 46.53 163.42 46.13C163.23 45.72 163.12 45.28 163.09 44.84C163.06 44.39 163.11 43.94 163.24 43.52C163.25 43.48 163.26 43.45 163.27 43.42C163.28 43.38 163.29 43.35 163.29 43.31C163.3 43.28 163.31 43.25 163.31 43.21C163.32 43.18 163.32 43.14 163.32 43.11L163.32 43.11C163.35 42.71 163.24 42.32 163.03 41.99C162.81 41.66 162.49 41.4 162.12 41.27C161.75 41.13 161.34 41.12 160.96 41.23C160.58 41.34 160.25 41.57 160.01 41.89L160.01 41.89C159.99 41.91 159.97 41.94 159.95 41.97C159.93 42 159.92 42.03 159.9 42.06C159.88 42.09 159.87 42.12 159.85 42.15C159.84 42.18 159.82 42.22 159.81 42.25C159.63 42.66 159.38 43.03 159.06 43.35C158.75 43.67 158.38 43.93 157.98 44.12C157.57 44.31 157.13 44.42 156.69 44.45C156.24 44.48 155.79 44.43 155.37 44.3C155.33 44.29 155.3 44.28 155.27 44.27C155.23 44.26 155.2 44.25 155.17 44.24C155.13 44.24 155.1 44.23 155.06 44.23C155.03 44.22 154.99 44.22 154.96 44.22L154.96 44.22C154.56 44.19 154.17 44.3 153.84 44.51C153.51 44.73 153.26 45.05 153.12 45.42C152.98 45.79 152.97 46.19 153.08 46.57C153.19 46.95 153.42 47.29 153.74 47.53L153.74 47.53C153.77 47.55 153.79 47.57 153.82 47.59C153.85 47.6 153.88 47.62 153.91 47.64C153.94 47.66 153.97 47.67 154.01 47.69C154.04 47.7 154.07 47.72 154.1 47.73C154.51 47.91 154.88 48.16 155.2 48.47C155.52 48.79 155.78 49.15 155.97 49.56C156.16 49.97 156.27 50.4 156.3 50.85C156.33 51.3 156.28 51.74 156.15 52.17C156.14 52.2 156.13 52.24 156.12 52.27C156.11 52.3 156.1 52.34 156.1 52.37C156.09 52.41 156.08 52.44 156.08 52.48C156.07 52.51 156.07 52.54 156.07 52.58L156.07 52.58C156.04 52.97 156.15 53.37 156.36 53.7C156.58 54.03 156.9 54.28 157.27 54.42C157.64 54.56 158.05 54.57 158.43 54.46C158.81 54.35 159.14 54.12 159.38 53.8L159.38 53.8C159.4 53.77 159.42 53.74 159.44 53.71C159.46 53.69 159.47 53.66 159.49 53.63C159.51 53.59 159.52 53.56 159.54 53.53C159.55 53.5 159.57 53.47 159.58 53.44C159.76 53.03 160.01 52.65 160.32 52.33C160.64 52.02 161.01 51.76 161.41 51.57C161.82 51.38 162.26 51.27 162.7 51.24C163.15 51.21 163.6 51.26 164.02 51.39C164.06 51.4 164.09 51.41 164.12 51.42C164.16 51.43 164.19 51.44 164.22 51.44C164.26 51.45 164.29 51.46 164.33 51.46C164.36 51.46 164.4 51.47 164.43 51.47L164.43 51.47C164.83 51.49 165.22 51.39 165.55 51.17C165.88 50.96 166.13 50.64 166.27 50.27C166.41 49.9 166.42 49.49 166.31 49.11C166.2 48.73 165.97 48.4 165.65 48.16L165.65 48.16C165.62 48.14 165.59 48.12 165.57 48.1C165.54 48.08 165.51 48.06 165.48 48.05C165.45 48.03 165.42 48.01 165.38 48C165.35 47.98 165.32 47.97 165.29 47.96Z" /><path class="shp4" d="M19.29 372.96C18.88 372.78 18.51 372.53 18.19 372.21C17.87 371.9 17.61 371.53 17.42 371.13C17.23 370.72 17.12 370.28 17.09 369.84C17.06 369.39 17.11 368.94 17.24 368.52C17.25 368.48 17.26 368.45 17.27 368.42C17.28 368.38 17.29 368.35 17.29 368.31C17.3 368.28 17.31 368.25 17.31 368.21C17.32 368.18 17.32 368.14 17.32 368.11L17.32 368.11C17.35 367.71 17.24 367.32 17.03 366.99C16.81 366.66 16.49 366.4 16.12 366.27C15.75 366.13 15.34 366.12 14.96 366.23C14.58 366.34 14.25 366.57 14.01 366.89L14.01 366.89C13.99 366.91 13.97 366.94 13.95 366.97C13.93 367 13.92 367.03 13.9 367.06C13.88 367.09 13.87 367.12 13.85 367.15C13.84 367.18 13.82 367.22 13.81 367.25C13.63 367.66 13.38 368.03 13.06 368.35C12.75 368.67 12.38 368.93 11.98 369.12C11.57 369.31 11.13 369.42 10.69 369.45C10.24 369.48 9.79 369.43 9.37 369.3C9.33 369.29 9.3 369.28 9.27 369.27C9.23 369.26 9.2 369.25 9.17 369.24C9.13 369.24 9.1 369.23 9.06 369.23C9.03 369.22 8.99 369.22 8.96 369.22L8.96 369.22C8.56 369.19 8.17 369.3 7.84 369.51C7.51 369.73 7.26 370.05 7.12 370.42C6.98 370.79 6.97 371.19 7.08 371.57C7.19 371.95 7.42 372.29 7.74 372.53L7.74 372.53C7.77 372.55 7.79 372.57 7.82 372.59C7.85 372.6 7.88 372.62 7.91 372.64C7.94 372.66 7.97 372.67 8.01 372.69C8.04 372.7 8.07 372.72 8.1 372.73C8.51 372.91 8.88 373.16 9.2 373.47C9.52 373.79 9.78 374.15 9.97 374.56C10.16 374.97 10.27 375.4 10.3 375.85C10.33 376.3 10.28 376.74 10.15 377.17C10.14 377.2 10.13 377.24 10.12 377.27C10.11 377.3 10.1 377.34 10.1 377.37C10.09 377.41 10.08 377.44 10.08 377.48C10.07 377.51 10.07 377.54 10.07 377.58L10.07 377.58C10.04 377.97 10.15 378.37 10.36 378.7C10.58 379.03 10.9 379.28 11.27 379.42C11.64 379.56 12.05 379.57 12.43 379.46C12.81 379.35 13.14 379.12 13.38 378.8L13.38 378.8C13.4 378.77 13.42 378.74 13.44 378.71C13.46 378.69 13.47 378.66 13.49 378.63C13.51 378.59 13.52 378.56 13.54 378.53C13.55 378.5 13.57 378.47 13.58 378.44C13.76 378.03 14.01 377.65 14.32 377.33C14.64 377.02 15.01 376.76 15.41 376.57C15.82 376.38 16.26 376.27 16.7 376.24C17.15 376.21 17.6 376.26 18.02 376.39C18.06 376.4 18.09 376.41 18.12 376.42C18.16 376.43 18.19 376.44 18.22 376.44C18.26 376.45 18.29 376.46 18.33 376.46C18.36 376.46 18.4 376.47 18.43 376.47L18.43 376.47C18.83 376.49 19.22 376.39 19.55 376.17C19.88 375.96 20.13 375.64 20.27 375.27C20.41 374.9 20.42 374.49 20.31 374.11C20.2 373.73 19.97 373.4 19.65 373.16L19.65 373.16C19.62 373.14 19.59 373.12 19.57 373.1C19.54 373.08 19.51 373.06 19.48 373.05C19.45 373.03 19.42 373.01 19.38 373C19.35 372.98 19.32 372.97 19.29 372.96L19.29 372.96Z" /><path class="shp5" d="M748.4 260C745.08 260 742.4 257.32 742.4 254C742.4 250.68 745.08 248 748.4 248C751.72 248 754.4 250.68 754.4 254C754.4 257.32 751.72 260 748.4 260Z" /><path class="shp5" d="M121.4 689C118.08 689 115.4 686.32 115.4 683C115.4 679.68 118.08 677 121.4 677C124.72 677 127.4 679.68 127.4 683C127.4 686.32 124.72 689 121.4 689Z" /><path class="shp5" d="M850.4 491C847.08 491 844.4 488.32 844.4 485C844.4 481.68 847.08 479 850.4 479C853.72 479 856.4 481.68 856.4 485C856.4 488.32 853.72 491 850.4 491Z" /><path class="shp4" d="M704.29 76.96C703.88 76.78 703.51 76.53 703.19 76.21C702.87 75.9 702.61 75.53 702.42 75.13C702.23 74.72 702.12 74.28 702.09 73.84C702.06 73.39 702.11 72.94 702.24 72.52C702.25 72.48 702.26 72.45 702.27 72.42C702.28 72.38 702.29 72.35 702.29 72.31C702.3 72.28 702.31 72.25 702.31 72.21C702.32 72.18 702.32 72.14 702.32 72.11L702.32 72.11C702.35 71.71 702.24 71.32 702.03 70.99C701.81 70.66 701.49 70.4 701.12 70.27C700.75 70.13 700.34 70.12 699.96 70.23C699.58 70.34 699.25 70.57 699.01 70.89L699.01 70.89C698.99 70.91 698.97 70.94 698.95 70.97C698.93 71 698.92 71.03 698.9 71.06C698.88 71.09 698.87 71.12 698.85 71.15C698.84 71.18 698.82 71.22 698.81 71.25C698.63 71.66 698.38 72.03 698.06 72.35C697.75 72.67 697.38 72.93 696.98 73.12C696.57 73.31 696.13 73.42 695.69 73.45C695.24 73.48 694.79 73.43 694.37 73.3C694.33 73.29 694.3 73.28 694.27 73.27C694.23 73.26 694.2 73.25 694.17 73.24C694.13 73.24 694.1 73.23 694.06 73.23C694.03 73.22 693.99 73.22 693.96 73.22L693.96 73.22C693.56 73.19 693.17 73.3 692.84 73.51C692.51 73.73 692.26 74.05 692.12 74.42C691.98 74.79 691.97 75.19 692.08 75.57C692.19 75.95 692.42 76.29 692.74 76.53L692.74 76.53C692.77 76.55 692.79 76.57 692.82 76.59C692.85 76.6 692.88 76.62 692.91 76.64C692.94 76.66 692.97 76.67 693.01 76.69C693.04 76.7 693.07 76.72 693.1 76.73C693.51 76.91 693.88 77.16 694.2 77.47C694.52 77.79 694.78 78.15 694.97 78.56C695.16 78.97 695.27 79.4 695.3 79.85C695.33 80.3 695.28 80.74 695.15 81.17C695.14 81.2 695.13 81.24 695.12 81.27C695.11 81.3 695.1 81.34 695.1 81.37C695.09 81.41 695.08 81.44 695.08 81.48C695.07 81.51 695.07 81.54 695.07 81.58L695.07 81.58C695.04 81.97 695.15 82.37 695.36 82.7C695.58 83.03 695.9 83.28 696.27 83.42C696.64 83.56 697.05 83.57 697.43 83.46C697.81 83.35 698.14 83.12 698.38 82.8L698.38 82.8C698.4 82.77 698.42 82.74 698.44 82.71C698.46 82.69 698.47 82.66 698.49 82.63C698.51 82.59 698.52 82.56 698.54 82.53C698.55 82.5 698.57 82.47 698.58 82.44C698.76 82.03 699.01 81.65 699.32 81.33C699.64 81.02 700.01 80.76 700.41 80.57C700.82 80.38 701.26 80.27 701.7 80.24C702.15 80.21 702.6 80.26 703.02 80.39C703.06 80.4 703.09 80.41 703.12 80.42C703.16 80.43 703.19 80.44 703.22 80.44C703.26 80.45 703.29 80.46 703.33 80.46C703.36 80.46 703.4 80.47 703.43 80.47L703.43 80.47C703.83 80.49 704.22 80.39 704.55 80.17C704.88 79.96 705.13 79.64 705.27 79.27C705.41 78.9 705.42 78.49 705.31 78.11C705.2 77.73 704.97 77.4 704.65 77.16L704.65 77.16C704.62 77.14 704.59 77.12 704.57 77.1C704.54 77.08 704.51 77.06 704.48 77.05C704.45 77.03 704.42 77.01 704.38 77C704.35 76.98 704.32 76.97 704.29 76.96L704.29 76.96Z" /><path class="shp4" d="M804.29 704.96C803.88 704.78 803.51 704.53 803.19 704.21C802.87 703.9 802.61 703.53 802.42 703.13C802.23 702.72 802.12 702.28 802.09 701.84C802.06 701.39 802.11 700.94 802.24 700.52C802.25 700.48 802.26 700.45 802.27 700.42C802.28 700.38 802.29 700.35 802.29 700.31C802.3 700.28 802.31 700.25 802.31 700.21C802.32 700.18 802.32 700.14 802.32 700.11L802.32 700.11C802.35 699.71 802.24 699.32 802.03 698.99C801.81 698.66 801.49 698.4 801.12 698.27C800.75 698.13 800.34 698.12 799.96 698.23C799.58 698.34 799.25 698.57 799.01 698.89L799.01 698.89C798.99 698.91 798.97 698.94 798.95 698.97C798.93 699 798.92 699.03 798.9 699.06C798.88 699.09 798.87 699.12 798.85 699.15C798.84 699.18 798.82 699.22 798.81 699.25C798.63 699.66 798.38 700.03 798.06 700.35C797.75 700.67 797.38 700.93 796.98 701.12C796.57 701.31 796.13 701.42 795.69 701.45C795.24 701.48 794.79 701.43 794.37 701.3C794.33 701.29 794.3 701.28 794.27 701.27C794.23 701.26 794.2 701.25 794.17 701.24C794.13 701.24 794.1 701.23 794.06 701.23C794.03 701.22 793.99 701.22 793.96 701.22L793.96 701.22C793.56 701.19 793.17 701.3 792.84 701.51C792.51 701.73 792.26 702.05 792.12 702.42C791.98 702.79 791.97 703.19 792.08 703.57C792.19 703.95 792.42 704.29 792.74 704.53L792.74 704.53C792.77 704.55 792.79 704.57 792.82 704.59C792.85 704.6 792.88 704.62 792.91 704.64C792.94 704.66 792.97 704.67 793.01 704.69C793.04 704.7 793.07 704.72 793.1 704.73C793.51 704.91 793.88 705.16 794.2 705.47C794.52 705.79 794.78 706.15 794.97 706.56C795.16 706.97 795.27 707.4 795.3 707.85C795.33 708.3 795.28 708.74 795.15 709.17C795.14 709.2 795.13 709.24 795.12 709.27C795.11 709.3 795.1 709.34 795.1 709.37C795.09 709.41 795.08 709.44 795.08 709.48C795.07 709.51 795.07 709.54 795.07 709.58L795.07 709.58C795.04 709.97 795.15 710.37 795.36 710.7C795.58 711.03 795.9 711.28 796.27 711.42C796.64 711.56 797.05 711.57 797.43 711.46C797.81 711.35 798.14 711.12 798.38 710.8L798.38 710.8C798.4 710.77 798.42 710.74 798.44 710.71C798.46 710.69 798.47 710.66 798.49 710.63C798.51 710.59 798.52 710.56 798.54 710.53C798.55 710.5 798.57 710.47 798.58 710.44C798.76 710.03 799.01 709.65 799.32 709.33C799.64 709.02 800.01 708.76 800.41 708.57C800.82 708.38 801.26 708.27 801.7 708.24C802.15 708.21 802.6 708.26 803.02 708.39C803.06 708.4 803.09 708.41 803.12 708.42C803.16 708.43 803.19 708.44 803.22 708.44C803.26 708.45 803.29 708.46 803.33 708.46C803.36 708.46 803.4 708.47 803.43 708.47L803.43 708.47C803.83 708.49 804.22 708.39 804.55 708.17C804.88 707.96 805.13 707.64 805.27 707.27C805.41 706.9 805.42 706.49 805.31 706.11C805.2 705.73 804.97 705.4 804.65 705.16L804.65 705.16C804.62 705.14 804.59 705.12 804.57 705.1C804.54 705.08 804.51 705.06 804.48 705.05C804.45 705.03 804.42 705.01 804.38 705C804.35 704.98 804.32 704.97 804.29 704.96Z" /><path class="shp4" d="M12.29 182.96C11.88 182.78 11.51 182.53 11.19 182.21C10.87 181.9 10.61 181.53 10.42 181.13C10.23 180.72 10.12 180.28 10.09 179.84C10.06 179.39 10.11 178.94 10.24 178.52C10.25 178.48 10.26 178.45 10.27 178.42C10.28 178.38 10.29 178.35 10.29 178.31C10.3 178.28 10.31 178.25 10.31 178.21C10.32 178.18 10.32 178.14 10.32 178.11L10.32 178.11C10.35 177.71 10.24 177.32 10.03 176.99C9.81 176.66 9.49 176.4 9.12 176.27C8.75 176.13 8.34 176.12 7.96 176.23C7.58 176.34 7.25 176.57 7.01 176.89L7.01 176.89C6.99 176.91 6.97 176.94 6.95 176.97C6.93 177 6.92 177.03 6.9 177.06C6.88 177.09 6.87 177.12 6.85 177.15C6.84 177.18 6.82 177.22 6.81 177.25C6.63 177.66 6.38 178.03 6.06 178.35C5.75 178.67 5.38 178.93 4.98 179.12C4.57 179.31 4.13 179.42 3.69 179.45C3.24 179.48 2.79 179.43 2.37 179.3C2.33 179.29 2.3 179.28 2.27 179.27C2.23 179.26 2.2 179.25 2.17 179.24C2.13 179.24 2.1 179.23 2.06 179.23C2.03 179.22 1.99 179.22 1.96 179.22L1.96 179.22C1.56 179.19 1.17 179.3 0.84 179.51C0.51 179.73 0.26 180.05 0.12 180.42C-0.02 180.79 -0.03 181.19 0.08 181.57C0.19 181.95 0.42 182.29 0.74 182.53L0.74 182.53C0.77 182.55 0.79 182.57 0.82 182.59C0.85 182.6 0.88 182.62 0.91 182.64C0.94 182.66 0.97 182.67 1.01 182.69C1.04 182.7 1.07 182.72 1.1 182.73C1.51 182.91 1.88 183.16 2.2 183.47C2.52 183.79 2.78 184.15 2.97 184.56C3.16 184.97 3.27 185.4 3.3 185.85C3.33 186.3 3.28 186.74 3.15 187.17C3.14 187.2 3.13 187.24 3.12 187.27C3.11 187.3 3.1 187.34 3.1 187.37C3.09 187.41 3.08 187.44 3.08 187.48C3.07 187.51 3.07 187.54 3.07 187.58L3.07 187.58C3.04 187.97 3.15 188.37 3.36 188.7C3.58 189.03 3.9 189.28 4.27 189.42C4.64 189.56 5.05 189.57 5.43 189.46C5.81 189.35 6.14 189.12 6.38 188.8L6.38 188.8C6.4 188.77 6.42 188.74 6.44 188.71C6.46 188.69 6.47 188.66 6.49 188.63C6.51 188.59 6.52 188.56 6.54 188.53C6.55 188.5 6.57 188.47 6.58 188.44C6.76 188.03 7.01 187.65 7.32 187.33C7.64 187.02 8.01 186.76 8.41 186.57C8.82 186.38 9.26 186.27 9.7 186.24C10.15 186.21 10.6 186.26 11.02 186.39C11.06 186.4 11.09 186.41 11.12 186.42C11.16 186.43 11.19 186.44 11.22 186.44C11.26 186.45 11.29 186.46 11.33 186.46C11.36 186.46 11.4 186.47 11.43 186.47L11.43 186.47C11.83 186.49 12.22 186.39 12.55 186.17C12.88 185.96 13.13 185.64 13.27 185.27C13.41 184.9 13.42 184.49 13.31 184.11C13.2 183.73 12.97 183.4 12.65 183.16L12.65 183.16C12.62 183.14 12.59 183.12 12.57 183.1C12.54 183.08 12.51 183.06 12.48 183.05C12.45 183.03 12.42 183.01 12.38 183C12.35 182.98 12.32 182.97 12.29 182.96L12.29 182.96Z" /><path class="shp6" d="M79.4 290C76.08 290 73.4 287.32 73.4 284C73.4 280.68 76.08 278 79.4 278C82.72 278 85.4 280.68 85.4 284C85.4 287.32 82.72 290 79.4 290Z" /><path class="shp6" d="M853.4 338C850.08 338 847.4 335.32 847.4 332C847.4 328.68 850.08 326 853.4 326C856.72 326 859.4 328.68 859.4 332C859.4 335.32 856.72 338 853.4 338Z" /><g style="opacity: 0.502"><path class="shp7" d="M583.4 0L586.4 0L586.4 17L583.4 17L583.4 0Z" /><path class="shp7" d="M593.4 7L593.4 10L576.4 10L576.4 7L593.4 7Z" /></g><g style="opacity: 0.502"><path class="shp7" d="M594.4 666L597.4 666L597.4 683L594.4 683L594.4 666Z" /><path class="shp7" d="M604.4 673L604.4 676L587.4 676L587.4 673L604.4 673Z" /></g><g style="opacity: 0.502"><path class="shp7" d="M26.4 702L29.4 702L29.4 719L26.4 719L26.4 702Z" /><path class="shp7" d="M36.4 709L36.4 712L19.4 712L19.4 709L36.4 709Z" /></g><g style="opacity: 0.502"><path class="shp7" d="M709.4 396L712.4 396L712.4 413L709.4 413L709.4 396Z" /><path class="shp7" d="M719.4 403L719.4 406L702.4 406L702.4 403L719.4 403Z" /></g><path class="shp6" d="M795.61 123.02L802.05 128.92L811.18 115.5L814.4 118.19L802.05 134.29L792.92 124.09L795.61 123.02L795.61 123.02Z" /><path class="shp8" d="M589.44 240.13L611.67 239.27L612.78 267.85L590.55 268.71L589.44 240.13Z" /><path class="shp9" d="M511.41 339.35C511.41 339.35 480.63 324.64 481.12 337.35C481.62 350.05 512.15 358.4 512.15 358.4L511.41 339.35Z" /><path class="shp8" d="M528.3 446.81C528.3 446.81 513.78 482.35 508.41 508C503.04 533.65 494.87 568.94 505.38 593.97C515.89 619 545.78 692.57 546.08 700.51C546.39 708.45 543.52 716.51 549.87 716.26C556.22 716.02 590.78 705.14 592.18 700.31C593.59 695.49 580.39 683.28 580.39 683.28L547.82 581.2L581.81 514.69L606.32 613.91L611.12 737.74C611.12 737.74 634.69 730.46 638.11 736.69C638.11 736.69 648.67 721.97 650.01 715.56C651.35 709.15 645.03 586.97 645.03 586.97C645.03 586.97 666.66 447.81 649.2 448.48C631.73 449.16 563.33 407.29 528.3 446.81Z" /><path class="shp10" d="M549.63 709.91C549.63 709.91 533.52 745.52 531.99 747.16C530.47 748.81 519.97 765.12 527.91 764.81C535.85 764.5 554.59 755.83 568.38 742.57C582.18 729.32 600.37 706.35 598.72 704.83C597.07 703.3 585.77 698.97 585.77 698.97L549.63 709.91Z" /><path class="shp10" d="M613.99 729.68C613.99 729.68 613.02 745.61 610.09 752.09C607.16 758.56 607.53 768.08 615.47 767.78C623.41 767.47 643.92 763.49 643.92 763.49C643.92 763.49 645.14 753.91 643.49 752.38C641.84 750.85 634.81 733.64 637.81 728.75C640.8 723.87 613.99 729.68 613.99 729.68Z" /><path class="shp9" d="M625.74 212.49C625.74 212.49 642.66 238.87 649.25 244.97C655.85 251.07 637.29 264.51 637.29 264.51L604.08 268.98C604.08 268.98 604.49 238.75 602.78 235.64C601.07 232.53 625.74 212.49 625.74 212.49Z" /><path class="shp8" d="M596.86 247C596.86 247 603.71 259.45 610.06 259.21C616.41 258.96 649.25 244.97 650.66 240.14C652.06 235.32 661.54 274.7 661.54 274.7L581.16 416.14L561.56 402.59L571.06 319.55L578.86 274.73L596.86 247Z" /><path class="shp10" d="M653.62 373.58C650.41 380.29 648.41 387.28 648.69 394.44C648.7 394.76 648.71 395.08 648.74 395.4C649.5 410.09 654.92 427.08 656.86 439.44C658.27 448.31 657.87 454.78 652.68 456.3C640.1 459.96 654.51 462.59 605.85 478.78C557.19 494.98 548.7 481 548.58 477.82C548.45 474.65 555.47 450.53 553.82 449C552.17 447.48 530.75 468.98 524.27 466.05C517.8 463.12 523.53 447 523.53 447C523.53 447 538.12 413.04 537.81 405.1C537.5 397.17 559.9 359.73 559.9 359.73L575.13 260.56C575.13 260.56 580.99 247.62 588.87 245.72C596.74 243.83 603.28 248.34 603.28 248.34L590.1 277.47L576.19 328.89L578.52 347.88C578.52 347.88 594.69 313.86 605.31 300.73C615.93 287.6 638.57 256.51 638.57 256.51C638.57 256.51 643.86 238.68 639.87 233.34C635.88 228 656.51 227.2 665.31 249.12C669.98 260.73 677.55 278.06 682.29 294.18C686.52 308.47 688.52 321.83 684.33 329.47C677.93 341.13 661.83 356.46 653.62 373.58Z" /><path class="shp11" d="M684.33 329.47C677.93 341.13 661.83 356.46 653.62 373.58C651.48 365.86 648.86 357.87 648.86 357.87C648.86 357.87 638.83 304.2 668.5 290.33C669.72 290.21 670.94 290.21 672.16 290.32C673.38 290.42 674.58 290.64 675.76 290.97C676.93 291.3 678.08 291.74 679.17 292.28C680.27 292.81 681.31 293.45 682.29 294.18C686.52 308.47 688.52 321.83 684.33 329.47Z" /><path class="shp10" d="M566.54 326.08L541.39 333.42L506.46 334.77L502.87 365.12L560.27 369.25C560.27 369.25 574.6 328.95 566.54 326.08Z" /><path class="shp9" d="M607.56 428.12C607.56 428.12 573.91 433.71 581.59 443.83C589.27 453.96 619.08 443.31 619.08 443.31L607.56 428.12Z" /><path class="shp11" d="M648.74 395.4C649.5 410.09 654.92 427.08 656.86 439.44C646.14 449.59 635.94 458.54 632.1 458.68C624.16 458.99 611.4 457.9 606.7 459.67C602 461.44 599.24 431.34 599.24 431.34C599.24 431.34 602.05 421.69 614.56 416.44C623.01 412.88 639.21 403.24 648.74 395.4Z" /><path class="shp10" d="M668.13 280.81C668.13 280.81 695 276.58 693.55 321.16C692.09 365.73 696.38 394.19 685.57 402.55C674.77 410.92 639.67 448.85 631.73 449.16C623.8 449.47 611.03 448.37 606.33 450.14C601.63 451.92 598.87 421.82 598.87 421.82C598.87 421.82 601.68 412.17 614.2 406.91C626.71 401.66 656.2 383.02 655.95 376.67C655.7 370.32 648.49 348.34 648.49 348.34C648.49 348.34 638.46 294.68 668.13 280.81Z" /><path class="shp9" d="M602.05 251.54C582.72 251.54 567.09 235.92 567.09 216.59C567.09 197.26 582.72 181.64 602.05 181.64C621.37 181.64 637 197.26 637 216.59C637 235.92 621.37 251.54 602.05 251.54Z" /><path class="shp12" d="M578.51 166.49C578.3 166.67 578.08 166.84 577.85 167C577.62 167.15 577.38 167.29 577.13 167.41C576.89 167.54 576.63 167.65 576.37 167.74C576.11 167.83 575.84 167.91 575.57 167.97C575.3 168.02 575.03 168.01 574.76 167.95C574.49 167.89 574.24 167.78 574.01 167.63C573.78 167.47 573.59 167.27 573.44 167.04C573.29 166.81 573.19 166.56 573.14 166.29C572.34 167.94 571.44 169.71 569.81 170.56C568.17 171.41 565.65 170.7 565.41 168.87C565.36 169.22 565.27 169.56 565.17 169.89C565.06 170.23 564.93 170.55 564.78 170.87C564.63 171.18 564.46 171.49 564.27 171.78C564.08 172.07 563.87 172.35 563.64 172.62C562.63 173.58 560.79 173.83 559.91 172.74C560.62 176.65 560.18 180.67 560.4 184.63C560.63 188.6 561.69 192.8 564.68 195.41C569.05 199.22 575.62 198.28 581.37 197.56C581.59 197.51 581.81 197.48 582.03 197.46C582.25 197.45 582.47 197.44 582.69 197.46C582.91 197.47 583.13 197.5 583.35 197.54C583.56 197.58 583.78 197.63 583.99 197.7C586.14 198.62 586.04 201.61 586.07 203.95C586.16 205.99 586.6 207.99 587.39 209.88C588.17 211.76 589.27 213.49 590.66 214.99C592.04 216.49 593.67 217.73 595.49 218.66C597.3 219.59 599.26 220.2 601.28 220.45C601.85 220.54 602.42 220.57 602.99 220.54C603.56 220.52 604.12 220.44 604.68 220.3C605.23 220.17 605.77 219.98 606.29 219.74C606.8 219.5 607.3 219.21 607.76 218.87C609.39 217.49 610.22 215.23 612.09 214.19C615.13 212.5 618.82 214.97 621.05 217.64C623.27 220.32 625.46 223.61 628.91 224.1C633.47 224.75 636.94 220.11 638.64 215.83C639.81 212.84 640.68 209.74 641.24 206.58C641.79 203.42 642.03 200.21 641.95 197C641.87 193.79 641.47 190.6 640.75 187.47C640.03 184.34 639 181.29 637.68 178.36C628.17 157.62 595.66 154.34 578.51 166.49Z" /></svg>