<svg width="720" height="353" viewBox="0 0 1082 531" xmlns="http://www.w3.org/2000/svg"><style>.shp0{fill:#e6e6e6}.shp1{fill:#3f3d56}.shp2{fill:#70add8}.shp3{fill:#a0616a}.shp4{fill:#2f2e41}.shp5{fill:#fff}.shp8{fill:#ffb9b9}</style><path class="shp0" d="M1081.9 525.73c7.5 6.81-305.27 6.81-297.74 0-7.5-6.81 305.27-6.81 297.74 0z"/><path class="shp0" d="M978.05 327c16.55 23.4 20.93 156.58 21.9 199.26.03.97.05 1.88.06 2.74h41.91c.51-.91.98-1.81 1.43-2.74 24.84-49.02 11.06-107.8 10.33-110.77 1.89 9.34-6.64 36.43-16.29 62.66-5.88-80.66-56.19-147.08-59.34-151.15zM191 66.7c-32.8 46.37-41.47 310.28-43.4 394.88-.05 1.9-.1 3.71-.12 5.42H64.44c-1.02-1.81-1.96-3.59-2.85-5.42-49.22-97.15-21.91-213.63-20.47-219.53-3.74 18.52 13.17 72.2 32.28 124.19C85.06 206.38 184.76 74.77 191 66.7z"/><path class="shp0" d="M576.74 464.27c14.54 16.77-591.06 16.77-576.48-.01-14.54-16.76 591.06-16.76 576.48.01z"/><path class="shp1" d="M889.47 454.88c-2.33 0-2.38 7.24 0 7.24h86.95c1.02.04 1.86-1.56 1.88-3.56.02-2.04-.84-3.72-1.88-3.68h-86.95z"/><path class="shp2" d="M916.92 427.88c-3.02 0-3.03 7.24 0 7.24h32.01c1.32.04 2.4-1.56 2.42-3.56.02-2.04-1.08-3.72-2.42-3.68h-32.01z"/><path class="shp1" d="M889.47 482.88c-2.33 0-2.38 7.24 0 7.24h86.95c1.02.04 1.86-1.56 1.88-3.56.02-2.04-.84-3.72-1.88-3.68h-86.95z"/><path class="shp1" d="M995 397c.66 0 1.31.13 1.91.38.61.25 1.16.62 1.63 1.08.46.47.83 1.02 1.08 1.63.25.6.38 1.25.38 1.91v124c0 .66-.13 1.31-.38 1.91-.25.61-.62 1.16-1.08 1.63-.47.46-1.02.83-1.63 1.08-.6.25-1.25.38-1.91.38H871c-.66 0-1.31-.13-1.91-.38-.61-.25-1.16-.62-1.63-1.08-.46-.47-.83-1.02-1.08-1.63-.25-.6-.38-1.25-.38-1.91V402c0-.66.13-1.31.38-1.91.25-.61.62-1.16 1.08-1.63.47-.46 1.02-.83 1.63-1.08.6-.25 1.25-.38 1.91-.38h124zm3 5a3.008 3.008 0 0 0-3-3H871a3.008 3.008 0 0 0-3 3v124a3.008 3.008 0 0 0 3 3h124a3.008 3.008 0 0 0 3-3V402z" fill-rule="evenodd"/><path class="shp3" d="M823.75 293.57l10.06-5.03-8.38-22.63-2.21-11.42a8.628 8.628 0 0 0-1.95-4 8.634 8.634 0 0 0-3.68-2.51 8.738 8.738 0 0 0-4.45-.33 8.676 8.676 0 0 0-6.06 4.51 8.79 8.79 0 0 0-.93 3.17c-.1 1.1.01 2.21.33 3.28.31 1.06.83 2.05 1.53 2.92l8.2 10.25 7.54 21.79z"/><path class="shp0" d="M820.4 291.06l1.85 5.8 8.33 26.09c.81 2.56 2.35 4.83 4.42 6.53 2.07 1.71 4.59 2.78 7.26 3.09s5.36-.15 7.77-1.34 4.43-3.04 5.8-5.34l27-46.27c.1-.18.21-.36.31-.54.1-.19.19-.37.29-.56.09-.19.18-.38.26-.58.08-.19.16-.38.24-.58 1.3-3.42 1.24-7.22-.18-10.59-1.42-3.38-4.09-6.08-7.45-7.54s-7.15-1.57-10.59-.31-6.26 3.8-7.88 7.09l-16.48 35.11-7.54-16.77-13.41 6.71z"/><path class="shp4" d="M824.28 459.57l18.44 1.68 10.06-72.94c33.16 5.58 64.45 7.37 91.5.62a17.043 17.043 0 0 0 10.87-8.31c1.14-2.06 1.84-4.34 2.06-6.68.22-2.35-.05-4.71-.78-6.95-3.24-9.66-8.95-20.02-15.63-30.65l-44.43 15.93-1.67 6.7-47.39-5.99c-2.39-.31-4.82-.11-7.14.58-2.31.68-4.45 1.84-6.29 3.4s-3.34 3.49-4.4 5.66a17.598 17.598 0 0 0-1.74 6.94l-3.46 90.01z"/><path class="shp4" d="M804.2 473.7a6.51 6.51 0 0 1 .53-3.66 6.632 6.632 0 0 1 2.42-2.81l18.93-9.29 14.27 1.8 3.37 12.09c.15.86.11 1.74-.1 2.59s-.58 1.64-1.11 2.34c-.53.69-1.19 1.28-1.95 1.71s-1.6.7-2.46.8l-26.64.06c-.84.09-1.7.02-2.51-.21-.82-.22-1.59-.61-2.26-1.13s-1.24-1.17-1.67-1.9a6.79 6.79 0 0 1-.82-2.39zM819.62 450.25l18.44 1.67 10.06-72.93c33.16 5.58 64.45 7.37 91.51.62a17.119 17.119 0 0 0 10.86-8.32c1.14-2.06 1.84-4.33 2.06-6.68.22-2.34-.04-4.71-.78-6.94-3.24-9.67-8.95-20.02-15.62-30.65l-44.43 15.92-1.68 6.71-47.39-6c-2.39-.3-4.82-.1-7.14.58a17.442 17.442 0 0 0-10.68 9.06 17.488 17.488 0 0 0-1.75 6.95l-3.46 90.01z"/><path class="shp4" d="M799.54 464.38c-.09-.62-.09-1.25 0-1.87s.27-1.23.53-1.8.6-1.1 1.01-1.57c.41-.48.88-.89 1.41-1.23l18.93-9.29 14.27 1.8 3.37 12.08c.15.86.11 1.75-.1 2.59-.2.85-.58 1.65-1.11 2.34a6.493 6.493 0 0 1-4.41 2.52l-26.63.05c-.85.1-1.7.03-2.52-.2s-1.59-.62-2.26-1.14-1.24-1.16-1.66-1.9a6.5 6.5 0 0 1-.83-2.38z"/><path class="shp3" d="M853.15 250.73c-12.51 0-22.63-10.12-22.63-22.63 0-12.52 10.12-22.64 22.63-22.64 12.52 0 22.64 10.12 22.64 22.64 0 12.51-10.12 22.63-22.64 22.63z"/><path class="shp3" d="M853.99 274.2l25.99-3.35-10.06-31.02h-25.15l9.22 34.37z"/><path class="shp0" d="M846.92 305.48a36.987 36.987 0 0 0 2.41 5.29c.48.85.98 1.68 1.53 2.48.54.81 1.11 1.59 1.72 2.35.86 1.06 1.77 2.08 2.72 3.06s1.94 1.93 2.97 2.82c1.03.9 2.09 1.76 3.2 2.56 1.1.81 2.23 1.57 3.4 2.28.81.53 1.66 1.04 2.53 1.53l5 4.26 17.64 15.02 48.62-18.44c-10.73-23.83-24.1-42.67-39.44-57.84a27.572 27.572 0 0 0-13.01-10.27c-2.63-1-5.39-1.6-8.2-1.76-2.8-.17-5.62.09-8.34.77l-18.19 4.55c-6.48 15.27-8.88 29.32-4.56 41.34z"/><path class="shp1" d="M807.31 240.26c-.14-.14-.3-.25-.48-.34-.18-.08-.37-.14-.57-.15-.19-.02-.39-.01-.59.04-.19.05-.37.12-.54.23-.44.47-15 9.1-14.09 9.96-.01.13-.01.26 0 .39.02.13.05.25.09.38.05.12.1.24.17.35s.16.21.25.3l33.84 33.69c.08.09.17.16.27.22.09.07.2.12.3.16.11.05.22.08.34.1.11.02.23.03.34.03.68.87 11.77-11.77 12.33-12.01.16-.16.29-.36.37-.57.09-.21.13-.44.12-.67 0-.23-.05-.46-.14-.67s-.22-.4-.38-.56l-31.63-30.88z"/><path class="shp5" d="M794.45 249.64l1.38-.88c-.14.26-.19.56-.14.84.05.29.2.56.41.75.22.2.49.32.79.34.29.03.58-.05.82-.21l8.92-6.12c.2-.14.35-.34.45-.56.09-.23.13-.47.09-.72a1.34 1.34 0 0 0-.3-.65 1.29 1.29 0 0 0-.59-.41c.35-.12.92-.83 1.31-.38l29.98 29.46c1.06.52-10.9 10.89-10.9 11.29-.9 1-31.65-31.99-32.3-32.01a.567.567 0 0 1-.12-.18c-.02-.07-.03-.14-.02-.21s.03-.14.07-.2.09-.11.15-.15z"/><path class="shp2" d="M829.05 264.6l-9.2 8.67-21.87-21.61 11.1-7.23 19.97 20.17z"/><path class="shp0" d="M798.83 256.99c.52-.38-1.81-2.08-1.91-2.36a.259.259 0 0 0-.11-.07c-.04-.02-.08-.02-.12-.02s-.08 0-.12.02c-.04.01-.07.04-.1.07-.53.38 1.81 2.08 1.91 2.36.03.03.06.05.1.07.04.01.08.02.12.02s.09-.01.12-.02c.04-.02.08-.04.11-.07zM802.05 259.76c-.29-.11-1.97-2.43-2.36-1.91-.53.38 1.81 2.08 1.91 2.36.29.3.75-.16.45-.45z"/><path class="shp2" d="M826.69 272.04c-.04 2.79 4.34 2.79 4.3 0 .04-2.79-4.34-2.79-4.3 0z"/><path d="M852.58 315.6c.86 1.06 1.77 2.08 2.72 3.06s1.94 1.93 2.97 2.82c1.03.9 2.09 1.76 3.2 2.56 1.1.81 2.23 1.57 3.4 2.28.81.53 1.66 1.04 2.53 1.53l5 4.26c9.91-13.03 9.35-52.6 9.35-52.6l-15.09 1.51-14.08 34.58z" opacity=".2"/><path class="shp3" d="M822.98 305.22l10.06-5.03-8.39-22.63-2.21-11.42a8.693 8.693 0 0 0-1.94-4.01c-.99-1.14-2.26-2-3.69-2.5s-2.96-.61-4.44-.33c-1.49.28-2.87.94-4.02 1.93a8.662 8.662 0 0 0-2.97 5.74c-.11 1.11 0 2.22.32 3.28.32 1.07.84 2.06 1.53 2.92l8.2 10.25 7.55 21.8z"/><path class="shp0" d="M833.04 296l-13.42 6.7 10.18 31.9c.37 1.14.87 2.23 1.52 3.24.64 1.01 1.41 1.93 2.29 2.75.87.81 1.85 1.51 2.91 2.07 1.05.57 2.18.99 3.34 1.27 1.43.34 2.91.45 4.38.33s2.91-.47 4.27-1.04c1.35-.57 2.61-1.36 3.72-2.32 1.12-.97 2.07-2.1 2.83-3.37l26.99-46.26c.95-1.58 1.58-3.33 1.86-5.15s.21-3.67-.22-5.46c-.42-1.8-1.19-3.49-2.26-4.99s-2.42-2.77-3.97-3.76a14.283 14.283 0 0 0-11.49-1.68c-1.92.55-3.71 1.49-5.25 2.77a14.485 14.485 0 0 0-3.67 4.66l-16.47 35.1-7.54-16.76z"/><path class="shp4" d="M844.63 219.28c-.46.38-.93.75-1.42 1.09a21.662 21.662 0 0 1-3.09 1.83c-.54.26-1.09.5-1.65.72a8.283 8.283 0 0 1-3.52.52 8.476 8.476 0 0 1-3.42-1.02c-.57-.41-1.09-.9-1.53-1.45-.45-.55-.81-1.15-1.1-1.8-.28-.64-.48-1.33-.58-2.02-.1-.7-.11-1.41-.03-2.11.1-.7.24-1.39.43-2.08.19-.68.42-1.35.69-2a15.82 15.82 0 0 1 2.16-3.63c3.04-4.23 7.03-7.67 11.66-10.06a32.97 32.97 0 0 1 14.95-3.68c5.21-.02 10.34 1.18 14.99 3.51 4.66 2.34 8.69 5.74 11.77 9.93a18.43 18.43 0 0 1 2.7 4.61 18.203 18.203 0 0 1 1.28 5.18c.33 6.29-3.98 12.16-3.52 18.44.39 5.31 4.2 9.86 8.72 12.68 4.51 2.83 9.73 4.26 14.78 5.95 5.05 1.7 10.15 3.79 13.89 7.59 3.74 3.79 5.8 9.68 3.75 14.6-1.69 4.03-5.69 6.6-9.71 8.34a46.993 46.993 0 0 1-8.25 2.67 47.282 47.282 0 0 1-17.26.65c-2.87-.42-5.69-1.11-8.43-2.04-4.09-1.42-8.55-4.25-8.61-8.58-.03-1.88.81-3.64 1.32-5.44.51-1.81.6-3.97-.67-5.35-1.58-1.71-4.49-1.31-6.38.05-1.88 1.37-3.11 3.44-4.66 5.17-2.96 3.29-7.44 5.39-11.81 4.77-4.38-.62-8.33-4.35-8.51-8.77-.32-7.58 9.19-12.33 10.22-19.85.69-5.03-2.58-9.62-5.41-13.83-2.84-4.2-5.47-9.47-3.49-14.14"/><path class="shp1" d="M529.23 461.1H155.77c-.91 0-1.81-.18-2.64-.52-.84-.35-1.6-.86-2.25-1.5a7.096 7.096 0 0 1-1.5-2.25c-.34-.84-.52-1.73-.52-2.64V134.83c0-.91.18-1.81.52-2.65.35-.83.86-1.6 1.5-2.24.65-.64 1.41-1.15 2.25-1.5.83-.35 1.73-.53 2.64-.53h373.46c.91 0 1.81.18 2.65.53s1.6.86 2.24 1.5 1.15 1.41 1.5 2.24c.35.84.53 1.74.53 2.65v319.36c0 .91-.18 1.8-.53 2.64s-.86 1.6-1.5 2.25c-.64.64-1.4 1.15-2.24 1.5-.84.34-1.74.52-2.65.52zM155.77 130.68c-.54 0-1.08.11-1.59.32-.5.21-.96.51-1.34.9-.39.38-.69.84-.9 1.34-.21.51-.32 1.04-.32 1.59v319.36c0 .54.11 1.08.32 1.59.21.5.51.96.9 1.34.38.39.84.69 1.34.9.51.21 1.05.32 1.59.32h373.46a4.202 4.202 0 0 0 2.94-1.22c.38-.38.69-.84.9-1.34.2-.51.31-1.05.31-1.59V134.83c0-.55-.11-1.08-.31-1.59-.21-.5-.52-.96-.9-1.34a4.202 4.202 0 0 0-2.94-1.22H155.77z" fill-rule="evenodd"/><path d="M213.8 432.49c-15.58 0-28.17-12.6-28.17-28.18s12.59-28.17 28.17-28.17 28.17 12.59 28.17 28.17-12.59 28.18-28.17 28.18z" fill="#fa5959"/><path class="shp0" d="M278.86 385.53c-1.24 0-2.43.5-3.31 1.38s-1.38 2.07-1.38 3.32c0 1.24.5 2.43 1.38 3.32.88.88 2.07 1.37 3.31 1.37h221.35c1.25 0 2.44-.49 3.32-1.37s1.38-2.08 1.38-3.32c0-1.25-.5-2.44-1.38-3.32s-2.07-1.38-3.32-1.38H278.86zM278.86 413.7c-1.24 0-2.44.5-3.32 1.38s-1.37 2.07-1.37 3.32c0 1.24.49 2.44 1.37 3.32s2.08 1.37 3.32 1.37h95.25c1.25.01 2.44-.49 3.33-1.37.88-.88 1.37-2.07 1.37-3.32s-.49-2.44-1.37-3.32a4.734 4.734 0 0 0-3.33-1.38h-95.25z"/><path class="shp2" d="M617.96 349.72H244.5c-.91-.01-1.81-.19-2.64-.53-.84-.35-1.6-.86-2.25-1.5a6.986 6.986 0 0 1-1.5-2.25 6.98 6.98 0 0 1-.52-2.64V178.91c0-.91.18-1.81.52-2.65.35-.84.86-1.6 1.5-2.24.65-.64 1.41-1.15 2.25-1.5.83-.35 1.73-.53 2.64-.53h373.46c.91 0 1.81.18 2.65.53s1.6.86 2.24 1.5 1.15 1.4 1.5 2.24.53 1.74.53 2.65V342.8c0 .91-.18 1.81-.53 2.64-.35.84-.86 1.61-1.5 2.25s-1.4 1.15-2.24 1.5c-.84.34-1.74.52-2.65.53z"/><path class="shp5" d="M320.56 229.12c-1.25 0-2.44.49-3.32 1.37s-1.37 2.08-1.37 3.32c0 1.25.49 2.44 1.37 3.32s2.07 1.37 3.32 1.38h221.35c1.24-.01 2.43-.5 3.31-1.38s1.38-2.07 1.38-3.32c0-1.24-.5-2.44-1.38-3.32s-2.07-1.37-3.31-1.37H320.56zM320.56 256.32a4.693 4.693 0 0 0-4.69 4.7c0 1.24.49 2.43 1.37 3.32.88.88 2.07 1.37 3.32 1.37h221.35c1.24 0 2.43-.49 3.31-1.37.88-.89 1.38-2.08 1.38-3.32 0-1.25-.5-2.44-1.38-3.32s-2.07-1.38-3.31-1.38H320.56zM320.56 283.2a4.693 4.693 0 0 0-4.69 4.69 4.693 4.693 0 0 0 4.69 4.7h95.24c1.25 0 2.45-.49 3.33-1.37s1.38-2.08 1.38-3.33c0-1.24-.5-2.44-1.38-3.32s-2.08-1.37-3.33-1.37h-95.24z"/><path class="shp1" d="M618.65 367.38c-15.58 0-28.17-12.6-28.17-28.18 0-15.57 12.59-28.17 28.17-28.17s28.17 12.6 28.17 28.17c0 15.58-12.59 28.18-28.17 28.18z"/><path class="shp5" d="M616.3 351.66l-8.94-11.49 5.2-4.05 4.23 5.44 14.31-15.09 4.78 4.53-19.58 20.66z"/><path class="shp4" d="M572.16 49.65l-45.78 10.48-19.34-36.48 39.14-15.28 25.98 41.28zM610.2 308.74l17.16-15.59-37-83.46-32.33-39.8 52.82 22.87 5.49 58.21 26.27 9.04-3.4-72.69c-.11-2.25-.54-4.48-1.27-6.61-.74-2.14-1.78-4.16-3.09-6-1.3-1.84-2.87-3.48-4.64-4.88a23.874 23.874 0 0 0-5.83-3.37l-43.34-17.41-7.76-32.57-45.24-.65c-14.06 24.46-20.34 45.99-10.19 61.33l47.07 45.91 45.28 85.67z"/><path class="shp4" d="M618.2 298.06s2.43-7.29 6.26-5.61c3.82 1.67 14.53 10.17 14.53 10.17s17.88 2.53 6.68 9.01-15.58 6.08-15.94 5.16c-.36-.91-3.27-2.95-3.27-2.95l-4.22 2.71-7.13.67s-9.34-15.82-6.34-16.24c3.01-.42 9.58.18 9.43-2.92zM629.48 253.37s7.44-1.94 8.12 2.18-.6 17.73-.6 17.73 7.64 16.37-3.91 10.52c-11.54-5.85-13.59-9.75-13.02-10.55s.69-4.34.69-4.34l-4.57-2.07-4.45-5.61s8.16-16.45 10.15-14.17c1.99 2.29 5.07 8.13 7.59 6.31z"/><path class="shp8" d="M533.49 46.24c-9.17 0-16.58-7.41-16.58-16.58s7.41-16.58 16.58-16.58 16.58 7.41 16.58 16.58-7.41 16.58-16.58 16.58z"/><path class="shp8" d="M531.56 84.3l40.26-5.81c-6.01-10.88-12.21-20.79-20.53-19.68-7.41-5.18-7.84-13.52-5.96-22.89l-20.15 5.39c1.77 5.77 1.09 10.85-3.64 14.76 6.6 9.29 10.87 18.66 10.02 28.23z"/><path class="shp0" d="M528.52 119.6c14.31 18.62 28.97 25.98 44.74-.64l1.3-11.88c10.12-12.76 7.16-23.79-5.18-33.57l-5.95-14-8.97-1.44a9.085 9.085 0 0 1 2.15 4.84c.23 1.79-.08 3.6-.89 5.22a9.17 9.17 0 0 1-3.64 3.84 9.08 9.08 0 0 1-5.17 1.18l-3.24-.23a8.989 8.989 0 0 1-3.45-.95c-.54-.26-1.05-.59-1.52-.96-.48-.37-.91-.78-1.31-1.24l-13.77-15.99-5.81 1.55a3.316 3.316 0 0 0-1.68 1.08c-.21.26-.39.55-.51.87-.13.31-.2.65-.23.98l-1.88 26.65c8.29 9.18 13.05 20.92 15.01 34.69z"/><path class="shp8" d="M522.12 108.25l-31.68-6.43 21.04-19.57-8.01-14.49-34 36.17c-.59.67-.98 1.48-1.13 2.35-.16.87-.07 1.77.25 2.59.32.83.86 1.55 1.56 2.09s1.54.88 2.42.97l46.05 5.1 1.89 8.34c.25 1.11.77 2.14 1.5 3.01.74.86 1.67 1.54 2.72 1.97 1.05.44 2.19.61 3.33.51 1.13-.11 2.22-.48 3.18-1.09.88-.57 1.63-1.33 2.19-2.22.55-.89.91-1.9 1.02-2.94.12-1.05.01-2.11-.33-3.1-.34-1-.9-1.91-1.64-2.66l-10.36-10.6zM571.37 159.74l-4.2 10.95c-.41 1.07-.59 2.22-.53 3.36s.37 2.26.9 3.28a8.29 8.29 0 0 0 2.16 2.62 8.084 8.084 0 0 0 7.02 1.49c1.3-.33 2.5-.98 3.49-1.89s1.73-2.05 2.17-3.32.55-2.62.34-3.95l-1.78-10.83 5.84-43.31-5.22-28.62-11.92 3.66 3.96 26.64-2.23 39.92z"/><path class="shp0" d="M566.87 96.24l18.03-7.03-10.05-22.01c-.53-1.17-1.22-2.27-2.05-3.25-.83-.99-1.79-1.85-2.85-2.58s-2.21-1.31-3.43-1.73-2.48-.67-3.77-.75l-4.62-.28 8.74 37.63zM507.5 87.26l19.22-6.51-6.78-23.05a3.24 3.24 0 0 0-1.34-1.81c-.33-.22-.68-.37-1.06-.45a3.188 3.188 0 0 0-1.63.04c-.15.04-.31.1-.46.17-.15.06-.29.14-.43.23-.13.09-.26.19-.38.3l-19.63 17.41c3.75 6.18 7.75 6.34 12.49 13.67z"/><path class="shp4" d="M544.51 2.74s10.14 1.91 12.48 14.56c.09.53.17 1.06.22 1.6.06.54.09 1.08.11 1.62.01.54.01 1.08-.01 1.62s-.06 1.08-.12 1.61c-.23 2.44.11 7.58 5.39 13.63.86.99 1.71 1.98 2.55 2.99.83 1 1.65 2.02 2.45 3.05s1.59 2.08 2.36 3.13 1.53 2.12 2.27 3.2l-10.6 2.82-4.73-17.56c-.58-2.12-1.23-4.23-1.95-6.3-.73-2.08-1.53-4.13-2.41-6.15-.88-2.01-1.83-4-2.86-5.95a87.892 87.892 0 0 0-3.28-5.72l-.09-.16s-3.52 9.41-12.96 10.7l2.91-3.83s-11.03 6.37-17.27 8.32c-.72.22-1.36.63-1.85 1.19-.5.56-.83 1.24-.97 1.98-.13.73-.07 1.49.2 2.19.26.7.71 1.31 1.29 1.78.05.03.09.07.14.1 4.59 3.49 13.97 11.82 10.26 19.88-3.7 8.05.62 9.52.62 9.52l-7.97-3.03-3.64-1.56.37 2.69-17.8.38s-4.81-.03 3.74-12.87c0 0 2.06-4.81.37-8.49-.34-.69-.64-1.4-.89-2.13-.26-.73-.47-1.47-.63-2.22-.17-.76-.29-1.52-.37-2.29-.07-.76-.1-1.54-.09-2.31.54-12.94 5.99-39.26 42.76-27.99z"/></svg>