<svg xmlns="http://www.w3.org/2000/svg" viewBox="0 0 1082 531" width="1082" height="531">
	<style>
		tspan { white-space:pre }
		.shp0 { fill: #e6e6e6 } 
		.shp1 { fill: #3f3d56 } 
		.shp2 { fill: #70add8 } 
		.shp3 { fill: #a0616a } 
		.shp4 { fill: #2f2e41 } 
		.shp5 { fill: #ffffff } 
		.shp6 { opacity: 0.2;fill: #000000 } 
		.shp7 { fill: #fa5959 } 
		.shp8 { fill: #ffb9b9 } 
	</style>
	<path id="Layer" class="shp0" d="M1081.87 525.73C1089.37 532.54 776.6 532.54 784.13 525.73C776.63 518.92 1089.4 518.92 1081.87 525.73Z" />
	<path id="Layer" class="shp0" d="M978.05 327C994.6 350.4 998.98 483.58 999.95 526.26C999.98 527.23 1000 528.14 1000.01 529L1041.92 529C1042.43 528.09 1042.9 527.19 1043.35 526.26C1068.19 477.24 1054.41 418.46 1053.68 415.49C1055.57 424.83 1047.04 451.92 1037.39 478.15C1031.51 397.49 981.2 331.07 978.05 327Z" />
	<path id="Layer" class="shp0" d="M191 66.7C158.2 113.07 149.53 376.98 147.6 461.58C147.55 463.48 147.5 465.29 147.48 467L64.44 467C63.42 465.19 62.48 463.41 61.59 461.58C12.37 364.43 39.68 247.95 41.12 242.05C37.38 260.57 54.29 314.25 73.4 366.24C85.06 206.38 184.76 74.77 191 66.7Z" />
	<path id="Layer" class="shp0" d="M576.74 464.27C591.28 481.04 -14.32 481.04 0.26 464.26C-14.28 447.5 591.32 447.5 576.74 464.27Z" />
	<path id="e84b1720-bcff-4cbb-a054-3015ec64150f" class="shp1" d="M889.47 454.88C887.14 454.88 887.09 462.12 889.47 462.12L976.42 462.12C977.44 462.16 978.28 460.56 978.3 458.56C978.32 456.52 977.46 454.84 976.42 454.88L889.47 454.88Z" />
	<path id="e860648b-2b37-4627-9c5b-8f6e964a3c31" class="shp2" d="M916.92 427.88C913.9 427.88 913.89 435.12 916.92 435.12L948.93 435.12C950.25 435.16 951.33 433.56 951.35 431.56C951.37 429.52 950.27 427.84 948.93 427.88L916.92 427.88Z" />
	<path id="a755faaa-e7b4-4234-ae1c-f54238f9c9ba" class="shp1" d="M889.47 482.88C887.14 482.88 887.09 490.12 889.47 490.12L976.42 490.12C977.44 490.16 978.28 488.56 978.3 486.56C978.32 484.52 977.46 482.84 976.42 482.88L889.47 482.88Z" />
	<path id="Layer" fill-rule="evenodd" class="shp1" d="M995 397C995.66 397 996.31 397.13 996.91 397.38C997.52 397.63 998.07 398 998.54 398.46C999 398.93 999.37 399.48 999.62 400.09C999.87 400.69 1000 401.34 1000 402L1000 526C1000 526.66 999.87 527.31 999.62 527.91C999.37 528.52 999 529.07 998.54 529.54C998.07 530 997.52 530.37 996.91 530.62C996.31 530.87 995.66 531 995 531L871 531C870.34 531 869.69 530.87 869.09 530.62C868.48 530.37 867.93 530 867.46 529.54C867 529.07 866.63 528.52 866.38 527.91C866.13 527.31 866 526.66 866 526L866 402C866 401.34 866.13 400.69 866.38 400.09C866.63 399.48 867 398.93 867.46 398.46C867.93 398 868.48 397.63 869.09 397.38C869.69 397.13 870.34 397 871 397L995 397ZM998 402C998 401.61 997.92 401.22 997.77 400.85C997.62 400.49 997.4 400.16 997.12 399.88C996.84 399.6 996.51 399.38 996.15 399.23C995.78 399.08 995.39 399 995 399L871 399C870.61 399 870.22 399.08 869.85 399.23C869.49 399.38 869.16 399.6 868.88 399.88C868.6 400.16 868.38 400.49 868.23 400.85C868.08 401.22 868 401.61 868 402L868 526C868 526.39 868.08 526.78 868.23 527.15C868.38 527.51 868.6 527.84 868.88 528.12C869.16 528.4 869.49 528.62 869.85 528.77C870.22 528.92 870.61 529 871 529L995 529C995.39 529 995.78 528.92 996.15 528.77C996.51 528.62 996.84 528.4 997.12 528.12C997.4 527.84 997.62 527.51 997.77 527.15C997.92 526.78 998 526.39 998 526L998 402Z" />
	<path id="Layer" class="shp3" d="M823.75 293.57L833.81 288.54L825.43 265.91L823.22 254.49C822.93 253.01 822.26 251.63 821.27 250.49C820.28 249.34 819.01 248.48 817.59 247.98C816.16 247.49 814.63 247.37 813.14 247.65C811.66 247.93 810.28 248.6 809.13 249.58L809.13 249.58C808.29 250.3 807.59 251.18 807.08 252.16C806.57 253.15 806.26 254.22 806.15 255.33C806.05 256.43 806.16 257.54 806.48 258.61C806.79 259.67 807.31 260.66 808.01 261.53L816.21 271.78L823.75 293.57Z" />
	<path id="Layer" class="shp0" d="M820.4 291.06L822.25 296.86L830.58 322.95C831.39 325.51 832.93 327.78 835 329.48C837.07 331.19 839.59 332.26 842.26 332.57C844.93 332.88 847.62 332.42 850.03 331.23C852.44 330.04 854.46 328.19 855.83 325.89L882.83 279.62C882.93 279.44 883.04 279.26 883.14 279.08C883.24 278.89 883.33 278.71 883.43 278.52C883.52 278.33 883.61 278.14 883.69 277.94C883.77 277.75 883.85 277.56 883.93 277.36C885.23 273.94 885.17 270.14 883.75 266.77C882.33 263.39 879.66 260.69 876.3 259.23C872.94 257.77 869.15 257.66 865.71 258.92C862.27 260.18 859.45 262.72 857.83 266.01L841.35 301.12L833.81 284.35L820.4 291.06Z" />
	<path id="Layer" class="shp4" d="M824.28 459.57L842.72 461.25L852.78 388.31C885.94 393.89 917.23 395.68 944.28 388.93C946.57 388.37 948.72 387.34 950.59 385.91C952.46 384.48 954.01 382.68 955.15 380.62C956.29 378.56 956.99 376.28 957.21 373.94C957.43 371.59 957.16 369.23 956.43 366.99C953.19 357.33 947.48 346.97 940.8 336.34L896.37 352.27L894.7 358.97L847.31 352.98C844.92 352.67 842.49 352.87 840.17 353.56C837.86 354.24 835.72 355.4 833.88 356.96C832.04 358.52 830.54 360.45 829.48 362.62C828.43 364.79 827.84 367.15 827.74 369.56L824.28 459.57Z" />
	<path id="Layer" class="shp4" d="M804.2 473.7L804.2 473.7C804.11 473.08 804.11 472.45 804.2 471.83C804.29 471.21 804.47 470.61 804.73 470.04C804.99 469.47 805.33 468.93 805.74 468.46C806.15 467.99 806.62 467.57 807.15 467.23L826.08 457.94L840.35 459.74L843.72 471.83C843.87 472.69 843.83 473.57 843.62 474.42C843.41 475.27 843.04 476.06 842.51 476.76C841.98 477.45 841.32 478.04 840.56 478.47C839.8 478.9 838.96 479.17 838.1 479.27L811.46 479.33C810.62 479.42 809.76 479.35 808.95 479.12C808.13 478.9 807.36 478.51 806.69 477.99C806.02 477.47 805.45 476.82 805.02 476.09C804.6 475.35 804.32 474.54 804.2 473.7Z" />
	<path id="Layer" class="shp4" d="M819.62 450.25L838.06 451.92L848.12 378.99C881.28 384.57 912.57 386.36 939.63 379.61C941.91 379.04 944.06 378.02 945.93 376.58C947.8 375.15 949.35 373.35 950.49 371.29C951.63 369.23 952.33 366.96 952.55 364.61C952.77 362.27 952.51 359.9 951.77 357.67C948.53 348 942.82 337.65 936.15 327.02L891.72 342.94L890.04 349.65L842.65 343.65C840.26 343.35 837.83 343.55 835.51 344.23C833.2 344.92 831.06 346.08 829.22 347.64C827.38 349.2 825.88 351.12 824.83 353.29C823.77 355.46 823.18 357.83 823.08 360.24L819.62 450.25Z" />
	<path id="Layer" class="shp4" d="M799.54 464.38L799.54 464.38C799.45 463.76 799.45 463.13 799.54 462.51C799.63 461.89 799.81 461.28 800.07 460.71C800.33 460.14 800.67 459.61 801.08 459.14C801.49 458.66 801.96 458.25 802.49 457.91L821.42 448.62L835.69 450.42L839.06 462.5C839.21 463.36 839.17 464.25 838.96 465.09C838.76 465.94 838.38 466.74 837.85 467.43C837.32 468.13 836.66 468.71 835.9 469.14C835.14 469.57 834.31 469.85 833.44 469.95L806.81 470C805.96 470.1 805.11 470.03 804.29 469.8C803.47 469.57 802.7 469.18 802.03 468.66C801.36 468.14 800.79 467.5 800.37 466.76C799.94 466.03 799.66 465.22 799.54 464.38Z" />
	<path id="Layer" class="shp3" d="M853.15 250.73C840.64 250.73 830.52 240.61 830.52 228.1C830.52 215.58 840.64 205.46 853.15 205.46C865.67 205.46 875.79 215.58 875.79 228.1C875.79 240.61 865.67 250.73 853.15 250.73Z" />
	<path id="Layer" class="shp3" d="M853.99 274.2L879.98 270.85L869.92 239.83L844.77 239.83L853.99 274.2L853.99 274.2Z" />
	<path id="Layer" class="shp0" d="M846.92 305.48C847.25 306.39 847.62 307.29 848.02 308.17C848.42 309.06 848.86 309.92 849.33 310.77C849.81 311.62 850.31 312.45 850.86 313.25C851.4 314.06 851.97 314.84 852.58 315.6C853.44 316.66 854.35 317.68 855.3 318.66C856.25 319.64 857.24 320.59 858.27 321.48C859.3 322.38 860.36 323.24 861.47 324.04C862.57 324.85 863.7 325.61 864.87 326.32C865.68 326.85 866.53 327.36 867.4 327.85L872.4 332.11L890.04 347.13L938.66 328.69C927.93 304.86 914.56 286.02 899.22 270.85C897.64 268.52 895.71 266.46 893.5 264.71C891.3 262.97 888.84 261.58 886.21 260.58C883.58 259.58 880.82 258.98 878.01 258.82C875.21 258.65 872.39 258.91 869.67 259.59L851.48 264.14C845 279.41 842.6 293.46 846.92 305.48Z" />
	<path id="Layer" class="shp1" d="M807.31 240.26C807.17 240.12 807.01 240.01 806.83 239.92C806.65 239.84 806.46 239.78 806.26 239.77C806.07 239.75 805.87 239.76 805.67 239.81C805.48 239.86 805.3 239.93 805.13 240.04C804.69 240.51 790.13 249.14 791.04 250C791.03 250.13 791.03 250.26 791.04 250.39C791.06 250.52 791.09 250.64 791.13 250.77C791.18 250.89 791.23 251.01 791.3 251.12C791.37 251.23 791.46 251.33 791.55 251.42L825.39 285.11C825.47 285.2 825.56 285.27 825.66 285.33C825.75 285.4 825.86 285.45 825.96 285.49C826.07 285.54 826.18 285.57 826.3 285.59C826.41 285.61 826.53 285.62 826.64 285.62C827.32 286.49 838.41 273.85 838.97 273.61C839.13 273.45 839.26 273.25 839.34 273.04C839.43 272.83 839.47 272.6 839.46 272.37C839.46 272.14 839.41 271.91 839.32 271.7C839.23 271.49 839.1 271.3 838.94 271.14L807.31 240.26Z" />
	<path id="Layer" class="shp5" d="M794.45 249.64L795.83 248.76C795.69 249.02 795.64 249.32 795.69 249.6C795.74 249.89 795.89 250.16 796.1 250.35C796.32 250.55 796.59 250.67 796.89 250.69C797.18 250.72 797.47 250.64 797.71 250.48L806.63 244.36C806.83 244.22 806.98 244.02 807.08 243.8C807.17 243.57 807.21 243.33 807.17 243.08C807.13 242.84 807.03 242.62 806.87 242.43C806.72 242.24 806.51 242.1 806.28 242.02C806.63 241.9 807.2 241.19 807.59 241.64L837.57 271.1C838.63 271.62 826.67 281.99 826.67 282.39C825.77 283.39 795.02 250.4 794.37 250.38C794.32 250.33 794.28 250.27 794.25 250.2C794.23 250.13 794.22 250.06 794.23 249.99C794.24 249.92 794.26 249.85 794.3 249.79C794.34 249.73 794.39 249.68 794.45 249.64L794.45 249.64Z" />
	<path id="Layer" class="shp2" d="M829.05 264.6L819.85 273.27L797.98 251.66L809.08 244.43L829.05 264.6L829.05 264.6Z" />
	<path id="Layer" class="shp0" d="M798.83 256.99C799.35 256.61 797.02 254.91 796.92 254.63C796.89 254.6 796.85 254.57 796.81 254.56C796.77 254.54 796.73 254.54 796.69 254.54C796.65 254.54 796.61 254.54 796.57 254.56C796.53 254.57 796.5 254.6 796.47 254.63C795.94 255.01 798.28 256.71 798.38 256.99C798.41 257.02 798.44 257.04 798.48 257.06C798.52 257.07 798.56 257.08 798.6 257.08C798.64 257.08 798.69 257.07 798.72 257.06C798.76 257.04 798.8 257.02 798.83 256.99Z" />
	<path id="Layer" class="shp0" d="M802.05 259.76C801.76 259.65 800.08 257.33 799.69 257.85C799.16 258.23 801.5 259.93 801.6 260.21C801.89 260.51 802.35 260.05 802.05 259.76Z" />
	<path id="Layer" class="shp2" d="M826.69 272.04C826.65 274.83 831.03 274.83 830.99 272.04C831.03 269.25 826.65 269.25 826.69 272.04Z" />
	<path id="Layer" class="shp6" d="M852.58 315.6C853.44 316.66 854.35 317.68 855.3 318.66C856.25 319.64 857.24 320.59 858.27 321.48C859.3 322.38 860.36 323.24 861.47 324.04C862.57 324.85 863.7 325.61 864.87 326.32C865.68 326.85 866.53 327.36 867.4 327.85L872.4 332.11C882.31 319.08 881.75 279.51 881.75 279.51L866.66 281.02L852.58 315.6Z" />
	<path id="Layer" class="shp3" d="M822.98 305.22L833.04 300.19L824.65 277.56L822.44 266.14C822.16 264.66 821.48 263.28 820.5 262.13C819.51 260.99 818.24 260.13 816.81 259.63C815.38 259.13 813.85 259.02 812.37 259.3C810.88 259.58 809.5 260.24 808.35 261.23L808.35 261.23C807.51 261.95 806.82 262.83 806.31 263.81C805.8 264.8 805.48 265.87 805.38 266.97C805.27 268.08 805.38 269.19 805.7 270.25C806.02 271.32 806.54 272.31 807.23 273.17L815.43 283.42L822.98 305.22Z" />
	<path id="Layer" class="shp0" d="M833.04 296L819.62 302.7L829.8 334.6C830.17 335.74 830.67 336.83 831.32 337.84C831.96 338.85 832.73 339.77 833.61 340.59C834.48 341.4 835.46 342.1 836.52 342.66C837.57 343.23 838.7 343.65 839.86 343.93L839.86 343.93C841.29 344.27 842.77 344.38 844.24 344.26C845.71 344.14 847.15 343.79 848.51 343.22C849.86 342.65 851.12 341.86 852.23 340.9C853.35 339.93 854.3 338.8 855.06 337.53L882.05 291.27C883 289.69 883.63 287.94 883.91 286.12C884.19 284.3 884.12 282.45 883.69 280.66C883.27 278.86 882.5 277.17 881.43 275.67C880.36 274.17 879.01 272.9 877.46 271.91L877.46 271.91C875.77 270.84 873.87 270.14 871.89 269.85C869.91 269.56 867.9 269.69 865.97 270.23C864.05 270.78 862.26 271.72 860.72 273C859.19 274.28 857.94 275.87 857.05 277.66L840.58 312.76L833.04 296Z" />
	<path id="Layer" class="shp4" d="M844.63 219.28C844.17 219.66 843.7 220.03 843.21 220.37C842.72 220.72 842.22 221.04 841.7 221.35C841.18 221.65 840.66 221.94 840.12 222.2C839.58 222.46 839.03 222.7 838.47 222.92C837.91 223.13 837.33 223.28 836.74 223.37C836.14 223.46 835.54 223.48 834.95 223.44C834.35 223.39 833.76 223.29 833.18 223.11C832.61 222.94 832.06 222.71 831.53 222.42C830.96 222.01 830.44 221.52 830 220.97C829.55 220.42 829.19 219.82 828.9 219.17C828.62 218.53 828.42 217.84 828.32 217.15C828.22 216.45 828.21 215.74 828.29 215.04C828.39 214.34 828.53 213.65 828.72 212.96C828.91 212.28 829.14 211.61 829.41 210.96C829.69 210.31 830.01 209.68 830.37 209.07C830.73 208.47 831.13 207.88 831.57 207.33C834.61 203.1 838.6 199.66 843.23 197.27C847.85 194.88 852.98 193.62 858.18 193.59C863.39 193.57 868.52 194.77 873.17 197.1C877.83 199.44 881.86 202.84 884.94 207.03C885.5 207.73 886.01 208.47 886.46 209.24C886.91 210.01 887.31 210.81 887.64 211.64C887.98 212.47 888.26 213.32 888.47 214.18C888.68 215.05 888.84 215.93 888.92 216.82C889.25 223.11 884.94 228.98 885.4 235.26C885.79 240.57 889.6 245.12 894.12 247.94C898.63 250.77 903.85 252.2 908.9 253.89C913.95 255.59 919.05 257.68 922.79 261.48C926.53 265.27 928.59 271.16 926.54 276.08C924.85 280.11 920.85 282.68 916.83 284.42C914.17 285.56 911.4 286.46 908.58 287.09C905.75 287.73 902.87 288.1 899.98 288.21C897.08 288.32 894.18 288.16 891.32 287.74C888.45 287.32 885.63 286.63 882.89 285.7C878.8 284.28 874.34 281.45 874.28 277.12C874.25 275.24 875.09 273.48 875.6 271.68C876.11 269.87 876.2 267.71 874.93 266.33C873.35 264.62 870.44 265.02 868.55 266.38C866.67 267.75 865.44 269.82 863.89 271.55C860.93 274.84 856.45 276.94 852.08 276.32C847.7 275.7 843.75 271.97 843.57 267.55C843.25 259.97 852.76 255.22 853.79 247.7C854.48 242.67 851.21 238.08 848.38 233.87C845.54 229.67 842.91 224.4 844.89 219.73" />
	<path id="Layer" fill-rule="evenodd" class="shp1" d="M529.23 461.1L155.77 461.1C154.86 461.1 153.96 460.92 153.13 460.58C152.29 460.23 151.53 459.72 150.88 459.08C150.24 458.43 149.73 457.67 149.38 456.83C149.04 455.99 148.86 455.1 148.86 454.19L148.86 134.83C148.86 133.92 149.04 133.02 149.38 132.18C149.73 131.35 150.24 130.58 150.88 129.94C151.53 129.3 152.29 128.79 153.13 128.44C153.96 128.09 154.86 127.91 155.77 127.91L529.23 127.91C530.14 127.91 531.04 128.09 531.88 128.44C532.72 128.79 533.48 129.3 534.12 129.94C534.76 130.58 535.27 131.35 535.62 132.18C535.97 133.02 536.15 133.92 536.15 134.83L536.15 454.19C536.15 455.1 535.97 455.99 535.62 456.83C535.27 457.67 534.76 458.43 534.12 459.08C533.48 459.72 532.72 460.23 531.88 460.58C531.04 460.92 530.14 461.1 529.23 461.1ZM155.77 130.68C155.23 130.68 154.69 130.79 154.18 131C153.68 131.21 153.22 131.51 152.84 131.9C152.45 132.28 152.15 132.74 151.94 133.24C151.73 133.75 151.62 134.28 151.62 134.83L151.62 454.19C151.62 454.73 151.73 455.27 151.94 455.78C152.15 456.28 152.45 456.74 152.84 457.12C153.22 457.51 153.68 457.81 154.18 458.02C154.69 458.23 155.23 458.34 155.77 458.34L529.23 458.34C529.78 458.34 530.32 458.23 530.82 458.02C531.32 457.81 531.78 457.51 532.17 457.12C532.55 456.74 532.86 456.28 533.07 455.78C533.27 455.27 533.38 454.73 533.38 454.19L533.38 134.83C533.38 134.28 533.27 133.75 533.07 133.24C532.86 132.74 532.55 132.28 532.17 131.9C531.78 131.51 531.32 131.21 530.82 131C530.32 130.79 529.78 130.68 529.23 130.68L155.77 130.68Z" />
	<path id="Layer" class="shp7" d="M213.8 432.49C198.22 432.49 185.63 419.89 185.63 404.31C185.63 388.73 198.22 376.14 213.8 376.14C229.38 376.14 241.97 388.73 241.97 404.31C241.97 419.89 229.38 432.49 213.8 432.49Z" />
	<path id="Layer" class="shp0" d="M278.86 385.53C277.62 385.53 276.43 386.03 275.55 386.91C274.67 387.79 274.17 388.98 274.17 390.23C274.17 391.47 274.67 392.66 275.55 393.55C276.43 394.43 277.62 394.92 278.86 394.92L500.21 394.92C501.46 394.92 502.65 394.43 503.53 393.55C504.41 392.67 504.91 391.47 504.91 390.23C504.91 388.98 504.41 387.79 503.53 386.91C502.65 386.03 501.46 385.53 500.21 385.53L278.86 385.53Z" />
	<path id="Layer" class="shp0" d="M278.86 413.7C277.62 413.7 276.42 414.2 275.54 415.08C274.66 415.96 274.17 417.15 274.17 418.4C274.17 419.64 274.66 420.84 275.54 421.72C276.42 422.6 277.62 423.09 278.86 423.09L374.11 423.09C375.36 423.1 376.55 422.6 377.44 421.72C378.32 420.84 378.81 419.65 378.81 418.4C378.81 417.15 378.32 415.96 377.44 415.08C376.55 414.2 375.36 413.7 374.11 413.7L278.86 413.7Z" />
	<path id="Layer" class="shp2" d="M617.96 349.72L244.5 349.72C243.59 349.71 242.69 349.53 241.86 349.19C241.02 348.84 240.26 348.33 239.61 347.69C238.97 347.05 238.46 346.28 238.11 345.44C237.77 344.61 237.59 343.71 237.59 342.8L237.59 178.91C237.59 178 237.77 177.1 238.11 176.26C238.46 175.42 238.97 174.66 239.61 174.02C240.26 173.38 241.02 172.87 241.86 172.52C242.69 172.17 243.59 171.99 244.5 171.99L617.96 171.99C618.87 171.99 619.77 172.17 620.61 172.52C621.45 172.87 622.21 173.38 622.85 174.02C623.49 174.66 624 175.42 624.35 176.26C624.7 177.1 624.88 178 624.88 178.91L624.88 342.8C624.88 343.71 624.7 344.61 624.35 345.44C624 346.28 623.49 347.05 622.85 347.69C622.21 348.33 621.45 348.84 620.61 349.19C619.77 349.53 618.87 349.71 617.96 349.72Z" />
	<path id="Layer" class="shp5" d="M320.56 229.12C319.31 229.12 318.12 229.61 317.24 230.49C316.36 231.37 315.87 232.57 315.87 233.81C315.87 235.06 316.36 236.25 317.24 237.13C318.12 238.01 319.31 238.5 320.56 238.51L541.91 238.51C543.15 238.5 544.34 238.01 545.22 237.13C546.1 236.25 546.6 235.06 546.6 233.81C546.6 232.57 546.1 231.37 545.22 230.49C544.34 229.61 543.15 229.12 541.91 229.12L320.56 229.12Z" />
	<path id="Layer" class="shp5" d="M320.56 256.32C319.31 256.32 318.12 256.82 317.24 257.7C316.36 258.58 315.87 259.77 315.87 261.02C315.87 262.26 316.36 263.45 317.24 264.34C318.12 265.22 319.31 265.71 320.56 265.71L541.91 265.71C543.15 265.71 544.34 265.22 545.22 264.34C546.1 263.45 546.6 262.26 546.6 261.02C546.6 259.77 546.1 258.58 545.22 257.7C544.34 256.82 543.15 256.32 541.91 256.32L320.56 256.32Z" />
	<path id="Layer" class="shp5" d="M320.56 283.2C319.31 283.2 318.12 283.7 317.24 284.58C316.36 285.46 315.87 286.65 315.87 287.89C315.87 289.14 316.36 290.33 317.24 291.21C318.12 292.09 319.31 292.59 320.56 292.59L415.8 292.59C417.05 292.59 418.25 292.1 419.13 291.22C420.01 290.34 420.51 289.14 420.51 287.89C420.51 286.65 420.01 285.45 419.13 284.57C418.25 283.69 417.05 283.2 415.8 283.2L320.56 283.2Z" />
	<path id="Layer" class="shp1" d="M618.65 367.38C603.07 367.38 590.48 354.78 590.48 339.2C590.48 323.63 603.07 311.03 618.65 311.03C634.23 311.03 646.82 323.63 646.82 339.2C646.82 354.78 634.23 367.38 618.65 367.38Z" />
	<path id="Layer" class="shp5" d="M616.3 351.66L607.36 340.17L612.56 336.12L616.79 341.56L631.1 326.47L635.88 331L616.3 351.66L616.3 351.66Z" />
	<path id="Layer" class="shp4" d="M572.16 49.65L526.38 60.13L507.04 23.65L546.18 8.37L572.16 49.65L572.16 49.65Z" />
	<path id="Layer" class="shp4" d="M610.2 308.74L627.36 293.15L590.36 209.69L558.03 169.89L610.85 192.76L616.34 250.97L642.61 260.01L639.21 187.32C639.1 185.07 638.67 182.84 637.94 180.71C637.2 178.57 636.16 176.55 634.85 174.71C633.55 172.87 631.98 171.23 630.21 169.83C628.44 168.44 626.47 167.3 624.38 166.46L581.04 149.05L573.28 116.48L528.04 115.83C513.98 140.29 507.7 161.82 517.85 177.16L564.92 223.07L610.2 308.74Z" />
	<path id="Layer" class="shp4" d="M618.2 298.06C618.2 298.06 620.63 290.77 624.46 292.45C628.28 294.12 638.99 302.62 638.99 302.62C638.99 302.62 656.87 305.15 645.67 311.63C634.47 318.11 630.09 317.71 629.73 316.79C629.37 315.88 626.46 313.84 626.46 313.84L622.24 316.55L615.11 317.22C615.11 317.22 605.77 301.4 608.77 300.98C611.78 300.56 618.35 301.16 618.2 298.06Z" />
	<path id="Layer" class="shp4" d="M629.48 253.37C629.48 253.37 636.92 251.43 637.6 255.55C638.28 259.67 637 273.28 637 273.28C637 273.28 644.64 289.65 633.09 283.8C621.55 277.95 619.5 274.05 620.07 273.25C620.64 272.45 620.76 268.91 620.76 268.91L616.19 266.84L611.74 261.23C611.74 261.23 619.9 244.78 621.89 247.06C623.88 249.35 626.96 255.19 629.48 253.37Z" />
	<path id="Layer" class="shp8" d="M533.49 46.24C524.32 46.24 516.91 38.83 516.91 29.66C516.91 20.49 524.32 13.08 533.49 13.08C542.66 13.08 550.07 20.49 550.07 29.66C550.07 38.83 542.66 46.24 533.49 46.24Z" />
	<path id="Layer" class="shp8" d="M531.56 84.3L571.82 78.49C565.81 67.61 559.61 57.7 551.29 58.81C543.88 53.63 543.45 45.29 545.33 35.92L525.18 41.31C526.95 47.08 526.27 52.16 521.54 56.07C528.14 65.36 532.41 74.73 531.56 84.3Z" />
	<path id="Layer" class="shp0" d="M528.52 119.6C542.83 138.22 557.49 145.58 573.26 118.96L574.56 107.08C584.68 94.32 581.72 83.29 569.38 73.51L563.43 59.51L554.46 58.07L554.46 58.07C555.64 59.43 556.39 61.12 556.61 62.91C556.84 64.7 556.53 66.51 555.72 68.13C554.91 69.74 553.64 71.08 552.08 71.97C550.51 72.87 548.71 73.28 546.91 73.15L543.67 72.92C543.07 72.88 542.48 72.78 541.9 72.62C541.32 72.46 540.75 72.24 540.22 71.97C539.68 71.71 539.17 71.38 538.7 71.01C538.22 70.64 537.79 70.23 537.39 69.77L523.62 53.78L517.81 55.33C517.48 55.42 517.17 55.56 516.89 55.74C516.6 55.92 516.35 56.15 516.13 56.41C515.92 56.67 515.74 56.96 515.62 57.28C515.49 57.59 515.42 57.93 515.39 58.26L513.51 84.91C521.8 94.09 526.56 105.83 528.52 119.6Z" />
	<path id="Layer" class="shp8" d="M522.12 108.25L490.44 101.82L511.48 82.25L503.47 67.76L469.47 103.93C468.88 104.6 468.49 105.41 468.34 106.28C468.18 107.15 468.27 108.05 468.59 108.87C468.91 109.7 469.45 110.42 470.15 110.96C470.85 111.5 471.69 111.84 472.57 111.93L518.62 117.03L520.51 125.37C520.76 126.48 521.28 127.51 522.01 128.38C522.75 129.24 523.68 129.92 524.73 130.35C525.78 130.79 526.92 130.96 528.06 130.86C529.19 130.75 530.28 130.38 531.24 129.77L531.24 129.77C532.12 129.2 532.87 128.44 533.43 127.55C533.98 126.66 534.34 125.65 534.45 124.61C534.57 123.56 534.46 122.5 534.12 121.51C533.78 120.51 533.22 119.6 532.48 118.85L522.12 108.25Z" />
	<path id="Layer" class="shp8" d="M571.37 159.74L567.17 170.69C566.76 171.76 566.58 172.91 566.64 174.05C566.7 175.19 567.01 176.31 567.54 177.33C568.07 178.34 568.81 179.24 569.7 179.95C570.6 180.66 571.64 181.17 572.75 181.45L572.75 181.45C574.06 181.78 575.42 181.77 576.72 181.44C578.02 181.11 579.22 180.46 580.21 179.55C581.2 178.64 581.94 177.5 582.38 176.23C582.82 174.96 582.93 173.61 582.72 172.28L580.94 161.45L586.78 118.14L581.56 89.52L569.64 93.18L573.6 119.82L571.37 159.74Z" />
	<path id="Layer" class="shp0" d="M566.87 96.24L584.9 89.21L574.85 67.2C574.32 66.03 573.63 64.93 572.8 63.95C571.97 62.96 571.01 62.1 569.95 61.37C568.89 60.64 567.74 60.06 566.52 59.64C565.3 59.22 564.04 58.97 562.75 58.89L558.13 58.61L566.87 96.24Z" />
	<path id="Layer" class="shp0" d="M507.5 87.26L526.72 80.75L519.94 57.7C519.84 57.33 519.66 56.98 519.43 56.67C519.2 56.36 518.92 56.1 518.6 55.89C518.27 55.67 517.92 55.52 517.54 55.44C517.16 55.35 516.77 55.33 516.39 55.38L516.39 55.38C516.23 55.4 516.07 55.43 515.91 55.48C515.76 55.52 515.6 55.58 515.45 55.65C515.3 55.71 515.16 55.79 515.02 55.88C514.89 55.97 514.76 56.07 514.64 56.18L495.01 73.59C498.76 79.77 502.76 79.93 507.5 87.26Z" />
	<path id="Layer" class="shp4" d="M544.51 2.74C544.51 2.74 554.65 4.65 556.99 17.3C557.08 17.83 557.16 18.36 557.21 18.9C557.27 19.44 557.3 19.98 557.32 20.52C557.33 21.06 557.33 21.6 557.31 22.14C557.29 22.68 557.25 23.22 557.19 23.75C556.96 26.19 557.3 31.33 562.58 37.38C563.44 38.37 564.29 39.36 565.13 40.37C565.96 41.37 566.78 42.39 567.58 43.42C568.38 44.45 569.17 45.5 569.94 46.55C570.71 47.6 571.47 48.67 572.21 49.75L572.21 49.75L561.61 52.57L556.88 35.01C556.3 32.89 555.65 30.78 554.93 28.71C554.2 26.63 553.4 24.58 552.52 22.56C551.64 20.55 550.69 18.56 549.66 16.61C548.64 14.67 547.55 12.76 546.38 10.89L546.29 10.73C546.29 10.73 542.77 20.14 533.33 21.43L536.24 17.6C536.24 17.6 525.21 23.97 518.97 25.92C518.25 26.14 517.61 26.55 517.12 27.11C516.62 27.67 516.29 28.35 516.15 29.09C516.02 29.82 516.08 30.58 516.35 31.28C516.61 31.98 517.06 32.59 517.64 33.06C517.69 33.09 517.73 33.13 517.78 33.16C522.37 36.65 531.75 44.98 528.04 53.04C524.34 61.09 528.66 62.56 528.66 62.56L520.69 59.53L517.05 57.97L517.42 60.66L499.62 61.04C499.62 61.04 494.81 61.01 503.36 48.17C503.36 48.17 505.42 43.36 503.73 39.68C503.39 38.99 503.09 38.28 502.84 37.55C502.58 36.82 502.37 36.08 502.21 35.33C502.04 34.57 501.92 33.81 501.84 33.04C501.77 32.28 501.74 31.5 501.75 30.73C502.29 17.79 507.74 -8.53 544.51 2.74Z" />
</svg>