<svg xmlns="http://www.w3.org/2000/svg" viewBox="0 0 1146 820" width="720" height="515"><defs><linearGradient id="grd1" gradientUnits="userSpaceOnUse"  x1="591.3" y1="646.08" x2="591.3" y2="107.75"><stop offset="0" stop-color="#808080" stop-opacity="0.25" /><stop offset="0.54" stop-color="#808080" stop-opacity="0.12" /><stop offset="1" stop-color="#808080" stop-opacity="0.1" /></linearGradient><linearGradient id="grd2" gradientUnits="userSpaceOnUse"  x1="184032.776" y1="483432.504" x2="184032.776" y2="163797.845"><stop offset="0" stop-color="#808080" stop-opacity="0.25" /><stop offset="0.54" stop-color="#808080" stop-opacity="0.12" /><stop offset="1" stop-color="#808080" stop-opacity="0.1" /></linearGradient></defs><style>tspan { white-space:pre }.shp0 { opacity: 0.102;fill: #70add8 } .shp1 { fill: url(#grd1) } .shp2 { fill: #ffffff } .shp3 { opacity: 0.039;fill: #ffffff } .shp4 { fill: #5a5773 } .shp5 { fill: #fa5959 } .shp6 { opacity: 0.2;fill: #70add8 } .shp7 { opacity: 0.102;fill: #5a5773 } .shp8 { opacity: 0.102;fill: #000000 } .shp9 { fill: #70add8 } .shp10 { fill: url(#grd2) } .shp11 { fill: #c37098 } .shp12 { fill: #3f3d56 } .shp13 { fill: none } .shp14 { opacity: 0.102;fill: #000000;stroke: #70add8 } .shp15 { fill: #000000 } .shp16 { fill: #535461 } .shp17 { fill: #9d9cb5 } .shp18 { fill: none;stroke: #535461;stroke-width: 2 } </style><path class="shp0" d="M1127.43 551.22C1100.86 606.03 1046.91 642.68 991 666.85C915.73 699.4 832.84 712.31 751.09 706.85C736.76 705.9 722.48 704.37 708.24 702.28C695.89 700.48 683.62 698.25 671.42 695.6C659.23 692.95 647.14 689.88 635.16 686.39C623.18 682.9 611.33 679 599.62 674.69C587.91 670.38 576.35 665.67 564.97 660.56C551.81 654.63 538.92 648.16 526.29 641.15C521.02 638.23 515.8 635.21 510.64 632.1C505.48 628.99 500.38 625.78 495.34 622.48C490.29 619.19 485.31 615.8 480.39 612.32C475.47 608.84 470.62 605.27 465.83 601.61C461.01 597.93 456.26 594.16 451.57 590.29C448.32 587.61 445.1 584.87 441.83 582.21C434.93 576.6 427.83 571.27 419.91 567.28C419.31 566.98 418.71 566.69 418.11 566.4C417.5 566.11 416.89 565.84 416.28 565.57C415.67 565.3 415.05 565.03 414.44 564.78C413.82 564.52 413.19 564.28 412.57 564.04C387.49 554.5 358.57 558.1 332.46 565.54C312.6 571.2 293.24 578.95 273.4 584.48C271.19 585.11 268.98 585.71 266.75 586.26C264.53 586.82 262.29 587.34 260.05 587.81C257.8 588.29 255.55 588.73 253.29 589.13C251.03 589.52 248.76 589.88 246.49 590.2C241.43 590.84 236.34 591.21 231.25 591.31C226.15 591.41 221.05 591.23 215.98 590.78C210.9 590.34 205.85 589.62 200.85 588.64C195.84 587.65 190.9 586.4 186.03 584.89L184.36 584.37C181.56 583.49 178.78 582.53 176.03 581.48L174.36 580.84C171.69 579.81 169.08 578.71 166.53 577.53L164.86 576.77C162.19 575.53 159.58 574.22 157.03 572.84C156.11 572.36 155.2 571.84 154.3 571.35C150.67 569.33 147.13 567.16 143.67 564.87C140.21 562.57 136.83 560.15 133.56 557.6C130.28 555.05 127.1 552.37 124.03 549.58C120.96 546.79 117.99 543.88 115.14 540.86C114.81 540.53 114.5 540.19 114.14 539.86C112.55 538.14 110.99 536.39 109.48 534.6C108.92 533.94 108.36 533.28 107.81 532.6C106.02 530.41 104.29 528.18 102.62 525.89C102.37 525.56 102.13 525.22 101.89 524.89C100.18 522.53 98.55 520.12 96.99 517.66C95.43 515.21 93.95 512.7 92.54 510.15C91.13 507.61 89.8 505.02 88.55 502.39C87.29 499.76 86.12 497.1 85.03 494.4C84.89 494.07 84.76 493.73 84.64 493.4C83.31 489.97 82.09 486.48 80.99 482.93C80.54 481.45 80.11 479.93 79.73 478.45C79.6 478.01 79.48 477.56 79.37 477.12C73.85 455.39 73.22 432.8 73.22 410.34C73.22 407.72 73.22 405.1 73.22 402.49C73.38 366.16 73.94 329.21 79.3 293.38C79.3 293.13 79.37 292.88 79.41 292.64C79.86 289.63 80.35 286.62 80.88 283.61C81.41 280.61 81.97 277.62 82.58 274.63C83.19 271.65 83.84 268.67 84.53 265.7C85.22 262.73 85.95 259.77 86.72 256.82C87.52 253.73 88.39 250.65 89.3 247.58C90.22 244.52 91.19 241.47 92.22 238.45C93.24 235.42 94.32 232.41 95.46 229.42C96.6 226.43 97.79 223.47 99.03 220.52C111.36 191.52 129.29 165.13 149.2 140.67C199.35 79.12 265.12 27.45 342.1 8.11C425.05 -12.72 517.24 7.24 584.15 60.51C604.55 76.75 622.88 95.98 645.79 108.43C665.79 119.27 689.2 123.76 710.62 115.23C728.32 108.18 739.84 104.68 759.72 105.75C769.99 106.33 780.24 107.3 790.44 108.65C800.63 109.99 810.78 111.73 820.85 113.83C830.92 115.94 840.9 118.43 850.78 121.29C860.67 124.14 870.44 127.37 880.08 130.96C881.64 131.53 883.2 132.12 884.75 132.71C985.46 171.24 1072.03 247.79 1117.03 346.16C1118.22 348.76 1119.38 351.38 1120.5 354.02C1147.33 416.69 1157.03 490.14 1127.43 551.22Z" /><path class="shp0" d="M120.3 742.99C71.48 742.99 32.02 736.65 32.02 728.81C32.02 720.97 71.48 714.63 120.3 714.63C169.12 714.63 208.58 720.97 208.58 728.81C208.58 736.65 169.12 742.99 120.3 742.99Z" /><path class="shp0" d="M912.26 819.91C825.7 819.91 755.73 813.12 755.73 804.71C755.73 796.3 825.7 789.51 912.26 789.51C998.82 789.51 1068.79 796.3 1068.79 804.71C1068.79 813.12 998.82 819.91 912.26 819.91Z" /><path class="shp1" d="M128.63 107.75L1053.98 107.75C1060.89 107.75 1066.47 113.33 1066.47 120.24L1066.47 633.59C1066.47 640.5 1060.89 646.08 1053.98 646.08L128.63 646.08C121.72 646.08 116.14 640.5 116.14 633.59L116.14 120.24C116.14 113.33 121.72 107.75 128.63 107.75Z" /><path class="shp2" d="M130.14 115.32L1052.58 115.32C1059.49 115.32 1065.07 120.9 1065.07 127.81L1065.07 631.8C1065.07 638.71 1059.49 644.29 1052.58 644.29L130.14 644.29C123.23 644.29 117.65 638.71 117.65 631.8L117.65 127.81C117.65 120.9 123.23 115.32 130.14 115.32Z" /><path class="shp2" d="M130.14 115.32L1052.58 115.32C1059.49 115.32 1065.07 120.9 1065.07 127.81L1065.07 631.8C1065.07 638.71 1059.49 644.29 1052.58 644.29L130.14 644.29C123.23 644.29 117.65 638.71 117.65 631.8L117.65 127.81C117.65 120.9 123.23 115.32 130.14 115.32Z" /><path class="shp3" d="M130.14 115.32L1052.58 115.32C1059.49 115.32 1065.07 120.9 1065.07 127.81L1065.07 631.8C1065.07 638.71 1059.49 644.29 1052.58 644.29L130.14 644.29C123.23 644.29 117.65 638.71 117.65 631.8L117.65 127.81C117.65 120.9 123.23 115.32 130.14 115.32Z" /><path class="shp4" d="M1060.26 109.25L122.46 109.25C121.83 109.25 121.2 109.37 120.62 109.62C120.04 109.86 119.51 110.21 119.06 110.66C118.61 111.11 118.26 111.64 118.02 112.22C117.77 112.8 117.65 113.43 117.65 114.06L117.65 134.39L1065.03 134.39L1065.03 114.06C1065.03 113.43 1064.91 112.81 1064.67 112.23C1064.43 111.65 1064.08 111.12 1063.64 110.67C1063.19 110.23 1062.67 109.87 1062.09 109.63C1061.51 109.38 1060.89 109.26 1060.26 109.25Z" /><g ><path class="shp2" d="M136.57 128.32C132.98 128.32 130.07 125.41 130.07 121.82C130.07 118.23 132.98 115.32 136.57 115.32C140.16 115.32 143.07 118.23 143.07 121.82C143.07 125.41 140.16 128.32 136.57 128.32Z" /><path class="shp2" d="M154.07 128.32C150.48 128.32 147.57 125.41 147.57 121.82C147.57 118.23 150.48 115.32 154.07 115.32C157.66 115.32 160.57 118.23 160.57 121.82C160.57 125.41 157.66 128.32 154.07 128.32Z" /><path class="shp5" d="M171.57 128.32C167.98 128.32 165.07 125.41 165.07 121.82C165.07 118.23 167.98 115.32 171.57 115.32C175.16 115.32 178.07 118.23 178.07 121.82C178.07 125.41 175.16 128.32 171.57 128.32Z" /></g><path class="shp6" d="M195.68 181.67L449.93 181.67L449.93 203.25L195.68 203.25L195.68 181.67Z" /><path class="shp7" d="M195.68 268.2L987.04 268.2L987.04 600.16L195.68 600.16L195.68 268.2Z" /><path fill-rule="evenodd" class="shp8" d="M659.03 289.85C661.99 289.86 664.92 290.45 667.65 291.59C670.38 292.72 672.86 294.38 674.95 296.48C677.04 298.57 678.7 301.05 679.84 303.78C680.97 306.51 681.56 309.44 681.57 312.4L681.57 420.62C681.56 423.58 680.97 426.51 679.84 429.24C678.7 431.97 677.04 434.45 674.95 436.54C672.86 438.64 670.38 440.3 667.65 441.43C664.92 442.57 661.99 443.16 659.03 443.17L523.73 443.17C520.77 443.16 517.84 442.57 515.11 441.43C512.38 440.3 509.9 438.64 507.81 436.54C505.71 434.45 504.05 431.97 502.92 429.24C501.78 426.51 501.19 423.58 501.18 420.62L501.18 312.4C501.19 309.44 501.78 306.51 502.92 303.78C504.05 301.05 505.71 298.57 507.81 296.48C509.9 294.38 512.38 292.72 515.11 291.59C517.84 290.45 520.77 289.86 523.73 289.85L537.25 289.85L537.25 262.8C537.27 255.64 538.71 248.55 541.48 241.95C544.26 235.34 548.31 229.36 553.41 224.33C558.51 219.3 564.55 215.32 571.19 212.64C577.83 209.96 584.94 208.61 592.1 208.69C621.8 209.14 645.48 233.83 645.48 263.53L645.48 289.85L659.03 289.85ZM599.28 360.18C606.81 356.51 610.81 348.12 608.93 339.95C607.04 331.79 599.77 326 591.39 326C583.01 326 575.74 331.79 573.85 339.95C571.97 348.12 575.97 356.51 583.5 360.18L583.5 399.18C583.5 400.25 583.72 401.31 584.14 402.29C584.56 403.28 585.18 404.16 585.95 404.9C586.72 405.64 587.64 406.21 588.64 406.59C589.64 406.96 590.71 407.13 591.78 407.08C592.79 407.01 593.79 406.74 594.7 406.3C595.62 405.86 596.44 405.25 597.13 404.5C597.82 403.75 598.37 402.88 598.73 401.93C599.1 400.99 599.29 399.98 599.28 398.96L599.28 360.18ZM629.69 262.8C629.69 252.63 625.65 242.88 618.46 235.7C611.28 228.51 601.53 224.47 591.36 224.47C581.19 224.47 571.44 228.51 564.26 235.7C557.07 242.88 553.03 252.63 553.03 262.8L553.03 289.85L629.72 289.85L629.69 262.8Z" /><path fill-rule="evenodd" class="shp9" d="M659.03 287.85C661.99 287.86 664.92 288.45 667.65 289.59C670.38 290.72 672.86 292.38 674.95 294.48C677.04 296.57 678.7 299.05 679.84 301.78C680.97 304.51 681.56 307.44 681.57 310.4L681.57 418.62C681.56 421.58 680.97 424.51 679.84 427.24C678.7 429.97 677.04 432.45 674.95 434.54C672.86 436.64 670.38 438.3 667.65 439.43C664.92 440.57 661.99 441.16 659.03 441.17L523.73 441.17C520.77 441.16 517.84 440.57 515.11 439.43C512.38 438.3 509.9 436.64 507.81 434.54C505.71 432.45 504.05 429.97 502.92 427.24C501.78 424.51 501.19 421.58 501.18 418.62L501.18 310.4C501.19 307.44 501.78 304.51 502.92 301.78C504.05 299.05 505.71 296.57 507.81 294.48C509.9 292.38 512.38 290.72 515.11 289.59C517.84 288.45 520.77 287.86 523.73 287.85L537.25 287.85L537.25 260.8C537.27 253.64 538.71 246.55 541.48 239.95C544.26 233.34 548.31 227.36 553.41 222.33C558.51 217.3 564.55 213.32 571.19 210.64C577.83 207.96 584.94 206.61 592.1 206.69C621.8 207.14 645.48 231.83 645.48 261.53L645.48 287.85L659.03 287.85ZM599.28 358.18C606.81 354.51 610.81 346.12 608.93 337.95C607.04 329.79 599.77 324 591.39 324C583.01 324 575.74 329.79 573.85 337.95C571.97 346.12 575.97 354.51 583.5 358.18L583.5 397.18C583.5 398.25 583.72 399.31 584.14 400.29C584.56 401.28 585.18 402.16 585.95 402.9C586.72 403.64 587.64 404.21 588.64 404.59C589.64 404.96 590.71 405.13 591.78 405.08C592.79 405.01 593.79 404.74 594.7 404.3C595.62 403.86 596.44 403.25 597.13 402.5C597.82 401.75 598.37 400.88 598.73 399.93C599.1 398.99 599.29 397.98 599.28 396.96L599.28 358.18ZM629.69 260.8C629.69 250.63 625.65 240.88 618.46 233.7C611.28 226.51 601.53 222.47 591.36 222.47C581.19 222.47 571.44 226.51 564.26 233.7C557.07 240.88 553.03 250.63 553.03 260.8L553.03 287.85L629.72 287.85L629.69 260.8Z" /><path class="shp7" d="M906.94 236.25L987.04 236.25L987.04 255.16L906.94 255.16L906.94 236.25Z" /><path fill-rule="evenodd" class="shp10" d="M1014.3 809.29C1014.34 809.52 1014.37 809.75 1014.37 809.98C1014.38 810.21 1014.37 810.44 1014.35 810.67C1014.32 810.89 1014.28 811.12 1014.23 811.34C1014.17 811.57 1014.1 811.79 1014.01 812C1012.58 814.93 1002.16 813.06 1000.01 812.84C997.86 812.62 982.69 805.08 982.47 803.3C982.25 801.52 977 797.85 975.52 797.85C974.04 797.85 966.88 792.19 966.25 791.35C966.21 791.25 966.18 791.14 966.15 791.03C966.12 790.92 966.09 790.82 966.07 790.71C966.06 790.6 966.04 790.49 966.04 790.37C966.03 790.26 966.03 790.15 966.03 790.04C965.9 788.04 966 784.21 966.1 781.35C965.97 781.3 965.83 781.24 965.7 781.18C965.57 781.12 965.44 781.06 965.31 780.99C965.18 780.92 965.05 780.85 964.93 780.78C964.8 780.71 964.68 780.63 964.56 780.55C957.61 775.96 952.77 749.55 952.77 749.55C952.77 749.55 953.83 718.52 952.77 717.06C951.71 715.6 947.93 708.68 949.19 707.21C950.45 705.74 948.09 698 946.45 694.64C944.81 691.28 945.45 681.64 945.45 681.64L941.23 656.06L934.7 625.67L929.23 605.34C929.23 605.34 923.61 588.78 921.61 581.86C919.61 574.94 917.61 581.23 917.61 581.23C917.41 587.94 901.82 618.13 901.82 618.13C901.82 618.13 899.5 636.36 896.97 642.86C894.44 649.36 891.71 672 891.71 672C891.71 672 887.69 718.1 884.33 725.86C880.97 733.62 878.65 745.15 878.65 745.15C878.65 745.15 879.48 761.08 877.38 762.34C875.28 763.6 875.7 773.24 875.7 773.24C875.7 773.24 876.97 782.46 872.12 783.93C868.94 784.9 868.23 786.65 868.12 787.65L869.05 791.15L869.73 793.68C869.73 793.68 865.41 799.02 859.62 799.44C858.87 799.44 858.12 799.59 857.42 799.88C856.72 800.16 856.09 800.57 855.54 801.09C855 801.62 854.56 802.24 854.25 802.92C853.93 803.61 853.76 804.35 853.72 805.1C853.72 805.1 854.72 808.35 840.72 812.86C832.29 815.57 826.99 814.71 823.9 812.86C823.49 812.64 823.1 812.37 822.74 812.08C822.38 811.78 822.05 811.45 821.75 811.09C821.45 810.73 821.19 810.35 820.96 809.94C820.73 809.53 820.55 809.1 820.4 808.66C819.6 805.84 832.72 787.29 836.86 781.54C836.85 781.51 836.83 781.48 836.82 781.46C836.81 781.43 836.8 781.4 836.79 781.37C836.77 781.34 836.76 781.32 836.75 781.29C836.74 781.26 836.73 781.23 836.72 781.2C832.3 769.48 838.41 766.31 838.72 765.48C839.03 764.65 842.4 763.17 839.46 759.82C836.52 756.47 843.25 747.25 843.25 747.25C843.25 747.25 844.3 734.25 846.2 733.83C848.1 733.41 847.47 714.55 847.47 714.55L849.57 694.84C849.57 694.84 852.31 650.79 851.68 649.15C851.05 647.51 851.48 639.14 853.58 635.15C855.68 631.16 857.37 594.48 857.37 594.48C857.37 594.48 856.95 576.46 858.63 573.1C859.59 571.2 860.07 563.94 860.31 557.94C860.37 557.31 860.37 556.7 860.37 556.1C859.57 555.52 858.83 554.86 858.17 554.12C857.51 553.39 856.94 552.58 856.45 551.72C855.97 550.86 855.57 549.95 855.29 549C855 548.06 854.81 547.08 854.73 546.1L860.22 494.82L858.49 493.26C846.56 482.42 829.59 466.91 829.8 466.5C830.11 465.87 832.8 428.93 833.11 419.65C833.18 418.01 833.32 416.36 833.54 414.73C833.75 413.1 834.04 411.48 834.4 409.87C834.75 408.26 835.18 406.67 835.68 405.1C836.18 403.54 836.75 401.99 837.38 400.47C837.98 399.27 839.68 391.59 840.46 388.01L840.83 386.26C840.8 386.12 838.61 377.99 842.62 377.78C846.63 377.57 847.46 373.79 846.94 368.66C846.42 363.53 850 354.1 854.31 354.1C854.95 354.1 855.58 354.05 856.21 353.95C856.84 353.86 857.47 353.71 858.07 353.51C858.68 353.32 859.27 353.07 859.84 352.78C860.41 352.5 860.95 352.16 861.47 351.79C861.47 351.79 875.28 346.98 879.17 346.24C883.06 345.5 894.33 339 894.33 339C898.44 330.53 901.47 335.21 901.78 334.81C901.77 334.84 901.77 334.87 901.77 334.89L901.8 334.89L901.8 334.71C901.82 333.7 901.82 332.69 901.8 331.68C901.77 330.68 901.73 329.67 901.66 328.66C901.59 327.65 901.5 326.65 901.38 325.65C901.27 324.65 901.13 323.65 900.97 322.65C900.94 322.4 900.86 322.16 900.86 321.92C899.55 320.84 898.34 319.65 897.24 318.36C896.14 317.07 895.15 315.68 894.29 314.22C893.43 312.76 892.69 311.23 892.09 309.64C891.5 308.05 891.04 306.42 890.72 304.75C890.64 304.31 890.57 303.86 890.5 303.41C890.41 303.37 890.32 303.34 890.23 303.31C890.14 303.28 890.04 303.24 889.95 303.22C889.86 303.19 889.77 303.16 889.67 303.13C889.58 303.11 889.48 303.08 889.39 303.06C887.28 302.56 886.03 304.52 884.03 304.06C883.55 303.91 883.09 303.72 882.65 303.48C882.2 303.24 881.79 302.95 881.4 302.63C881.02 302.31 880.67 301.95 880.35 301.55C880.04 301.16 879.77 300.74 879.54 300.29C879.37 299.97 879.23 299.63 879.1 299.29C878.97 298.95 878.87 298.6 878.78 298.25C878.7 297.9 878.64 297.54 878.6 297.18C878.56 296.82 878.54 296.45 878.54 296.09C878.53 295.98 878.53 295.88 878.53 295.77C878.52 295.66 878.52 295.56 878.52 295.45C878.52 295.34 878.52 295.24 878.53 295.13C878.53 295.02 878.53 294.92 878.54 294.81L878.54 294.97C878.56 294.74 878.6 294.5 878.64 294.27C878.68 294.04 878.72 293.81 878.78 293.58C878.83 293.35 878.9 293.12 878.97 292.9C879.04 292.67 879.12 292.45 879.2 292.23C879.92 290.34 881.18 288.67 881.92 286.77C882.16 286.13 882.35 285.47 882.48 284.79C882.61 284.12 882.67 283.43 882.68 282.75C882.68 282.06 882.63 281.37 882.51 280.7C882.39 280.02 882.22 279.36 881.98 278.71C881.47 277.34 880.71 275.97 880.71 274.53C880.71 274.47 880.7 274.42 880.7 274.36C880.7 274.31 880.7 274.25 880.7 274.19C880.7 274.14 880.7 274.08 880.7 274.03C880.7 273.97 880.71 273.92 880.71 273.86C880.72 273.82 880.72 273.77 880.73 273.73C880.74 273.69 880.74 273.65 880.75 273.6C880.76 273.56 880.77 273.52 880.78 273.48C880.79 273.43 880.8 273.39 880.81 273.35C880.81 273.4 880.81 273.45 880.81 273.51C881.43 271.41 883.81 270.14 885.81 269.03C889.06 267.25 892.2 264.69 893.06 261.11C893.54 259.08 893.23 256.93 893.86 254.93C895.04 251.24 899.27 249.24 903.18 249.24C907.09 249.24 910.78 250.81 914.42 252.24C918.06 253.67 921.97 254.92 925.81 254.24C928.62 253.75 931.19 252.24 934.03 251.96C934.93 251.88 935.85 251.92 936.74 252.09C937.63 252.26 938.5 252.55 939.31 252.95C940.13 253.35 940.88 253.87 941.55 254.47C942.23 255.08 942.82 255.78 943.3 256.55C945.57 260.25 945.56 265.67 949.38 267.75C950.68 268.48 952.29 268.62 953.68 269.23C954.09 269.43 954.48 269.66 954.86 269.9C955.24 270.15 955.6 270.42 955.95 270.71C956.29 271 956.62 271.32 956.93 271.65C957.24 271.98 957.53 272.32 957.8 272.69C958.03 272.94 958.25 273.2 958.46 273.48C958.66 273.75 958.84 274.04 959.01 274.34C959.18 274.64 959.33 274.95 959.46 275.26C959.59 275.58 959.71 275.9 959.8 276.23L959.8 276.11C959.81 276.18 959.82 276.24 959.83 276.31C959.84 276.38 959.84 276.44 959.85 276.51C959.86 276.58 959.86 276.64 959.86 276.71C959.87 276.78 959.87 276.84 959.87 276.91C960.12 280.3 957.06 283.36 956.76 286.84C956.45 290.54 959.27 293.77 959.94 297.41C959.94 297.42 959.94 297.44 959.94 297.45C959.94 297.48 959.94 297.5 959.94 297.53C959.94 297.55 959.94 297.58 959.94 297.6C959.95 297.67 959.95 297.74 959.95 297.8C959.96 297.87 959.96 297.94 959.96 298.01C959.96 298.08 959.96 298.15 959.95 298.22C959.95 298.28 959.95 298.35 959.94 298.42C959.96 298.62 959.97 298.81 959.95 299.01C959.93 299.21 959.89 299.4 959.84 299.59C959.78 299.78 959.7 299.97 959.61 300.14C959.52 300.31 959.41 300.48 959.28 300.63C958.51 301.42 957.28 301.48 956.28 301.87C953.82 302.8 952.2 305.73 949.57 305.73C949.49 305.73 949.41 305.72 949.33 305.71C949.25 305.7 949.18 305.69 949.1 305.68C949.02 305.66 948.94 305.65 948.87 305.63C948.79 305.61 948.71 305.59 948.64 305.56C948.55 305.94 948.47 306.33 948.37 306.71C947.93 308.38 947.34 310.01 946.61 311.58C945.89 313.15 945.02 314.66 944.03 316.08C943.04 317.49 941.93 318.82 940.7 320.04C939.48 321.27 938.15 322.38 936.73 323.37L936.82 323.93C936.97 324.7 937.15 325.46 937.34 326.21C937.54 326.97 937.76 327.72 938 328.46C938.23 329.21 938.49 329.95 938.77 330.68C939.05 331.41 939.35 332.13 939.67 332.84C942.69 330.13 945.71 337.69 947.03 338.13C948.35 338.57 949.65 339.06 950.93 339.59C952.22 340.12 953.48 340.7 954.72 341.32C955.97 341.95 957.19 342.61 958.38 343.32C959.58 344.03 960.75 344.78 961.89 345.57C969.63 350.86 982.63 352.8 982.63 352.8C998.11 355 996.85 359.71 996.22 366C995.59 372.29 1002.85 386.13 1002.85 386.13C1002.85 386.13 1002.98 386.72 1003.18 387.66C1003.92 391.09 1005.71 399.2 1006.33 400.43C1006.96 401.95 1007.53 403.5 1008.03 405.06C1008.53 406.63 1008.95 408.22 1009.31 409.83C1009.67 411.44 1009.95 413.06 1010.17 414.69C1010.38 416.32 1010.52 417.97 1010.59 419.61C1010.91 428.89 1013.66 465.97 1013.91 466.46C1014.16 466.95 989.39 489.45 978.65 499.17L977.42 500.28L978.84 554.34C978.84 554.34 978.37 554.61 977.49 555.04L977.62 556.87L984.74 654.64L988.74 691.53C988.74 691.53 990.43 708.93 990.64 712.07C990.85 715.21 992.95 735.76 992.95 735.76C992.95 735.76 997.38 745.6 994.64 748.96C991.9 752.32 992.95 755.05 992.95 755.05C992.95 755.05 1001.58 765.92 999.69 770.34C997.8 774.76 999.69 783.76 999.69 783.76L999.62 783.76L1011.62 801.68C1011.93 802.28 1012.22 802.89 1012.49 803.51C1012.76 804.13 1013.01 804.75 1013.23 805.39C1013.46 806.03 1013.66 806.67 1013.83 807.32C1014.01 807.97 1014.17 808.63 1014.3 809.29ZM975.74 430.49L976.53 462.87L979.06 462.87C979.06 462.87 981.9 458.76 980.96 456.87C980.79 456.43 980.65 455.98 980.52 455.53C980.39 455.08 980.28 454.63 980.18 454.16C980.09 453.7 980.02 453.24 979.96 452.77C979.91 452.31 979.87 451.84 979.85 451.37C979.85 451.37 980.8 446.33 980.01 443.74C979.22 441.15 978.11 432.5 978.11 432.5L977.03 431.57L975.74 430.49ZM901.8 334.71C901.8 334.76 901.79 334.79 901.78 334.81C901.78 334.77 901.79 334.74 901.8 334.7L901.8 334.71ZM862.95 459.54C863.05 459.8 863.16 460.06 863.28 460.32C863.4 460.58 863.52 460.84 863.65 461.09C863.79 461.34 863.92 461.59 864.07 461.83C864.21 462.07 864.36 462.31 864.52 462.55C865.08 458.15 865.41 454.88 865.17 454.77C864.43 454.45 867.49 446.28 868.33 445.45C868.78 445.03 868.5 436.63 868.15 429.03C868.03 429.92 868.03 430.46 868.03 430.46L866.36 431.91L865.64 432.52C865.64 432.52 864.5 441.3 863.75 443.76C863 446.22 863.81 450.86 863.9 451.34C863.9 451.35 863.9 451.36 863.9 451.36C863.9 451.37 863.9 451.37 863.9 451.38L863.9 451.39C863.88 451.73 863.86 452.06 863.82 452.4C863.79 452.73 863.75 453.07 863.7 453.4C863.65 453.74 863.59 454.07 863.53 454.4C863.47 454.73 863.4 455.06 863.32 455.39C863.29 455.52 863.25 455.64 863.21 455.77C863.18 455.89 863.14 456.02 863.09 456.14C863.05 456.27 863 456.39 862.95 456.51C862.9 456.63 862.85 456.75 862.79 456.87C862.72 457.09 862.67 457.31 862.64 457.54C862.61 457.76 862.6 457.99 862.62 458.22C862.63 458.45 862.67 458.67 862.72 458.9C862.78 459.12 862.85 459.33 862.95 459.54Z" /><path class="shp11" d="M943.55 342.88L943.55 355.32L918.03 368.15C918.03 368.15 892.69 352.82 898.94 346.72C902.94 342.86 902.17 332.26 901.09 324.97L901.09 324.97C900.46 320.73 899.73 317.62 899.73 317.62C899.73 317.62 945.25 304.62 938.37 314.49C936.07 317.79 935.89 322.06 936.66 326.29C938.22 334.68 943.55 342.88 943.55 342.88Z" /><path class="shp12" d="M873.64 464.53L870.35 505.05C870.35 505.05 865.42 500.58 859.04 494.76C847.21 483.97 830.41 468.54 830.61 468.13C830.92 467.5 833.61 430.74 833.9 421.5C833.97 419.86 834.11 418.23 834.32 416.61C834.53 414.99 834.81 413.37 835.17 411.77C835.52 410.18 835.95 408.59 836.44 407.03C836.93 405.47 837.49 403.93 838.12 402.42C838.72 401.22 840.41 393.58 841.12 390.01C841.36 388.9 841.51 388.18 841.51 388.18L847.03 385.96C847.03 385.96 870.03 411.62 870.03 412.09C870.03 412.56 868.46 432.27 868.46 432.27L866.83 433.69L866.12 434.3C866.12 434.3 865.02 442.91 864.24 445.49C863.46 448.07 864.3 452.55 864.39 453.03L864.39 453.03C864.37 453.37 864.35 453.7 864.31 454.04C864.28 454.37 864.24 454.71 864.19 455.04C864.14 455.38 864.09 455.71 864.03 456.04C863.97 456.37 863.9 456.7 863.82 457.03C863.79 457.16 863.75 457.28 863.71 457.41C863.67 457.53 863.63 457.65 863.59 457.78C863.55 457.9 863.5 458.02 863.45 458.14C863.4 458.26 863.35 458.38 863.29 458.5C863.22 458.72 863.17 458.94 863.14 459.16C863.11 459.39 863.11 459.62 863.12 459.85C863.13 460.07 863.17 460.3 863.22 460.52C863.28 460.74 863.35 460.95 863.45 461.16C863.56 461.45 863.68 461.74 863.81 462.02C863.94 462.3 864.07 462.58 864.21 462.85C864.36 463.13 864.51 463.4 864.67 463.67C864.83 463.93 865 464.19 865.17 464.45L873.64 464.53Z" /><path class="shp12" d="M1013.03 468.13C1013.27 468.62 988.74 491.01 978.11 500.68L973.29 505.05L970.03 464.53L978.48 464.53C978.48 464.53 981.3 460.46 980.36 458.58C980.2 458.14 980.05 457.7 979.92 457.25C979.8 456.8 979.69 456.35 979.59 455.89C979.5 455.43 979.43 454.97 979.38 454.51C979.32 454.04 979.29 453.58 979.27 453.11C979.25 452.64 980.2 448.11 979.42 445.52C978.64 442.93 977.54 434.33 977.54 434.33L976.47 433.41L975.2 432.3C975.2 432.3 973.63 412.59 973.63 412.12C973.63 411.65 996.63 385.99 996.63 385.99L1002.11 388.18C1002.11 388.18 1002.23 388.77 1002.43 389.71C1003.17 393.12 1004.94 401.19 1005.55 402.42C1006.18 403.93 1006.74 405.47 1007.23 407.03C1007.72 408.59 1008.15 410.18 1008.5 411.77C1008.86 413.37 1009.14 414.99 1009.35 416.61C1009.56 418.23 1009.7 419.86 1009.77 421.5C1010.03 430.74 1012.71 467.5 1013.03 468.13Z" /><path class="shp12" d="M1013.13 812.07C1011.66 814.99 1001.34 813.07 999.21 812.91C997.08 812.75 982.04 805.18 981.83 803.41C981.62 801.64 976.41 797.99 974.95 797.99C973.49 797.99 966.4 792.35 965.77 791.52C965.73 791.42 965.7 791.31 965.67 791.2C965.64 791.1 965.61 790.99 965.6 790.88C965.58 790.77 965.57 790.66 965.56 790.55C965.56 790.44 965.55 790.33 965.56 790.22C965.34 786.79 965.77 777.96 965.77 777.96L996.02 779.63L1010.72 801.74C1011.03 802.34 1011.32 802.94 1011.58 803.56C1011.85 804.17 1012.1 804.8 1012.32 805.43C1012.54 806.06 1012.74 806.7 1012.92 807.35C1013.09 808 1013.25 808.65 1013.38 809.31C1013.42 809.54 1013.45 809.77 1013.46 810.01C1013.48 810.24 1013.47 810.47 1013.45 810.71C1013.43 810.94 1013.39 811.17 1013.34 811.4C1013.28 811.63 1013.21 811.85 1013.13 812.07L1013.13 812.07Z" /><path class="shp8" d="M1013.13 812.07C1011.66 814.99 1001.34 813.07 999.21 812.91C997.08 812.75 982.04 805.18 981.83 803.41C981.62 801.64 976.41 797.99 974.95 797.99C973.49 797.99 966.4 792.35 965.77 791.52C965.73 791.42 965.7 791.31 965.67 791.2C965.64 791.1 965.61 790.99 965.6 790.88C965.58 790.77 965.57 790.66 965.56 790.55C965.56 790.44 965.55 790.33 965.56 790.22C965.34 786.79 965.77 777.96 965.77 777.96L996.02 779.63L1010.72 801.74C1011.03 802.34 1011.32 802.94 1011.58 803.56C1011.85 804.17 1012.1 804.8 1012.32 805.43C1012.54 806.06 1012.74 806.7 1012.92 807.35C1013.09 808 1013.25 808.65 1013.38 809.31C1013.42 809.54 1013.45 809.77 1013.46 810.01C1013.48 810.24 1013.47 810.47 1013.45 810.71C1013.43 810.94 1013.39 811.17 1013.34 811.4C1013.28 811.63 1013.21 811.85 1013.13 812.07L1013.13 812.07Z" /><path class="shp8" d="M1013.13 812.07C1011.66 814.99 1001.34 813.07 999.21 812.91C997.08 812.75 982.04 805.18 981.83 803.41C981.62 801.64 976.41 797.99 974.95 797.99C973.49 797.99 966.4 792.35 965.77 791.52C965.73 791.42 965.7 791.31 965.67 791.2C965.64 791.1 965.61 790.99 965.6 790.88C965.58 790.77 965.57 790.66 965.56 790.55C965.56 790.44 965.55 790.33 965.56 790.22L975.36 796.42C975.36 796.42 981.62 800.42 983.29 802.79C984.96 805.16 998.12 810.09 999.21 810.19C1000.02 810.27 1008.66 808.61 1013.38 809.31C1013.42 809.54 1013.45 809.77 1013.46 810.01C1013.48 810.24 1013.47 810.47 1013.45 810.71C1013.43 810.94 1013.39 811.17 1013.34 811.4C1013.28 811.63 1013.21 811.85 1013.13 812.07L1013.13 812.07Z" /><path class="shp12" d="M870.13 793.82C870.13 793.82 865.85 799.14 860.13 799.55C859.38 799.56 858.64 799.7 857.95 799.99C857.26 800.27 856.62 800.68 856.09 801.2C855.55 801.72 855.11 802.34 854.81 803.02C854.5 803.7 854.32 804.43 854.29 805.18C854.26 805.93 855.29 808.42 841.46 812.91C833.11 815.6 827.86 814.75 824.8 812.91C824.39 812.69 824.01 812.42 823.65 812.13C823.3 811.83 822.97 811.5 822.67 811.15C822.37 810.79 822.11 810.41 821.89 810C821.66 809.6 821.48 809.17 821.33 808.73C820.39 805.4 838.85 780.05 838.85 780.05L855.65 779.05L867.65 784.47L869.49 791.34L870.13 793.82Z" /><path class="shp8" d="M870.13 793.82C870.13 793.82 865.85 799.14 860.13 799.55C859.38 799.56 858.64 799.7 857.95 799.99C857.26 800.27 856.62 800.68 856.09 801.2C855.55 801.72 855.11 802.34 854.81 803.02C854.5 803.7 854.32 804.43 854.29 805.18C854.26 805.93 855.29 808.42 841.46 812.91C833.11 815.6 827.86 814.75 824.8 812.91C824.39 812.69 824.01 812.42 823.65 812.13C823.3 811.83 822.97 811.5 822.67 811.15C822.37 810.79 822.11 810.41 821.89 810C821.66 809.6 821.48 809.17 821.33 808.73C820.39 805.4 838.85 780.05 838.85 780.05L855.65 779.05L867.65 784.47L869.49 791.34L870.13 793.82Z" /><path class="shp13" d="M870.13 793.82C870.13 793.82 865.85 799.14 860.13 799.55C859.38 799.56 858.64 799.7 857.95 799.99C857.26 800.27 856.62 800.68 856.09 801.2C855.55 801.72 855.11 802.34 854.81 803.02C854.5 803.7 854.32 804.43 854.29 805.18C854.26 805.93 855.29 808.42 841.46 812.91C833.11 815.6 827.86 814.75 824.8 812.91C832.67 812.09 850.06 807.12 851.8 805.4C853.89 803.31 856.5 797.57 858.27 797.47C859.5 797.39 865.75 793.63 869.5 791.3L870.13 793.82Z" /><path class="shp8" d="M870.13 793.82C870.13 793.82 865.85 799.14 860.13 799.55C859.38 799.56 858.64 799.7 857.95 799.99C857.26 800.27 856.62 800.68 856.09 801.2C855.55 801.72 855.11 802.34 854.81 803.02C854.5 803.7 854.32 804.43 854.29 805.18C854.26 805.93 855.29 808.42 841.46 812.91C833.11 815.6 827.86 814.75 824.8 812.91C832.67 812.09 850.06 807.12 851.8 805.4C853.89 803.31 856.5 797.57 858.27 797.47C859.5 797.39 865.75 793.63 869.5 791.3L870.13 793.82Z" /><path class="shp12" d="M998.94 770.56C997.06 774.94 998.94 783.91 998.94 783.91C998.94 783.91 970.94 785.37 964.1 780.78C957.26 776.19 952.42 749.9 952.42 749.9C952.42 749.9 953.42 719.03 952.42 717.57C951.42 716.11 947.62 709.23 948.87 707.77C950.12 706.31 947.87 698.59 946.16 695.25C944.45 691.91 945.16 682.32 945.16 682.32L940.98 656.86L934.52 626.62L929.03 606.38C929.03 606.38 923.4 589.9 921.49 583.02C919.58 576.14 917.56 582.39 917.56 582.39C917.36 589.07 901.92 619.11 901.92 619.11C901.92 619.11 899.62 637.26 897.12 643.72C894.62 650.18 891.9 672.72 891.9 672.72C891.9 672.72 887.9 718.61 884.6 726.33C881.3 734.05 879.03 745.52 879.03 745.52C879.03 745.52 879.87 761.38 877.78 762.63C875.69 763.88 876.03 773.48 876.03 773.48C876.03 773.48 877.28 782.65 872.48 784.12C867.68 785.59 868.48 788.71 868.48 788.71C868.48 788.71 841.78 793.09 837.4 781.4C833.02 769.71 839.07 766.6 839.4 765.76C839.73 764.92 843.06 763.47 840.14 760.12C837.22 756.77 843.89 747.61 843.89 747.61C843.89 747.61 844.94 734.68 846.81 734.26C848.68 733.84 848.07 715.07 848.07 715.07L850.15 695.46C850.15 695.46 852.87 651.65 852.24 649.98C851.61 648.31 852.03 639.98 854.12 635.98C856.21 631.98 857.87 595.5 857.87 595.5C857.87 595.5 857.45 577.57 859.12 574.23C860.12 572.34 860.54 565.07 860.78 559.14C860.96 554.61 861 550.86 861 550.86L884.36 542.1L914.36 532.51L939.6 544.61L976.53 551.7L976.99 558.07L984.04 655.38L988.04 692.09C988.04 692.09 989.71 709.4 989.92 712.53C990.13 715.66 992.21 736.11 992.21 736.11C992.21 736.11 996.59 745.91 993.88 749.25C991.17 752.59 992.21 755.25 992.21 755.25C992.21 755.25 1000.82 766.18 998.94 770.56Z" /><path class="shp8" d="M938.39 314.49C936.09 317.79 935.91 322.06 936.68 326.29C934.07 328.13 931.18 329.53 928.11 330.44C925.05 331.35 921.86 331.75 918.67 331.64C915.48 331.52 912.33 330.88 909.34 329.74C906.36 328.61 903.58 326.99 901.11 324.96L901.11 324.96C900.48 320.72 899.75 317.61 899.75 317.61C899.75 317.61 945.27 304.63 938.39 314.49Z" /><path class="shp11" d="M949.03 301.73C949.03 313.58 941.89 324.26 930.94 328.8C919.99 333.33 907.39 330.83 899.01 322.45C890.63 314.07 888.13 301.47 892.66 290.52C897.2 279.57 907.88 272.43 919.73 272.43C923.58 272.41 927.4 273.16 930.96 274.62C934.53 276.09 937.77 278.25 940.49 280.97C943.21 283.69 945.37 286.93 946.84 290.5C948.3 294.06 949.05 297.88 949.03 301.73Z" /><path class="shp8" d="M955.13 350.42L945.53 521.37L893.38 510.42L883.05 441.89L893.28 349.89L900.98 350.88L914.56 352.61L928.01 353.44L942.59 351.82L955.13 350.42L955.13 350.42Z" /><path class="shp9" d="M955.13 351.67L945.53 522.62L893.38 511.67L883.05 443.14L893.28 351.15L900.98 352.13L914.56 353.86L928.01 354.69L942.59 353.07L955.13 351.67L955.13 351.67Z" /><path class="shp12" d="M912.26 356.26L931.04 356.89L925.76 364.28C925.76 364.28 926.13 379.21 928.64 383.49C931.15 387.77 930.41 453.89 930.41 453.89L925.41 463.38L916.86 452.74L916.97 365.44L912.26 356.26Z" /><path class="shp8" d="M912.26 356.26L931.04 356.89L925.76 364.28C925.76 364.28 926.13 379.21 928.64 383.49C931.15 387.77 930.41 453.89 930.41 453.89L925.41 463.38L916.86 452.74L916.97 365.44L912.26 356.26Z" /><path class="shp8" d="M941.67 336.86L924.15 356.26L934.16 366.69L950.75 350.52L941.67 336.86L941.67 336.86Z" /><path class="shp9" d="M941.67 335.61L924.15 355.01L934.16 365.44L950.75 349.27L941.67 335.61L941.67 335.61Z" /><path class="shp8" d="M916.75 355.32L899.01 337.59L897.34 346.87L905.48 367.21L916.75 355.32L916.75 355.32Z" /><path class="shp9" d="M917.37 354.07L899.64 336.34L897.97 345.62L906.11 365.96L917.37 354.07L917.37 354.07Z" /><path class="shp8" d="M977.08 558.1C974.96 559.11 972.79 560.04 970.59 560.87C968.39 561.71 966.16 562.45 963.9 563.11C961.64 563.76 959.35 564.32 957.05 564.79C954.74 565.26 952.42 565.63 950.08 565.91C932.87 568.1 921.61 546.2 921.61 546.2L915.04 554.75C912.95 563.83 881.14 566.12 868.21 562.68C867.54 562.51 866.88 562.32 866.23 562.09C865.58 561.85 864.95 561.59 864.32 561.3C863.7 561 863.09 560.68 862.5 560.32C861.91 559.97 861.34 559.58 860.79 559.17C860.97 554.64 861.01 550.89 861.01 550.89L884.37 542.13L914.37 532.54L939.61 544.64L976.54 551.73L977.08 558.1Z" /><path class="shp8" d="M955.13 351.68L945.54 522.62L893.38 511.67L883.03 443.15L893.25 351.15L900.95 352.15C900.9 352.99 900.84 353.82 900.77 354.66C900.7 355.5 900.61 356.33 900.52 357.17C900.43 358 900.32 358.83 900.2 359.66C900.09 360.49 899.96 361.32 899.82 362.15C898.57 368 906.29 409.51 906.29 409.51C906.29 409.51 920.96 456.06 927.56 449.35C934.16 442.64 943.56 407.21 943.56 407.21C949.93 394.07 943.67 357.21 943.2 356.47C943.12 356.2 943.04 355.92 942.98 355.65C942.91 355.37 942.85 355.09 942.8 354.81C942.75 354.53 942.71 354.25 942.68 353.97C942.64 353.69 942.62 353.4 942.6 353.12L955.13 351.68Z" /><path class="shp8" d="M977.66 483.96L978.1 500.71L973.28 505.08L970.03 464.53L977.23 464.53L977.66 483.96Z" /><path class="shp8" d="M864.4 453.06L864.4 453.06C864.38 453.4 864.36 453.73 864.32 454.07C864.29 454.4 864.25 454.74 864.2 455.07C864.15 455.41 864.1 455.74 864.04 456.07C863.98 456.4 863.91 456.73 863.83 457.06C863.83 456.69 863.83 456.48 863.75 456.45C863.45 456.37 863.81 454.84 864.4 453.06Z" /><path class="shp8" d="M873.64 464.53L870.35 505.05C870.35 505.05 865.42 500.58 859.04 494.76L859.8 487.58C859.8 487.58 862.49 469.94 863.47 461.24C863.58 461.53 863.7 461.82 863.83 462.1C863.96 462.38 864.09 462.66 864.23 462.93C864.38 463.21 864.53 463.48 864.69 463.75C864.85 464.01 865.02 464.27 865.19 464.53L873.64 464.53Z" /><path class="shp12" d="M901.93 336.96C901.93 336.96 898.81 332.37 894.53 341.23C894.53 341.23 883.37 347.7 879.53 348.43C875.69 349.16 862.03 353.96 862.03 353.96C861.52 354.33 860.98 354.66 860.41 354.94C859.85 355.23 859.27 355.47 858.67 355.67C858.07 355.86 857.45 356.01 856.83 356.1C856.2 356.2 855.57 356.25 854.94 356.25C850.66 356.25 847.11 365.64 847.63 370.75C848.15 375.86 847.32 379.62 843.36 379.83C839.4 380.04 841.58 388.27 841.58 388.27L867.97 418.52C867.97 418.52 869.64 446.37 868.81 447.21C867.98 448.05 864.95 456.21 865.68 456.49C866.41 456.77 861.68 487.57 861.68 487.57L855.32 547.34C855.32 547.34 855.32 557.34 868.26 560.79C881.2 564.24 913.03 561.96 915.08 552.88L921.65 544.32C921.65 544.32 932.91 566.23 950.12 564.04C967.33 561.85 978.29 555.59 978.29 555.59L976.41 483.96L975.16 432.33L1002.03 388.18C1002.03 388.18 994.83 374.41 995.46 368.18C996.09 361.95 997.33 357.23 982 355.04C982 355.04 969.07 353.11 961.45 347.84C960.32 347.06 959.16 346.31 957.98 345.61C956.8 344.9 955.59 344.24 954.36 343.62C953.13 343 951.88 342.43 950.61 341.9C949.34 341.37 948.05 340.88 946.75 340.44C945.45 340 942.45 332.44 939.46 335.18C939.46 335.18 942.46 346.49 942.21 348.18C941.96 349.87 942.68 357.51 943.15 358.3C943.62 359.09 949.88 395.9 943.51 409.04C943.51 409.04 934.16 444.47 927.51 451.18C920.86 457.89 906.24 411.34 906.24 411.34C906.24 411.34 898.52 369.82 899.77 363.98C901.02 358.14 901.93 336.96 901.93 336.96Z" /><path class="shp12" d="M924.25 473.71C921.71 473.71 919.66 471.66 919.66 469.12C919.66 466.58 921.71 464.53 924.25 464.53C926.79 464.53 928.84 466.58 928.84 469.12C928.84 471.66 926.79 473.71 924.25 473.71Z" /><path class="shp12" d="M924.25 495.35C921.71 495.35 919.66 493.3 919.66 490.76C919.66 488.22 921.71 486.17 924.25 486.17C926.79 486.17 928.84 488.22 928.84 490.76C928.84 493.3 926.79 495.35 924.25 495.35Z" /><path class="shp8" d="M924.25 473.71C921.71 473.71 919.66 471.66 919.66 469.12C919.66 466.58 921.71 464.53 924.25 464.53C926.79 464.53 928.84 466.58 928.84 469.12C928.84 471.66 926.79 473.71 924.25 473.71Z" /><path class="shp8" d="M924.25 495.35C921.71 495.35 919.66 493.3 919.66 490.76C919.66 488.22 921.71 486.17 924.25 486.17C926.79 486.17 928.84 488.22 928.84 490.76C928.84 493.3 926.79 495.35 924.25 495.35Z" /><path class="shp14" d="M965.5 764.3C965.5 764.3 984.34 765.76 986.21 767.22C988.08 768.68 965.5 764.3 965.5 764.3Z" /><path class="shp14" d="M853.33 749.49C853.33 749.49 857.33 754.49 855.63 756.79C853.93 759.09 853.33 749.49 853.33 749.49Z" /><path class="shp14" d="M858.13 767.52C858.13 767.52 865.43 762.72 868.35 765.91C871.27 769.1 858.13 767.52 858.13 767.52Z" /><path class="shp8" d="M949.03 301.73C949.03 302.35 949.01 302.98 948.97 303.6C948.94 304.22 948.88 304.85 948.8 305.47C948.72 306.08 948.62 306.7 948.5 307.31C948.39 307.93 948.25 308.54 948.09 309.14C947.78 309 947.5 308.81 947.25 308.59C947 308.36 946.78 308.1 946.61 307.81C946.44 307.52 946.31 307.21 946.23 306.88C946.15 306.55 946.13 306.22 946.15 305.88C946.28 304.69 947.07 303.6 946.9 302.42C946.65 300.6 944.45 299.86 943.29 298.42C941.86 296.68 942.17 294.15 942.29 291.9C942.41 289.65 941.84 286.9 939.73 286.13C939.1 285.9 938.41 285.88 937.8 285.62C936.14 284.92 935.63 282.86 934.52 281.44C932.3 278.58 927.89 278.64 924.52 280C924.15 280.18 923.78 280.35 923.41 280.51C923.04 280.68 922.67 280.84 922.29 281C921.92 281.15 921.54 281.31 921.16 281.45C920.78 281.6 920.4 281.74 920.02 281.88C919.64 282.01 919.24 282.11 918.84 282.16C918.44 282.22 918.03 282.23 917.63 282.2C917.22 282.17 916.82 282.1 916.43 281.98C916.04 281.87 915.67 281.72 915.31 281.53C914.65 281.11 914.12 280.53 913.44 280.11C911.18 278.75 908.22 280.11 906.26 281.86C904.3 283.61 902.73 285.96 900.26 287.03C899.15 287.53 897.78 287.83 897.26 288.91C897.2 289.06 897.14 289.21 897.1 289.36C897.05 289.51 897.01 289.67 896.99 289.83C896.96 289.98 896.94 290.14 896.93 290.3C896.93 290.46 896.93 290.62 896.94 290.78C896.94 294.67 897.4 298.62 896.59 302.43C896.07 304.88 894.35 307.66 891.86 307.36C891.78 307.35 891.71 307.34 891.63 307.32C891.55 307.3 891.48 307.29 891.4 307.27C891.32 307.25 891.25 307.23 891.17 307.2C891.1 307.18 891.02 307.16 890.95 307.13C889.43 299.03 891.4 290.67 896.36 284.09C901.32 277.52 908.83 273.33 917.03 272.57C925.23 271.8 933.38 274.53 939.47 280.07C945.56 285.62 949.04 293.47 949.05 301.71L949.03 301.73Z" /><path class="shp12" d="M889.64 305.47C890.39 305.64 891.1 306.03 891.87 306.13C894.36 306.43 896.08 303.65 896.6 301.2C897.41 297.39 896.99 293.44 896.96 289.55C896.95 289.39 896.94 289.23 896.95 289.07C896.95 288.91 896.97 288.75 897 288.6C897.02 288.44 897.06 288.28 897.1 288.13C897.15 287.98 897.21 287.83 897.27 287.68C897.84 286.6 899.21 286.3 900.27 285.8C902.69 284.72 904.27 282.42 906.27 280.63C908.27 278.84 911.18 277.52 913.44 278.88C914.11 279.28 914.65 279.88 915.31 280.3C915.67 280.49 916.05 280.64 916.44 280.75C916.83 280.86 917.23 280.93 917.63 280.96C918.04 280.99 918.45 280.98 918.85 280.93C919.25 280.87 919.65 280.78 920.03 280.65C921.58 280.19 923.03 279.38 924.52 278.77C927.86 277.41 932.28 277.36 934.52 280.2C935.63 281.63 936.14 283.68 937.8 284.38C938.41 284.64 939.1 284.67 939.73 284.9C941.84 285.69 942.38 288.42 942.29 290.67C942.2 292.92 941.9 295.45 943.29 297.19C944.45 298.61 946.65 299.35 946.9 301.19C947.06 302.37 946.28 303.47 946.15 304.65C946.12 305.09 946.18 305.53 946.32 305.94C946.46 306.36 946.68 306.74 946.98 307.07C947.27 307.4 947.62 307.67 948.02 307.86C948.41 308.05 948.84 308.17 949.28 308.19C951.88 308.19 953.49 305.28 955.92 304.35C956.92 303.96 958.13 303.9 958.92 303.11C959.07 302.92 959.19 302.72 959.29 302.5C959.4 302.28 959.47 302.06 959.53 301.82C959.58 301.59 959.61 301.35 959.61 301.11C959.61 300.87 959.59 300.63 959.54 300.4C959.05 296.57 955.98 293.24 956.31 289.4C956.62 285.72 960.03 282.51 959.31 278.89C959.22 278.56 959.11 278.23 958.98 277.91C958.85 277.59 958.7 277.28 958.53 276.98C958.36 276.68 958.17 276.39 957.97 276.11C957.77 275.84 957.55 275.57 957.31 275.32C957.04 274.96 956.76 274.61 956.45 274.28C956.14 273.96 955.82 273.65 955.47 273.36C955.13 273.07 954.77 272.8 954.39 272.55C954.02 272.3 953.63 272.07 953.23 271.87C951.84 271.27 950.23 271.13 948.96 270.4C945.18 268.33 945.19 262.93 942.96 259.25C942.48 258.49 941.91 257.81 941.24 257.21C940.58 256.61 939.84 256.1 939.04 255.7C938.24 255.3 937.39 255.01 936.51 254.85C935.63 254.68 934.73 254.63 933.84 254.71C931.03 254.99 928.48 256.48 925.7 256.98C921.89 257.66 918.03 256.41 914.42 254.98C910.81 253.55 907.16 251.98 903.29 251.98C899.42 251.98 895.23 253.98 894.05 257.64C893.43 259.64 893.74 261.78 893.26 263.79C892.42 267.36 889.26 269.9 886.08 271.67C883.89 272.89 881.26 274.29 881 276.78C880.83 278.36 881.7 279.78 882.25 281.31C882.48 281.95 882.66 282.61 882.77 283.28C882.89 283.95 882.94 284.63 882.94 285.32C882.93 286 882.87 286.68 882.74 287.35C882.62 288.02 882.43 288.67 882.19 289.31C881.46 291.2 880.24 292.86 879.5 294.74C879.24 295.38 879.04 296.04 878.92 296.72C878.8 297.39 878.75 298.08 878.77 298.77C878.79 299.46 878.89 300.14 879.05 300.81C879.22 301.47 879.46 302.12 879.76 302.74C879.99 303.19 880.27 303.62 880.59 304.01C880.91 304.4 881.27 304.77 881.66 305.09C882.05 305.41 882.47 305.69 882.92 305.93C883.37 306.16 883.84 306.35 884.33 306.49C886.3 306.96 887.54 305.01 889.64 305.47Z" /><g style="opacity: 0.102"><path class="shp15" d="M896.6 299.02C896.08 301.47 894.35 304.25 891.86 303.95C891.09 303.85 890.39 303.46 889.63 303.29C887.54 302.83 886.3 304.79 884.33 304.29C883.84 304.15 883.37 303.96 882.92 303.73C882.47 303.49 882.05 303.21 881.65 302.89C881.26 302.57 880.9 302.21 880.58 301.81C880.26 301.42 879.98 300.99 879.75 300.54C879.62 300.29 879.5 300.03 879.4 299.76C879.29 299.5 879.2 299.23 879.12 298.95C879.04 298.68 878.98 298.4 878.93 298.12C878.88 297.84 878.84 297.55 878.82 297.27C878.77 297.71 878.75 298.15 878.77 298.59C878.78 299.04 878.83 299.48 878.91 299.91C878.99 300.35 879.1 300.78 879.24 301.2C879.38 301.62 879.55 302.03 879.75 302.42C879.98 302.87 880.26 303.3 880.58 303.69C880.9 304.09 881.26 304.45 881.65 304.77C882.05 305.09 882.47 305.37 882.92 305.61C883.37 305.84 883.84 306.03 884.33 306.17C886.33 306.63 887.54 304.67 889.63 305.17C889.81 305.23 890 305.29 890.18 305.35C890.37 305.41 890.55 305.47 890.74 305.52C890.92 305.58 891.11 305.63 891.3 305.68C891.48 305.73 891.67 305.78 891.86 305.82C894.35 306.13 896.08 303.35 896.6 300.9C896.7 300.36 896.79 299.82 896.86 299.27C896.93 298.72 896.99 298.18 897.03 297.63C897.07 297.08 897.09 296.53 897.1 295.98C897.11 295.43 897.1 294.88 897.08 294.33C897.08 294.72 897.07 295.12 897.04 295.51C897.02 295.9 896.99 296.3 896.95 296.69C896.91 297.08 896.86 297.47 896.8 297.86C896.75 298.25 896.68 298.63 896.6 299.02L896.6 299.02Z" /><path class="shp15" d="M882.9 283.96C882.93 283.55 882.94 283.14 882.93 282.73C882.92 282.32 882.88 281.92 882.83 281.51C882.77 281.1 882.7 280.7 882.6 280.3C882.5 279.91 882.38 279.51 882.24 279.13C882.13 278.87 882.02 278.61 881.91 278.35C881.81 278.09 881.71 277.83 881.61 277.57C881.52 277.31 881.43 277.04 881.34 276.77C881.25 276.51 881.17 276.24 881.09 275.97C881.08 276.01 881.07 276.05 881.06 276.1C881.05 276.14 881.04 276.18 881.03 276.22C881.02 276.27 881.02 276.31 881.01 276.35C881 276.39 881 276.44 880.99 276.48C880.82 278.05 881.7 279.48 882.24 281.01C882.33 281.25 882.41 281.49 882.48 281.73C882.55 281.97 882.61 282.22 882.67 282.46C882.72 282.71 882.77 282.96 882.81 283.21C882.85 283.46 882.88 283.71 882.9 283.96L882.9 283.96Z" /><path class="shp15" d="M959.3 278.69C958.83 281.53 956.53 284.2 956.3 287.19C956.29 287.32 956.28 287.45 956.27 287.57C956.26 287.7 956.26 287.83 956.26 287.96C956.26 288.09 956.26 288.22 956.27 288.35C956.28 288.47 956.29 288.6 956.3 288.73C956.8 285.24 959.89 282.15 959.3 278.69Z" /><path class="shp15" d="M959.47 299.79C959.45 299.89 959.42 300 959.39 300.1C959.35 300.2 959.31 300.29 959.26 300.39C959.21 300.48 959.16 300.57 959.1 300.66C959.04 300.75 958.97 300.83 958.9 300.91C958.16 301.7 956.9 301.76 955.9 302.15C953.47 303.08 951.9 306.02 949.26 305.99C948.92 305.97 948.59 305.9 948.28 305.78C947.96 305.67 947.67 305.5 947.4 305.3C947.13 305.09 946.9 304.84 946.71 304.57C946.51 304.29 946.36 303.99 946.26 303.67C946.24 303.72 946.23 303.78 946.22 303.83C946.2 303.89 946.19 303.94 946.18 304C946.17 304.05 946.16 304.11 946.15 304.16C946.14 304.22 946.13 304.27 946.12 304.33C946.09 304.77 946.15 305.21 946.29 305.62C946.43 306.04 946.66 306.42 946.95 306.75C947.24 307.08 947.59 307.34 947.99 307.53C948.38 307.73 948.81 307.84 949.25 307.86C951.86 307.86 953.46 304.95 955.89 304.03C956.89 303.64 958.11 303.58 958.89 302.79C959.04 302.6 959.16 302.4 959.26 302.18C959.37 301.96 959.44 301.74 959.5 301.5C959.55 301.27 959.58 301.03 959.58 300.79C959.58 300.55 959.56 300.31 959.51 300.08C959.5 299.96 959.48 299.88 959.47 299.79Z" /><path class="shp15" d="M946.93 298.96C946.68 297.14 944.48 296.4 943.32 294.96C943.14 294.73 942.99 294.48 942.85 294.22C942.71 293.96 942.6 293.69 942.5 293.41C942.41 293.13 942.34 292.85 942.29 292.56C942.25 292.27 942.22 291.97 942.22 291.68C942.14 293.54 942.17 295.44 943.32 296.84C944.47 298.24 946.22 298.84 946.78 300.28C946.82 300.17 946.84 300.07 946.87 299.96C946.89 299.85 946.91 299.74 946.92 299.63C946.94 299.52 946.94 299.41 946.94 299.29C946.95 299.18 946.94 299.07 946.93 298.96Z" /><path class="shp15" d="M942.28 288.49C942.36 286.24 941.82 283.49 939.71 282.72C939.09 282.49 938.4 282.46 937.79 282.21C936.13 281.51 935.61 279.45 934.51 278.03C932.28 275.18 927.87 275.23 924.51 276.59C923.01 277.2 921.58 278.01 920.02 278.47C919.64 278.6 919.24 278.7 918.84 278.75C918.44 278.81 918.03 278.82 917.63 278.79C917.22 278.76 916.82 278.69 916.43 278.57C916.04 278.46 915.67 278.31 915.31 278.12C914.65 277.7 914.11 277.12 913.44 276.7C911.17 275.34 908.21 276.7 906.26 278.45C904.31 280.2 902.73 282.54 900.26 283.62C899.14 284.12 897.78 284.42 897.2 285.5C897.14 285.65 897.08 285.8 897.04 285.95C896.99 286.1 896.96 286.26 896.93 286.42C896.9 286.57 896.89 286.73 896.88 286.89C896.87 287.05 896.88 287.21 896.89 287.37C896.89 287.76 896.89 288.15 896.89 288.54C896.89 288.44 896.9 288.34 896.92 288.24C896.93 288.14 896.95 288.04 896.97 287.94C897 287.85 897.03 287.75 897.06 287.66C897.1 287.56 897.14 287.47 897.18 287.38C897.76 286.3 899.12 286 900.24 285.5C902.66 284.42 904.24 282.12 906.24 280.33C908.24 278.54 911.15 277.22 913.42 278.58C914.09 278.98 914.63 279.58 915.29 279.99C915.65 280.18 916.02 280.33 916.41 280.45C916.8 280.56 917.2 280.63 917.61 280.66C918.01 280.69 918.42 280.68 918.82 280.63C919.22 280.57 919.62 280.48 920 280.34C920.38 280.2 920.76 280.06 921.14 279.92C921.52 279.77 921.9 279.62 922.27 279.46C922.64 279.31 923.02 279.15 923.39 278.98C923.76 278.82 924.12 278.65 924.49 278.47C927.84 277.11 932.25 277.05 934.49 279.9C935.59 281.32 936.11 283.38 937.77 284.08C938.38 284.34 939.07 284.37 939.69 284.6C941.4 285.24 942.08 287.16 942.23 289.06L942.28 288.49Z" /></g><g style="opacity: 0.102"><path class="shp15" d="M893.03 298.96C893.06 298.14 893.22 297.32 893.51 296.55C893.8 295.77 894.21 295.05 894.72 294.41C895.24 293.77 895.86 293.21 896.55 292.77C897.25 292.32 898.01 291.99 898.81 291.79C899.92 291.52 901.04 291.33 902.18 291.22C903.31 291.11 904.45 291.08 905.59 291.13C906.73 291.18 907.87 291.31 908.99 291.53C910.11 291.74 911.21 292.03 912.29 292.4C921.78 295.54 911.09 306.84 911.09 306.84C911.09 306.84 903.98 313.84 897.35 308.95C896.87 308.58 896.41 308.18 896 307.73C895.59 307.28 895.21 306.8 894.88 306.29C894.55 305.78 894.27 305.24 894.03 304.68C893.8 304.12 893.61 303.54 893.48 302.95C893.4 302.62 893.33 302.3 893.27 301.97C893.21 301.64 893.16 301.3 893.12 300.97C893.09 300.64 893.06 300.3 893.04 299.97C893.03 299.63 893.02 299.3 893.03 298.96Z" /><path class="shp15" d="M945.2 298.96C945.17 298.13 945.01 297.32 944.72 296.55C944.43 295.77 944.02 295.05 943.5 294.41C942.98 293.77 942.36 293.21 941.67 292.77C940.97 292.32 940.21 291.99 939.41 291.79C938.3 291.52 937.18 291.33 936.04 291.22C934.91 291.11 933.77 291.08 932.63 291.13C931.49 291.18 930.36 291.31 929.24 291.53C928.12 291.74 927.02 292.03 925.94 292.4C916.45 295.54 927.14 306.84 927.14 306.84C927.14 306.84 934.24 313.84 940.88 308.95C941.36 308.58 941.82 308.18 942.23 307.73C942.64 307.28 943.02 306.8 943.35 306.29C943.68 305.78 943.96 305.24 944.2 304.68C944.43 304.12 944.62 303.54 944.75 302.95C944.83 302.62 944.9 302.3 944.96 301.97C945.02 301.64 945.07 301.3 945.11 300.97C945.14 300.64 945.17 300.3 945.19 299.97C945.2 299.63 945.21 299.3 945.2 298.96L945.2 298.96Z" /><path class="shp15" d="M910.5 291.48L910.5 291.95L927.83 291.95L927.83 291.39L910.5 291.48L910.5 291.48Z" /><path class="shp15" d="M916.03 296.49L916.58 296.49L916.58 294.9C916.58 294.9 918.34 293.53 921.26 294.9L921.26 296.32L922.26 296.32L922.26 295.39L921.77 295.39C921.77 295.39 921.97 293.46 918.71 293.77C918.71 293.77 916.09 293.52 916.15 295.18L915.55 295.18L916.03 296.49Z" /></g><path class="shp9" d="M893.03 298.31C893.06 297.49 893.22 296.67 893.51 295.9C893.8 295.12 894.21 294.4 894.72 293.76C895.24 293.12 895.86 292.56 896.55 292.12C897.25 291.67 898.01 291.34 898.81 291.14C899.92 290.87 901.04 290.68 902.18 290.57C903.31 290.46 904.45 290.43 905.59 290.48C906.73 290.54 907.87 290.67 908.99 290.88C910.11 291.09 911.21 291.38 912.29 291.75C921.78 294.9 911.09 306.19 911.09 306.19C911.09 306.19 903.98 313.19 897.35 308.3C896.86 307.93 896.41 307.53 896 307.08C895.58 306.64 895.21 306.16 894.88 305.64C894.55 305.13 894.27 304.6 894.03 304.03C893.8 303.47 893.61 302.89 893.48 302.3C893.4 301.97 893.33 301.65 893.27 301.32C893.21 300.99 893.16 300.65 893.12 300.32C893.09 299.99 893.06 299.65 893.04 299.32C893.03 298.98 893.02 298.65 893.03 298.31Z" /><path class="shp9" d="M945.2 298.31C945.17 297.48 945.01 296.67 944.72 295.9C944.43 295.12 944.02 294.4 943.5 293.76C942.98 293.12 942.36 292.56 941.67 292.12C940.97 291.67 940.21 291.34 939.41 291.14C938.3 290.87 937.18 290.68 936.04 290.57C934.91 290.46 933.77 290.43 932.63 290.48C931.49 290.53 930.36 290.67 929.24 290.88C928.12 291.09 927.02 291.38 925.94 291.75C916.45 294.9 927.14 306.19 927.14 306.19C927.14 306.19 934.24 313.19 940.88 308.3C941.37 307.93 941.82 307.53 942.23 307.08C942.65 306.64 943.02 306.16 943.35 305.64C943.68 305.13 943.96 304.6 944.2 304.03C944.43 303.47 944.62 302.89 944.75 302.3C944.83 301.97 944.9 301.65 944.96 301.32C945.02 300.99 945.07 300.65 945.11 300.32C945.14 299.99 945.17 299.65 945.19 299.32C945.2 298.98 945.21 298.65 945.2 298.31L945.2 298.31Z" /><path class="shp9" d="M910.5 290.85L910.5 291.33L927.83 291.33L927.83 290.76L910.5 290.85L910.5 290.85Z" /><path class="shp9" d="M916.03 295.86L916.58 295.86L916.58 294.27C916.58 294.27 918.34 292.91 921.26 294.27L921.26 295.7L922.26 295.7L922.26 294.76L921.77 294.76C921.77 294.76 921.97 292.84 918.71 293.14C918.71 293.14 916.09 292.9 916.15 294.55L915.55 294.55L916.03 295.86Z" /><path class="shp16" d="M117.46 457.19L123.14 457.19L123.14 585.09L117.46 585.09L117.46 457.19Z" /><path class="shp12" d="M158.84 584.7L158.48 590.46L157.98 598.59L157.77 601.98L157.27 610.12L157.05 613.51L156.55 621.64L150.82 714.11C150.7 716.08 150.21 718.01 149.37 719.8C148.53 721.59 147.36 723.2 145.92 724.56C144.48 725.91 142.8 726.98 140.96 727.71C139.12 728.44 137.17 728.81 135.19 728.81L105.41 728.81C103.43 728.81 101.48 728.44 99.64 727.71C97.81 726.98 96.12 725.91 94.69 724.56C93.25 723.2 92.08 721.59 91.24 719.8C90.4 718.01 89.91 716.08 89.79 714.11L84.03 621.64L83.53 613.51L83.32 610.12L82.83 601.96L82.62 598.57L82.12 590.44L81.76 584.68C81.69 583.57 81.85 582.47 82.23 581.43C82.6 580.38 83.19 579.43 83.95 578.62C84.71 577.82 85.62 577.17 86.64 576.73C87.66 576.3 88.75 576.07 89.86 576.07L150.75 576.07C151.86 576.07 152.96 576.3 153.97 576.74C154.99 577.18 155.91 577.82 156.67 578.63C157.43 579.44 158.01 580.4 158.38 581.44C158.76 582.48 158.91 583.59 158.84 584.7L158.84 584.7Z" /><path class="shp17" d="M158.48 590.46L157.98 598.59L82.61 598.59L82.11 590.46L158.48 590.46L158.48 590.46Z" /><path class="shp17" d="M157.77 601.98L157.27 610.12L83.33 610.12L82.82 601.98L157.77 601.98L157.77 601.98Z" /><path class="shp17" d="M157.05 613.51L156.55 621.64L84.05 621.64L83.54 613.51L157.05 613.51L157.05 613.51Z" /><path class="shp9" d="M73.44 505.13C106.52 529.06 120.3 566.5 120.3 566.5C120.3 566.5 80.43 565.13 47.3 541.2C14.17 517.27 0.44 479.83 0.44 479.83C0.44 479.83 40.35 481.2 73.44 505.13Z" /><path class="shp18" d="M0.49 479.83C0.49 479.83 41.87 502.83 55.14 521.83C68.41 540.83 120.3 566.51 120.3 566.51" /><path class="shp9" d="M94.79 456.96C112.79 469.96 120.3 490.36 120.3 490.36C120.3 490.36 98.6 489.62 80.59 476.59C62.58 463.56 55.09 443.19 55.09 443.19C55.09 443.19 76.79 443.88 94.79 456.96Z" /><path class="shp18" d="M55.09 443.14C55.09 443.14 77.61 455.64 84.83 465.99C92.05 476.34 120.3 490.31 120.3 490.31" /><path class="shp9" d="M146.47 489.28C125.78 512.01 121.41 541.71 121.41 541.71C121.41 541.71 150.57 534.56 171.25 511.83C191.93 489.1 196.31 459.39 196.31 459.39C196.31 459.39 167.15 466.54 146.47 489.28Z" /><path class="shp18" d="M196.31 459.39C196.31 459.39 169.37 482.69 162.52 498.75C155.67 514.81 121.41 541.75 121.41 541.75" /></svg>