<svg width="720" height="405" viewBox="0 0 1127 634" xmlns="http://www.w3.org/2000/svg"><defs><linearGradient id="c" x1="430.34" x2="430.34" y1="606.64" y2="394.24" gradientUnits="userSpaceOnUse"><stop stop-color="gray" stop-opacity=".25" offset="0"/><stop stop-color="gray" stop-opacity=".12" offset=".54"/><stop stop-color="gray" stop-opacity=".1" offset="1"/></linearGradient><linearGradient id="b" x1="-49087" x2="-49087" y1="311127" y2="117849" gradientUnits="userSpaceOnUse"><stop stop-color="gray" stop-opacity=".25" offset="0"/><stop stop-color="gray" stop-opacity=".12" offset=".54"/><stop stop-color="gray" stop-opacity=".1" offset="1"/></linearGradient><linearGradient id="a" x1="40578" x2="40578" y1="301674" y2="137761" gradientUnits="userSpaceOnUse"><stop stop-color="gray" stop-opacity=".25" offset="0"/><stop stop-color="gray" stop-opacity=".12" offset=".54"/><stop stop-color="gray" stop-opacity=".1" offset="1"/></linearGradient></defs><style>.shp1{fill:#70add8}.shp2{fill:#444053}.shp3{fill:#fff}.shp4{fill:#3f3d56}.shp8{opacity:.2;fill:#70add8}.shp11{fill:#65617d}.shp12,.shp13{opacity:.051;fill:#000}.shp13{opacity:.102}.shp14{fill:#ee8e9e}.shp17{fill:#000}.shp19{fill:#2d293d}.shp20{fill:#ffcdd3}.shp21{fill:#dce6f2}.shp22{fill:#575988}.shp25{fill:#4c4981}.shp26{fill:#ae6e79}</style><path d="M650.4 130.03c-70.76.54-138.73-15.45-203.73-33.27s-129.47-37.83-198.84-46c-44.62-5.28-95.4-4.45-130.48 16-33.75 19.66-43.73 51.88-48.66 81.62-3.71 22.38-5.52 45.86 7.54 66.23 9.07 14.13 24.69 25.73 35.68 39.19 38.26 46.84 14.54 107.11-23.4 155.51-17.77 22.67-38.57 44.49-52.11 68.49s-19.18 51.11-5.79 74.6c13.28 23.29 43.54 40.06 76.08 51.45 66.1 23.14 143.17 27.7 218.23 29.17 166.14 3.24 332.71-6.64 498.82-16.51 61.48-3.65 123.23-7.33 183.48-17.15 33.46-5.45 67.93-13.43 91.75-30.6 30.24-21.8 36.68-57.12 15-82.34-36.37-42.29-133-49.68-159-95.53-14.31-25.24-1.57-54.37 17-78.91 39.94-52.65 108.34-100 109.95-158.63 1.11-40.25-34-79.28-86.68-96.43-55.24-18-130.78-12.79-169.84 21.62-40.16 35.37-112.5 51.02-175 51.49z" opacity=".102" fill="#70add8"/><path class="shp1" d="M928.97 550.93s-12.29-8.11-24.47-2.35c0 0 3.75 7.23 19.17 6.54l5.3-4.19zM930.48 551.36s3.74 14.24-5.63 23.93c0 0-5.64-5.87-.05-20.25l5.68-3.68zM945.81 537.69s-.91-12.11-28.26-8.1c0 0-.12 7.82 9.48 11.52s13.99.58 18.78-3.42zM947.49 537.61s11.56 3.71 1.25 29.36c0 0-7.62-1.7-9-11.91s2.74-13.74 7.75-17.45zM962.97 520.42s1.57-19.93-26.38-17.88c0 0-2 18 21.45 22.68l4.93-4.8zM981.4 497.93s-3.83-22.59-31.76-15.86c0 0-.11 19.53 27.2 21.24l4.56-5.38zM994.94 474.67s-6.42-22-34.1-15.42c0 0 6.59 19.79 32.26 19.48l1.84-4.06zM1007.8 451.95s-6.27-22.83-33-16c0 0 8.92 21.69 31.23 19.87l1.77-3.87zM1016 430.37s-4.82-27.92-29.74-21.74c0 0 7.23 25.4 27.9 25.8l1.84-4.06zM1023.8 404.3s-5.78-28.15-31-20c0 0 9.89 26.6 29.22 23.85l1.78-3.85zM1028.6 380.03s-9.19-28.14-28.68-27.38c0 0 9.4 29.73 27 33l1.68-5.62zM1031.6 356.36s-10-33.88-25.87-31.27c0 0 6.93 25.9 25.3 36.55l.57-5.28zM1033.4 328.08s-9.37-28.23-25-29.36c0 0 6.37 27.78 24.68 36.69l.32-7.33zM1035.2 301.8s-11.69-28.26-22-28.9c0 0 5.08 27.83 21 33.54l1-4.64zM1036.5 277.23s-7.18-30.7-17.52-33.24c0 0 1.41 25.11 16.48 35.54l1.04-2.3zM1040.4 245.14s-7.56-24.46-15.93-28.19c0 0 1.66 28.84 14 34.18l1.93-5.99zM1043.7 224.07l1.53-43.14s-15.62 32.56-2.68 50.75l1.15-7.61zM1055.8 181.2s11.26-31.5 14-33.26c0 0-22.1 20.44-19.94 46.73l5.94-13.47zM963.74 520.28s19.82-2.6 19.22 25.42c0 0-17.91 2.91-23.75-20.25l4.53-5.17zM982.4 497.17s22.91-.07 21 28.6c0 0-19.22 3.43-25.57-23.18l4.57-5.42zM995.16 476.52s20.79-9.75 34.1 15.42c0 0-19.21 8.12-35.93-11.35l1.83-4.07zM1008.2 452.16s21.29-10.37 33.79 14.21c0 0-22.17 7.64-35.54-10.32l1.75-3.89zM1015.8 430.98s20.49-19.58 36.85.22c0 0-20.94 16.1-37.79 4.14l.94-4.36z"/><path class="shp1" d="M1022.6 403.63s20.62-20 36.84.92c0 0-23.14 16.43-37.57 3.28l.73-4.2zM1026.5 379.23s15.88-25 34.57-19.41c0 0-16.47 26.47-34.4 25.29l-.17-5.88zM1031.2 356.2s16-31.49 31.13-26c0 0-11.53 24.2-31.54 31.31l.41-5.31zM1032.2 326.47s16.45-24.78 31.86-21.76c0 0-13.45 25.13-33.45 28.93l1.59-7.17zM1033.5 301.19s12.75-27.8 23.12-28c0 0-6.13 27.61-22.26 32.72l-.86-4.72zM1036 276.63s14.17-28.17 24.82-28.22c0 0-7.25 24.08-24.35 30.69l-.47-2.47zM1038.2 246.87s10.6-23.3 19.38-25.94c0 0-5.3 28.4-18.21 32.12l-1.17-6.18z"/><path class="shp1" d="M1044.9 223.25l23.69-36.08s-6.07 35.6-27.14 43l3.45-6.92zM1061.2 184.1s27.54-19 28.53-22.08c0 0-14 26.62-40 31.32l11.47-9.24zM1062.8 175.55s31.61-30.38 39.68-30.35c0 0-26.07 1.19-40.44 28.74l.76 1.61z"/><path class="shp2" d="M1038.5 251.38l1.15.15c5.94-46.5 14.6-74 24.39-77.37l-.38-1.1c-10.38 3.6-19.08 30.68-25.16 78.32z"/><path class="shp2" d="M1029.7 362.55l1.74.15c.36-4.34.64-8.79.83-13.21 1.66-38.48 4.23-73.82 7.62-100.31l-1-1.25c-3.39 26.54-6.69 62.95-8.35 101.49-.18 4.38-.48 8.82-.84 13.13z"/><path class="shp2" d="M896.51 573.06c.31-.13 30.94-13.81 62.73-46.44 4.65-4.77 9.1-9.72 13.36-14.84 4.25-5.12 8.3-10.4 12.14-15.84s7.46-11.03 10.85-16.76c3.4-5.72 6.57-11.58 9.5-17.56 14.69-29.93 23.65-66.71 26.66-102.44l-1.82.85c-6.74 80.2-43.26 135-72.29 164.85-31.48 32.33-61.76 45.87-62.06 46l.93 2.18z"/><path class="shp3" d="M969.85 31.19v518.42c0 15.41-14.87 28-33.23 28H233.25c-18.36 0-33.23-12.54-33.23-28V31.19C200.02 15.75 214.89 0 233.25 0l703.33 1.71c18.36 0 33.27 14.09 33.27 29.48z"/><path class="shp4" d="M969.85 31.35v24H200.02v-24a31.41 31.41 0 0 1 9.19-22.18c2.92-2.91 6.38-5.22 10.18-6.79C223.2.8 227.28 0 231.4 0h707.11c4.12 0 8.19.81 11.99 2.39a31.21 31.21 0 0 1 10.17 6.8c2.91 2.91 5.22 6.36 6.79 10.17a31.21 31.21 0 0 1 2.39 11.99z"/><path d="M237.32 38.75c-6.13 0-11.08-4.95-11.08-11.08s4.95-11.08 11.08-11.08 11.08 4.95 11.08 11.08-4.95 11.08-11.08 11.08z" opacity=".8" fill="#fa5959"/><path d="M269.55 38.75c-6.13 0-11.08-4.95-11.08-11.08s4.95-11.08 11.08-11.08 11.08 4.95 11.08 11.08-4.95 11.08-11.08 11.08z" opacity=".8" fill="#fed253"/><path d="M301.78 38.75c-6.13 0-11.08-4.95-11.08-11.08s4.95-11.08 11.08-11.08 11.08 4.95 11.08 11.08-4.95 11.08-11.08 11.08z" opacity=".8" fill="#8ccf4d"/><path class="shp1" d="M653.4 189.8v56c0 1.67-3.13 3-7 3H498.68c-3.86 0-7-1.35-7-3v-56c0-1.67 3.12-3.37 7-3.37H646.4c3.88-.01 7 1.69 7 3.37z" opacity=".2"/><path class="shp1" d="M562.67 206.42h76.96v2.72h-76.96v-2.72z"/><path class="shp8" d="M534.64 204.09c3.16 2.35 5.46 5.66 6.58 9.44a18.235 18.235 0 0 1-7.55 20.48v-1.29a4.117 4.117 0 0 0-1.05-2.75 4.37 4.37 0 0 0-1.17-.92c-.45-.23-.93-.38-1.43-.44-.62 1.14-1.54 2.09-2.66 2.75s-2.39 1.01-3.69 1.01-2.57-.35-3.69-1.01-2.04-1.61-2.66-2.75c-.5.06-.98.21-1.43.44-.44.24-.84.55-1.17.92a4.117 4.117 0 0 0-1.05 2.75v1.21a18.197 18.197 0 0 1-7.09-9.01 18.196 18.196 0 0 1-.32-11.46c1.13-3.76 3.44-7.05 6.59-9.39a18.22 18.22 0 0 1 10.88-3.61c3.93 0 7.76 1.27 10.91 3.63zm-3.75 19.51c.12-.26.23-.52.32-.79.1-.26.18-.54.24-.81.07-.28.12-.56.16-.84.03-.28.05-.57.06-.85 0-.87-.14-1.73-.42-2.55s-.69-1.59-1.22-2.28-1.16-1.28-1.89-1.76c-.72-.49-1.51-.85-2.35-1.07v-.27c0-.32-.06-.63-.18-.92s-.3-.56-.53-.78c-.22-.23-.49-.41-.78-.53s-.6-.18-.92-.18c-.12 0-.24.01-.35.02-.12.02-.23.05-.35.08-.11.03-.22.08-.32.13-.11.05-.21.1-.31.17.1-.15.22-.3.35-.42.14-.13.28-.24.44-.34a2.45 2.45 0 0 1 1.05-.32h-.17c-.26 0-.51.04-.75.12-.25.08-.48.2-.68.35-.21.15-.39.34-.53.55-.15.2-.27.44-.34.68-.07.1-.14.21-.2.32s-.1.22-.14.34-.07.24-.09.37c-.02.12-.03.25-.03.37 0 .04-.01.08-.01.12v.24c0 .04.01.08.01.12h-.07c-.05-.09-.1-.19-.14-.28-.04-.1-.07-.2-.1-.3-.02-.1-.05-.2-.06-.31a2.416 2.416 0 0 1 .63-1.95 2.389 2.389 0 0 1 1.59-.76h-.17c-.32 0-.63.06-.93.18a2.423 2.423 0 0 0-1.31 1.31c-.12.29-.18.6-.18.92 0 .12.01.23.03.34.01.12.04.23.07.34l.12.33c.05.1.11.2.17.3-.98.41-1.87 1.01-2.61 1.77-.75.76-1.33 1.66-1.72 2.65a8.08 8.08 0 0 0-.54 3.12c.03 1.06.28 2.1.72 3.07.12 1.83.93 3.55 2.27 4.81s3.11 1.95 4.95 1.95c1.83 0 3.6-.69 4.94-1.95s2.15-2.98 2.27-4.81z" fill-rule="evenodd"/><path class="shp8" d="M562.67 213.04h76.96v2.72h-76.96v-2.72zM562.67 219.66h76.96v2.72h-76.96v-2.72zM562.67 226.29h76.96v2.72h-76.96v-2.72z"/><path class="shp1" d="M479.99 299.47v56c0 1.66-3.12 3-7 3H325.27c-3.86 0-7-1.36-7-3v-56c0-1.67 3.12-3.37 7-3.37h147.74c3.86 0 6.98 1.7 6.98 3.37z" opacity=".2"/><path class="shp1" d="M389.25 316.1h76.96v2.72h-76.96v-2.72z"/><path class="shp8" d="M350.32 310.13c3.94 0 7.77 1.27 10.92 3.63 3.16 2.35 5.47 5.66 6.59 9.44 1.11 3.77.98 7.81-.38 11.5a18.309 18.309 0 0 1-7.19 8.99v-1.3c0-.5-.09-1-.27-1.47s-.44-.9-.78-1.27c-.33-.38-.73-.69-1.17-.92-.45-.23-.93-.38-1.43-.44-.62 1.14-1.54 2.09-2.66 2.75s-2.39 1.01-3.69 1.01-2.57-.35-3.69-1.01-2.04-1.61-2.66-2.75c-.5.06-.98.21-1.43.44-.44.23-.84.54-1.17.92-.34.37-.6.8-.78 1.27s-.27.97-.27 1.47v1.22a18.216 18.216 0 0 1-7.1-9.01c-1.34-3.69-1.45-7.71-.32-11.47s3.44-7.05 6.59-9.4c3.15-2.34 6.97-3.6 10.89-3.6zm7.15 23.19c.48-1.05.73-2.19.73-3.34 0-1.16-.26-2.31-.75-3.36a7.93 7.93 0 0 0-2.1-2.71 7.877 7.877 0 0 0-3.05-1.58v-.27c0-.32-.06-.63-.18-.93-.13-.29-.3-.56-.53-.78-.22-.23-.49-.4-.78-.53-.3-.12-.61-.18-.93-.18-.12 0-.23.01-.35.03-.11.01-.23.04-.34.07-.11.04-.22.08-.33.13-.1.05-.2.11-.3.17.1-.15.22-.3.35-.42.02-.01.03-.03.04-.04-.19.15-.37.31-.52.49-.25.27-.45.59-.6.93s-.24.7-.28 1.07c0 .04-.01.08-.01.12V322.42c0 .04.01.08.01.12h-.08c-.2-.35-.31-.75-.32-1.16 0-.41.1-.81.29-1.17s.47-.67.82-.89c.34-.22.73-.35 1.14-.38h-.18c-.32 0-.63.06-.92.19-.3.12-.56.3-.78.52a2.395 2.395 0 0 0-.71 1.71c0 .11.01.23.02.34.02.12.04.23.08.34.03.11.07.21.12.32.04.1.1.2.16.3-.72.3-1.38.71-1.98 1.2-.6.5-1.12 1.08-1.55 1.73a7.63 7.63 0 0 0-.99 2.1 7.699 7.699 0 0 0-.29 3.14c.03.28.07.56.13.83a7.608 7.608 0 0 0 .53 1.61c.12 1.83.93 3.55 2.27 4.81s3.11 1.95 4.94 1.95c1.84 0 3.61-.69 4.95-1.95a7.249 7.249 0 0 0 2.27-4.76zm0-.05v.05c-.01 0-.01 0-.01.01l.01-.06zm-.01.06zm-8.18-13.97c.3-.17.62-.3.95-.38-.13.02-.25.05-.37.08-.18.06-.35.13-.51.23-.14.08-.28.18-.4.29.11-.08.22-.15.33-.22zm.95-.38c.06-.01.11-.02.17-.02h-.09c-.03.01-.05.01-.08.02z" fill-rule="evenodd"/><path d="M389.25 322.72h76.96v2.72h-76.96v-2.72z" opacity=".2" fill="#6c63ff"/><path class="shp8" d="M389.25 329.34h76.96v2.72h-76.96v-2.72zM389.25 335.96h76.96v2.72h-76.96v-2.72z"/><path class="shp1" d="M440.1 121.88v56c0 1.66-3.12 3-7 3H285.4c-3.85 0-7-1.36-7-3v-56c0-1.67 3.13-3.37 7-3.37h147.72c3.86 0 6.98 1.7 6.98 3.37z" opacity=".2"/><path class="shp1" d="M349.36 138.51h76.96v2.72h-76.96v-2.72z"/><path class="shp8" d="M349.36 145.13h76.96v2.72h-76.96v-2.72zM349.36 151.75h76.96v2.72h-76.96v-2.72zM349.36 158.37h76.96v2.72h-76.96v-2.72z"/><path class="shp8" d="M321.34 136.14c3.16 2.35 5.48 5.66 6.6 9.44 1.13 3.77 1 7.81-.36 11.51a18.303 18.303 0 0 1-7.18 9v-3.16c0-.5-.09-1-.27-1.47s-.44-.9-.77-1.28c-.34-.37-.74-.69-1.18-.92-.45-.23-.93-.38-1.43-.44-.62 1.14-1.54 2.09-2.66 2.75s-2.39 1.01-3.69 1.01-2.57-.35-3.69-1.01-2.04-1.61-2.66-2.75c-.5.06-.98.21-1.43.44-.44.24-.84.55-1.17.92a4.117 4.117 0 0 0-1.05 2.75v3.09c-3.26-2.16-5.75-5.32-7.08-9s-1.45-7.69-.33-11.45c1.12-3.75 3.42-7.04 6.55-9.39 3.14-2.34 6.94-3.62 10.86-3.64 3.94-.01 7.78 1.25 10.94 3.6zm-2.89 18.66c.15-.3.28-.61.38-.94.1-.32.17-.65.22-.98s.07-.67.06-1.01c-.01-.33-.05-.67-.11-1s-.14-.66-.22-.99c-.08-.32-.17-.65-.27-.97s-.21-.64-.32-.95c-.12-.32-.25-.63-.38-.94-.03-.11-.08-.22-.12-.33a2.896 2.896 0 0 0-.35-.61c-.07-.1-.14-.19-.22-.28-.15-.12-.3-.22-.47-.31-.16-.09-.33-.17-.5-.23-.18-.07-.36-.12-.54-.15-.19-.04-.37-.06-.56-.06l-1.82-.23c-.07 0-.14-.01-.21-.02-.07-.02-.14-.03-.21-.05s-.13-.04-.2-.07c-.06-.03-.13-.06-.19-.09-.06-.06-.12-.11-.18-.17-.05-.06-.11-.12-.16-.18-.06-.06-.11-.13-.16-.19-.05-.07-.1-.13-.15-.2a1.597 1.597 0 0 0-1.16-.44c-.21.01-.42.06-.62.15-.19.09-.37.21-.51.37.01-.09.01-.18.01-.27.01-.1.01-.19.01-.28s0-.18-.01-.28c0-.09 0-.18-.01-.27-.21.35-.46.67-.73.98-.28.3-.58.58-.9.83-.33.24-.67.46-1.04.65-.36.18-.74.33-1.13.45-.13.02-.26.05-.39.09s-.26.08-.38.12c-.13.05-.25.1-.37.16-.12.05-.24.11-.36.18-.23.21-.42.46-.56.74-.14.27-.22.58-.24.89s.02.62.11.91c.1.3.25.57.45.81l.08.05c-.15.27-.29.55-.41.84a6.973 6.973 0 0 0-.54 2.72 7.256 7.256 0 0 0 6.21 7.14c1.72.25 3.47-.13 4.93-1.06a7.22 7.22 0 0 0 3.05-4.02h.37c.05 0 .09-.01.14-.02.05 0 .09-.02.14-.03.04-.02.09-.04.13-.06s.08-.04.12-.07l.07-.07c.02-.02.04-.05.06-.08.02-.02.04-.05.06-.08.02-.02.03-.05.05-.08l.05-.02z" fill-rule="evenodd"/><path class="shp1" d="M693.77 386.8v56c0 1.67-3.12 3-7 3H539.04c-3.86 0-7-1.35-7-3v-56c0-1.67 3.12-3.36 7-3.36h147.75c3.86-.05 6.98 1.64 6.98 3.36z" opacity=".2"/><path class="shp1" d="M603.03 403.38h76.96v2.72h-76.96v-2.72z"/><path class="shp8" d="M603.03 410h76.96v2.72h-76.96V410zM603.03 416.63h76.96v2.72h-76.96v-2.72zM603.03 423.25h76.96v2.72h-76.96v-2.72z"/><path class="shp8" d="M575 401.05c3.16 2.35 5.46 5.66 6.58 9.44a18.235 18.235 0 0 1-7.55 20.48v-3.17c0-.5-.09-1-.27-1.47s-.44-.9-.78-1.27c-.33-.38-.73-.69-1.17-.92-.45-.23-.93-.38-1.43-.44-.62 1.14-1.54 2.09-2.66 2.75s-2.39 1.01-3.69 1.01-2.57-.35-3.69-1.01-2.04-1.61-2.66-2.75c-.5.06-.98.21-1.42.44-.45.24-.85.55-1.18.92s-.6.81-.78 1.27c-.17.47-.27.97-.27 1.47v3.09a18.197 18.197 0 0 1-7.09-9.01 18.196 18.196 0 0 1-.32-11.46c1.13-3.76 3.44-7.05 6.59-9.39a18.22 18.22 0 0 1 10.88-3.61c3.93 0 7.76 1.27 10.91 3.63zm-2.88 18.64c.15-.3.28-.6.38-.92s.17-.64.22-.97.07-.67.07-1c-.01-.33-.04-.66-.1-.99s-.14-.66-.22-.99c-.08-.32-.17-.65-.27-.97s-.21-.64-.32-.95c-.12-.32-.25-.63-.38-.94-.03-.11-.08-.22-.12-.33a2.896 2.896 0 0 0-.35-.61c-.07-.1-.14-.19-.22-.28-.15-.12-.3-.22-.46-.31-.17-.09-.34-.17-.51-.24-.18-.06-.36-.11-.54-.14-.19-.04-.37-.06-.56-.06l-1.82-.23c-.07 0-.14-.01-.21-.03-.07-.01-.14-.02-.21-.04s-.13-.05-.2-.08c-.06-.02-.13-.06-.19-.09-.06-.05-.12-.11-.18-.17s-.11-.11-.17-.18l-.15-.18c-.05-.07-.1-.13-.15-.2a1.597 1.597 0 0 0-1.16-.44c-.21.01-.42.06-.62.15-.19.09-.37.21-.51.37.01-.09.01-.18.01-.27.01-.1.01-.19.01-.28s0-.18-.01-.28c0-.09 0-.18-.01-.27-.21.35-.46.67-.73.98-.28.3-.58.57-.9.82-.33.25-.67.47-1.04.65-.36.18-.74.33-1.13.45-.13.02-.26.05-.39.09s-.26.08-.38.12c-.13.05-.25.1-.37.16-.12.05-.24.11-.36.18-.23.21-.42.46-.56.74-.14.27-.22.58-.24.89s.02.62.11.91c.1.3.25.57.45.81h.08a7.245 7.245 0 0 0-.59 5.91 7.256 7.256 0 0 0 4.03 4.37c1.91.81 4.07.76 5.94-.13a7.208 7.208 0 0 0 3.85-4.53h.38c.05 0 .09-.01.14-.02.05 0 .09-.02.14-.03.04-.02.09-.04.13-.06s.08-.04.12-.07l.07-.07c.02-.03.04-.05.06-.08s.04-.05.06-.08.04-.06.05-.09h.03z" fill-rule="evenodd"/><path d="M513.05 575.95c-6.98-.1-6.83 1.33-6.67 2.66s-2 2.77-2 2.77-2.77 1.43-1.13 3.17 6.36 5.73-1.43 8.39c-.23-.32-.45-.64-.66-.97s-.41-.67-.6-1.01-.37-.69-.53-1.04c-.17-.36-.33-.72-.47-1.08-.17-.45-.32-.9-.47-1.36s-.3-.91-.44-1.37c-.13-.46-.26-.93-.38-1.39-.13-.47-.24-.93-.35-1.4-.05-.54-.1-1.07-.17-1.6-.06-.54-.14-1.07-.22-1.6s-.18-1.06-.28-1.59-.21-1.06-.33-1.58c-1.6 5.13-6.03 14.74-16.6 16.6-1.52.21-3.04.4-4.56.57-1.53.17-3.06.32-4.58.44-1.53.13-3.06.23-4.59.31s-3.07.14-4.6.18c.29 6.02.49 11.39.49 11.39s-1.17.1-2.69.1c-.46.02-.92.03-1.38.04s-.92 0-1.38 0c-.46-.01-.92-.03-1.37-.05-.46-.02-.92-.05-1.38-.09-.08-.01-.17-.02-.25-.04-.09-.01-.17-.03-.25-.05-.09-.02-.17-.04-.25-.06-.09-.02-.17-.04-.25-.07-.61-.22-1.21-.46-1.81-.71s-1.19-.52-1.77-.8c-.59-.28-1.16-.57-1.73-.88s-1.14-.63-1.69-.97l-19.79-.51-1.95-1.13s-8.24 2.34-10.24-4.52l-1.09-.62-1.72-1-2 .56-.64-2-.92.18c-3.49.66-8.4 1.39-11.05.9-4.41-.82-16.92 1.32-22.25 2.25-.15.03-.29.05-.44.06-.14.02-.29.03-.44.04-.14.01-.29.01-.44.01s-.29-.01-.44-.02a6.94 6.94 0 0 1-1.73-.42c-.55-.22-1.08-.51-1.55-.87-.48-.36-.9-.78-1.27-1.25a6.94 6.94 0 0 1-.89-1.54s-.7-1.71-.49-13.71v-1.94c0-.14-.02-.21 0-.39s.02-.38.07-.51.05-.25.05-.37c0-.04.01-.09.02-.13 0-.05.01-.09.02-.14 0-.04.01-.08.02-.13l.03-.13V575.24c.05-.25.14-.65.16-.74s.07-.18.07-.27c.04-.16.08-.31.12-.45l.09-.29c.04-.14.13-.27.13-.4l.09-.27c.06-.13.16-.27.16-.4l.09-.21c.08-.19.23-.52.25-.56s.07-.13.07-.13l.21-.4.11-.19.18-.3.13-.2.17-.24c.01-.02.02-.04.03-.05.01-.02.02-.04.04-.05.01-.02.02-.04.03-.05.01-.02.03-.03.04-.05l.15-.2c.18-.23.36-.44.55-.64l.07-.07c-9.37-4.49-15.86-12.93-15.86-12.93s-11.17-12.59-12.51-15.86-1.23-10.43 7.58-18.21a10.5 10.5 0 0 1 2.68-1.6c.48-.19.98-.35 1.49-.47.5-.12 1.02-.21 1.54-.25v-.06l-5.91-6.53c-.29-.54-.51-1.13-.63-1.73-.13-.61-.16-1.23-.1-1.84.05-.62.2-1.22.43-1.79.24-.58.55-1.11.94-1.59l2.48-2.23c.14-.32.3-.64.46-.95.17-.31.36-.61.55-.9.2-.29.41-.58.63-.85s.45-.54.7-.79c.3-.33.62-.64.97-.92.34-.29.71-.54 1.09-.77s.78-.43 1.2-.6c.41-.17.84-.3 1.27-.41l4.54-4.03c.38-.34.82-.6 1.3-.77s.99-.25 1.5-.22 1 .15 1.46.37.88.52 1.22.9l9.22 10.2 4.65-5.35s.93-3.38 2.36-3.89 2.07-2.47 2.05-2.76-.01-.59.04-.88.14-.58.27-.85c.12-.26.28-.51.47-.74s.41-.43.65-.6.45-.37.62-.6a2.83 2.83 0 0 0 .59-1.61c.02-.29-.01-.58-.08-.86-.41-.82.93-2.93 1.85-3.48s.5-.91.61-2.55 1.35-3.15 3.7-5.43 2.55-7.21 4.4-12 3.93-4.18 4.72-5 6.24-1.93 9-3.37 13.07.68 13.07.68c.02-.15.03-.29.04-.44.02-.15.03-.29.03-.44.01-.15.02-.29.02-.44.01-.15.01-.29.01-.44v-.62c-2.4-.72-4.68-1.81-6.73-3.25a23.407 23.407 0 0 1-8.82-11.84c-.79-2.38-1.19-4.87-1.19-7.38 0-.41.01-.82.03-1.23.02-.4.05-.81.1-1.22.04-.41.09-.81.16-1.21a16.11 16.11 0 0 1 .36-1.79c-1.19-.21-2.59-.06-3.59-.71-.22-.19-.43-.39-.62-.62s-.35-.47-.49-.72c-.14-.26-.26-.53-.35-.81-.1-.27-.16-.56-.2-.85-.17-.55-.3-1.1-.41-1.66-.1-.57-.17-1.13-.21-1.7s-.04-1.15-.01-1.72c.02-.57.09-1.14.18-1.7.04-.18.09-.36.15-.53.05-.18.11-.35.17-.53.07-.17.13-.34.21-.51.07-.17.15-.34.23-.5v.17c1.37-2.84 3.99-5.09 5.79-7.76 2.03-3.03 3.23-6.9 6.22-8.87s6.96-1.53 10.4-.53c.4.14.8.27 1.2.39.4.13.8.24 1.21.35.41.1.81.2 1.22.29s.83.17 1.24.24c2.77.34 5.56-.41 8.35-.51.98-.03 1.95.02 2.92.15s1.92.33 2.85.62c.94.28 1.85.64 2.72 1.07.88.43 1.72.93 2.51 1.5.18.12.35.25.52.38.16.14.32.28.47.44.16.15.3.31.43.48.14.17.26.34.38.52.12.26.22.52.31.78.09.27.17.54.24.81.07.28.12.55.16.83s.07.56.09.84c.08.53.19 1.05.32 1.57s.28 1.03.47 1.54c.18.5.38.99.61 1.48.23.48.48.95.76 1.41.87 1.44 1.95 2.75 2.72 4.23.22.36.39.74.54 1.14.14.39.24.8.31 1.21.06.42.08.84.06 1.26-.01.42-.07.83-.17 1.24-.28.84-.8 1.6-1 2.46-.45 2 .87 3.91 1.77 5.75.22.42.4.85.56 1.29a10.842 10.842 0 0 1 .63 4.16c-.02.47-.1.94-.22 1.39-.12.46-.28.9-.49 1.32s-.47.82-.76 1.19-.62.71-.98 1.01c-.37.26-.75.48-1.16.68-.4.2-.82.36-1.24.49-.43.14-.87.24-1.31.3-.44.07-.89.1-1.34.1-.09.21-.18.41-.28.62-.33.68-.69 1.35-1.07 2l.09.46.09.43c.15.01 5.15.65 6.8 2.79s5.95 2.45 5.95 2.45 4.92 1.59 4.82 2 1.43 1.02 4.51 1.84 8.21 3.78 8.21 4.5 8.1 8.69 8.1 9.51 2.46 3.91 2.15 9.31-.61 12.27.62 13.4.16 5.29 0 5.53-.29.5-.39.77c-.09.28-.14.56-.14.85-.01.29.02.58.09.86.08.28.19.54.34.79 1.02 1.84-.21 9.52-.21 9.52l.1 8s-1.12 5.01.21 5.22-.21 2.46-.21 2.46-1.13 4.09.31 5.93 1.85 9.72 1.85 9.72l21.94 31.81s.47 5.77-6.51 5.67zm-101.79-71l-7.62 11.57.95.23.65.15c0-.05-.01-.1-.03-.14-.01-.05-.02-.1-.04-.14a.539.539 0 0 0-.07-.13c-.02-.04-.05-.08-.08-.12 0 0 4.3.18 8.43.51.02-.28.04-.56.04-.85 0-.28 0-.56-.02-.84-.02-.29-.05-.57-.09-.85-.05-.28-.1-.55-.16-.83-.88-1.66-1.85-7.96-1.94-8.55l-.02-.01zm-15.06 24c-.76-.09-1.52-.19-2.28-.3-.76-.12-1.52-.24-2.27-.38-.76-.14-1.51-.29-2.26-.45s-1.5-.33-2.24-.52l-1.31.13-4.78-.9c1.14.55 1.81.9 1.81.9s18.14 6.35 18.76 7.67 5.95 2.15 9.34 3.93c.05-.18.1-.38.16-.58-3.84-1.02-7.18-2.24-7.3-2.81 0-.14 0-.28.01-.42.01-.15.01-.29.03-.43.01-.14.02-.28.04-.42l.06-.42c-.23-.15-.39-.28-.39-.38.01-.28.03-.57.05-.85s.05-.56.08-.85c.03-.28.07-.56.11-.84s.08-.56.13-.84l-.6-.09-7.15-1.14v-.01z" fill-rule="evenodd" fill="url(#c)"/><path class="shp11" d="M496.22 574.73s-2.85 17.18-17.28 19.72-62.6 2-62.6 2-27.54-4-37.5-27.23-16.37-32.53-7.83-32.93 54.58 15.55 57.22 15.75 70.53-35.34 67.99 22.69z"/><path class="shp12" d="M496.22 574.73s-2.85 17.18-17.28 19.72-62.6 2-62.6 2-27.54-4-37.5-27.23-16.37-32.53-7.83-32.93 54.58 15.55 57.22 15.75 70.53-35.34 67.99 22.69z"/><path class="shp4" d="M367.03 593.8c.22.55.51 1.07.87 1.54s.78.89 1.25 1.25.99.65 1.54.88c.55.22 1.12.36 1.71.43.15.01.29.02.44.02.14 0 .29-.01.43-.02.15 0 .29-.02.44-.03.14-.02.29-.04.43-.07 5.28-.91 17.68-3 22.05-2.23 2.63.49 7.5-.24 11-.89 2.3-.43 4-.84 4-.84s-4.06-13.52-4.57-13.92-18.33-11.12-18.33-11.12l-14.09-1c-.47.07-.93.19-1.37.34-.45.16-.88.36-1.29.6-.4.24-.79.52-1.14.83-.36.32-.68.66-.97 1.04-1.49 1.8-2.77 4.75-2.85 9.59-.25 11.91.45 13.6.45 13.6z"/><path class="shp12" d="M367.03 593.8c.22.55.51 1.07.87 1.54s.78.89 1.25 1.25.99.65 1.54.88c.55.22 1.12.36 1.71.43-.35-.45-.68-.9-1.02-1.35-.33-.46-.65-.92-.97-1.38-.32-.47-.63-.94-.94-1.41-.3-.48-.6-.96-.89-1.44l.07-9.86c-.14-1.35-.13-2.71.04-4.06.18-1.34.51-2.66.99-3.93s1.11-2.48 1.87-3.6 1.65-2.15 2.65-3.07c0 0-7.42.51-7.62 12.4s.45 13.6.45 13.6z"/><path class="shp13" d="M428.13 572.29l13.11-10.26 20.63-20.33-5.59-.25c-.84.53-3.18 2.21-3.27 4.25-.1 2.48-5.57.17-8.42 1.59s-16.77 19.24-19.19 19.13-4.37-1.24-5.38.49c-.01.01-.01.02-.02.03 0 .01-.01.02-.02.03 0 .01-.01.01-.02.02s-.01.02-.02.03l8.19 5.27zM369.4 570.63l1.42.65c10 4.27 22.25 13.21 23.17 14.84.56 1 7.69 5.32 13.19 8.56 2.3-.43 4-.84 4-.84s-4.06-13.52-4.57-13.92-18.32-11.12-18.32-11.12l-14.09-1c-.47.07-.93.19-1.38.34a7 7 0 0 0-1.3.61c-.41.24-.79.52-1.15.84-.36.31-.68.66-.97 1.04z"/><path class="shp11" d="M341.74 541.5c1.32 3.25 12.4 15.75 12.4 15.75s7 9.15 17 13.42 22.26 13.21 23.17 14.84c.59 1 8.53 5.82 14.12 9.11l1.26.73 2.77 1.61 1.47.84s3.4-2.73 6.79-5.48 6.68-5.44 6.73-5.59c.1-.31 1.42-3.76 1.11-4-.16-.1-.85-1.51-2.14-3.14-.34-.45-.7-.88-1.09-1.29s-.81-.8-1.24-1.16c-.44-.36-.89-.69-1.37-1-.47-.3-.96-.58-1.47-.83a14.667 14.667 0 0 1-5.5-4.85c-.46-.68-.87-1.4-1.21-2.15s-.45-.32-1.12-.75c-.35-.24-.7-.45-1.07-.66a14.036 14.036 0 0 0-2.29-1c-.4-.13-.8-.25-1.21-.34-2.24-.28-6.4-4.85-6.4-4.85-.41-.26-.8-.55-1.18-.86-.37-.31-.73-.64-1.06-.99-.34-.35-.66-.72-.95-1.11s-.56-.79-.81-1.21c-1.07-2.23-16.83-13-18.29-14l38.24 24.49 9.15 5.87 13.11-10.26 20.63-20.33-6.81-.3c-10-.44-27.83-1.12-30.08-.61-.46.11-.92.19-1.38.26-.47.07-.93.12-1.4.15s-.94.04-1.41.03c-.47 0-.93-.03-1.4-.08s-5.08.23-8.43-1.54-8.65-2.6-9.26-3.91-18.6-7.62-18.6-7.62-24.49-13-33.23-5.28-8.89 14.84-7.55 18.09z"/><path class="shp14" d="M420.71 466.9l3.15 10.47 4.06 23.58 14.94 1 4.33-7.18 4.31-7.15s2.69-9.53 4.63-18.75c1.71-8.15 2.82-16.07 1-16.93-1.65-.76-2.73-3.51-3.44-6.46a19.5 19.5 0 0 1-.24-1.1c-.13-.63-.24-1.25-.34-1.88-.11-.63-.2-1.26-.29-1.89-.08-.64-.15-1.27-.21-1.9-.07-.64-.12-1.27-.16-1.91s-31.31-1.63-26.94 11.28c.2.55.37 1.11.52 1.67.14.56.27 1.13.37 1.71.09.57.17 1.15.22 1.73s.07 1.17.07 1.75c0 .15 0 .29-.01.44 0 .14-.01.29-.02.44 0 .14-.02.29-.03.43a14.205 14.205 0 0 1-.68 3.4c-.31.96-.72 1.89-1.23 2.76-.5.88-1.1 1.7-1.77 2.46-.67.75-1.43 1.43-2.24 2.03z"/><path d="M414.2 465.17l1.12 17.79 2.54 15.14 2.85 7 2.54 38.36s24.5 2.84 30.46 0c.11-.04.21-.1.31-.15.1-.06.19-.13.29-.2.09-.07.17-.15.25-.23.09-.08.16-.17.23-.26 7.2-10.87 4.84-42.35 4.84-42.35l2.77-20.36-1.83-10.55-4.42-.47-3.41-.36s-.77.94-1.87 2.41c-3 4-8.56 11.8-8.19 15.07.51 4.47-.61 9-2.34 9.75s-3.15 1.94-3.45.72c-.11-.25-.19-.52-.26-.79-.07-.26-.12-.54-.14-.81-.03-.28-.03-.55-.02-.83.02-.28.05-.55.11-.82.31-1.73-1.32-7-1.32-7s-2.74-6.2-2.54-8.84-.3-5.69-1.12-6.4-1.93-1.43-1-4.68-4-9.58-4-9.58l-12.4 8.44z" fill="#e3e8f4"/><path class="shp13" d="M446.57 509.59l1 30.39 5.87 3.26c.11-.04.21-.1.31-.15a2.848 2.848 0 0 0 .55-.43c.08-.09.15-.18.22-.27 7.2-10.87 4.84-42.35 4.84-42.35l2.74-20.33-1.83-10.55-4.42-.47c1.71-8.15 2.83-16.06 1-16.92-1.65-.77-2.74-3.51-3.44-6.46l-3.18 21.49s.27 1.93.36 3.93c.03.32.05.63.06.95 0 .32-.01.64-.03.96a9.99 9.99 0 0 1-.29 1.88c-.71 1.83-.2 5.08-.2 5.08-1.83 3.23-2.75 9.21-3.19 15-.6 7.68-.37 14.99-.37 14.99z"/><path class="shp4" d="M453.5 444.8s5.12.64 6.74 2.77 5.9 2.44 5.9 2.44 4.88 1.63 4.77 2 1.43 1 4.48 1.83 8.13 3.76 8.13 4.48 8 8.63 8 9.45 2.43 3.86 2.13 9.25-.61 12.19.61 13.31 0 5.49 0 5.49a3.069 3.069 0 0 0-.53 1.61c-.01.29.03.57.1.85s.18.54.33.79c1 1.83-.21 9.45-.21 9.45l.11 7.93s-1.12 5 .2 5.18-.2 2.44-.2 2.44-1.12 4.07.3 5.9 1.83 9.65 1.83 9.65l21.75 31.61s.3 5.79-6.61 5.69-6.81 1.32-6.6 2.64-1.93 2.75-1.93 2.75-2.75 1.42-1.12 3.15 6.3 5.69-1.42 8.33c-.23-.31-.45-.63-.66-.96-.2-.33-.4-.66-.59-1s-.36-.68-.53-1.03c-.16-.35-.32-.71-.46-1.07-.16-.45-.32-.9-.47-1.35-.15-.46-.29-.91-.43-1.37l-.39-1.38c-.12-.46-.23-.92-.34-1.39s-.71-7.73-2.13-8.74-1.22-5.9-1.22-5.9 2-4-.81-5.59-44.11-24.49-44.11-24.49l-1-30.39s-.71-22.46 3.56-30c0 0-.51-3.25.2-5.08s-.1-7.73-.1-7.73l2.72-21.52z"/><path class="shp13" d="M426.86 457.02s-10.22-2.11-13-.69-8.13 2.54-8.94 3.36-2.85.2-4.68 5-2 9.65-4.37 11.89-3.56 3.76-3.66 5.38.31 2-.61 2.54-2.23 2.65-1.83 3.46 21.14 18.7 21.14 18.7 1 6.81 1.93 8.54-1 25.51-3.05 27.13 13.76 1.47 13.76 1.47.72-15.6 1.33-16.42-.41-17.48-.41-17.48-.1-14.23 1.22-18 1.17-16.26 1.17-16.26 1.17-7.5 2.59-9.25-2.59-9.37-2.59-9.37z"/><path class="shp4" d="M426.56 456.71s-10.22-2.1-13-.68-8.13 2.54-8.94 3.35-2.85.21-4.67 5-2 9.66-4.37 11.89-3.56 3.76-3.66 5.39.3 2-.61 2.54-2.24 2.64-1.83 3.46 21.14 18.7 21.14 18.7 1 6.81 1.93 8.53-1 25.51-3.05 27.14 13.72 1.47 13.72 1.47.71-15.6 1.32-16.41-.41-17.48-.41-17.48-.1-14.23 1.22-18 1.18-16.26 1.18-16.26 1.16-7.5 2.58-9.25-2.55-9.39-2.55-9.39z"/><path class="shp13" d="M425.48 448.1c.2.55.37 1.11.52 1.67.14.56.27 1.13.37 1.71.09.57.17 1.15.22 1.73s.07 1.17.07 1.75c2.48.74 5.07 1.06 7.65.95 2.59-.12 5.14-.66 7.54-1.61 2.41-.95 4.64-2.3 6.61-3.98 1.96-1.69 3.63-3.69 4.94-5.92-.13-.63-.24-1.25-.34-1.88-.11-.63-.2-1.26-.29-1.89-.08-.64-.15-1.27-.21-1.9-.07-.64-.12-1.27-.16-1.91s-31.29-1.63-26.92 11.28z"/><path class="shp14" d="M410.04 432.04c.03 12.35 9.71 22.52 22.05 23.14 12.33.63 23-8.52 24.27-20.8 1.27-12.29-7.3-23.42-19.51-25.33-12.2-1.91-23.76 6.07-26.31 18.15-.08.4-.16.8-.22 1.2s-.12.8-.16 1.21a24.608 24.608 0 0 0-.12 2.43z"/><path class="shp4" d="M395.1 485.91l-5.59 1.73c.07.28.09.56.07.84-.02.29-.08.56-.17.83-.1.27-.24.52-.41.74-.18.23-.38.42-.61.59a3.389 3.389 0 0 0-1.1 1.31c-.13.27-.22.54-.27.83-.05.28-.07.57-.05.86s-.61 2.24-2 2.75-2.33 3.86-2.33 3.86l-4.68 5.39s-1.73 1.42-1.42 2.13-1.83.91-1.83.91l1.12 18.1 9.65 1.82 6-.61 4.88-1.82 4.27-2.55 1.93-5 8.53-13-15.99-19.71z"/><path class="shp14" d="M376.09 510.2s-12.4-17.89-21.65-8.23 3.76 25.3 6.81 24.79 17.59-1.32 17.59-1.32l-2.75-15.24z"/><path class="shp13" d="M410.54 427.2c.16.01.32.04.47.08s.31.09.45.16c.15.06.29.14.42.23s.25.19.37.3c.78.83.82 2.3 1.85 2.82.09.04.19.07.29.1s.2.05.3.06c.11.01.21.01.31.01.11 0 .21-.01.31-.03 2.7-.39 4.26-3.44 6.86-4.28.38-.09.76-.16 1.15-.19.38-.03.77-.03 1.16 0 .38.04.77.1 1.14.2.38.09.75.22 1.1.38.14.05.28.11.42.17.14.07.27.15.4.23.12.08.24.18.36.28.11.1.22.21.32.32.87 1.13.26 2.78.66 4.14.56 1.89 2.81 2.64 4.77 2.88s4.15.39 5.45 1.86c.22.27.4.57.56.88.15.31.27.64.36.98.08.34.13.68.15 1.03.01.35-.01.7-.07 1.04-.03.12-.05.24-.06.36a2.308 2.308 0 0 0 0 .74c.01.12.03.24.06.36.54 1.52 3.18 1.3 3.87.09.5-.87.35-1.6 1.53-1.84.21-.02.43-.02.64-.01s.42.03.63.07c.21.03.42.08.62.14.21.07.41.14.6.23a17.644 17.644 0 0 0 3.17.79c.54.09 1.09.15 1.63.18.55.03 1.09.04 1.64.03a23.26 23.26 0 0 0 .34-19.05c-2.6-6.1-7.69-10.81-13.99-12.92a23.238 23.238 0 0 0-18.96 1.85 23.28 23.28 0 0 0-11.23 15.38l-.05-.05z"/><path class="shp4" d="M440.05 441.67c-.03-.12-.05-.24-.06-.36a2.308 2.308 0 0 1 0-.74c.01-.12.03-.24.06-.36.06-.34.08-.69.07-1.04a5.95 5.95 0 0 0-.15-1.03c-.09-.34-.21-.67-.36-.98-.16-.31-.34-.61-.56-.88-1.3-1.47-3.5-1.61-5.45-1.86s-4.21-1-4.77-2.88c-.4-1.36.21-3-.66-4.14-.1-.12-.21-.22-.32-.32-.11-.11-.23-.2-.36-.28-.13-.09-.26-.16-.4-.23-.13-.07-.28-.12-.42-.17-.35-.16-.72-.29-1.1-.38-.37-.1-.75-.17-1.14-.2-.39-.04-.78-.04-1.16-.01-.39.03-.77.1-1.15.19-2.6.84-4.16 3.89-6.86 4.28-.1.02-.2.03-.31.03-.1 0-.2 0-.31-.01-.1-.02-.2-.03-.3-.06s-.2-.06-.29-.1c-1-.52-1.07-2-1.85-2.82-1.24-1.31-3.58-.47-5.09-1.44-.22-.19-.43-.39-.62-.62-.18-.22-.35-.47-.49-.72-.14-.26-.25-.53-.34-.81-.09-.27-.15-.56-.19-.85-.17-.54-.3-1.09-.41-1.65-.1-.56-.17-1.13-.21-1.69-.04-.57-.04-1.14-.01-1.71.02-.56.09-1.13.18-1.69.88-3.78 4.26-6.37 6.42-9.6 2-3 3.14-6.81 6.16-8.81s6.9-1.54 10.31-.53c.39.14.79.27 1.19.4.39.12.79.23 1.2.34.4.11.81.2 1.21.29.41.09.82.17 1.23.24 2.74.34 5.5-.41 8.27-.5.97-.03 1.94.02 2.9.14.96.13 1.91.33 2.83.62.93.28 1.83.64 2.7 1.07.87.42 1.7.92 2.49 1.49.18.12.35.24.51.38.17.13.33.27.48.43.15.15.29.31.42.47.13.17.26.34.37.52.12.25.22.51.31.78.09.26.17.53.24.8s.12.55.16.83c.05.27.07.55.09.83a17.267 17.267 0 0 0 .78 3.07c.18.5.39.99.61 1.47.23.48.48.95.75 1.4.86 1.43 1.93 2.73 2.7 4.21.21.36.39.73.53 1.13.14.39.25.79.31 1.2s.08.83.06 1.25c-.01.41-.07.83-.17 1.23-.26.84-.77 1.59-1 2.45-.45 2 .86 3.88 1.75 5.71.21.42.4.85.56 1.29s.29.89.39 1.34a10.842 10.842 0 0 1 .24 2.79c-.03.47-.1.93-.22 1.38s-.28.89-.49 1.31-.47.81-.76 1.18c-.28.36-.61.7-.97 1-.37.26-.77.49-1.18.69s-.84.36-1.27.5a8.793 8.793 0 0 1-2.7.37c-.56.02-1.11.01-1.67-.02-.56-.04-1.11-.1-1.66-.18s-1.1-.19-1.64-.33c-.54-.13-1.07-.29-1.6-.47-.19-.09-.39-.16-.59-.23-.21-.06-.41-.11-.62-.14-.21-.04-.42-.06-.63-.07-.22-.01-.43-.01-.64.01-1.19.24-1 1-1.54 1.84-.61 1.26-3.25 1.48-3.79-.04z"/><path class="shp13" d="M427.52 572.9l13.11-10.26 20.63-20.33-6.81-.3c-.2.18-.38.37-.54.58-.17.21-.31.44-.43.67-.12.24-.23.49-.3.74-.08.26-.14.52-.17.78-.1 2.49-5.57.18-8.42 1.6s-16.77 19.24-19.19 19.12-4.37-1.23-5.38.49l-.08.12c-.1.12-.21.22-.33.32-.11.1-.24.19-.37.26-.13.08-.27.15-.41.21-.14.05-.29.1-.44.13l9.13 5.87z"/><path class="shp11" d="M401.09 572.19l6.59 21 1 3.3 3.14-.86 6.92-1.9 30.8-8.46c.96-.05 1.92-.14 2.88-.29.95-.15 1.9-.35 2.83-.61a25.913 25.913 0 0 0 5.38-2.1c1.45-.81 2.95-1.51 4.5-2.1s3.14-1.07 4.76-1.42 3.26-.59 4.91-.7c1.66-.11 3.32-.09 4.97.04 4.07.38 8.6-1.37 12.36-8.32 0 0 8.53-25.2-13-32.41s-22.58 3.83-22.58 3.83l-.29.18c-.84.53-3.18 2.21-3.27 4.25-.1 2.48-5.57.17-8.42 1.59s-16.75 19.32-19.17 19.21-4.37-1.24-5.38.49c-.01.01-.01.02-.02.03 0 .01-.01.02-.02.03 0 .01-.01.01-.02.02s-.01.02-.02.03c-.75 1-3 1.28-4.51 1.32h-1.41l-.19.06-1.56.46-11.18 3.33z"/><path class="shp13" d="M402.8 531.34l3.17.51 1.32-13.11s-1.45-.22-3.27-.64c.48 1.82-.62 8.9-1.22 13.24z"/><path class="shp13" d="M485.9 470.08s9.45-2.74 7.12 24.09-19.82 43.8-19.82 43.8-20.13 8.84-29.17 7.42-15.63-1.73-15.63-1.73c-.71-.36-1.44-.68-2.18-.96s-1.5-.53-2.27-.73c-.77-.21-1.55-.37-2.33-.5-.79-.12-1.58-.21-2.37-.25-5.08-.2-15.75-3.35-16-4.37s2.65-15.95 1.43-17.07c0 0 14.23.58 15.65 1.61s3.45.29 5 0 6.2-4.35 15.45-.8c0 0 3.15.31 4.37-.51.25-.11.5-.21.77-.27.26-.07.53-.11.8-.13s.55-.01.81.03c.27.03.54.09.8.17.2-.07.39-.14.58-.22s.38-.17.56-.26l.54-.3c.18-.11.35-.22.52-.34.31-.4 2.75 0 2.75 0 .14.07.3.11.46.11s.32-.03.47-.1c.14-.07.27-.17.38-.29.1-.13.17-.27.21-.43a6.645 6.645 0 0 1 .6-1.19c.12-.18.25-.36.38-.54.14-.17.29-.34.44-.5s2.75-15.45 7.93-21.24c.21-.18.39-.38.55-.61.16-.22.29-.47.38-.72a3.216 3.216 0 0 0 .19-1.62c-.41-1.63 8.43-24.83 20.63-21.55zM412.25 568.85l13.42 16.25.09-.1c.1-.3 1.42-3.76 1.11-4s-2.64-5.29-7.32-7.42a13.699 13.699 0 0 1-3.24-2.21 13.68 13.68 0 0 1-2.5-3.02l-1.56.5z"/><path class="shp13" d="M412.4 596.96l1.47.84s3.4-2.73 6.79-5.48 6.68-5.44 6.73-5.59c.1-.31 1.42-3.76 1.11-4-.16-.1-.85-1.51-2.14-3.14-9.1-2.55-3.3 3.77-2.53 4.06 0 0-11.08-2.54-11.69 9.52a15.068 15.068 0 0 0 0 1.9c.03.32.06.64.1.95.04.32.1.63.16.94z"/><path class="shp4" d="M423.65 602.07l1.94 1.12 19.61.51c.55.33 1.11.65 1.67.96.57.31 1.14.6 1.72.88s1.16.54 1.76.79c.59.25 1.19.49 1.79.71.08.02.16.05.25.07.08.02.16.04.25.06.08.02.16.03.25.05.08.01.17.03.25.04.45.04.91.06 1.37.09.45.02.91.03 1.36.04.46.01.92.01 1.37.01.46-.01.91-.02 1.37-.04 1.5 0 2.66-.1 2.66-.1s-.93-24.74-1.63-27.34c-.33-1.25-2-1-3.6-.35-.3.12-.61.25-.91.39-.29.13-.59.28-.88.43-.3.14-.59.3-.87.46-.29.16-.57.33-.85.5s-8.33.8-9.66 1.52-5.08-.41-7.42 0-6.5-2.75-6.5-2.75c-11.38-3.76-5 3.25-4.17 3.56 0 0-11.07-2.54-11.68 9.52s10.55 8.87 10.55 8.87z"/><path d="M452.01 592.52c.21 5.12 4.2 11.48 6.59 14.84 1.5 0 2.66-.1 2.66-.1s-.93-24.74-1.63-27.34c-.33-1.25-2-1-3.6-.35-1.97 3.69-4.19 8.82-4.02 12.95z" fill="#565387"/><path class="shp13" d="M452.01 592.52c.21 5.12 4.2 11.48 6.59 14.84 1.5 0 2.66-.1 2.66-.1s-.93-24.74-1.63-27.34c-.33-1.25-2-1-3.6-.35-1.97 3.69-4.19 8.82-4.02 12.95z"/><path class="shp12" d="M448.66 593.2c1.35 4.94 1.33 10.49 3.48 13.84.08.02.16.05.25.07.08.02.16.04.25.06.08.02.16.03.25.05.08.01.17.03.25.04.45.04.91.06 1.37.09.45.02.91.03 1.36.04.46.01.92.01 1.37.01.46-.01.91-.02 1.37-.04 1.5 0 2.66-.1 2.66-.1s-.93-24.74-1.63-27.34c-.33-1.25-2-1-3.6-.35-.3.12-.61.25-.91.39-.29.13-.59.28-.88.43-.3.14-.59.3-.87.46-.29.16-.57.33-.85.5s-5.6 5.52-3.87 11.85z"/><path class="shp13" d="M380.99 543.06s9.74 3.16 18 14.39l-18-14.39z"/><g opacity=".102"><path class="shp17" d="M460.16 421.1l-.06.22c-.02.07-.05.14-.07.22l-.09.21c-.02.07-.05.14-.08.21-.04.07-.07.14-.1.21.02-.09.05-.18.08-.27.03-.1.06-.19.09-.27.04-.09.07-.18.11-.27s.08-.17.12-.26zM405.04 416.17c.04-.17.09-.35.14-.52.06-.17.11-.33.18-.5.06-.17.13-.33.2-.5.07-.16.15-.32.23-.48-.05.17-.1.35-.14.53-.09.56-.16 1.13-.18 1.69-.03.57-.03 1.14.01 1.71.04.56.11 1.13.21 1.69.11.56.24 1.11.41 1.65.04.29.1.58.19.85.09.28.2.55.34.81.14.25.31.5.49.72.19.23.4.43.62.62 1.51 1 3.85.13 5.08 1.43.79.83.83 2.31 1.85 2.82.09.04.19.08.29.11l.31.06c.1.01.21.01.31.01.1-.01.21-.02.31-.04 2.7-.38 4.26-3.43 6.86-4.27.37-.1.76-.16 1.14-.19.39-.04.78-.04 1.16 0 .39.03.77.1 1.15.19.37.1.74.23 1.09.39.15.05.29.1.43.17.13.07.27.14.39.23.13.08.25.17.37.27.11.11.22.21.32.33.87 1.12.26 2.78.66 4.14.56 1.88 2.81 2.63 4.76 2.88s4.15.38 5.46 1.86c.22.27.41.57.56.88.16.31.28.64.36.98.09.34.14.68.15 1.03.02.35-.01.7-.07 1.04-.03.12-.05.24-.06.36-.02.12-.02.24-.02.36 0 .13 0 .25.02.37.01.12.03.24.06.36.54 1.53 3.18 1.3 3.87.1.5-.88.35-1.6 1.53-1.85.21-.02.43-.02.64-.01s.42.03.63.07c.21.03.42.08.62.15.21.06.41.13.6.22.53.18 1.06.34 1.6.47.54.14 1.09.25 1.64.33s1.1.14 1.66.18c.56.03 1.11.04 1.67.02.46.01.91-.02 1.36-.09.45-.06.9-.16 1.34-.29.43-.13.86-.3 1.27-.49.41-.2.8-.43 1.18-.69a6.142 6.142 0 0 0 .89-.88c.13-.17.26-.33.37-.51.12-.17.22-.35.32-.54a6.268 6.268 0 0 1-.82 1.9 6.381 6.381 0 0 1-1.37 1.55c-.37.26-.77.49-1.18.69s-.84.36-1.27.5a8.793 8.793 0 0 1-2.7.37c-.56.02-1.11.01-1.67-.02-.56-.04-1.11-.1-1.66-.18s-1.1-.19-1.64-.33c-.54-.13-1.07-.29-1.6-.47-.19-.09-.39-.16-.6-.23-.2-.06-.41-.11-.62-.14-.21-.04-.42-.06-.63-.07s-.43-.01-.64.01c-1.18.24-1 1-1.53 1.84-.69 1.21-3.33 1.43-3.87-.09-.03-.12-.05-.24-.06-.36-.02-.12-.02-.25-.02-.37s0-.25.02-.37c.01-.12.03-.24.06-.36.06-.34.09-.69.07-1.04-.01-.35-.06-.69-.15-1.03-.08-.34-.2-.67-.36-.98-.15-.31-.34-.61-.56-.88-1.31-1.47-3.5-1.61-5.46-1.86s-4.2-1-4.76-2.88c-.4-1.36.21-3-.66-4.14-.1-.12-.21-.22-.32-.32-.11-.11-.23-.2-.36-.28-.13-.09-.26-.16-.4-.23-.13-.07-.28-.12-.42-.17-.35-.16-.72-.29-1.1-.38-.37-.1-.75-.17-1.14-.2-.39-.04-.78-.04-1.16-.01-.39.03-.77.1-1.15.19-2.6.84-4.16 3.89-6.86 4.28-.1.02-.21.03-.31.03s-.21 0-.31-.01-.21-.03-.31-.06-.19-.06-.29-.1c-1-.52-1.06-2-1.85-2.82-1.23-1.31-3.57-.47-5.08-1.44-.22-.19-.43-.39-.62-.62-.18-.22-.35-.47-.49-.72-.14-.26-.25-.53-.34-.81-.09-.27-.15-.56-.19-.85-.17-.55-.31-1.1-.41-1.66-.11-.56-.18-1.13-.21-1.7a13.94 13.94 0 0 1 .17-3.41z"/></g><path class="shp13" d="M461.73 497.52c-1.86 2.51-4 4.84-5.63 7.5a14.016 14.016 0 0 0-1.97 4.23c-.21.75-.36 1.52-.44 2.3-.09.78-.11 1.56-.06 2.34 1.7-1.75 2.48-4.17 3.56-6.36 1.82-3.72 4.54-6.87 6.83-10.28.44-.65 3.25-4.42 1.83-4.6-1.17-.15-3.45 4.01-4.12 4.87z"/><path class="shp3" d="M410.28 456.48L430.65 495c.61 1.14-1.05 3.21-3.7 4.62l-101.67 53.77c-2.65 1.4-5.3 1.61-5.9.46l-20.37-38.51c-.61-1.15.92-3.46 3.57-4.86l101.67-53.77c2.66-1.41 5.43-1.38 6.03-.23z"/><path class="shp1" d="M410.28 456.48L430.65 495c.61 1.14-1.05 3.21-3.7 4.62l-101.67 53.77c-2.65 1.4-5.3 1.61-5.9.46l-20.37-38.51c-.61-1.15.92-3.46 3.57-4.86l101.67-53.77c2.66-1.41 5.43-1.38 6.03-.23z" opacity=".2"/><path class="shp1" d="M353.87 501l52.96-28 .98 1.86-52.96 28.01-.98-1.87z"/><path class="shp8" d="M356.28 505.57l52.96-28.01.99 1.87-52.97 28-.98-1.86zM358.69 510.12l52.96-28.01.98 1.86-52.96 28.01-.98-1.86zM361.1 514.68l52.96-28.01.99 1.87-52.97 28-.98-1.86z"/><path class="shp8" d="M324.91 511.02c2.71-1.44 5.81-1.96 8.84-1.49 3.02.47 5.82 1.91 7.96 4.1 2.15 2.19 3.52 5.02 3.93 8.06.4 3.04-.19 6.12-1.68 8.8l-1.15-2.18c-.18-.34-.43-.65-.72-.91-.3-.25-.63-.46-1-.59-.36-.14-.75-.21-1.14-.21s-.78.07-1.14.21c-.01 1.01-.3 2-.83 2.86-.52.87-1.27 1.57-2.17 2.04-.89.48-1.9.7-2.91.65s-1.99-.37-2.83-.93c-.32.22-.6.5-.82.83-.22.32-.38.68-.47 1.06s-.11.77-.06 1.16.17.76.35 1.11l1.12 2.12c-3.04-.29-5.9-1.56-8.17-3.61a14.24 14.24 0 0 1-4.39-7.78 14.213 14.213 0 0 1 7.3-15.3h-.02zm13.65 12.41c-.01-.26-.03-.52-.08-.77s-.12-.5-.21-.74a4.533 4.533 0 0 0-.75-1.35 14.154 14.154 0 0 0-1.05-1.17c-.19-.18-.38-.36-.57-.53-.2-.18-.4-.35-.6-.51a2.02 2.02 0 0 0-.56-.45c-.21-.12-.44-.19-.68-.22-.24-.04-.48-.03-.72.03-.24.05-.46.15-.66.28l-1.33.51c-.05.02-.1.04-.16.06-.05.01-.1.03-.16.04-.05.01-.11.02-.16.02-.06.01-.11.01-.17.01l-.18-.06c-.07-.01-.13-.04-.19-.06s-.12-.04-.17-.07c-.06-.03-.12-.05-.18-.08-.16-.04-.33-.05-.49-.03s-.32.07-.46.16c-.15.08-.27.19-.37.32s-.18.28-.22.44c-.03-.07-.05-.13-.08-.2-.03-.06-.06-.13-.09-.19a1.14 1.14 0 0 0-.1-.19 1.14 1.14 0 0 0-.1-.19c-.02.32-.07.63-.15.94s-.18.61-.32.89c-.13.29-.29.57-.47.83-.19.26-.39.5-.62.72-.08.06-.16.13-.24.2a4.263 4.263 0 0 0-.41.46c-.07.09-.12.17-.18.26-.08.23-.12.47-.12.71.01.24.06.48.16.7s.24.42.41.59.38.31.6.4h.07c-.04 1.61.6 3.16 1.78 4.26a5.653 5.653 0 0 0 4.36 1.51c1.6-.15 3.07-.97 4.03-2.26s1.32-2.93.99-4.51l.25-.14.09-.06c.03-.03.06-.05.08-.08a.55.55 0 0 0 .07-.09l.06-.09c.01-.02.02-.05.02-.07.01-.03.02-.05.02-.08 0-.02.01-.05.01-.07v-.08z" fill-rule="evenodd"/><path class="shp14" d="M368.06 513.96c-.1 13.41 27.65 16.26 27.65 16.26l7.09 1.12 3.17.51 1.32-13.11s-1.45-.22-3.27-.64c-2.68-.63-6.16-1.71-6.89-3.23-1.22-2.54-28.97-14.33-29.07-.91z"/><path class="shp4" d="M485.65 468.02s9.45-2.74 7.12 24.09-19.82 43.8-19.82 43.8-20.13 8.84-29.17 7.42-15.65-1.73-15.65-1.73c-.71-.36-1.44-.68-2.18-.96s-1.5-.53-2.27-.73c-.77-.21-1.55-.37-2.33-.5-.79-.12-1.58-.21-2.37-.25-5.08-.2-15.75-3.35-16-4.37s2.65-16 1.43-17.07c0 0 14.23.58 15.65 1.61s3.45.29 5 0 6.2-4.36 15.45-.8c0 0 3.15.31 4.37-.51.25-.11.5-.21.77-.27.26-.07.53-.11.8-.13s.55-.01.81.03c.27.03.54.09.8.17.2-.07.39-.14.58-.22s.38-.17.56-.26l.54-.3c.18-.11.35-.22.52-.34.31-.4 2.75 0 2.75 0 .14.07.3.11.46.11.17.01.33-.03.47-.1.15-.07.28-.17.38-.29.1-.13.17-.27.21-.43a6.645 6.645 0 0 1 .6-1.19c.12-.19.25-.37.38-.55.14-.17.29-.34.44-.5s2.75-15.44 7.93-21.24c.21-.18.39-.38.55-.61.16-.22.29-.46.38-.72.1-.25.17-.52.2-.79s.03-.55-.01-.82c-.39-1.63 8.46-24.77 20.65-21.55z"/><path class="shp3" d="M878.16 136.14v56c0 1.67-3.12 3-7 3H723.4c-3.86 0-7-1.35-7-3v-56c0-1.67 3.12-3.37 7-3.37h147.78c3.86.03 6.98 1.7 6.98 3.37z"/><path class="shp1" d="M860.85 146.33v56c0 1.66-3.13 3-7 3H706.12c-3.86 0-7-1.36-7-3v-56c0-1.67 3.12-3.37 7-3.37h147.75c3.85 0 6.98 1.7 6.98 3.37z" opacity=".102"/><path class="shp3" d="M878.16 136.14v56c0 1.67-3.12 3-7 3H723.4c-3.86 0-7-1.35-7-3v-56c0-1.67 3.12-3.37 7-3.37h147.78c3.86.03 6.98 1.7 6.98 3.37z"/><path class="shp1" d="M878.16 136.14v56c0 1.67-3.12 3-7 3H723.4c-3.86 0-7-1.35-7-3v-56c0-1.67 3.12-3.37 7-3.37h147.78c3.86.03 6.98 1.7 6.98 3.37z" opacity=".2"/><path class="shp1" d="M787.42 152.77h76.96v2.72h-76.96v-2.72z"/><path class="shp8" d="M787.42 159.39h76.96v2.72h-76.96v-2.72zM787.42 166.01h76.96v2.72h-76.96v-2.72zM787.42 172.63h76.96v2.72h-76.96v-2.72z"/><path class="shp8" d="M748.49 146.8c3.93 0 7.76 1.28 10.91 3.64s5.46 5.67 6.57 9.44.98 7.81-.39 11.5a18.21 18.21 0 0 1-7.18 8.98v-3.17c0-.5-.1-1-.27-1.47-.18-.47-.45-.9-.78-1.27-.33-.38-.73-.69-1.18-.92-.44-.24-.92-.39-1.42-.45-.62 1.14-1.54 2.09-2.66 2.75s-2.39 1.01-3.69 1.01-2.57-.35-3.69-1.01-2.04-1.61-2.66-2.75c-.5.06-.98.21-1.42.45-.45.23-.85.54-1.18.92-.33.37-.6.8-.78 1.27-.17.47-.27.97-.27 1.47v3.09a18.26 18.26 0 0 1-7.11-9.02c-1.33-3.69-1.44-7.72-.31-11.48a18.247 18.247 0 0 1 17.51-12.98zm8.02 22.28c.16-.3.29-.61.39-.93s.18-.65.23-.98.07-.67.06-1.01c0-.33-.04-.67-.1-1s-.13-.66-.21-.99c-.08-.32-.17-.65-.27-.97s-.21-.64-.33-.95c-.12-.32-.24-.63-.38-.94-.07-.3-.19-.59-.36-.86-.17-.26-.39-.48-.64-.67-.25-.18-.53-.31-.84-.4-.3-.08-.61-.1-.92-.07l-1.81-.24c-.07 0-.14-.01-.21-.02s-.14-.03-.21-.04c-.07-.02-.13-.05-.2-.08a.818.818 0 0 1-.19-.09c-.28-.18-.43-.5-.66-.73a1.597 1.597 0 0 0-1.16-.44c-.21.01-.42.06-.62.15-.19.09-.37.21-.51.37.01-.09.01-.18.02-.27v-.56c-.01-.09-.01-.18-.02-.27-.21.35-.46.67-.73.98-.28.3-.58.58-.9.82-.32.25-.67.47-1.03.65-.37.19-.75.34-1.14.45l-.39.09c-.13.04-.26.08-.38.12-.13.05-.25.1-.37.16-.12.05-.24.11-.36.18-.23.21-.42.46-.56.74-.13.27-.21.58-.24.89-.02.31.02.62.11.91.1.3.25.57.45.81l.08.05c-.15.27-.29.55-.41.84-.11.28-.21.58-.29.88s-.14.6-.18.91-.06.62-.06.93c0 1.74.63 3.42 1.77 4.74 1.13 1.31 2.71 2.17 4.43 2.42s3.47-.13 4.94-1.06a7.247 7.247 0 0 0 3.04-4.04c.03 0 .06 0 .09.01h.19c.03-.01.06-.01.09-.01.08 0 .16 0 .24-.03.08-.02.15-.05.22-.09.07-.05.13-.1.18-.16.06-.06.1-.13.13-.21l.02.01z" fill-rule="evenodd"/><path d="M924.97 594.22c-1.38-5-2.28-9.38-2.28-9.38s.06-5.49-2.56-9.51l-.05-1.37-.4-10.16c.16-.47.32-.93.5-1.39s.37-.91.56-1.36c.2-.45.41-.9.62-1.34.22-.44.45-.88.68-1.31 1.7-3.25-.57-14.85-.57-14.85s-7.4-16.19-6.15-26.68-15.67-45.79-15.67-45.79a44.755 44.755 0 0 1 .25-5.17c.08-.86.2-1.71.34-2.57.13-.85.29-1.7.48-2.54.03-.18.06-.36.08-.54s.04-.36.05-.54.01-.36.01-.54l-.03-.54v-.26.08c-.5-6.87-6.43-19.55-6.43-19.55l-.22-24.61s2.92-14.63-3.5-33.86c-2.24-6.71-3.71-12.1-4.67-16.26-.11-.47-.22-.92-.31-1.36 11.59-2.22 20.43-4 20.43-4s-7.84-28-12.6-32.8-9-20.19-9-20.19-3.14-19.89.47-25.87 3.75-16.16 3.75-16.16 8.52-6.71 9.51-9.58 2.57-9.31 2.44-12.66-1.34-6.33-1-8.11-2.89-8.39-1.55-11.63c.09-.25.16-.5.22-.75.07-.26.12-.51.16-.77s.06-.52.08-.78c.01-.27.02-.53.01-.79v-.13c-.02-.7-.06-1.39-.12-2.08-.06-.7-.13-1.39-.23-2.08-.09-.69-.19-1.37-.32-2.06-.12-.68-.26-1.36-.42-2.04-.65-.51-1.33-.98-2.03-1.42s-1.43-.84-2.17-1.2c-.75-.37-1.51-.69-2.29-.97a24 24 0 0 0-2.37-.72l-.22-.75-.57-2c-.3-.18-.59-.34-.88-.48v-.72l-.19-2.87 1.12-6.51c2.27-11.33-12.78-12.43-12.78-12.43-.24-.42-.52-.81-.83-1.18-.31-.36-.66-.7-1.03-1-.37-.31-.77-.57-1.2-.8-.42-.23-.86-.42-1.32-.57-3.06-1 .14 16.91 1.6 18 1.09.82 4.58 6.32 6.26 9l.28.44-.18.18c-.05.06-.11.12-.16.18-.06.07-.11.13-.17.19-.05.07-.1.13-.15.2l.72 3.87.11.6c-.24.32-.46.64-.67.97-.22.34-.42.68-.6 1.03-.19.34-.36.7-.52 1.06s-.31.73-.44 1.1 2.85 2.9 2.43 6.28 1.13 7.52 1.21 7.74c-.17-.18-2.18-2.19-4.08-1.6s-7.23 2.4-7.23 2.4-4 .86-3.59 1.73-2.55 4.88-2.55 4.88l-11.2-9.82c-.12-.3-.24-.6-.35-.91-.13-.36-.24-.73-.35-1.09-.11-.37-.21-.74-.3-1.11-.1-.37-.18-.74-.26-1.12-.07-.38-.14-.75-.2-1.13.29-.08.58-.17.87-.26s.57-.19.86-.29c.28-.1.56-.21.85-.33.28-.11.55-.23.83-.35.28-.11.55-.23.81-.36.27-.14.52-.3.77-.46.25-.17.48-.36.71-.55.22-.2.43-.41.63-.63 1-1.33 1.18-3.1 1.56-4.72.73-3.18 2.46-6.05 3.66-9.09.5-1.27.9-2.57 1.21-3.9.32-1.32.54-2.67.66-4.03.13-1.35.15-2.72.09-4.08-.07-1.36-.23-2.71-.49-4.05a10.308 10.308 0 0 0-.65-2.42c-.15-.39-.33-.77-.53-1.14s-.42-.73-.66-1.07c-1.86-2.36-5.09-3.23-7.49-5.07s-4-4.74-6.78-6.09c-2.5-1.22-5.48-1-8.22-.39-1.34.27-2.67.61-3.97 1a44.445 44.445 0 0 0-7.59 3.09c-1.21.63-2.39 1.32-3.54 2.06-1.53 1-3.22 2.14-5 1.88-1.56-.22-2.74-1.42-3.79-2.57V175.82l-.13-.13c-.26.64-.48 1.3-.67 1.97-.19.66-.34 1.34-.46 2.03-.11.68-.19 1.37-.23 2.06-.03.69-.04 1.39 0 2.08 0 .43 0 .86.1 1.29v.45c0 .03 0 .06.01.09v.2c-.01.03-.01.06-.01.09v.15c0 .04-.01.09-.01.14-.01.05-.01.1-.02.15-.01.04-.02.09-.03.14-.06.14-.12.28-.19.41s-.14.26-.23.39c-.08.12-.17.25-.27.36-.1.12-.2.23-.31.33-.08.1-.15.2-.23.3-.07.1-.15.2-.22.3-.07.11-.13.21-.2.32-.07.1-.13.21-.19.32 0-.15.08-.3.13-.45-.16.26-.31.52-.43.8-.13.28-.24.56-.32.85s-.15.59-.19.89-.06.61-.06.91c-.01.22.01.44.04.66.04.21.1.43.17.63.08.21.18.41.29.6.12.18.25.36.4.52.14.13.28.25.43.37s.3.24.45.35.3.22.46.33l.48.3c-.04.3-.08.6-.11.9s-.05.6-.07.9c-.01.3-.02.6-.02.9-.01.3 0 .6.01.9.08 1.79.39 3.56.92 5.27s1.28 3.35 2.22 4.87a20.951 20.951 0 0 0 7.72 7.29c.14.3.27.6.41.91 1.52 3.58 2.72 7.77 2.41 11.7 0 .29-.06.58-.1.86s-.26.31-.37.47c0 0-17.83.86-22.17-2.78s-10.24 9.69-10.24 9.69-6.34 1.49-7.67.3-8.78.16-8.78.16c-.78-.64-1.62-1.21-2.51-1.7s-1.82-.89-2.79-1.2c-.96-.31-1.95-.53-2.96-.65-1-.13-2.02-.16-3.03-.09a31.583 31.583 0 0 0-4.03-2.41c-.7-.36-1.41-.68-2.13-.99-.72-.3-1.46-.58-2.2-.83l-.21-.06c-.32-.1-.65-.19-.98-.26-.33-.06-.66-.11-1-.14s-.67-.04-1.01-.04c-.34.01-.68.04-1.01.08s-9.05-6.91-11.76-10.7-15.44-17.75-15.5-17.82l-.07-.69-.22-2.1c-.09.02-.18.03-.27.05-.09.01-.18.03-.27.04l-.28.03c-.09.01-.18.01-.27.02l-.27-.72c-.19-.51-.4-1.01-.61-1.5-.22-.5-.44-.99-.68-1.48-.23-.49-.48-.97-.73-1.45-.26-.47-.52-.94-.8-1.41s-.1-2.66.65-3.35-.72-10.38-.72-10.38-8.61-18.17-15.16-4.1c0 0-13 9.44-1.41 19.39 0 0 4.57 2 5.27 3.7.46 1.1 2.1 4.16 3.2 6.19.18.34.35.64.49.91l-.12.11.23 1.73.09.67c-2.06 1.28-3.45 2.53-3.07 3.42.17.38.33.76.48 1.14.14.39.28.78.4 1.17.12.4.23.8.33 1.2s.18.8.25 1.21 16.28 18.85 18.61 27.09c0 0 42.6 23.15 56.37 24.39l-1.8 12.44c-.06.84-.1 1.68-.14 2.52a106.808 106.808 0 0 0-.08 5.05c.01.85.03 1.69.06 2.53.28 2.65-1.08 14.74-1.08 14.74s-1.7 17.77-3.61 20.33-1.15 13.14-1.15 13.14c-.07 1.27-.17 2.55-.3 3.82-.12 1.27-.28 2.53-.46 3.8-.18 1.26-.38 2.52-.62 3.77-.23 1.26-.49 2.51-.78 3.75-1.75 6.79 0 15.05 0 15.05s-6.33 16.18 9.88 4.75c0 0 8.14-.82 17.52-1.5v.94c0 1.21.06 2.52.1 3.9.22 9.12.65 21.68 1.43 31.17 1.39 16.77 7.78 49.77 7.78 49.77l.64 16.7c-.07.4-.12.79-.17 1.19-.04.4-.08.8-.1 1.2s-.04.8-.04 1.2c-.01.4 0 .8.02 1.2.02 1.47.15 2.93.38 4.38.22 1.45.55 2.88.99 4.28.43 1.4.96 2.77 1.58 4.1.63 1.32 1.34 2.6 2.15 3.83l1.71 11.08s3.28 7.23 3.51 11.61v.27c-.01.09-.01.18-.02.27l-.03.26c-.01.09-.02.18-.04.27l-.06.43-.03.42c-.01.15-.01.29-.01.43s.01.29.02.43c0 5.06 3.54 17.05 3.54 17.05s.65 12.19 2.5 12.83c1.59.54-1.81 7.11-2.83 9a.292.292 0 0 1-.02-.09c-.01-.03-.02-.05-.02-.08a.292.292 0 0 1-.02-.09c-.01-.03-.01-.06-.02-.09-.13.25-.21.38-.21.38-.08.25-.16.5-.22.76s-.11.51-.15.77c-.03.27-.06.53-.07.79-.02.26-.02.53-.01.79-.04.42-.01.84.07 1.25s.22.8.41 1.17c.2.37.44.72.73 1.02s.62.56.98.77c3.55 2 5.48 3.68 2.57 4.5-.27.05-.54.11-.81.17s-.53.12-.8.19-.53.14-.8.22c-.26.07-.53.15-.79.23 0-.14-.12-.28-.17-.41-.2.09-.38.22-.54.37s-.29.33-.39.53c-.1.19-.17.41-.2.62-.03.22-.03.44.01.66.02.36.06.72.13 1.07a8.926 8.926 0 0 0 .63 2.07c.14.33.31.65.49.96 3.18 6.43 5.3 8.83 5.3 8.83l1.39-.21c-.05.14-.1.27-.15.4l-.18.39c-.06.13-.13.26-.2.38a5.75 5.75 0 0 1-1.11 1.44c-.17.16-.34.31-.53.45-.18.14-.38.27-.58.39-.18.13-.38.24-.57.35-.2.1-.4.2-.61.28-.2.08-.41.16-.63.22-.21.06-.43.11-.65.15-.49.03-.98.12-1.46.26-.48.13-.94.32-1.37.55-.44.24-.85.52-1.23.84s-.72.68-1.02 1.07c-1.73 2.42-2.75 5.68 1 8.36l13.24 4s22.58 2.06 21.19-2.94-2.28-9.38-2.28-9.38c-.01-.77-.06-1.53-.15-2.3-.1-.76-.24-1.51-.42-2.26s-.41-1.48-.68-2.2c-.26-.72-.57-1.43-.92-2.11-.06-.11-.13-.22-.19-.33l-.21-.33c-.07-.11-.14-.21-.21-.32-.08-.1-.15-.21-.23-.31l.79-.12s1.21-11.2 3.32-13.41c.49-.5.59-.88.46-1.17.2-.62-.38-1-1.13-1.12 0 .14-.09.29-.14.44-.18-.03-.36-.06-.54-.08-.19-.02-.37-.04-.55-.05-.18-.02-.37-.03-.55-.03h-.55c-.18 0-1-5.8 1.34-8 .09-.12.17-.26.23-.4.07-.14.11-.28.15-.43a2.398 2.398 0 0 0 .01-.92c0-.2-.01-.4-.03-.6-.01-.2-.04-.39-.07-.59-.02-.2-.06-.39-.1-.59-.04-.19-.09-.39-.14-.58-.01.01-.01.02-.02.03s-.01.03-.02.04-.01.02-.02.03c0 .02-.01.03-.01.04-1.41-5.25-5.78-13.51-5.78-13.51s-.38-5.3 1-7.47-1.3-28.82-1.3-28.82.06-12.93-1.82-18.87 1.51-13.16 1.51-13.16 0-.14-.06-.39v-.09s-.11-.79-.29-2v.13c-.49-3.4-1.43-9.56-2-12.41-.89-4-.72-23.52-.72-23.52l3-8.44 6.4 14.1 6.95 18.86s3.23 3.91 3.46 8v.6c-.01.11-.01.21-.01.32-.01.11-.01.21-.01.32s0 .21.01.32c0 .11 0 .21.01.32 0 .6.04 1.2.13 1.79s.23 1.17.41 1.74a11.35 11.35 0 0 0 1.61 3.19c.35.49 2 9 4.64 11.16s2.82 6.62 2.82 6.62 3.61 13 5.16 15.21c1.3 1.89 1.57 7.21 1.62 8.84v.48s.62 4.66.75 8.59v1.4-.1c.01.27.01.53 0 .8 0 .27-.02.54-.04.8-.02.27-.05.53-.09.8-.03.26-.08.53-.13.79v.19-.66c-.13.67-.25 1.35-.34 2.03-.1.68-.17 1.36-.22 2.04a35.13 35.13 0 0 0-.06 4.11c.1 4.71 1 10.25 4 13.41 5.15 5.47 8.23 4.64 8.23 4.64s-2.1 7.16-5 8.69c-.03.02-.05.03-.08.05-.03.01-.05.03-.08.05s-.05.03-.08.05c-.02.02-.05.04-.07.06 0-.13-.06-.27-.08-.4-.15.18-.28.38-.4.59-.11.21-.2.43-.26.66-.07.23-.11.46-.12.7-.02.24-.01.47.02.71-.09 3.12 2.07 8.1 4 10.35.18.16.37.31.56.45.2.14.4.26.62.38.21.11.43.21.65.3.23.08.46.15.69.21-.04.03-.07.06-.11.08-.03.03-.07.06-.11.08-.03.03-.07.05-.11.08-.03.02-.07.05-.11.07-.08.05-.16.09-.24.14-.09.04-.17.09-.25.13-.09.04-.17.08-.25.12-.09.04-.17.08-.26.12-.12.06-.24.11-.36.15-.12.05-.24.09-.36.13-.13.04-.25.07-.38.09-.12.03-.25.05-.38.07a7.046 7.046 0 0 0-2.83.82c-.44.23-.85.51-1.23.83-.37.32-.72.68-1.02 1.07-1.72 2.42-2.75 5.67 1 8.36l13.24 4s22.54 1.95 21.11-3.05z" fill="url(#b)"/><path class="shp19" d="M839.47 605.87l-12.82-4c-3.59-2.69-2.6-5.95-.93-8.37.29-.39.62-.74.98-1.06s.76-.6 1.18-.83.87-.42 1.33-.56.94-.22 1.42-.26c.21-.04.42-.09.63-.15s.41-.14.61-.22.4-.18.59-.28c.19-.11.37-.22.55-.35.2-.12.39-.25.57-.38.18-.14.35-.3.51-.46a5.58 5.58 0 0 0 .85-1.07c.22-.37.41-.76.57-1.16s.3-.81.4-1.22c.11-.42.19-.84.23-1.27.05-.43.07-.86.06-1.29s13.72-4.6 17.68-.68c.18.18.34.36.51.55.16.19.32.39.46.59.15.2.29.4.43.61.13.22.26.43.38.65.34.69.64 1.4.9 2.12a21.307 21.307 0 0 1 1.06 4.47c.09.76.14 1.52.15 2.29s.88 4.38 2.22 9.38-20.52 2.95-20.52 2.95zM901.11 597.26l-12.81-4c-3.6-2.68-2.61-5.94-.94-8.35.29-.39.61-.75.98-1.06.36-.32.75-.6 1.18-.84.42-.23.87-.42 1.33-.55.46-.14.94-.23 1.42-.26.12-.02.25-.04.37-.07s.24-.06.36-.1.24-.08.36-.13c.11-.04.23-.09.34-.15.09-.04.17-.07.26-.11.08-.04.17-.09.25-.13s.16-.08.25-.13c.08-.05.16-.09.24-.14 3.47-2.08 3.19-6.85 3.19-6.85s13.73-4.6 17.68-.68c.13.13.26.27.39.41l.36.42c.12.15.23.3.34.45.11.16.21.31.31.47 2.54 4 2.49 9.52 2.49 9.52s.88 4.4 2.22 9.39-20.57 2.89-20.57 2.89z"/><path class="shp13" d="M853.88 582.3c.18.18.34.36.51.55.16.19.32.39.46.59.15.2.29.4.43.61.13.22.26.43.38.65l-20.72 3.21c.22-.37.41-.76.57-1.16s.3-.81.4-1.22c.11-.42.19-.84.23-1.27.05-.43.07-.86.06-1.29s13.72-4.59 17.68-.67zM916.92 575.44l.15 3.9c-3 5.46-18.72 4.89-23.37 2.39.09-.04.17-.07.26-.11.08-.04.17-.09.25-.13s.16-.08.25-.13c.08-.05.16-.09.24-.14 3.47-2.08 3.19-6.85 3.19-6.85s13.73-4.6 17.68-.68c.13.13.25.27.37.41s.24.28.35.43c.12.14.23.29.33.44.1.16.2.31.3.47z"/><path class="shp11" d="M918.75 558.56c-.23.43-.45.87-.65 1.31-.21.44-.41.89-.6 1.34s-.37.91-.54 1.36c-.17.46-.33.92-.48 1.39l.53 14c-3.31 6-21.77 4.74-24.37 1.65s-5.57-11.29-2.79-12.82 4.8-8.68 4.8-8.68-3 .82-8-4.65-4.06-18.08-3.29-21.12-.51-13.09-.51-13.09-.09-7.08-1.59-9.32-5-15.21-5-15.21-.17-4.42-2.73-6.63-4.5-11.16-4.5-11.16c-.38-.54-.71-1.12-1-1.72-.28-.6-.51-1.23-.68-1.87-.18-.64-.3-1.29-.36-1.95s-.07-1.33-.02-1.99c.36-4.44-3.36-9.08-3.36-9.08l-6.75-18.86-6.21-14.11-2.85 8.45s-.14 19.48.73 23.52 2.34 14.78 2.34 14.78-3.27 7.21-1.44 13.16 1.79 18.88 1.79 18.88 2.61 26.63 1.28 28.81-1 7.47-1 7.47 7.85 15.28 5.63 17.49-1.29 8-1.29 8 5-.19 2.92 2-3.21 13.41-3.21 13.41l-21.28 3.3s-2.06-2.4-5.14-8.84.31-5.85 3.13-6.67 1-2.51-2.49-4.51-1.68-6.84-1.68-6.84 4.79-8.86 3-9.5-2.44-12.83-2.44-12.83-4.09-14.36-3.36-18.29-3.34-13.15-3.34-13.15l-1.66-11.09c-1-1.53-1.86-3.14-2.57-4.82s-1.26-3.42-1.66-5.2-.65-3.59-.72-5.41c-.08-1.83 0-3.65.25-5.46l-.62-17.21s-6.23-33-7.58-49.82c-.87-10.74-1.31-25.42-1.51-34.59-.11-5.14-.15-8.55-.15-8.55l76.07-10.89c.07.95.15 1.9.26 2.85s.24 1.89.4 2.84c.15.94.32 1.88.51 2.81.2.94.41 1.87.65 2.79.94 4.16 2.37 9.55 4.55 16.26 6.23 19.24 3.43 33.87 3.43 33.87l.24 24.6s7.35 16.18 6.15 21.9c-.18.85-.33 1.7-.46 2.55-.13.86-.24 1.72-.32 2.58-.09.86-.15 1.72-.18 2.59-.04.86-.05 1.73-.04 2.59s16.41 35.31 15.22 45.8 6 26.69 6 26.69 2.19 11.64.54 14.89z"/><path class="shp12" d="M871.53 468.12l23.13-4s-12.65 13.96-23.13 4z"/><path class="shp13" d="M890.4 441.54s1.11 8.19-3.81 11.48c.03 0 9-1.76 3.81-11.48zM888 415.43s-18.82 16.75-26 15.7 26-15.7 26-15.7zM843 476.8s-14.63 3.92-14.84 9.86S843 476.8 843 476.8z"/><path class="shp12" d="M849.09 550.35s-20.69 4.69-14.69 7.11 15.83 4.18 15.83 4.18 6.73.09-1.14-11.29z"/><g opacity=".051"><path class="shp17" d="M830.4 561.8c-.26-.16-.51-.34-.74-.55-.22-.21-.42-.45-.59-.7-.18-.25-.32-.53-.43-.81a4.69 4.69 0 0 1-.24-.89c-.12.24-.2.38-.2.38s-1.76 4.84 1.68 6.84c.4.23.77.45 1.12.67.62-.14 1.28-.25 1.92-.44 2.74-.77.87-2.5-2.52-4.5zM857.17 559.39c.55-.55.48-1.91.06-3.64-.2.4-.37.81-.51 1.23s-.26.85-.34 1.28c-.09.44-.14.88-.17 1.32-.02.44-.02.89.02 1.33.05-.14.11-.28.17-.42.07-.13.14-.26.22-.39s.16-.25.25-.37c.1-.12.2-.23.3-.34zM850.57 471.55c-.17.53-.33 1.07-.46 1.61a22.49 22.49 0 0 0-.58 3.28c-.06.56-.1 1.11-.12 1.67.09-.39.18-.77.28-1.16.11-.38.22-.76.34-1.14s.25-.75.39-1.12c.14-.38.28-.74.44-1.11s-.11-.78-.29-2.03zM897.98 460.43c.03-.16.06-.32.08-.48s.03-.32.04-.49c.01-.16.02-.32.02-.48 0-.17-.01-.33-.02-.49-.21 1.33-.35 2.56-.44 3.64.1-.55.2-1.12.32-1.7zM852.49 534.42c.09-.32.16-.64.22-.97.06-.32.11-.65.14-.98s.05-.67.05-1-.01-.66-.04-.99c-.15.4-.28.8-.38 1.21a13.337 13.337 0 0 0-.42 2.52c-.02.42-.03.85-.02 1.27l.09-.27c.03-.1.07-.18.1-.27l.12-.27c.05-.08.09-.17.14-.25zM858.15 567.6c-.24.9-.46 1.81-.67 2.72-.2.91-.38 1.82-.55 2.74s-.32 1.84-.45 2.76c-.13.93-.24 1.85-.33 2.78l-21.28 3.3s-2.05-2.4-5.13-8.83c-.27-.57-.49-1.08-.67-1.54-1.26.64-1.71 2 .12 5.81 3.08 6.43 5.14 8.83 5.14 8.83l21.28-3.3s1.16-11.2 3.2-13.4c.99-1.13.3-1.67-.66-1.87zM828.68 536.93s.65 12.2 2.44 12.84c.82-2.05 1.34-4 .54-4.27-1.8-.64-2.44-12.84-2.44-12.84s-4.1-14.36-3.36-18.28-3.34-13.15-3.34-13.15l-1.67-11.09c-1-1.53-1.86-3.14-2.57-4.82s-1.26-3.42-1.66-5.2-.65-3.59-.72-5.41c-.08-1.83 0-3.65.25-5.46l-.66-17.15s-6.23-33-7.58-49.82c-.87-10.74-1.31-25.43-1.51-34.59 0-1.66-.06-3.13-.09-4.37l-.61.09s0 3.4.16 8.55c.2 9.16.64 23.85 1.5 34.59 1.36 16.77 7.59 49.82 7.59 49.82l.66 17.15c-.25 1.81-.33 3.63-.25 5.46.07 1.82.32 3.63.72 5.41s.95 3.52 1.66 5.2 1.57 3.29 2.57 4.82l1.66 11.09s4.08 9.22 3.34 13.15 3.37 18.28 3.37 18.28zM893.17 574.8c-.46-.61-.88-1.24-1.26-1.9-.39-.65-.74-1.33-1.05-2.03-.31-.69-.58-1.4-.81-2.12-.24-.73-.43-1.46-.58-2.21-2.11 2 .69 9.6 3.16 12.53 2.6 3.09 21.06 4.33 24.37-1.64l-.13-3.37c-4.59 4.94-21.24 3.68-23.7.74zM919.28 553.8c-.23.43-.45.87-.65 1.31-.21.44-.41.89-.6 1.34s-.37.91-.54 1.36c-.17.46-.33.92-.48 1.39l.09 2.48c.37-.92.9-2.15 1.64-3.61.13-.35.23-.71.32-1.07a10.562 10.562 0 0 0 .3-2.22c.02-.37.01-.75-.02-1.12l-.06.14zM893.6 557.59c.16-.35.31-.7.45-1.05s.28-.7.41-1.06c.13-.35.26-.71.38-1.07s.23-.73.34-1.09-3 .82-8-4.65c-3.63-4-4.13-11.75-3.83-16.85-.77 3-1.7 15.65 3.29 21.12 3.29 3.58 5.69 4.46 6.96 4.65zM882.87 518.74c.11.87.21 1.74.3 2.61.08.87.16 1.74.22 2.61.07.87.12 1.74.16 2.62.04.87.06 1.75.08 2.62.02-.14.03-.28.05-.42.03-.13.05-.27.07-.41.03-.14.06-.27.08-.41.03-.14.07-.27.1-.41.77-3-.51-13.08-.51-13.08s-.1-7.08-1.6-9.33-5-15.21-5-15.21-.17-4.42-2.74-6.62-4.5-11.16-4.5-11.16c-.38-.55-.71-1.12-1-1.72-.28-.61-.51-1.23-.68-1.87-.18-.64-.3-1.3-.36-1.96s-.07-1.33-.02-1.99c.36-4.44-3.36-9.07-3.36-9.07l-6.76-18.87-6.21-14.1-2.86 8.43v2.69l2.33-6.85 6.21 14.1 6.74 18.86s3.72 4.63 3.36 9.07c-.05.66-.05 1.33.02 1.99.06.66.18 1.32.35 1.96.18.64.41 1.27.69 1.87s.62 1.18 1 1.72 1.93 9 4.5 11.16 2.73 6.62 2.73 6.62 3.51 13 5 15.21 1.61 9.34 1.61 9.34z"/></g><path class="shp20" d="M885.2 192.87l-1.08 6.51.19 2.87.14 2.12-7.35 1-.89-1.5c-1.63-2.71-5-8.22-6.08-9-1.4-1.09-4.53-18.95-1.57-18 .45.15.88.35 1.29.58.42.23.81.5 1.17.81.36.3.7.64 1 1s.57.76.8 1.17 14.58 1.12 12.38 12.44z"/><path class="shp13" d="M884.45 204.37l-7.35 1-.89-1.5a6.34 6.34 0 0 1 1.68-1.46c.64-.39 1.34-.67 2.07-.82.74-.15 1.49-.17 2.23-.07.74.11 1.46.34 2.12.69l.14 2.16z"/><path class="shp21" d="M886.4 207.8l-9.64 2.63-.26-1.44-.7-3.88s3.65-5.28 9.37-1.64l.56 2 .67 2.33z"/><path class="shp20" d="M728.31 199.62l-10.17 6s-.43-.8-1-1.92c-1.07-2-2.66-5.1-3.11-6.2-.68-1.69-5.1-3.7-5.1-3.7-11.27-10 1.34-19.39 1.34-19.39 6.32-14.06 14.67 4.12 14.67 4.12s1.44 9.69.71 10.38-.62 3.34-.62 3.34c.27.47.52.94.77 1.42s.49.96.72 1.45c.22.49.44.98.65 1.48.21.49.4.99.59 1.5.36.92.55 1.52.55 1.52z"/><path class="shp13" d="M728.31 199.62l-10.17 6s-.43-.8-1-1.92c1.41-1.28 6.45-5.7 8.16-5.57.2.02.41.03.61.04.21.01.41.02.62.02s.41-.01.62-.02c.2-.01.41-.02.61-.04.36.89.55 1.49.55 1.49z"/><path class="shp21" d="M729.49 202.72l-11.45 6.2-.33-2.5-.23-1.73s6.54-6.05 8.55-5.91c.25.02.5.04.75.05s.5 0 .75-.01c.26-.01.51-.02.75-.05.25-.03.5-.07.75-.11l.22 2.09.24 1.97z"/><path class="shp20" d="M858.56 236.8s-50.66 7.7-41.27 4.25c6.54-2.42 9-6.73 9.38-11.41.29-3.93-.87-8.12-2.35-11.71a49.082 49.082 0 0 0-2.22-4.62c-.41-.75-.84-1.5-1.29-2.23-.44-.73-.91-1.44-1.39-2.15s38.07-22.89 31-3.14c-.27.75-.52 1.5-.73 2.26-.21.77-.4 1.54-.55 2.32-.16.78-.28 1.56-.38 2.35-.09.79-.16 1.58-.19 2.37s-.02 1.57.02 2.36c.04.78.12 1.57.24 2.35.11.78.26 1.55.44 2.31.19.77.41 1.52.66 2.27.42 1.21.91 2.38 1.49 3.52s1.24 2.24 1.96 3.29c.73 1.05 1.53 2.04 2.4 2.98.86.94 1.79 1.82 2.78 2.63z"/><path class="shp13" d="M850.46 205.8c-.27.75-.52 1.5-.73 2.26-.21.77-.4 1.54-.55 2.32-.16.78-.28 1.56-.38 2.35-.09.79-.16 1.58-.19 2.37-3.54 3.22-7.57 3.17-12.73 3.37-4 .15-8.32 1.28-11.56-.51a49.082 49.082 0 0 0-2.22-4.62c-.41-.75-.84-1.5-1.29-2.23-.44-.73-.91-1.44-1.39-2.15s38.07-22.9 31.04-3.16z"/><path class="shp20" d="M834.44 219.87c-11.65 0-21.06-9.41-21.06-21.06s9.41-21.06 21.06-21.06 21.06 9.41 21.06 21.06-9.41 21.06-21.06 21.06z"/><path class="shp13" d="M858.56 236.8s-50.66 7.7-41.27 4.25c6.54-2.42 9-6.73 9.38-11.41 2.43-2.85 7.44-5 10.67-6.2.73-.28 1.48-.5 2.25-.66.76-.16 1.54-.26 2.32-.31.78-.04 1.56-.02 2.34.06a15.197 15.197 0 0 1 3.19.67c.3.1.59.21.87.33.29.11.57.24.85.38.27.14.54.29.81.45a28 28 0 0 0 1.48 3.53 30.27 30.27 0 0 0 1.95 3.29c.73 1.05 1.53 2.04 2.39 2.99.86.94 1.79 1.82 2.77 2.63zM886.4 207.8l-9.64 2.63-.26-1.44a8.716 8.716 0 0 1 4.05-3.24c.82-.31 1.69-.5 2.57-.56.87-.05 1.76.03 2.61.24l.67 2.37zM729.49 202.72l-11.45 6.2-.33-2.5c.93-.54 1.87-1.06 2.81-1.57.95-.5 1.91-.99 2.87-1.46.97-.47 1.94-.92 2.93-1.35.98-.43 1.97-.85 2.97-1.24l.2 1.92zM883.62 364.28c-19.58 3.87-47.47 9-52 7.81-3.74-1-15.52-.41-25.77.34-.11-5.14-.15-8.55-.15-8.55l76.07-10.89c.07.95.16 1.9.27 2.85s.25 1.89.4 2.84c.15.94.33 1.88.53 2.81.19.94.41 1.87.65 2.79z"/><path class="shp4" d="M903.1 358.9s-64.46 13.63-71.51 11.78-42.71 1.82-42.71 1.82c-15.67 11.4-9.57-4.77-9.57-4.77s-1.73-8.25 0-15.05c.28-1.24.53-2.49.75-3.75.23-1.25.43-2.51.6-3.77s.32-2.53.44-3.8.21-2.54.28-3.81-.76-10.59 1.09-13.14 3.47-20.32 3.47-20.32 1.3-12.09 1-14.74.15-10.09.15-10.09l1.8-12.46c-13.33-1.26-54.59-24.46-54.59-24.46-2.27-8.23-18-27.1-18-27.1-.07-.41-.15-.81-.25-1.21-.09-.4-.2-.8-.32-1.2-.11-.39-.24-.78-.39-1.17-.14-.39-.29-.77-.46-1.15-1.17-2.79 14.53-9.06 14.53-9.06s12.4 14 15 17.84 11.39 10.72 11.39 10.72c.33-.05.66-.08.99-.08.33-.01.66 0 .99.03a8.094 8.094 0 0 1 1.93.4l.2.06c.72.25 1.43.53 2.13.84.7.3 1.39.63 2.07.99.68.35 1.34.73 1.99 1.13.65.41 1.28.83 1.9 1.28.98-.06 1.97-.03 2.95.1s1.94.35 2.88.66c.93.31 1.83.71 2.69 1.2.86.48 1.67 1.05 2.42 1.69s7.21-1.34 8.49-.15 7.43-.28 7.43-.28 5.68-13.33 9.89-9.68 21.47 2.8 21.47 2.8c2.18-3.14 7.69-5.55 11.15-6.81.73-.28 1.48-.5 2.25-.66a15.243 15.243 0 0 1 4.66-.26c.77.08 1.54.21 2.3.41.33.08.66.18.98.28.32.11.63.23.94.37.32.14.62.28.92.45.3.16.59.33.87.52l10.86 9.85s2.86-4 2.47-4.88 3.48-1.72 3.48-1.72 5.06-1.79 7-2.4 3.78 1.44 3.95 1.61c-.08-.22-1.57-4.45-1.18-7.74s-2.37-6.28-2.37-6.28c5.61-15.44 20.06-3.25 20.06-3.25s1.92 8.25.62 11.49 1.8 9.84 1.51 11.62.89 4.75 1 8.11-1.39 9.79-2.34 12.66-9.2 9.56-9.2 9.56-.14 10.1-3.63 16.08-.42 25.87-.42 25.87 4.14 15.42 8.75 20.2 12.25 32.82 12.25 32.82z"/><path class="shp13" d="M804.03 246.2s-2.17-5.76-4-6.22c-.45-.15-.89-.3-1.33-.46s-.88-.33-1.31-.5c-.43-.18-.87-.36-1.29-.55-.43-.19-.86-.39-1.28-.59l1-2.22s6.71 1.56 7.85 3.47.36 7.07.36 7.07zM768 234.66c-.29 1.78-16 4-16 4l7.65-8.29.2.06c.73.25 1.44.53 2.15.83a32.923 32.923 0 0 1 4.08 2.12c.66.41 1.3.83 1.92 1.28z"/><path class="shp22" d="M721.54 213.56c-.79 0-1.42-.63-1.42-1.42s.63-1.42 1.42-1.42 1.42.63 1.42 1.42-.63 1.42-1.42 1.42zM723.46 216.32c-.79 0-1.42-.63-1.42-1.42s.63-1.42 1.42-1.42 1.42.63 1.42 1.42-.63 1.42-1.42 1.42zM725.33 218.86c-.79 0-1.42-.63-1.42-1.42s.63-1.42 1.42-1.42 1.42.63 1.42 1.42-.63 1.42-1.42 1.42zM727.29 221.62c-.79 0-1.42-.63-1.42-1.42s.63-1.42 1.42-1.42 1.42.63 1.42 1.42-.63 1.42-1.42 1.42zM893.95 214.78c-.64 0-1.15-.51-1.15-1.15s.51-1.15 1.15-1.15 1.15.51 1.15 1.15-.51 1.15-1.15 1.15zM894.23 217.38c-.64 0-1.15-.51-1.15-1.15s.51-1.15 1.15-1.15 1.15.51 1.15 1.15-.51 1.15-1.15 1.15zM894.48 219.98c-.64 0-1.15-.51-1.15-1.15s.51-1.15 1.15-1.15 1.15.51 1.15 1.15-.51 1.15-1.15 1.15z"/><path class="shp13" d="M805.96 294.11c-.17-.2 41.62 48.6 71.45 18.32-.01 0-48.64 8.51-71.45-18.32zM784.07 321.16s23.88-.27 26.64 6.49l.27 7.14c-.33.2-.69.36-1.06.47s-.75.18-1.14.19c-.38.02-.77-.02-1.15-.1s-.74-.21-1.09-.39c-2.45-1.2-17.15-8-22.1-4.25l-.37-9.55z"/><path d="M784.52 321.14s22.83-.26 25.47 6.19l.26 6.81c-.32.19-.66.34-1.01.45-.36.11-.72.17-1.09.18s-.75-.02-1.11-.1-.71-.2-1.04-.37c-2.34-1.15-16.4-7.6-21.13-4.05l-.35-9.11z" fill="#656691"/><path class="shp13" d="M795.1 268.87a77.842 77.842 0 0 0 4.46 8.05c.83 1.3 1.69 2.57 2.59 3.81.9 1.25 1.84 2.46 2.81 3.65a63.282 63.282 0 0 0 6.95 7.32 62.665 62.665 0 0 0 8.05 6.1c1.42.91-24.34-25.67-24.86-28.93zM786.23 241.46s4.64 17 15.12 22.46l-15.12-22.46zM780.2 243.43c-.12-.32-3 13.72 14 20.76.03 0-7.18-2.14-14-20.76zM883.89 227.9c-.26 0 8.48 5.11 10.89 7.55 0 0-5.86-8.1-10.89-7.55z"/><path class="shp19" d="M829.48 218.1c.02.46.13.91.34 1.33.2.41.49.78.84 1.07a3.282 3.282 0 0 0 2.57.75c6.43.15 13.12.18 19-2.52.27-.11.53-.23.79-.37.25-.14.5-.29.74-.46.23-.17.46-.35.67-.55.22-.19.42-.4.61-.62 1-1.33 1.14-3.09 1.51-4.72.71-3.17 2.37-6 3.54-9.08.48-1.28.88-2.59 1.18-3.92s.52-2.69.64-4.05.14-2.73.08-4.09c-.07-1.37-.23-2.73-.48-4.07-.06-.41-.14-.82-.24-1.23-.1-.4-.23-.8-.38-1.19s-.32-.77-.52-1.14c-.19-.37-.4-.73-.64-1.07-1.8-2.37-4.94-3.23-7.26-5.08s-3.89-4.75-6.57-6.1c-2.42-1.22-5.31-1-8-.4-1.3.27-2.59.61-3.85 1-1.27.4-2.52.86-3.74 1.37-1.23.52-2.43 1.09-3.6 1.72s-2.31 1.31-3.41 2.05c-1.49 1-3.12 2.13-4.89 1.87-1.55-.23-2.71-1.48-3.75-2.65-.28.73-.52 1.48-.72 2.24-.19.75-.34 1.52-.45 2.3a20.44 20.44 0 0 0-.05 4.69c.02.11.03.23.04.34.01.12.02.23.02.35s-.01.23-.02.35c-.01.11-.02.23-.04.34-.05.14-.11.27-.17.41-.07.13-.14.26-.22.38-.08.13-.16.25-.25.37-.09.11-.19.22-.29.33-1.51 1.9-2.39 4.85-.75 6.64.71.79 1.77 1.19 2.47 2 1.24 1.43.92 3.57 1 5.46-.01.16-.01.33.01.49s.05.33.09.48c.05.16.11.31.18.46.08.15.16.29.26.42.18.15.37.28.58.38s.43.18.66.22c.23.05.46.06.7.05.23-.01.46-.06.68-.13.22-.08.44-.14.67-.19.23-.06.46-.1.69-.13s.46-.05.69-.06.47 0 .7.01c.25.07.49.16.72.28.24.11.46.24.67.39s.41.31.59.5c.18.18.35.38.5.59 3.13 3.61 4.44 7.71 5.86 12.19z"/><g opacity=".102"><path class="shp17" d="M855.65 215.05c-.19.22-.39.43-.61.63-.21.19-.44.37-.68.54s-.48.32-.74.46c-.25.14-.52.26-.79.37-5.84 2.7-12.52 2.68-18.95 2.52-.46.06-.92.03-1.37-.1-.44-.12-.85-.34-1.2-.64-.36-.29-.65-.66-.85-1.07-.21-.42-.32-.87-.34-1.33-1.41-4.49-2.73-8.59-5.84-12.24a4.723 4.723 0 0 0-1.09-1.09 4.4 4.4 0 0 0-.66-.39c-.23-.12-.47-.21-.72-.28-.23-.01-.47-.02-.7-.01s-.47.03-.7.06-.46.08-.69.13c-.22.05-.45.12-.67.19s-.45.12-.68.13c-.24.01-.47 0-.7-.05-.23-.04-.45-.12-.66-.22s-.4-.23-.58-.38c-.1-.13-.18-.27-.25-.42-.08-.15-.14-.3-.18-.46a2.675 2.675 0 0 1-.11-.97c0-1.89.28-4-1-5.46-.69-.8-1.76-1.2-2.47-2-.23-.29-.42-.61-.57-.96-.14-.34-.24-.7-.29-1.07s-.05-.74 0-1.11.14-.73.29-1.07c-1.05 1.83-1.45 4.14-.08 5.65.71.78 1.78 1.18 2.47 2 1.24 1.43.93 3.57 1 5.47a2.675 2.675 0 0 0 .11.97c.04.16.1.31.17.45.08.15.16.29.26.42.18.15.37.28.58.38.21.11.43.18.66.23.23.04.46.06.7.04.23-.01.46-.06.68-.13s.45-.14.67-.19c.23-.06.46-.1.69-.13s.47-.05.7-.06.47 0 .7.01c.25.07.49.17.72.28s.45.24.66.39.41.32.59.5.35.38.5.59c3.11 3.66 4.42 7.75 5.84 12.24a4.403 4.403 0 0 0 1.12 2.22c.19.21.4.39.63.56a4.05 4.05 0 0 0 .98.3c.17.03.34.05.51.06.17.02.34.02.51.01 6.43.15 13.12.17 19-2.53.27-.11.53-.23.79-.37s.5-.29.74-.46.47-.35.68-.55c.22-.19.42-.4.61-.62.09-.13.18-.27.26-.41.09-.14.16-.28.23-.42.07-.15.14-.3.2-.45.05-.15.11-.3.15-.46-.02.03-.04.05-.05.08-.02.02-.04.05-.06.07-.02.03-.04.05-.06.08-.02.02-.04.05-.06.07zM813.53 185.97c.07-.08.13-.16.19-.25.06-.08.12-.17.17-.26.05-.1.09-.19.13-.29.04-.09.08-.19.11-.29.02-.11.04-.23.05-.34.01-.12.01-.23.01-.35s0-.23-.01-.35a3.98 3.98 0 0 0-.05-.34c-.07-.64-.1-1.28-.11-1.93 0-.64.02-1.29.08-1.93s.15-1.28.27-1.91c.12-.64.28-1.26.46-1.88l-.13-.14c-.28.73-.52 1.48-.72 2.24-.19.75-.34 1.52-.44 2.3-.11.78-.16 1.56-.17 2.34-.01.79.03 1.57.11 2.35l.03.26c.01.08.01.17.02.25v.52z"/></g><path class="shp13" d="M826.22 231s26.42 2.48 28.63-1.57M876.9 218.16s14.6-.54 18 4.81"/><path class="shp3" d="M161.71 172.05v56c0 1.67-3.13 3-7 3H6.98c-3.86 0-7-1.35-7-3v-56c0-1.67 3.12-3.37 7-3.37h147.75c3.85 0 6.98 1.7 6.98 3.37z"/><path class="shp1" d="M161.71 172.05v56c0 1.67-3.13 3-7 3H6.98c-3.86 0-7-1.35-7-3v-56c0-1.67 3.12-3.37 7-3.37h147.75c3.85 0 6.98 1.7 6.98 3.37z" opacity=".2"/><path class="shp1" d="M70.97 188.68h76.96v2.72H70.97v-2.72z"/><path class="shp8" d="M32.03 182.72c3.93 0 7.76 1.27 10.91 3.63 3.16 2.35 5.46 5.66 6.58 9.44a18.235 18.235 0 0 1-7.55 20.48v-1.3c0-.5-.09-1-.27-1.47s-.44-.9-.78-1.27c-.33-.38-.73-.69-1.17-.92-.45-.23-.93-.38-1.43-.44-.62 1.14-1.54 2.09-2.66 2.75s-2.39 1.01-3.69 1.01-2.57-.35-3.69-1.01-2.04-1.61-2.66-2.75c-.5.06-.98.21-1.43.44-.44.23-.84.54-1.17.92-.34.37-.6.8-.78 1.27s-.27.97-.27 1.47v1.22a18.197 18.197 0 0 1-7.09-9.01 18.196 18.196 0 0 1-.32-11.46c1.13-3.76 3.44-7.05 6.59-9.39a18.22 18.22 0 0 1 10.88-3.61zm7.22 23.14a7.875 7.875 0 0 0-.04-6.67 7.912 7.912 0 0 0-5.12-4.28v-.27c0-.43-.12-.86-.35-1.23-.22-.38-.54-.68-.92-.89-.39-.2-.82-.3-1.25-.28-.44.02-.86.16-1.22.4a2.366 2.366 0 0 1 .79-.75 2.343 2.343 0 0 1 1.05-.33h-.17c-.26 0-.51.04-.76.12-.24.08-.47.2-.68.35-.2.15-.38.34-.53.54-.15.21-.26.44-.34.69-.07.1-.14.21-.19.32-.06.11-.11.23-.15.34-.03.12-.06.24-.08.37-.02.12-.03.25-.03.37 0 .04-.01.08-.01.12V195.01c0 .04.01.08.01.12h-.07c-.05-.09-.1-.18-.14-.28-.04-.09-.07-.19-.1-.29s-.05-.21-.06-.31-.02-.21-.02-.31c0-.3.06-.6.17-.88.11-.29.27-.55.47-.77.21-.22.46-.4.73-.53s.57-.21.87-.23h-.17c-.32 0-.63.06-.93.18a2.423 2.423 0 0 0-1.31 1.31c-.12.29-.18.6-.18.92 0 .11.01.23.02.34.02.12.04.23.08.34.03.11.07.22.12.32s.11.2.17.3c-.98.41-1.87 1.01-2.61 1.77-.75.76-1.33 1.66-1.72 2.65a8.08 8.08 0 0 0-.54 3.12c.03 1.06.28 2.1.72 3.07a7.228 7.228 0 0 0 7.21 6.69 7.228 7.228 0 0 0 7.21-6.69l.07.01z" fill-rule="evenodd"/><path class="shp8" d="M70.97 195.3h76.96v2.72H70.97v-2.72zM70.97 201.92h76.96v2.72H70.97v-2.72zM70.97 208.54h76.96v2.72H70.97v-2.72z"/><path d="M260.07 353.74c-2.18 3.28-4.29 10.58-4.18 11.85s-6 8.04-7.72 10.16c-.36.49-.7.99-1.04 1.5-.33.51-.65 1.02-.97 1.54-.31.52-.61 1.05-.9 1.58-.29.54-.57 1.07-.84 1.62l-5.68 10.58c-.88-.3-1.76-.61-2.63-.95-.86-.34-1.72-.7-2.57-1.08s-1.69-.78-2.52-1.2c-.83-.43-1.65-.87-2.46-1.33-1.14.15-1.61.27-2 .23s-.79-.08-1.18-.13-.78-.1-1.18-.16a47.646 47.646 0 0 1-2.33-.43c.03.26.1.53.1.79.97 7.89 1.69 14.42 1.69 14.42s-1.92 6.98-4.61 4.87l-.15-.12c-.06.34-.13.72-.21 1.15-.69 3.87-1.72 10.87-1.35 16.43.54 8.15-1.18 20.53-1.18 20.53s-3.73-.31-9.22-.65c-.15.4-.31.81-.48 1.24-.52 1.42-1.12 2.89-1.73 4.42-.03.09-.11.18-.11.27l-.24.59-.15.39-.22.52c-.08.21-.16.41-.25.61l-.16.39c-.12.27-.23.54-.34.81-.04.09-.11.17-.11.26l-.29.66-.11.26-.29.66-.09.19c-.38.86-.75 1.65-1.1 2.33v.08l-.3.57v.08c-.1.19-.2.37-.3.53l-.29.47c-2.47 3.71-4.18 10.37-4.18 10.37l-2.25 13.65s-.46 3.28-.67 6.28c-.08 1.08-.08 2.11-.08 2.93.01.23-.02.7-.07 1.37v.29c-.21 2.47-.73 7.2-1.38 12.73-.13 1.11-.26 2.26-.4 3.43a148.746 148.746 0 0 1 .16 10.35c-.03 1.72-.09 3.44-.18 5.17-.08 1.72-.2 3.44-.35 5.16 0 0 1.61 25.71 1.18 28.14-.23 1.41 1 4.56 2 7.25l.32-.29s5.74 6.05 5.63 12.93-.64 16.3-.64 16.3-.54 3.82.64 4.87 0 6.35 0 6.35-10.08 9.22-18.55-.78c0 0-1.69-5.72-1-9.4.05-.3.12-.69.19-1.14.03-1 .07-2.01.13-3.01.05-1 .12-2 .21-3 .08-1 .18-2 .29-3s.23-2 .37-2.99l1-7.2c-1.07-.1-2.68-5.83-1.93-7.2s-.64-7.19-.64-7.19l-2.53-7.81-.33.78v.1l-.15.35v.11c-.16.39-.32.8-.47 1.22v.05l-.15.41v.09c-.15.44-.3.88-.44 1.33l-.12.42v.09c-.11.43-.22.84-.3 1.25v.08c-.02.12-.07.24-.07.35V562.05c-.06.19-.06.38-.06.56v1.03c0 .05-.09-.55 0 .14s.15 1.39.17 2.08c.01.7-.01 1.4-.08 2.09a17.963 17.963 0 0 1-.86 4.08v.12c-.04.12-.05.27-.13.34s-.02.04-.08.2-.13.29-.19.43v.06c-.03.07-.07.13-.1.2-.04.07-.07.13-.11.19-.04.07-.08.13-.13.19-.04.06-.08.12-.13.18l.32 27.7s-3.97 6.11-13.08 4.84-7.83-11.23-6.54-12.8 1.93-8.57 1.93-8.57 1.61-11.43 2.68-15.56c.59-2.25 1.65-3.18 2.5-3.55.37-1.31.95-2.51 1-2.69.24-.44.46-.89.68-1.34.22-.46.42-.91.61-1.38.2-.46.38-.92.56-1.4.17-.47.33-.94.48-1.42.05-.16.1-.32.13-.49s.05-.33.07-.5a4.339 4.339 0 0 0-.06-1.01c-.01-.11-.02-.22-.02-.32 0-.11-.01-.22-.01-.33s.01-.22.01-.33c0-.1.01-.21.02-.32V553.31c.28-6.95 1.91-26.08 2.78-36-1.42-7.3-2.33-13.05-2.12-13.78.53-1.91-.86-15.77-.86-15.77s-1.71-14.07-4.08-18.52c-1.56-2.94-4.62-13.98-6.51-21.12-.12-.45-.24-.88-.34-1.29-.5-.02-1-.06-1.5-.12-.49-.07-.98-.16-1.47-.28s-.97-.26-1.44-.42c-.47-.17-.94-.36-1.39-.57 0 0 1.43-12.28-2-18.63-2.35-4.32-4-23.64-4.05-36.32v-1.83c-2.85 2.35-4.84 5.68-5.51 5.35-1.71-.96-3.41-1.95-5.08-2.97-1.68-1.02-3.34-2.08-4.97-3.16-1.64-1.09-3.26-2.2-4.85-3.35-1.6-1.14-3.17-2.32-4.72-3.52-7.82-6.34 14.02-41.99 16.52-44.75s7.69-34.75 7.5-34.5-.4.48-.62.69c-.23.22-.47.42-.72.6a6.996 6.996 0 0 1-1.66.83c-1.61.31-4.62 2.52-7.94 5.31s-18.54 0-18.54 0c-11.08.53-13.08-8.89-13.08-8.89s-5.48-12.7-5.69-17.25-8.9-22.13-8.46-22.85.93-1.4 1.46-2.05c.54-.65 1.12-1.25 1.74-1.82.62-.56 1.28-1.09 1.97-1.56.7-.47 1.43-.89 2.18-1.26-.61-1.95-1.47-3.63-2.67-4.14-3.43-1.49-41.6-15.67-28.09-20.43S95.3 239.8 95.3 239.8s1.1.4 2.8 3.89c.93 1.84 2.1 4.96 3 7.51.1.27.19.53.28.79l.61.06s4.93 10.7 4.93 13.23 6 14.7 6 14.7 3 3.08 1.93 5.51 2.47 1.9 2.47 1.9l4.72-3.7s4.07-2.64 6-3.07 5.25-3.92 5.25-3.92 3.86-2.58 3.54-3 2.11-2.44 3.54-3.07 2.04-2.01 3.43-4.55 3.54-.65 4.61-1.06 14.47 1.27 15.76 1.59 6.11.42 8.58-1.27c.4-.24.83-.44 1.28-.59.44-.16.9-.26 1.37-.31s.94-.05 1.41 0c.46.05.92.15 1.37.3.12-.27.24-.53.35-.8s.22-.54.33-.82c.1-.27.2-.54.3-.82.1-.27.19-.55.28-.83.07-.19.12-.37.18-.56-2.06-.88-3.98-2.05-5.7-3.49-1.72-1.43-3.22-3.1-4.46-4.97s-2.2-3.9-2.85-6.04c-.65-2.15-.98-4.37-.99-6.61-.01-1.38.11-2.75.35-4.11.23-1.35.6-2.68 1.08-3.97s1.07-2.54 1.78-3.72c.7-1.18 1.51-2.29 2.42-3.33.31-.37.65-.73 1-1.08-1.29-.62-3.21-1.97-3.21-3.51 0-.15.01-.29.03-.44.03-.14.07-.28.12-.42.06-.13.13-.27.21-.39s.17-.24.27-.34c.48-.54 1.21-.82 1.7-1.35.13-.15.24-.3.33-.47a3.142 3.142 0 0 0 .36-1.09c.02-.19.02-.38.01-.57-.02-.94-.26-2-.26-3v-.32c0-.1.01-.21.02-.31.01-.11.02-.21.04-.32l.06-.31c.43-1.74 2.11-2.76 3.95-3.09l-.05.09c.18-.03.35-.06.53-.08.18-.03.35-.04.53-.05s.36-.01.54 0c.17 0 .35.01.53.03 2.47.26 4.79 1.38 7.26 1.65 3.84.43 7.55-1.22 11.29-2.18s8.29-.99 10.85 1.82 2.4 7.7 5.62 9.7c1.52.95 3.39 1.04 5 1.76.43.22.85.47 1.25.75.39.29.77.59 1.13.93.35.33.68.69.98 1.07.31.38.58.78.83 1.2.63.97 1.17 2 1.63 3.06.45 1.07.82 2.17 1.09 3.3.26 1.13.44 2.27.51 3.43.08 1.16.06 2.32-.06 3.47-.3 2.51-1.01 4.95-1.3 7.45a21.264 21.264 0 0 0-.1 3.92 21.107 21.107 0 0 0 .62 3.88c.67 2.64 2.14 5.4 4.76 6.23.15.03.31.07.46.11s.3.08.45.13c.15.06.29.11.44.17s.29.12.43.19c1.52.93 1.32 3.13.93 4.85l-1.59 7.06c1.5 1.13 3.83.64 5.29 1.83.14.13.27.27.4.41.12.15.24.3.34.46s.2.33.28.5.15.35.21.53c.32.91.51 1.87.56 2.84.06.96-.02 1.94-.24 2.88a9.92 9.92 0 0 1-1.03 2.7c-.46.85-1.05 1.63-1.73 2.32.04.13.13.25.13.39.09.3.17.61.24.93 1.29 6.14.86 6.88 1.72 7.94a68.432 68.432 0 0 0 2.49 4.04c.44.66.89 1.31 1.34 1.96.46.64.93 1.28 1.41 1.91.29.36.56.74.79 1.14.23.39.43.81.59 1.24s.29.88.38 1.33c.1.45.15.91.17 1.37 0 0 6.43 9.43 8.47 10.48s5.15 8.25 5.15 8.25 5 3.3 5 7c.02.77.06 1.54.12 2.32.05.77.12 1.54.2 2.3.09.77.19 1.54.3 2.3.11.77.24 1.53.38 2.29.12.54-1.15 7.2-3.33 10.48zm-20.46-2.44c2.25-.95 3.45-1.95 2.45-3.44s0-4.34 0-4.34-6.32-8.24-7.18-13-6.65-7.93-6.65-7.93c-.02 0-2.99-1.16-3.21 0s-.75 3.7-.75 3.7.53 6.13-1.72 8.57-2.61 12.7-2.61 12.7-3.6 10.15-1.89 13.33c.6 1.12 1.53 6.64 2.47 13.32.84-.14 1.64-.23 2.35-.3.69-.64 5.03-4.62 7.29-5.4 2.47-.85 4.84-7.83 4.94-9.42s2.25-6.88 4.5-7.83l.01.04z" fill-rule="evenodd" fill="url(#a)"/><path class="shp25" d="M84.55 260.87c.88-1.45 1.96-2.76 3.22-3.89s2.68-2.07 4.21-2.79c1.54-.72 3.16-1.21 4.84-1.45 1.67-.25 3.38-.25 5.05 0v12.36H94.4l-5.92-1.53-3.93-2.7z"/><path class="shp13" d="M84.55 260.87c.88-1.45 1.96-2.76 3.22-3.89s2.68-2.07 4.21-2.79c1.54-.72 3.16-1.21 4.84-1.45 1.67-.25 3.38-.25 5.05 0v12.36H94.4l-5.92-1.53-3.93-2.7z"/><path class="shp26" d="M102.4 256.01l-9.19 6.45s-.08-1.3-.31-3.06c-.46-3.33-1.49-8.33-3.71-9.3-3.38-1.48-41-15.63-27.66-20.38s33.79 10.83 33.79 10.83 1.06.36 2.74 3.85c.89 1.83 2 4.95 2.94 7.49.81 2.3 1.4 4.12 1.4 4.12z"/><path class="shp25" d="M175.88 265.94l1.04-.5 2.94 3.35-2.4 5.12-4.09-1.64.95-4.09 1.56-2.24z"/><path class="shp2" d="M161.96 565.87s-2.64-.31-3.7 3.8-2.64 15.53-2.64 15.53-.63 7-1.9 8.55-2.53 11.51 6.44 12.78 12.89-4.83 12.89-4.83l-.32-27.7-10.77-8.13zM193.27 567.12s5.65 6 5.55 12.9-.64 16.27-.64 16.27-.52 3.8.64 4.86 0 6.33 0 6.33-9.93 9.22-18.27-.77c0 0-1.63-5.71-1-9.39s2.53-20.25 2.53-20.25l11.19-9.95z"/><path class="shp26" d="M207.27 440.8s-5.71 16-8.14 19.64-4.11 10.36-4.11 10.36l-2.22 13.63c-.11.76-.21 1.52-.29 2.29-.09.76-.16 1.53-.22 2.29-.06.77-.11 1.54-.15 2.31-.04.76-.07 1.53-.08 2.3.1 3.06-5.49 47.73-5.49 47.73l-8.87 11.3s-3.91 7.92-3.28 11.2-.42 8.55-1.69 10.13c0 0-.21 10.35-.53 12.68s1.17 8.87 0 10-16.68.63-17.11-1.27S157 584.3 157 584.3l1.37-8.87s2.74-4.86 2.11-6.44 1.16-5.28 1.27-5.6 3-5.49 2.43-7.49 3.27-44.57 3.27-44.57l10.88-76.36 28.94 5.83z"/><path class="shp13" d="M207.27 440.8s-.86 2.4-2.06 5.56c-1.88 5-4.59 11.82-6.08 14.08-2.43 3.7-4.12 10.35-4.12 10.35l-2.21 13.63c-.11.76-.21 1.52-.29 2.29-.09.76-.16 1.52-.22 2.29-.06.76-.11 1.53-.15 2.3-.04.76-.07 1.53-.08 2.3 0 1.21-.81 8.93-1.85 17.81-1.6 13.59-3.64 29.93-3.64 29.93l-8.88 11.3s-.45.91-1 2.23c-1.11 2.59-2.68 6.8-2.26 9 .63 3.28-.42 8.56-1.69 10.14 0 0-.21 10.36-.53 12.67s1.17 8.88 0 10-16.68.64-17.11-1.27 1.9-11.08 1.9-11.08l1.38-8.88s2.74-4.86 2.11-6.44 1.16-5.28 1.27-5.6 3-5.49 2.43-7.5c-.41-1.53 1.7-26.54 2.72-38.4.33-3.74.55-6.16.55-6.16l9.36-65.69.75-5.3.77-5.37 28.93 5.81z"/><path class="shp26" d="M197.76 599.67c.1 1.16-14.89 2.85-17 1.58s0-17 0-17l1-7.18c-1.06-.11-2.64-5.81-1.9-7.19s-.64-7.18-.64-7.18l-2.49-7.8-1.52-4.76c-2.46-5.45-6-21-8.26-32.6-1.4-7.29-2.29-13-2.09-13.77.53-1.9-.85-15.73-.85-15.73s-1.68-14-4-18.48c-1.54-2.94-4.55-14-6.42-21.09-.95-3.65-1.61-6.27-1.61-6.27s16-1.34 25.64-1.81c4.46-.21 7.58-.24 7.21.13s-.45 2.3-.43 5.09c0 7.25 1.05 20 2.12 23.42 1.48 4.75 3 19 2.32 20.38s-.42 10.56-.42 10.56c.27.93.51 1.87.73 2.82.21.95.39 1.9.55 2.86.15.96.28 1.92.37 2.89.1.96.16 1.93.2 2.9.08 1.72.14 3.44.17 5.16.02 1.72.02 3.44-.01 5.17-.03 1.72-.09 3.44-.18 5.16s-.2 3.43-.35 5.15 1.59 25.66 1.16 28.09 3.38 10 3.38 11.51.96 11.51.96 11.51 2.26 15.32 2.36 16.48zM206.1 291.18l-1.82 2-1.18 1.27-6.92 7.35-17.85 2-9.48-2.54-2.35-.62s0-4.77.43-10.49c.6-7.33 2.05-16.24 5.49-18.66.43-.34.84-.7 1.22-1.08.39-.39.75-.8 1.09-1.22.33-.43.64-.88.93-1.35.28-.46.53-.94.76-1.44.17-.34.34-.69.5-1.04s.31-.7.45-1.06c.15-.36.28-.72.41-1.08s.25-.72.37-1.09c.07-.19.12-.37.18-.55.2-.64.38-1.28.55-1.93.16-.65.32-1.3.46-1.95.14-.66.26-1.32.38-1.97.11-.66.21-1.33.29-1.99s2.28-1.26 5.44-2.73c8.27-3.86 22.55-9.18 17.58 2.73-.18.44-.36.88-.53 1.32s-.33.88-.48 1.33c-.16.45-.31.9-.45 1.35s-.27.9-.4 1.36c-.08.26-.15.53-.21.79-1.66 6.64-.56 10.66.68 12.88.05.1.11.19.17.28.05.1.11.19.17.28s.12.18.19.27c.06.09.12.17.19.26.08.12.17.23.26.34l.29.32c.1.1.21.2.32.29.1.1.21.18.33.27l2.06 13.05.17 1.08.31 1.97z"/><path class="shp13" d="M203.04 254.43c-.94 2.26.46-1.85 0 0-3.76 2.68-12.63 10.3-17.62 10.3-3.36 0-4.37-.61-7.26-1.91.22-.68.42-1.37.61-2.06.19-.7.36-1.39.51-2.09.16-.7.3-1.41.42-2.11.12-.71.23-1.42.32-2.13s29.88-16.48 23.02 0z"/><path class="shp26" d="M210.63 240.55c0 2.82-.52 5.62-1.53 8.25-1 2.63-2.49 5.06-4.38 7.15a22.963 22.963 0 0 1-14.7 7.49l-.6.06c-.2.01-.4.03-.6.04s-.41.02-.61.02c-.2.01-.4.01-.6.01a22.997 22.997 0 0 1-16.26-39.26 22.997 22.997 0 0 1 39.26 16.26l.02-.02z"/><path class="shp13" d="M213.92 342.61l-3.27 8.56s-2.68.12-6.84.25c-14 .45-45 1-46.39-2.58-.08-.23-.15-.46-.21-.69a8.974 8.974 0 0 1-.24-1.43c-.02-.24-.03-.48-.03-.72-.19-5.5 2.38-13.95 2.38-13.95s1.48-16.9 1.48-17.63-1.27-12.62-1.27-12.62l2.53-9.5 7.08-5s3.17 4.86 5.07 5.28 4.44 2.75 4.44 2.75 6.22 3.8 8.23 1.68 17.64-11.4 17.64-11.4l8.24 9.08 1.16 47.92z"/><path class="shp3" d="M213.92 343.88l-3.27 8.56s-2.68.12-6.84.24h-.41l-6.07.16c-11.16.25-26.55.32-34.58-.85-3-.44-5-1-5.33-1.9-.05-.13-.09-.25-.13-.38s-.07-.26-.11-.39c-.03-.14-.06-.27-.08-.4l-.06-.4c-.01-.11-.03-.21-.04-.32l-.03-.31c0-.11-.01-.22-.02-.32 0-.11-.01-.21-.01-.32-.19-5.5 2.38-14 2.38-14s1.48-16.9 1.48-17.64-1.27-12.57-1.27-12.57l2.53-9.5 4.87-3.41 2.21-1.55c.19.28.38.55.57.83.19.27.39.54.59.8.21.27.41.53.63.79.21.26.42.52.64.77.17.23.35.44.55.65.2.2.41.39.63.57.22.17.46.33.7.48.25.14.5.27.76.38 1.9.43 4.44 2.75 4.44 2.75s6.22 3.81 8.23 1.69c1.54-1.62 11-7.43 15.42-10.08l2.22-1.33 1.11 1.23 7.13 7.86 1.16 47.91z"/><path class="shp13" d="M102.4 256.01l-9.19 6.45s-.08-1.3-.31-3.06c4.54-1.91 7.3-6.15 8.1-7.51.81 2.3 1.4 4.12 1.4 4.12z"/><path class="shp4" d="M134.71 277.87l-2-.52s-3.28 3.48-5.18 3.9-5.91 3.07-5.91 3.07l-4.65 3.69s-3.49.53-2.43-1.9-1.9-5.49-1.9-5.49-5.91-12.15-5.91-14.68-4.86-13.2-4.86-13.2-6.13 11.93-17.32 8.13c0 0 8.13 18.27 8.34 22.81s5.6 17.22 5.6 17.22 2 9.4 12.88 8.87c0 0 15 2.79 18.27 0s6.23-5 7.82-5.3c.29-.1.57-.22.85-.36.27-.14.53-.3.78-.47.25-.18.49-.38.71-.59.22-.22.42-.45.61-.69V289.8l-5.7-11.93z"/><path class="shp13" d="M115.91 289.8s2.64 9.82 1 10.88l-1-10.88zM203.81 352.68c-14 .45-45 1-46.39-2.57-.08-.23-.15-.46-.21-.69a8.974 8.974 0 0 1-.24-1.43c-.02-.24-.03-.48-.03-.72l45.89 2.42.98 2.99zM207.27 440.8s-.86 2.4-2.05 5.56c-5.83-.36-13.55-.73-20.88-.78-2.6 0-5.14 0-7.53.08-1.03 0-2.07.03-3.1.09s-2.06.14-3.09.26a52.986 52.986 0 0 0-6.12 1.02c-.89.27-1.79.51-2.69.71-.91.19-1.83.35-2.75.47s-1.85.19-2.77.23c-.93.04-1.86.04-2.79 0-.95-3.65-1.61-6.27-1.61-6.27s16-1.34 25.64-1.81l.77-5.37 28.97 5.81z"/><path class="shp11" d="M219.62 402.18l-1.79 3.8s-.25 1.13-.57 2.93c-.68 3.86-1.7 10.85-1.34 16.4.54 8.13-1.16 20.48-1.16 20.48s-38.86-3.27-50.26 0-17 0-17 0 1.37-12.25-2-18.58c-2.32-4.34-3.94-23.6-4-36.25 0-5.85.29-10.28 1-11.17 2.32-2.86 12.25-31.37 12.25-31.37l2.26.12 6 .32 34.39 1.81 5.39.28.57 1.75 16.26 49.48z"/><path class="shp25" d="M236.73 389.5l.32 3.38s-17-5.54-16.16-12.35 0-6 0-6l13.68 1.16 2.16 13.81z"/><path class="shp13" d="M236.73 389.5l.32 3.38s-17-5.54-16.16-12.35 0-6 0-6l13.68 1.16 2.16 13.81zM127.27 292.53c.43.37.89.71 1.36 1.03s.96.61 1.46.87c.51.26 1.03.49 1.56.7.53.2 1.07.38 1.62.52-.16-.03-.32-.07-.48-.12s-.31-.11-.46-.18-.29-.15-.43-.24-.27-.18-.4-.29c-1.22-.87-2.38-1.81-3.55-2.73-.94-.74-2.13-2-3.3-2.27.19.25.39.49.6.73.21.23.42.47.64.69.22.23.44.45.67.66.23.22.47.43.71.63zM127.53 296.98c.14.15.27.31.39.48.13.16.24.33.35.51.11.17.22.35.31.54.09.18.18.37.26.56a7.848 7.848 0 0 1 .3 1.33c.03.23.05.46.07.69.01.22.02.45.01.68.03.32.05.65.05.97 0 .33-.03.65-.07.97-.03.32-.09.64-.17.96-.07.31-.17.63-.28.93l-2.77-6.57c-.47-1.12-1-2.24-1.52-3.32-.25-.46-1.82-2.36-1.64-2.76.52-1.15 4.2 3.4 4.71 4.03zM203.67 333.42a8.586 8.586 0 0 0 2.68-.76c.43-.19.84-.42 1.22-.68.39-.26.76-.55 1.1-.87-2.81.35-5.46 1.45-8.23 2-.64.15-1.28.25-1.93.29-.66.05-1.31.04-1.96-.02s-1.3-.17-1.93-.33c-.63-.17-1.25-.38-1.85-.64 3.15 1.58 7.48 1.63 10.9 1.01zM195.74 314.09c-.12.02-.25.03-.38.02-.12-.01-.25-.02-.37-.05-.12-.04-.24-.08-.36-.13-.11-.06-.22-.12-.32-.2-2.11-1.2-4.19-2.46-6.24-3.78-.54-.3-1.08-.61-1.6-.94a41.028 41.028 0 0 1-3.05-2.11c-.5-.38-.98-.77-1.45-1.17 4.19 3.79 8.09 6.99 13.77 8.36zM201.6 336.49c.28.01.55.02.83.01.27 0 .55-.02.82-.04.28-.02.55-.05.83-.09.27-.04.54-.08.81-.14s.54-.14.79-.25c.26-.1.5-.23.73-.38.23-.16.45-.33.65-.52s.38-.4.54-.63c-.1-.02-.2-.04-.3-.04-.09 0-.19 0-.29.02-.1.01-.2.04-.29.07-.09.04-.18.08-.27.13-.83.35-1.69.64-2.56.87s-1.76.4-2.65.51c-.9.1-1.8.15-2.7.13s-1.8-.1-2.69-.24c1.71.73 3.92.58 5.75.59zM181.59 385.52c-.55.17-1.1.32-1.66.46s-1.12.27-1.68.38-1.13.2-1.7.29c-.57.08-1.14.15-1.71.2-.44.02-.89.03-1.34.04-.44.01-.89 0-1.33 0-.45-.01-.89-.03-1.34-.05-.44-.02-.89-.05-1.33-.09l-8.65-.55-4.33-.28c-.51 0-2.6 0-1.57-1 .52-.49 3.41-.18 4.15-.2 1.44 0 2.87-.07 4.3-.08 2.86 0 5.73 0 8.59.18 3.21.13 6.41.36 9.6.7zM171.58 389.8c-1.47-.06-3.36.82-4.87 1-.42.05-.84.09-1.27.13-.42.03-.85.06-1.27.08-.43.01-.85.02-1.28.02-.42 0-.85 0-1.27-.02-.84-.02-1.68-.08-2.51-.17-.84-.1-1.67-.23-2.49-.4-.83-.16-1.64-.37-2.45-.61-.8-.24-1.6-.51-2.38-.82 6.61.33 13.2.53 19.79.79zM153.08 394.33c.16.03.32.07.48.11.16.03.32.07.47.12.16.04.32.08.47.13.16.05.32.1.47.15 3.64 1.05 7.52.13 11.19-.78-.92 1.38-2.63 2-4.25 2.36-.68.17-1.36.3-2.05.4s-1.38.16-2.08.18c-.7.03-1.39.02-2.09-.03-.69-.05-1.38-.13-2.07-.25-.87-.17-3-.48-3.48-1.38-.66-1.33 2.13-1.14 2.94-1.01zM173.53 401.14c.27.06.54.11.82.18.27.06.54.13.81.2s.53.14.8.22c.27.07.53.16.8.24 4.1 1 8.36-.38 12.48-1.32 1.24-.28 2.48-.52 3.73-.72 1.26-.2 2.52-.36 3.78-.48s2.53-.19 3.8-.22c1.26-.04 2.53-.03 3.8.02-.91 0-2.35.8-3.24 1.07-1.17.35-2.35.67-3.53 1-.58.14-1.17.28-1.75.41-.59.13-1.17.25-1.76.37-.59.11-1.18.22-1.77.32s-1.19.19-1.78.28a73.557 73.557 0 0 1-7.22.68c-1.21.05-2.42.07-3.63.07-1.21-.01-2.42-.05-3.63-.12-2.21-.12-6 .11-7.94-1 .4-.24.83-.45 1.27-.63.44-.17.89-.31 1.35-.41s.93-.17 1.4-.19c.47-.03.94-.02 1.41.03zM175.06 270.89s.21 9.73-1.38 14.16c-.49 1.38-1.27 3.93-2.11 6.79-.93 3.17-1.94 6.72-2.72 9.47s-1.29 4.65-1.29 4.65-3.57 29.06-4.5 42.9v.72c-.05.78-.14 1.59-.26 2.43-2.06 13.75-13.92 34.95-17.9 36.65-.31.14-.61.3-.91.47-.29.16-.58.34-.86.54-.28.19-.56.39-.82.61s-.52.44-.76.68c0-5.85.29-10.28 1-11.17 2.32-2.86 12.25-31.37 12.25-31.37l2.26.12c-.01-.11-.03-.21-.04-.32l-.03-.31c0-.11-.01-.22-.02-.32 0-.11-.01-.21-.01-.32-.19-5.5 2.38-14 2.38-14s1.48-16.9 1.48-17.64-1.27-12.57-1.27-12.57l2.53-9.5 4.87-3.41c.6-7.33 2.05-16.24 5.49-18.66.43-.34.84-.7 1.22-1.08.39-.39.75-.8 1.09-1.22.33-.43.64-.88.93-1.35.28-.46.53-.94.76-1.44.69.09-.56-.51-.56-.51l-.82 5z"/><path class="shp4" d="M176.92 265.44a6.23 6.23 0 0 0-2.74-.29c-.46.05-.92.15-1.36.3-.43.16-.86.36-1.25.6-2.43 1.68-7.18 1.58-8.45 1.26s-14.47-2-15.52-1.58-3.17-1.48-4.54 1.05-2 3.91-3.38 4.55-3.81 2.64-3.49 3.06-3.48 3-3.48 3l7.7 25s-5 31.68-7.39 34.42-24 38.34-16.26 44.68c1.53 1.2 3.07 2.37 4.64 3.52 1.57 1.14 3.17 2.26 4.78 3.34 1.61 1.09 3.24 2.14 4.89 3.16 1.65 1.03 3.32 2.02 5.01 2.98.85.42 3.91-5.28 8.14-7.08s17.32-25.61 18.18-39.09 4.54-43.62 4.54-43.62 4.54-16.48 6.13-20.91 1.33-14.17 1.33-14.17l2.52-4.18zM226.28 323.18s-3-1.16-3.17 0-.74 3.69-.74 3.69.52 6.13-1.69 8.56-2.57 12.67-2.57 12.67-3.55 10.14-1.87 13.31c.61 1.15 1.56 6.92 2.51 13.82.6 4.31 1.2 9.06 1.74 13.39 1 7.89 1.67 14.4 1.67 14.4s-1.9 7-4.54 4.86-18.17-18.08-18.91-32.21c-.52-9.95-.31-18.58-.14-22.84.08-1.81.14-2.83.14-2.83s12-14.57 10.67-19.74-4.54-32.85-4.54-32.85l-.56-4.27-.59-4.6-.13-1-1.91-14.74c.34.07 12.19 2.75 13.75 4.31s11.19 3.8 11.19 3.8c.73.2 1.42.49 2.07.87.65.39 1.24.85 1.77 1.39s.98 1.15 1.34 1.81c.37.65.64 1.36.82 2.09.09.29.16.6.23.92 1.27 6.13.85 6.86 1.7 7.92s-8.24 27.27-8.24 27.27z"/><path class="shp13" d="M220.49 388.62c-4.34-.84-10.73-2.85-10.59-7.25.14-4.13 5.1-5.61 8.85-6.14.65 4.31 1.2 9.06 1.74 13.39z"/><path class="shp26" d="M233.88 386.44c-.17.37-.89.69-1.84 1-.58.14-1.15.26-1.73.38s-1.17.22-1.75.32c-.58.09-1.17.18-1.76.25-.58.08-1.17.14-1.76.19s-14.68-1.16-14.47-7.81c.15-4.78 6.78-6 10.51-6.33 1.46-.13 2.48-.11 2.48-.11s10.96 10.74 10.32 12.11z"/><path class="shp13" d="M233.88 386.44c-.17.37-.89.69-1.84 1-3.83-5.12-9.17-11.69-11.78-12.27 0 0 .3-.29.79-.73 1.46-.13 2.48-.11 2.48-.11s10.99 10.74 10.35 12.11z"/><path class="shp4" d="M230.18 295.3l4.33.63c.39.69.79 1.37 1.2 2.04s.83 1.34 1.26 2c.44.66.88 1.32 1.33 1.96.45.65.92 1.29 1.39 1.92.29.36.55.74.77 1.14.23.4.43.81.59 1.24s.29.87.38 1.32.14.91.16 1.37 6.34 9.4 8.34 10.46 5.07 8.24 5.07 8.24 5 3.27 5 7c.02.77.06 1.54.11 2.31a59.386 59.386 0 0 0 .47 4.59c.11.76.23 1.52.37 2.28.1.53-.74 7.08-2.86 10.35s-4.22 10.56-4.11 11.83-5.92 8-7.61 10.14c-.35.49-.69.99-1.02 1.5a39.846 39.846 0 0 0-1.85 3.12c-.28.53-.56 1.07-.82 1.61l-5.6 10.56s-11.83-17.42-16.16-18.37c0 0 4.86-4.65 7.29-5.49s4.75-7.82 4.86-9.4 2.21-6.87 4.43-7.82 3.38-1.9 2.43-3.38 0-4.33 0-4.33-6.23-8.24-7.08-13-6.54-7.92-6.54-7.92l-3.28-8 7.15-19.9z"/><path class="shp13" d="M245.89 334.72a13.764 13.764 0 0 1 3.99-2.35c.72-.27 1.47-.48 2.23-.63s1.53-.23 2.31-.25c-2 .35-4.12.78-5.58 2.18-.14.15-.29.31-.42.47-.14.16-.27.32-.4.49s-.25.34-.37.51c-.12.18-.24.35-.35.53-.51.72-4.58 5.9-5.23 5.09-.97-1.24 3-5.34 3.82-6.04zM236.33 329.72c.32-.03.64-.1.94-.21s.59-.26.85-.45c.26-.18.5-.4.7-.65.21-.25.38-.53.51-.82.13-.3.24-.6.35-.91.1-.3.19-.61.27-.93.08-.31.15-.63.2-.95s.09-.64.12-.96c.08-.54.16-1.08.26-1.62.09-.53.19-1.07.3-1.6.11-.54.23-1.07.35-1.6.13-.53.26-1.06.4-1.59.04-.11.07-.22.09-.33.03-.11.05-.22.07-.33s.03-.23.04-.34.01-.23.01-.34c-.01-.11-.03-.22-.05-.33-.03-.11-.05-.22-.09-.33-.03-.11-.07-.22-.11-.32-.04-.11-.09-.21-.14-.31-.06-.17-.12-.33-.19-.5-.07-.16-.14-.33-.21-.49-.08-.16-.16-.32-.25-.47-.08-.16-.18-.31-.27-.46-.79.89-1 2.88-1.33 4-.39 1.44-.76 2.88-1.11 4.32-.17.76-1.64 8.52-1.71 8.52zM232.59 287.09c-.11.14-.22.27-.33.4-.12.14-.24.27-.36.39-.12.13-.25.25-.37.37-.13.11-.26.23-.4.34-1.69 1.37-4 2.53-4.24 4.69.02.18.02.35.02.53s-.02.35-.04.53c-.02.17-.05.35-.09.52s-.08.34-.14.51c-.55.94-1.91.87-3 .68-.23-.02-.45-.06-.67-.11s-.44-.11-.66-.19a4.91 4.91 0 0 1-.62-.28c-.2-.1-.39-.22-.58-.35-1.13-1-1.24-2.7-2.1-3.91a5.395 5.395 0 0 0-1.92-1.46 5.495 5.495 0 0 0-2.36-.46c-1.62-.05-3.23.31-4.84.39-.26.01-.52.02-.78.02l-.78-.03c-.26-.02-.51-.05-.77-.08s-.51-.07-.77-.12c-.34-.06-.67-.13-1-.21-.18-.04-.36-.09-.54-.15-.18-.05-.35-.11-.53-.17s-.35-.12-.52-.19c-.18-.06-.35-.14-.52-.21-.09-.04-.17-.07-.25-.11-.09-.04-.17-.08-.26-.12l-.24-.12c-.09-.04-.17-.09-.25-.13-.27-.14-.54-.28-.8-.44s-.52-.32-.77-.49c-.25-.18-.5-.36-.73-.55-.24-.19-.47-.38-.7-.59-1.58-1.46-2.89-3.45-2.76-5.61l.18-.97c.07-.32.14-.64.22-.96.07-.32.15-.64.23-.96l.27-.95c.65-3.73-1.83-7.26-4.52-9.93-1.07-1.05-2.21-2.09-3.28-3.17-.42-.38-.81-.79-1.18-1.21-.38-.43-.73-.87-1.05-1.33-.33-.46-.63-.94-.9-1.44-.27-.49-.52-1-.74-1.52a16.608 16.608 0 0 1-.7-3.4c-.06-.58-.09-1.16-.09-1.74.01-.58.04-1.16.1-1.74a52.782 52.782 0 0 0 .24-3.54c.02-.59.02-1.18.02-1.78-.01-.59-.02-1.18-.05-1.77-.8-8.4-8-14.83-15.14-18.34l-.31-.16a22.989 22.989 0 0 1 16.99-7.7c6.49-.05 12.71 2.65 17.1 7.42 4.4 4.78 6.58 11.2 5.99 17.67s-3.89 12.38-9.08 16.29c-.08.26-.15.53-.21.79-1.66 6.64-.56 10.66.68 12.88.34.07 12.19 2.75 13.75 4.31s11.19 3.8 11.19 3.8c.72.2 1.42.5 2.06.88a8.423 8.423 0 0 1 3.09 3.19c.36.66.63 1.36.81 2.09z"/><path class="shp2" d="M168.63 219.35c.47-.54 1.19-.82 1.67-1.35 1.49-1.62 0-4.27.55-6.41.59-2.38 3.5-3.42 5.94-3.16s4.72 1.37 7.15 1.64c3.78.43 7.44-1.21 11.13-2.17s8.14-1 10.69 1.81 2.36 7.64 5.52 9.69c1.46.94 3.3 1 4.88 1.75a10.046 10.046 0 0 1 2.35 1.68c.35.33.67.69.97 1.07s.57.78.81 1.2a20.699 20.699 0 0 1 2.67 6.35c.27 1.13.44 2.27.51 3.42.07 1.16.05 2.31-.07 3.46-.26 2.5-1 4.94-1.28 7.44-.08.65-.12 1.3-.14 1.95-.01.66 0 1.31.04 1.96.05.66.12 1.3.22 1.95s.23 1.29.39 1.92c.67 2.63 2.11 5.39 4.7 6.22.15.03.3.07.45.11s.3.08.44.13c.15.06.29.11.44.17.14.06.28.12.42.19 1.49.92 1.3 3.12.92 4.83l-1.6 7.05c1.48 1.13 3.77.64 5.21 1.83.14.13.27.26.4.41.12.14.23.3.33.46.11.16.2.33.28.5s.14.35.2.53c.34.99.53 2.02.57 3.06a10.418 10.418 0 0 1-1.62 5.94c-.56.88-1.25 1.67-2.05 2.34-1.69 1.38-4 2.53-4.24 4.7.02.18.02.35.02.53 0 .17-.01.35-.03.52-.03.18-.06.35-.1.52-.03.17-.08.34-.14.51-.55.94-1.91.87-3 .68-.23-.02-.45-.06-.67-.11s-.44-.11-.65-.19-.42-.17-.62-.28c-.2-.1-.4-.22-.58-.35-1.14-1-1.24-2.7-2.1-3.91a5.395 5.395 0 0 0-1.92-1.46 5.495 5.495 0 0 0-2.36-.46c-1.63-.05-3.23.31-4.85.39-.93.04-1.86-.01-2.78-.15-.91-.14-1.82-.37-2.69-.69-.87-.31-1.71-.71-2.51-1.19s-1.54-1.04-2.23-1.66c-.42-.34-.8-.72-1.14-1.14s-.63-.87-.86-1.35c-.24-.49-.43-.99-.56-1.51a7.24 7.24 0 0 1-.21-1.6c.06-.32.12-.65.19-.97.06-.32.13-.65.21-.97.07-.32.15-.64.24-.96.08-.32.17-.63.26-.95.65-3.72-1.83-7.26-4.51-9.92s-5.84-5.13-7.15-8.68c-1.64-4.4 0-9.3-.49-14-.8-8.4-8-14.83-15.13-18.33-1.63-.79-4.35-2.88-2.49-4.99z"/><path class="shp13" d="M225.1 291.87c-1.13-1-1.23-2.69-2.09-3.91-.26-.31-.56-.59-.88-.83-.32-.25-.68-.45-1.05-.62a5.12 5.12 0 0 0-1.15-.36c-.4-.08-.8-.11-1.21-.1-1.62-.05-3.22.31-4.84.39-.93.04-1.85-.01-2.77-.14-.92-.14-1.82-.37-2.69-.68-.88-.31-1.72-.7-2.51-1.18-.8-.47-1.55-1.02-2.24-1.64-1.59-1.46-2.89-3.46-2.77-5.61.06-.32.12-.65.19-.97.06-.32.13-.64.21-.96.07-.32.15-.64.24-.96.08-.32.17-.63.26-.95.65-3.73-1.83-7.26-4.52-9.93s-5.83-5.13-7.15-8.68c-1.63-4.39 0-9.3-.48-14-.8-8.4-8-14.84-15.14-18.34-1.67-.82-4.39-2.9-2.53-5 .47-.54 1.18-.81 1.67-1.34 1.49-1.62 0-4.28.55-6.42l.09-.31.12-.3c.05-.1.1-.19.15-.29l.18-.27a4.629 4.629 0 0 0-2.4.96c-.34.27-.64.59-.9.95a4.7 4.7 0 0 0-.59 1.16c-.53 2.14.94 4.8-.55 6.42-.48.53-1.2.8-1.67 1.34-1.86 2.12.86 4.2 2.54 5 7.17 3.51 14.33 9.94 15.13 18.34.44 4.66-1.15 9.57.49 14 1.31 3.55 4.46 6 7.15 8.68s5.16 6.2 4.51 9.93c-.09.32-.18.63-.26.95-.09.32-.17.64-.24.96-.08.32-.15.64-.21.96-.07.32-.13.65-.19.97-.12 2.15 1.18 4.15 2.77 5.61.69.62 1.43 1.18 2.23 1.66s1.64.88 2.51 1.19c.87.32 1.78.55 2.69.69.92.14 1.85.19 2.78.15 1.62-.08 3.22-.44 4.85-.39a5.495 5.495 0 0 1 2.36.46c.37.17.72.37 1.04.62.33.24.62.52.88.83.86 1.22 1 2.95 2.1 3.91.18.13.38.25.58.35.2.11.41.2.62.28s.43.14.65.19.44.09.67.11c1.08.2 2.44.27 3-.68.05-.1.09-.19.12-.29.04-.11.06-.21.08-.31.02-.11.04-.21.04-.32.01-.11.01-.21 0-.32-.22-.02-.44-.06-.65-.11-.21-.06-.42-.12-.63-.2-.2-.09-.4-.18-.59-.29s-.37-.23-.55-.36z"/></svg>