<svg xmlns="http://www.w3.org/2000/svg" viewBox="0 0 1012 693" width="720" height="493"><style>tspan { white-space:pre }.shp0 { fill: #d0cde1 } .shp1 { fill: #3f3d56 } .shp2 { fill: #70add8 } .shp3 { fill: #2f2e41 } .shp4 { fill: #ffb8b8 } .shp5 { fill: #575a89 } </style><path class="shp0" d="M54.82 563.69C59.19 563.69 63.38 565.81 67.28 569.67C77.91 531.39 94.35 506.79 112.82 506.79C131.29 506.79 147.74 531.39 158.36 569.67C162.26 565.81 166.46 563.69 170.82 563.69C191.81 563.69 208.82 612.09 208.82 671.79L16.82 671.79C16.82 612.09 33.84 563.69 54.82 563.69Z" /><path class="shp0" d="M622.82 502.52C623.94 502.54 625.06 502.65 626.16 502.85C627.26 503.05 628.35 503.34 629.41 503.71C630.46 504.08 631.49 504.54 632.47 505.07C633.46 505.61 634.4 506.22 635.28 506.9C645.91 478.83 662.35 460.79 680.82 460.79C699.3 460.79 715.74 478.83 726.36 506.9C727.25 506.22 728.19 505.61 729.17 505.07C730.16 504.54 731.18 504.08 732.24 503.71C733.3 503.34 734.38 503.05 735.48 502.85C736.59 502.65 737.7 502.54 738.82 502.52C759.81 502.52 776.82 538.01 776.82 581.79L584.82 581.79C584.82 538.01 601.84 502.52 622.82 502.52Z" /><path class="shp1" d="M0.33 692.79L1010.31 692.79C1009.4 610.73 783.65 544.29 505.32 544.29C226.99 544.29 1.24 610.73 0.33 692.79Z" /><path class="shp0" d="M882.82 370.15C954.26 370.15 1012 312.41 1012 240.97C1012 169.54 954.26 111.79 882.82 111.79C811.39 111.79 753.65 169.54 753.65 240.97C753.65 312.41 811.39 370.15 882.82 370.15Z" /><path class="shp1" d="M878.66 610.79L885.95 610.79L885.95 256C885.95 253.51 885.87 251.02 885.72 248.53C885.57 246.04 885.34 243.56 885.03 241.08C884.73 238.61 884.35 236.14 883.89 233.69C883.44 231.24 882.91 228.8 882.3 226.39L882.3 226.39C881.7 228.8 881.17 231.24 880.71 233.69C880.26 236.14 879.88 238.61 879.57 241.08C879.27 243.56 879.04 246.04 878.88 248.53C878.73 251.02 878.66 253.51 878.66 256L878.66 610.79Z" /><path class="shp1" d="M881.89 350.83L885.73 344.63L831.78 311.2C830.85 310.62 829.88 310.11 828.88 309.67C827.87 309.23 826.84 308.87 825.79 308.58C824.73 308.29 823.66 308.07 822.57 307.93C821.49 307.8 820.39 307.74 819.3 307.75L819.3 307.75C819.77 308.74 820.31 309.69 820.92 310.6C821.52 311.51 822.2 312.38 822.93 313.19C823.65 314.01 824.44 314.77 825.28 315.47C826.12 316.18 827.01 316.82 827.94 317.39L881.89 350.83Z" /><path class="shp1" d="M884.43 317.13L880.59 310.93L917.72 287.93C918.45 287.47 919.22 287.09 920.02 286.78C920.82 286.47 921.64 286.24 922.49 286.08C923.33 285.93 924.18 285.85 925.04 285.85C925.9 285.86 926.75 285.94 927.59 286.1L927.59 286.1C927.36 286.92 927.06 287.73 926.68 288.49C926.3 289.26 925.85 289.99 925.33 290.68C924.82 291.36 924.24 292 923.61 292.58C922.98 293.15 922.29 293.67 921.56 294.12L884.43 317.13Z" /><path class="shp1" d="M884.43 458.81L880.59 452.61L917.72 429.6C918.45 429.15 919.22 428.77 920.02 428.46C920.82 428.15 921.64 427.92 922.49 427.76C923.33 427.61 924.18 427.53 925.04 427.53C925.9 427.53 926.75 427.62 927.59 427.78L927.59 427.78C927.36 428.6 927.06 429.4 926.68 430.17C926.3 430.94 925.85 431.67 925.33 432.36C924.82 433.04 924.24 433.68 923.61 434.26C922.98 434.83 922.29 435.35 921.56 435.8L884.43 458.81Z" /><path class="shp0" d="M197.82 366.79C266.39 366.79 321.82 311.37 321.82 242.79C321.82 174.22 266.39 118.79 197.82 118.79C129.25 118.79 73.82 174.22 73.82 242.79C73.82 311.37 129.25 366.79 197.82 366.79Z" /><path class="shp1" d="M201.82 597.79L194.82 597.79L194.82 257.22C194.82 254.83 194.9 252.44 195.04 250.05C195.19 247.66 195.41 245.28 195.7 242.9C195.99 240.53 196.36 238.16 196.8 235.81C197.23 233.45 197.74 231.11 198.32 228.79L198.32 228.79C198.9 231.11 199.41 233.45 199.85 235.81C200.29 238.16 200.65 240.53 200.94 242.9C201.24 245.28 201.46 247.66 201.6 250.05C201.75 252.44 201.82 254.83 201.82 257.22L201.82 597.79Z" /><path class="shp1" d="M198.72 348.25L195.03 342.3L246.82 310.2C247.71 309.65 248.65 309.16 249.61 308.74C250.57 308.32 251.56 307.97 252.57 307.69C253.59 307.41 254.62 307.2 255.66 307.07C256.7 306.94 257.75 306.88 258.8 306.9L258.8 306.9C258.35 307.85 257.83 308.76 257.25 309.64C256.66 310.51 256.02 311.34 255.32 312.12C254.62 312.9 253.86 313.64 253.06 314.31C252.25 314.98 251.4 315.6 250.51 316.15L198.72 348.25Z" /><path class="shp1" d="M196.28 315.9L199.96 309.95L164.32 287.87C163.62 287.43 162.88 287.07 162.12 286.77C161.35 286.47 160.56 286.25 159.75 286.1C158.94 285.95 158.12 285.87 157.3 285.88C156.47 285.88 155.65 285.96 154.85 286.11L154.85 286.11C155.07 286.9 155.36 287.67 155.73 288.41C156.09 289.15 156.52 289.85 157.02 290.51C157.51 291.17 158.06 291.78 158.67 292.33C159.28 292.89 159.93 293.38 160.63 293.82L196.28 315.9Z" /><path class="shp1" d="M196.28 451.9L199.96 445.95L164.32 423.87C163.62 423.43 162.88 423.07 162.12 422.77C161.35 422.47 160.56 422.25 159.75 422.1C158.94 421.95 158.12 421.87 157.3 421.88C156.47 421.88 155.65 421.96 154.85 422.11L154.85 422.11C155.07 422.9 155.36 423.67 155.73 424.41C156.09 425.15 156.52 425.85 157.02 426.51C157.51 427.17 158.06 427.78 158.67 428.33C159.28 428.89 159.93 429.38 160.63 429.82L196.28 451.9Z" /><path class="shp0" d="M863.72 680.34C864 680.35 864.28 680.36 864.55 680.39C864.83 680.42 865.1 680.46 865.38 680.52C865.65 680.58 865.92 680.65 866.18 680.74C866.45 680.82 866.71 680.92 866.96 681.03C869.73 676.63 874.01 673.79 878.82 673.79C883.63 673.79 887.92 676.63 890.68 681.03C890.94 680.92 891.2 680.82 891.46 680.74C891.73 680.65 892 680.58 892.27 680.52C892.54 680.46 892.82 680.42 893.09 680.39C893.37 680.36 893.65 680.35 893.93 680.34C899.39 680.34 903.82 685.92 903.82 692.79L853.82 692.79C853.82 685.92 858.25 680.34 863.72 680.34Z" /><path class="shp0" d="M553.72 671.83C554.01 671.83 554.3 671.86 554.59 671.92C554.88 671.97 555.16 672.05 555.44 672.14C555.71 672.24 555.98 672.36 556.23 672.5C556.49 672.65 556.73 672.81 556.96 672.99C559.73 665.56 564.01 660.79 568.82 660.79C573.63 660.79 577.92 665.56 580.68 672.99C580.91 672.81 581.16 672.65 581.41 672.5C581.67 672.36 581.93 672.24 582.21 672.14C582.49 672.05 582.77 671.97 583.06 671.92C583.34 671.86 583.63 671.83 583.93 671.83C589.39 671.83 593.82 681.21 593.82 692.79L543.82 692.79C543.82 681.21 548.25 671.83 553.72 671.83Z" /><path class="shp2" d="M122.72 671.83C123.01 671.83 123.3 671.86 123.59 671.92C123.88 671.97 124.16 672.05 124.44 672.14C124.71 672.24 124.98 672.36 125.23 672.5C125.49 672.65 125.73 672.81 125.96 672.99C128.73 665.56 133.01 660.79 137.82 660.79C142.63 660.79 146.92 665.56 149.68 672.99C149.91 672.81 150.16 672.65 150.41 672.5C150.67 672.36 150.93 672.24 151.21 672.14C151.49 672.05 151.77 671.97 152.06 671.92C152.34 671.86 152.63 671.83 152.93 671.83C158.39 671.83 162.82 681.21 162.82 692.79L112.82 692.79C112.82 681.21 117.25 671.83 122.72 671.83Z" /><path class="shp3" d="M390.64 482.07L392.23 489.61L394.21 497.16L400.57 586.9L378.72 588.49L368.8 490.41L370.38 485.25L390.64 482.07L390.64 482.07Z" /><path class="shp3" d="M409.3 574.59L418.44 588.49C418.44 588.49 443.85 609.14 425.58 610.33C407.32 611.53 400.57 598.02 400.57 598.02C400.57 598.02 394.21 596.04 393.42 594.05C392.62 592.07 395.01 574.59 395.01 574.59L409.3 574.59Z" /><path class="shp3" d="M398.98 585.32C398.98 585.32 408.11 608.35 406.92 612.32C405.73 616.29 403.74 616.29 404.14 619.86C404.54 623.44 405.73 631.78 390.64 632.18C375.55 632.57 382.7 612.32 382.7 612.32L384.68 585.32L398.98 585.32Z" /><path class="shp3" d="M426.77 414.96C426.77 414.96 432.33 424.49 431.54 430.45C430.75 436.4 419.23 500.34 419.23 500.34L410.1 578.17L389.84 576.58L397.79 504.7L395.8 447.52L392.23 489.61L368.8 490.41L354.9 430.45C354.9 430.45 365.22 413.77 367.21 412.58C369.19 411.38 426.77 414.96 426.77 414.96Z" /><path class="shp4" d="M399.18 294.44C408.62 294.44 416.25 286.8 416.25 277.36C416.25 267.92 408.62 260.29 399.18 260.29C389.73 260.29 382.1 267.92 382.1 277.36C382.1 286.8 389.73 294.44 399.18 294.44Z" /><path class="shp4" d="M404.14 288.28L401.76 310.92L375.55 306.94L389.84 280.34L404.14 288.28L404.14 288.28Z" /><path class="shp0" d="M377.53 300.19C377.53 300.19 391.03 310.12 404.14 304.56L423.99 355L423.99 418.14C423.99 418.14 394.21 426.87 377.53 416.55C377.53 416.55 365.62 414.16 363.63 414.56C361.65 414.96 370.78 306.95 370.78 306.95L377.53 300.19Z" /><path class="shp5" d="M389.84 302.58L380.71 315.68C380.27 316.49 379.9 317.34 379.61 318.22C379.32 319.09 379.1 319.99 378.97 320.9C378.83 321.81 378.78 322.74 378.8 323.66C378.83 324.58 378.94 325.5 379.12 326.4C380.31 332.76 381.5 415.75 370.39 418.93C359.27 422.11 352.12 421.71 352.12 421.71C352.12 421.71 362.05 374.06 358.47 365.72L347.35 315.68L376.74 299C376.74 299 378.58 291.46 381.63 295.63C382.19 296.33 382.79 297.01 383.42 297.65C384.05 298.3 384.71 298.91 385.4 299.5C386.09 300.08 386.81 300.63 387.55 301.14C388.29 301.66 389.06 302.14 389.84 302.58L389.84 302.58Z" /><path class="shp5" d="M416.45 376.44L402.89 300.19L416.45 307.34C416.45 307.34 431.94 313.7 435.11 321.24C438.29 328.79 451 364.92 451 364.92C451 364.92 447.82 386.76 435.91 377.63C423.99 368.5 426.77 364.13 426.77 364.13C426.77 364.13 437.1 406.22 435.51 407.41C433.92 408.6 433.13 419.72 433.13 419.72L420.82 417.34L416.45 376.44Z" /><path class="shp4" d="M431.94 333.95L426.77 326.4C426.77 326.4 415.1 302.97 406.64 310.92C398.18 318.86 422.41 337.13 422.41 337.13L431.94 333.95Z" /><path class="shp4" d="M362.05 416.15L365.22 420.23L357.28 430.44L353.71 423.3L362.05 416.15L362.05 416.15Z" /><path class="shp3" d="M406.02 263.22C407.77 263.23 409.31 264.32 410.74 265.32C412.18 266.31 413.81 267.31 415.55 267.11C415.96 267.04 416.35 266.92 416.73 266.75C417.11 266.59 417.46 266.38 417.79 266.13C418.12 265.88 418.41 265.59 418.67 265.27C418.93 264.95 419.15 264.6 419.33 264.23C419.5 263.86 419.66 263.48 419.8 263.09C419.94 262.71 420.07 262.32 420.18 261.92C420.29 261.52 420.38 261.12 420.46 260.72C420.54 260.32 420.6 259.91 420.65 259.5L418.67 260.2L420.27 258.37L403.21 253.19C398.05 251.62 392.22 250.11 387.49 252.71C386.89 253.08 386.3 253.5 385.75 253.95C385.2 254.41 384.69 254.9 384.2 255.43C383.72 255.95 383.28 256.51 382.87 257.1C382.47 257.68 382.1 258.3 381.78 258.93C380.44 261.38 379.42 263.99 378.75 266.7C378.08 269.4 377.76 272.19 377.8 274.97C377.84 277.76 378.24 280.53 378.99 283.22C379.74 285.91 380.83 288.49 382.23 290.89C384.85 290.67 386.56 287.93 386.98 285.34C387.4 282.75 386.99 280.06 387.51 277.49C388.04 274.92 390 272.28 392.63 272.36L394.01 275.31C393.12 273.43 398.38 268.82 399.63 267.96C399.9 267.81 400.17 267.64 400.44 267.47C400.7 267.3 400.96 267.12 401.22 266.94C401.47 266.75 401.73 266.56 401.97 266.36C402.21 266.16 402.45 265.95 402.69 265.74C403.77 264.6 404.04 263.2 406.02 263.22Z" /><path class="shp5" d="M430.35 329.58L420.82 335.54L430.35 375.25C430.35 375.25 445.44 393.91 451 375.25C455.65 359.63 438.05 338.16 432.19 331.58C431.04 330.3 430.35 329.58 430.35 329.58Z" /><path class="shp5" d="M356.49 314.89L347.35 314.89C347.35 314.89 339.41 330.37 338.62 338.71C337.82 347.05 337.82 380.01 337.82 380.01L353.31 426.08L365.22 417.34L355.3 389.94C355.3 389.94 356.49 383.98 355.3 381.2C354.1 378.42 358.87 364.13 359.66 363.33C360.46 362.54 356.49 314.89 356.49 314.89Z" /><path class="shp1" d="M464.8 130.28L572.26 130.28L572.26 120.71L464.8 120.71L464.8 130.28Z" /><path class="shp1" d="M464.8 165.55L572.26 165.55L572.26 155.98L464.8 155.98L464.8 165.55Z" /><path class="shp1" d="M464.8 197.15L572.26 197.15L572.26 187.58L464.8 187.58L464.8 197.15Z" /><path class="shp1" d="M746.71 217.74L694.01 164.03L634.43 164.03L634.43 162.03L694.84 162.03L695.14 162.33L748.14 216.33L746.71 217.74L746.71 217.74Z" /><path class="shp2" d="M606.06 140.19C612.57 140.19 617.82 134.93 617.82 128.43C617.82 121.93 612.57 116.67 606.06 116.67C599.56 116.67 594.31 121.93 594.31 128.43C594.31 134.93 599.56 140.19 606.06 140.19Z" /><path class="shp2" d="M606.06 175.46C612.57 175.46 617.82 170.21 617.82 163.71C617.82 157.2 612.57 151.95 606.06 151.95C599.56 151.95 594.31 157.2 594.31 163.71C594.31 170.21 599.56 175.46 606.06 175.46Z" /><path class="shp2" d="M606.06 207.06C612.57 207.06 617.82 201.81 617.82 195.31C617.82 188.8 612.57 183.55 606.06 183.55C599.56 183.55 594.31 188.8 594.31 195.31C594.31 201.81 599.56 207.06 606.06 207.06Z" /><path fill-rule="evenodd" class="shp2" d="M612.68 125.49C612.68 127.13 612.35 128.76 611.72 130.27C611.1 131.79 610.18 133.16 609.02 134.32C607.86 135.48 606.48 136.4 604.96 137.03C603.45 137.66 601.83 137.98 600.19 137.99C595.13 137.99 590.58 134.94 588.64 130.27C586.71 125.61 587.78 120.23 591.35 116.66C594.92 113.09 600.3 112.02 604.97 113.95C609.63 115.88 612.68 120.44 612.68 125.49ZM611.21 125.49C611.21 124.05 610.92 122.61 610.37 121.28C609.81 119.94 609 118.73 607.98 117.7C606.95 116.68 605.74 115.87 604.4 115.31C603.07 114.76 601.63 114.47 600.19 114.47C595.73 114.47 591.71 117.16 590 121.27C588.3 125.39 589.24 130.13 592.39 133.29C595.54 136.44 600.28 137.38 604.4 135.68C608.52 133.97 611.21 129.95 611.21 125.49Z" /><path fill-rule="evenodd" class="shp2" d="M612.68 160.77C612.68 162.41 612.35 164.03 611.72 165.55C611.1 167.06 610.18 168.44 609.02 169.6C607.86 170.76 606.48 171.68 604.96 172.3C603.45 172.93 601.83 173.26 600.19 173.26C595.13 173.26 590.58 170.22 588.64 165.55C586.71 160.88 587.78 155.51 591.35 151.93C594.92 148.36 600.3 147.29 604.97 149.22C609.63 151.16 612.68 155.71 612.68 160.77ZM611.21 160.77C611.21 159.32 610.92 157.89 610.37 156.55C609.81 155.21 609 154 607.98 152.98C606.95 151.95 605.74 151.14 604.4 150.59C603.07 150.03 601.63 149.75 600.19 149.74C595.73 149.74 591.71 152.43 590 156.55C588.3 160.67 589.24 165.41 592.39 168.56C595.54 171.71 600.28 172.66 604.4 170.95C608.52 169.24 611.21 165.23 611.21 160.77Z" /><path fill-rule="evenodd" class="shp2" d="M612.68 192.37C612.68 194.01 612.35 195.63 611.72 197.14C611.1 198.66 610.18 200.04 609.02 201.2C607.86 202.36 606.48 203.28 604.96 203.9C603.45 204.53 601.83 204.86 600.19 204.86C595.13 204.86 590.58 201.82 588.64 197.15C586.71 192.48 587.78 187.11 591.35 183.53C594.92 179.96 600.3 178.89 604.97 180.82C609.63 182.76 612.68 187.31 612.68 192.37ZM610.37 188.15C609.81 186.81 609 185.6 607.98 184.58C606.95 183.55 605.74 182.74 604.4 182.19C603.07 181.63 601.63 181.34 600.19 181.34C595.73 181.34 591.71 184.03 590 188.15C588.3 192.27 589.24 197.01 592.39 200.16C595.54 203.31 600.28 204.26 604.4 202.55C608.52 200.84 611.21 196.82 611.21 192.37C611.21 190.92 610.92 189.49 610.37 188.15Z" /><path class="shp1" d="M475.72 7.71L368.26 7.71L368.26 17.28L475.72 17.28L475.72 7.71Z" /><path class="shp1" d="M475.72 42.98L368.26 42.98L368.26 52.55L475.72 52.55L475.72 42.98Z" /><path class="shp1" d="M475.72 74.58L368.26 74.58L368.26 84.15L475.72 84.15L475.72 74.58Z" /><path class="shp1" d="M203.81 114.73L246.51 51.03L306.1 51.03L306.1 49.03L245.68 49.03L245.38 49.33L202.38 113.33L203.81 114.73L203.81 114.73Z" /><path class="shp2" d="M334.46 27.19C340.96 27.19 346.21 21.93 346.21 15.43C346.21 8.93 340.96 3.67 334.46 3.67C327.95 3.67 322.7 8.93 322.7 15.43C322.7 21.93 327.95 27.19 334.46 27.19Z" /><path class="shp2" d="M334.46 62.46C340.96 62.46 346.21 57.21 346.21 50.71C346.21 44.2 340.96 38.95 334.46 38.95C327.95 38.95 322.7 44.2 322.7 50.71C322.7 57.21 327.95 62.46 334.46 62.46Z" /><path class="shp2" d="M334.46 94.06C340.96 94.06 346.21 88.81 346.21 82.31C346.21 75.8 340.96 70.55 334.46 70.55C327.95 70.55 322.7 75.8 322.7 82.31C322.7 88.81 327.95 94.06 334.46 94.06Z" /><path fill-rule="evenodd" class="shp2" d="M340.34 24.99C338.7 24.98 337.07 24.66 335.56 24.03C334.04 23.4 332.67 22.48 331.51 21.32C330.35 20.16 329.43 18.79 328.8 17.27C328.17 15.76 327.84 14.13 327.84 12.49C327.84 7.44 330.89 2.88 335.55 0.95C340.22 -0.98 345.6 0.09 349.17 3.66C352.74 7.23 353.81 12.61 351.88 17.27C349.94 21.94 345.39 24.99 340.34 24.99ZM340.34 1.47C338.89 1.47 337.46 1.76 336.12 2.31C334.78 2.87 333.57 3.68 332.54 4.7C331.52 5.73 330.71 6.94 330.15 8.28C329.6 9.61 329.31 11.05 329.31 12.49C329.31 16.95 332 20.97 336.12 22.68C340.24 24.38 344.98 23.44 348.13 20.29C351.28 17.13 352.23 12.39 350.52 8.27C348.81 4.16 344.79 1.47 340.34 1.47Z" /><path fill-rule="evenodd" class="shp2" d="M340.34 60.26C338.7 60.26 337.07 59.93 335.56 59.3C334.04 58.68 332.67 57.76 331.51 56.6C330.35 55.44 329.43 54.06 328.8 52.55C328.17 51.03 327.84 49.41 327.84 47.77C327.84 42.71 330.89 38.16 335.55 36.22C340.22 34.29 345.6 35.36 349.17 38.93C352.74 42.51 353.81 47.88 351.88 52.55C349.94 57.22 345.39 60.26 340.34 60.26ZM340.34 36.74C338.89 36.75 337.46 37.03 336.12 37.59C334.78 38.14 333.57 38.95 332.54 39.98C331.52 41 330.71 42.21 330.15 43.55C329.6 44.89 329.31 46.32 329.31 47.77C329.31 52.23 332 56.24 336.12 57.95C340.24 59.66 344.98 58.71 348.13 55.56C351.28 52.41 352.23 47.67 350.52 43.55C348.81 39.43 344.79 36.74 340.34 36.74Z" /><path fill-rule="evenodd" class="shp2" d="M340.34 91.86C338.7 91.86 337.07 91.53 335.56 90.9C334.04 90.28 332.67 89.36 331.51 88.2C330.35 87.04 329.43 85.66 328.8 84.14C328.17 82.63 327.84 81.01 327.84 79.37C327.84 74.31 330.89 69.76 335.55 67.82C340.22 65.89 345.6 66.96 349.17 70.53C352.74 74.11 353.81 79.48 351.88 84.15C349.94 88.82 345.39 91.86 340.34 91.86ZM340.34 68.34C338.89 68.34 337.46 68.63 336.12 69.19C334.78 69.74 333.57 70.55 332.54 71.58C331.52 72.6 330.71 73.81 330.15 75.15C329.6 76.49 329.31 77.92 329.31 79.37C329.31 83.82 332 87.84 336.12 89.55C340.24 91.26 344.98 90.31 348.13 87.16C351.28 84.01 352.23 79.27 350.52 75.15C348.81 71.03 344.79 68.34 340.34 68.34Z" /><path class="shp1" d="M482.53 383.86L557.58 383.86L557.58 377.17L482.53 377.17L482.53 383.86Z" /><path class="shp1" d="M482.53 408.5L557.58 408.5L557.58 401.81L482.53 401.81L482.53 408.5Z" /><path class="shp1" d="M482.53 430.57L557.58 430.57L557.58 423.88L482.53 423.88L482.53 430.57Z" /><path class="shp1" d="M679.42 444.94L642.61 407.44L601 407.44L601 406.04L643.19 406.04L643.4 406.25L680.41 443.96L679.42 444.94L679.42 444.94Z" /><path class="shp2" d="M581.19 390.78C585.73 390.78 589.4 387.11 589.4 382.57C589.4 378.03 585.73 374.36 581.19 374.36C576.65 374.36 572.98 378.03 572.98 382.57C572.98 387.11 576.65 390.78 581.19 390.78Z" /><path class="shp2" d="M581.19 415.42C585.73 415.42 589.4 411.75 589.4 407.21C589.4 402.67 585.73 399 581.19 399C576.65 399 572.98 402.67 572.98 407.21C572.98 411.75 576.65 415.42 581.19 415.42Z" /><path class="shp2" d="M581.19 437.49C585.73 437.49 589.4 433.82 589.4 429.28C589.4 424.74 585.73 421.06 581.19 421.06C576.65 421.06 572.98 424.74 572.98 429.28C572.98 433.82 576.65 437.49 581.19 437.49Z" /><path fill-rule="evenodd" class="shp2" d="M585.81 380.52C585.81 381.66 585.58 382.8 585.14 383.86C584.7 384.91 584.06 385.88 583.25 386.69C582.44 387.49 581.48 388.14 580.42 388.58C579.36 389.02 578.23 389.24 577.08 389.24C573.55 389.24 570.37 387.12 569.02 383.86C567.67 380.6 568.42 376.84 570.91 374.35C573.41 371.85 577.16 371.11 580.42 372.46C583.68 373.81 585.81 376.99 585.81 380.52ZM584.78 380.52C584.78 379.51 584.58 378.51 584.19 377.57C583.8 376.64 583.24 375.79 582.52 375.08C581.81 374.36 580.96 373.8 580.03 373.41C579.09 373.02 578.09 372.82 577.08 372.82C573.97 372.82 571.16 374.7 569.97 377.57C568.78 380.45 569.44 383.76 571.64 385.96C573.84 388.16 577.15 388.82 580.03 387.63C582.9 386.44 584.78 383.63 584.78 380.52Z" /><path fill-rule="evenodd" class="shp2" d="M585.81 405.15C585.81 406.3 585.58 407.43 585.14 408.49C584.7 409.55 584.06 410.51 583.25 411.32C582.44 412.13 581.48 412.77 580.42 413.21C579.36 413.65 578.23 413.88 577.08 413.88C573.55 413.88 570.37 411.75 569.02 408.49C567.67 405.23 568.42 401.48 570.91 398.98C573.41 396.49 577.16 395.74 580.42 397.09C583.68 398.44 585.81 401.63 585.81 405.15ZM584.78 405.15C584.78 404.14 584.58 403.14 584.19 402.21C583.8 401.28 583.24 400.43 582.52 399.71C581.81 399 580.96 398.43 580.03 398.04C579.09 397.66 578.09 397.46 577.08 397.46C573.97 397.46 571.16 399.33 569.97 402.21C568.78 405.08 569.44 408.4 571.64 410.6C573.84 412.8 577.15 413.46 580.03 412.27C582.9 411.08 584.78 408.27 584.78 405.15Z" /><path fill-rule="evenodd" class="shp2" d="M585.81 427.22C585.81 428.37 585.58 429.5 585.14 430.56C584.7 431.62 584.06 432.58 583.25 433.39C582.44 434.2 581.48 434.84 580.42 435.28C579.36 435.72 578.23 435.95 577.08 435.95C573.55 435.95 570.37 433.82 569.02 430.56C567.67 427.3 568.42 423.55 570.91 421.05C573.41 418.56 577.16 417.81 580.42 419.16C583.68 420.51 585.81 423.69 585.81 427.22ZM584.78 427.22C584.78 426.21 584.58 425.21 584.19 424.28C583.8 423.35 583.24 422.5 582.52 421.78C581.81 421.07 580.96 420.5 580.03 420.11C579.09 419.73 578.09 419.53 577.08 419.53C573.97 419.53 571.16 421.4 569.97 424.28C568.78 427.15 569.44 430.47 571.64 432.67C573.84 434.87 577.15 435.53 580.03 434.34C582.9 433.14 584.78 430.34 584.78 427.22Z" /></svg>