<svg xmlns="http://www.w3.org/2000/svg" viewBox="0 0 975 774" width="720" height="572"><style>tspan { white-space:pre }.shp0 { fill: #ff6584 } .shp1 { fill: #f2f2f2 } .shp2 { fill: #3f3d56 } .shp3 { fill: #2f2e41 } .shp4 { opacity: 0.102;fill: #000000 } .shp5 { fill: #70add8 } .shp6 { fill: #575a89 } .shp7 { fill: #a0616a } </style><path class="shp0" d="M520.97 163.96C485.57 163.96 456.97 135.35 456.97 99.96C456.97 64.57 485.57 35.96 520.97 35.96C556.36 35.96 584.97 64.57 584.97 99.96C584.97 135.35 556.36 163.96 520.97 163.96Z" /><path class="shp1" d="M328.26 407.97C328.26 531.58 254.78 574.74 164.13 574.74C73.48 574.74 0 531.58 0 407.97C0 284.36 164.13 127.11 164.13 127.11C164.13 127.11 328.26 284.36 328.26 407.97Z" /><path class="shp2" d="M158.15 555.83L159.83 452.38L229.79 324.4L160.1 436.15L160.85 389.64L209.07 297.04L161.05 377.33L161.05 377.33L162.41 293.67L214.04 219.95L162.63 280.51L163.47 127.11L158.14 330.19L158.58 321.81L106.08 241.46L157.74 337.89L152.84 431.33L152.7 428.85L92.19 344.29L152.51 437.61L151.9 449.29L151.79 449.47L151.84 450.43L139.44 687.48L156.01 687.48L158 565.04L218.19 471.95L158.15 555.83L158.15 555.83Z" /><path class="shp1" d="M814.65 343.12C814.65 494.13 724.87 546.86 614.13 546.86C503.39 546.86 413.62 494.13 413.62 343.12C413.62 192.11 614.13 0 614.13 0C614.13 0 814.65 192.11 814.65 343.12Z" /><path class="shp2" d="M606.83 523.76L608.88 397.38L694.35 241.02L609.2 377.55L610.13 320.73L669.03 207.6L610.37 305.69L610.37 305.69L612.03 203.48L675.1 113.42L612.29 187.41L613.33 0L606.81 248.1L607.35 237.86L543.22 139.7L606.32 257.51L600.34 371.65L600.16 368.63L526.24 265.33L599.94 379.33L599.19 393.6L599.06 393.82L599.12 394.99L583.96 684.59L604.21 684.59L606.64 535L680.17 421.29L606.83 523.76L606.83 523.76Z" /><path class="shp2" d="M399.97 695.96C229.64 695.96 91.97 691.04 91.97 684.96C91.97 678.87 229.64 673.96 399.97 673.96C570.29 673.96 707.97 678.87 707.97 684.96C707.97 691.04 570.29 695.96 399.97 695.96Z" /><path class="shp2" d="M832.97 773.96C754.44 773.96 690.97 767.92 690.97 760.46C690.97 752.99 754.44 746.96 832.97 746.96C911.49 746.96 974.97 752.99 974.97 760.46C974.97 767.92 911.49 773.96 832.97 773.96Z" /><path class="shp3" d="M381.97 346.96L417.97 346.96L417.97 684.96L381.97 684.96L381.97 346.96Z" /><path class="shp2" d="M564.97 423.96L343.97 423.96L343.97 361.96L564.97 361.96L628.97 392.96L564.97 423.96L564.97 423.96Z" /><path class="shp4" d="M564.97 418.96L343.97 418.96L343.97 423.96L564.97 423.96L628.97 392.96L623.81 390.46L564.97 418.96L564.97 418.96Z" /><path class="shp2" d="M235.97 505.96L456.97 505.96L456.97 443.96L235.97 443.96L171.97 474.96L235.97 505.96L235.97 505.96Z" /><path class="shp4" d="M177.13 472.46L171.97 474.96L235.97 505.96L456.97 505.96L456.97 500.96L235.97 500.96L177.13 472.46L177.13 472.46Z" /><path class="shp5" d="M467.97 373.96L505.97 373.96L505.97 411.96L467.97 411.96L467.97 373.96Z" /><path class="shp5" d="M314.97 493.96C304.46 493.96 295.97 485.46 295.97 474.96C295.97 464.45 304.46 455.96 314.97 455.96C325.47 455.96 333.97 464.45 333.97 474.96C333.97 485.46 325.47 493.96 314.97 493.96Z" /><path class="shp3" d="M399.97 401.96C393.88 401.96 388.97 397.04 388.97 390.96C388.97 384.87 393.88 379.96 399.97 379.96C406.05 379.96 410.97 384.87 410.97 390.96C410.97 397.04 406.05 401.96 399.97 401.96Z" /><path class="shp3" d="M399.97 483.96C393.88 483.96 388.97 479.04 388.97 472.96C388.97 466.87 393.88 461.96 399.97 461.96C406.05 461.96 410.97 466.87 410.97 472.96C410.97 479.04 406.05 483.96 399.97 483.96Z" /><path class="shp5" d="M325.97 647.29C325.97 669.76 312.61 677.61 296.13 677.61C295.75 677.61 295.37 677.6 294.99 677.6C294.23 677.58 293.47 677.54 292.72 677.49C277.85 676.44 266.3 668.19 266.3 647.29C266.3 625.67 293.93 598.38 296.01 596.36L296.01 596.36C296.09 596.28 296.13 596.24 296.13 596.24C296.13 596.24 325.97 624.83 325.97 647.29Z" /><path class="shp2" d="M295.05 674.17L305.96 658.92L295.02 675.84L294.99 677.6C294.23 677.58 293.47 677.54 292.72 677.49L293.9 655.01L293.89 654.84L293.91 654.8L294.02 652.68L283.05 635.72L294.06 651.09L294.08 651.54L294.97 634.56L285.58 617.03L295.08 631.57L296.01 596.36L296.01 596.24L296.01 596.36L295.86 624.13L305.21 613.12L295.82 626.52L295.57 641.72L304.3 627.13L295.54 643.96L295.4 652.42L308.07 632.1L295.35 655.37L295.05 674.17Z" /><path class="shp6" d="M787.01 735.87C787.01 735.87 772.85 747.8 765.4 747.05C757.94 746.3 743.78 746.3 749.75 754.5C755.71 762.7 780.3 767.17 790.73 767.92C801.17 768.66 824.27 769.41 822.78 764.94C821.29 760.46 819.8 739.6 813.83 738.11C807.87 736.62 787.01 735.87 787.01 735.87Z" /><path class="shp6" d="M868.27 724.17C868.27 724.17 857.84 739.46 850.46 740.74C843.08 742.03 829.44 745.83 837.39 752.12C845.34 758.42 870.22 756.12 880.47 754.03C890.72 751.94 913.17 746.45 910.54 742.55C907.9 738.64 900.86 718.94 894.71 719.11C888.57 719.28 868.27 724.17 868.27 724.17Z" /><path class="shp3" d="M778.71 505.5C778.71 505.5 769.12 571.18 771.36 583.1C773.59 595.03 775.08 613.66 775.08 613.66C775.08 613.66 773.59 629.31 775.08 636.76C776.57 644.21 785.52 715.01 785.52 716.5C785.52 717.99 784.03 722.46 785.52 726.18C787.01 729.91 789.99 726.93 785.52 732.89C781.05 738.85 784.03 740.34 784.77 740.34C785.52 740.34 814.58 743.32 816.07 740.34C817.56 737.36 815.33 736.62 816.07 732.89C816.82 729.16 817.56 728.42 819.05 727.67C820.54 726.93 823.52 728.42 821.29 724.69C819.05 720.97 813.83 716.5 815.33 714.26C816.82 712.03 814.58 695.63 814.58 695.63C814.58 695.63 813.09 659.11 812.34 636.76C811.6 614.4 819.05 591.3 819.05 591.3C819.28 595.84 819.87 600.35 820.82 604.79C821.77 609.23 823.07 613.59 824.72 617.83C826.36 622.06 828.34 626.16 830.64 630.08C832.93 634 835.54 637.73 838.43 641.23C857.8 664.33 867.49 707.55 867.49 707.55C867.49 707.55 871.96 714.26 869.73 720.22C867.49 726.18 860.78 722.46 867.49 726.18C874.2 729.91 897.3 724.69 899.53 722.46C901.77 720.22 896.55 717.24 898.04 711.28C899.53 705.32 905.5 706.81 900.28 703.83C895.06 700.85 893.57 701.59 893.57 698.61C893.57 695.63 880.16 630.8 859.29 612.17L857.8 544.35C857.8 544.35 876.43 496.66 857.06 492.19C837.68 487.72 778.71 505.5 778.71 505.5Z" /><path class="shp7" d="M792.22 328.99C792.22 328.99 804.89 360.28 801.91 364.76C798.93 369.23 838.43 349.85 838.43 349.85C838.43 349.85 825.76 318.55 825.76 314.83C825.76 311.1 792.22 328.99 792.22 328.99Z" /><path class="shp7" d="M801.54 336.81C786.29 336.81 773.97 324.48 773.97 309.24C773.97 293.99 786.29 281.66 801.54 281.66C816.79 281.66 829.11 293.99 829.11 309.24C829.11 324.48 816.79 336.81 801.54 336.81Z" /><path class="shp5" d="M838.43 337.18C838.43 337.18 819.05 334.95 809.36 346.87C799.68 358.79 798.19 361.77 798.19 361.77C798.19 361.77 775.08 399.04 779.55 417.67C779.83 418.09 780.09 418.51 780.35 418.94C780.61 419.37 780.87 419.8 781.12 420.23C781.37 420.67 781.61 421.11 781.85 421.55C782.08 421.99 782.31 422.43 782.54 422.88C784.03 425.86 784.03 467.6 782.54 474.3C781.05 481.01 779.55 483.24 781.05 492.93C782.54 502.62 769.12 518.27 784.77 521.25C800.42 524.23 812.34 522 817.56 515.29C822.78 508.58 818.31 504.11 834.7 504.11C851.1 504.11 861.53 492.93 861.53 492.93C861.53 492.93 853.33 483.99 856.31 482.5C859.29 481.01 856.31 477.28 854.82 473.56C853.33 469.83 853.33 466.85 855.57 466.85C857.8 466.85 856.31 465.36 854.82 461.63C853.33 457.91 880.9 393.82 864.51 375.19C848.11 356.56 839.92 346.13 839.92 346.13C839.92 346.13 842.9 334.95 838.43 337.18Z" /><path class="shp7" d="M795.95 407.98L795.95 440.77L772.1 519.76C772.1 519.76 756.45 560.75 772.1 560.75C787.75 560.75 786.91 521.63 786.91 521.63L820.54 462.38C820.54 462.38 833.96 415.43 832.47 411.7C830.97 407.98 795.95 407.98 795.95 407.98Z" /><path class="shp5" d="M808.62 359.54C808.62 359.54 786.26 368.48 792.22 392.33C798.19 416.18 792.22 415.43 792.22 415.43C792.22 415.43 822.78 412.45 832.47 419.16L834.7 410.21C834.7 410.21 843.64 358.79 808.62 359.54Z" /><path class="shp3" d="M792.12 288.54C791.27 288.84 790.38 289.04 789.47 289.12C788.56 289.21 787.65 289.18 786.75 289.04C785.85 288.9 784.98 288.65 784.14 288.29C783.3 287.94 782.51 287.48 781.79 286.93C778.98 284.62 777.79 280.34 779.44 277.1C780.87 274.3 783.92 272.77 786.85 271.62C788.46 270.99 790.09 270.42 791.75 269.91C793.4 269.41 795.07 268.96 796.76 268.58C798.45 268.2 800.15 267.88 801.86 267.63C803.57 267.38 805.29 267.19 807.02 267.06C810.31 266.83 813.78 266.87 816.72 268.37C818.17 269.12 819.44 270.19 820.88 270.97C823.53 272.39 826.62 272.7 829.48 273.61C830.94 274.09 832.35 274.72 833.67 275.5C835 276.27 836.24 277.19 837.37 278.23C838.5 279.27 839.52 280.43 840.41 281.69C841.29 282.94 842.04 284.29 842.64 285.71C842.83 286.19 843.01 286.68 843.18 287.17C843.34 287.66 843.49 288.16 843.63 288.66C843.76 289.16 843.88 289.67 843.99 290.17C844.09 290.68 844.18 291.2 844.26 291.71C844.47 293.11 844.59 294.53 844.63 295.94C844.66 297.36 844.6 298.78 844.46 300.19C844.31 301.6 844.07 303 843.75 304.38C843.43 305.76 843.01 307.12 842.52 308.45C839.34 316.9 832.68 324.3 832.3 333.33C828.22 330.37 826.71 325.03 823.44 321.19C822.84 320.49 822.18 319.84 821.47 319.25C820.76 318.66 820 318.13 819.2 317.66C818.4 317.2 817.56 316.8 816.69 316.48C815.83 316.15 814.93 315.9 814.02 315.73C813.77 315.71 813.52 315.68 813.27 315.63C813.03 315.58 812.78 315.51 812.55 315.42C812.31 315.34 812.08 315.23 811.86 315.11C811.63 314.99 811.42 314.86 811.22 314.71C811.08 314.54 810.95 314.36 810.83 314.17C810.72 313.98 810.62 313.79 810.53 313.59C810.44 313.38 810.37 313.17 810.31 312.96C810.26 312.75 810.22 312.53 810.19 312.31L807.4 299.14C806.83 296.46 806.12 293.54 803.91 291.91C803.57 291.69 803.22 291.49 802.85 291.31C802.49 291.13 802.11 290.98 801.73 290.84C801.35 290.71 800.96 290.59 800.56 290.5C800.17 290.41 799.77 290.35 799.36 290.3C798.4 290.14 797.44 289.99 796.47 289.86C795.5 289.73 794.53 289.62 793.56 289.53C792.59 289.44 791.62 289.38 790.64 289.33C789.67 289.28 788.69 289.25 787.71 289.24" /></svg>