<svg xmlns="http://www.w3.org/2000/svg" viewBox="0 0 1038 727" width="720" height="504"><style>tspan { white-space:pre }.shp0 { fill: #3f3d56 } .shp1 { fill: #70add8 } .shp2 { fill: #ffb8b8 } .shp3 { fill: #2f2e41 } .shp4 { fill: none;stroke: #00ff00 } .shp5 { fill: #575a89 } .shp6 { fill: #d0cde1 } </style><path fill-rule="evenodd" class="shp0" d="M153.47 608.56L152.18 608.08C151.9 607.97 123.76 597.19 110.58 572.75C97.4 548.31 103.86 518.87 103.92 518.58L104.23 517.24L105.51 517.72C105.79 517.83 133.93 528.61 147.11 553.05C160.29 577.5 153.84 606.93 153.77 607.22L153.47 608.56ZM151.71 605.29C152.78 599.26 156.14 574.84 145 554.19C133.87 533.55 111.63 522.94 105.99 520.51C104.92 526.55 101.56 550.97 112.69 571.61C123.84 592.28 146.07 602.87 151.71 605.29Z" /><path class="shp1" d="M120.66 565.38C144.34 579.63 153.47 607.93 153.47 607.93C153.47 607.93 124.18 613.13 100.5 598.88C76.81 584.63 67.69 556.33 67.69 556.33C67.69 556.33 96.97 551.12 120.66 565.38Z" /><path class="shp0" d="M855.88 365.61C808.15 365.61 769.57 357.03 769.57 346.43C769.57 335.82 808.15 327.25 855.88 327.25C903.61 327.25 942.19 335.82 942.19 346.43C942.19 357.03 903.61 365.61 855.88 365.61Z" /><path class="shp0" d="M671.34 607.3L761.29 379.56L763.52 380.44L673.57 608.18L671.34 607.3Z" /><path class="shp0" d="M945.87 380.43L948.1 379.55L1038 607.31L1035.77 608.19L945.87 380.43Z" /><path class="shp0" d="M853.48 379.99L855.88 379.99L855.88 607.75L853.48 607.75L853.48 379.99Z" /><path class="shp0" d="M747.46 463.77L748.53 461.63L839.63 507.18L838.56 509.33L747.46 463.77Z" /><path class="shp0" d="M869.73 507.18L960.83 461.63L961.9 463.78L870.8 509.33L869.73 507.18Z" /><path class="shp2" d="M737.81 210.37C737.81 210.37 701.85 173.21 692.26 195.99C682.67 218.76 728.22 230.75 728.22 230.75L737.81 210.37Z" /><path class="shp3" d="M815.72 275.1L768.97 342.23L719.83 410.56L705.44 608.35L754.59 614.34C754.59 614.34 747.4 560.4 760.58 528.03C773.77 495.67 773.77 436.93 773.77 436.93L858.88 333.84L906.83 416.55L958.37 614.34L1001.52 610.74C1001.52 610.74 985.94 519.64 988.34 510.05C990.74 500.46 963.16 420.15 963.16 420.15L941.59 263.12C941.59 263.12 843.29 248.73 815.72 275.1Z" /><path class="shp2" d="M836.07 97.94C817.03 97.94 801.63 82.54 801.63 63.49C801.63 44.44 817.03 29.04 836.07 29.04C855.12 29.04 870.52 44.44 870.52 63.49C870.52 82.54 855.12 97.94 836.07 97.94Z" /><path class="shp2" d="M858.88 74.92L884.05 101.29L891.24 142.05L827.71 152.84L832.51 115.68C832.51 115.68 831.31 97.7 826.51 94.1C821.72 90.5 858.88 74.92 858.88 74.92Z" /><path class="shp4" d="" /><path class="shp5" d="M826.51 120.47L832.35 113.88L851.68 131.26L884.05 101.29L933.2 266.71C933.2 266.71 902.03 255.92 872.06 270.31C842.09 284.69 802.54 281.1 802.54 281.1L803.74 146.84L826.51 120.47Z" /><path class="shp6" d="M791.75 146.84L831.91 110.1C831.91 110.1 845.69 130.06 839.7 168.42C833.7 206.78 828.91 282.3 807.33 302.67C785.76 323.05 777.36 330.25 777.36 330.25L798.94 243.94C798.94 243.94 782.16 156.43 791.75 146.84Z" /><path class="shp6" d="M872.55 89.25C872.55 89.25 943.99 82.11 945.18 90.5C946.38 98.89 937.99 194.79 937.99 194.79C937.99 194.79 1012.31 294.28 981.15 313.46C966.61 322.41 954.05 302.76 936.19 278.1C915.76 249.88 890.76 214.46 888.84 197.19C885.25 164.82 872.55 89.25 872.55 89.25Z" /><path class="shp6" d="M795.35 180.41L789.35 227.16L736.61 204.38L719.83 239.14L806.13 271.51C806.13 271.51 821.72 188.8 795.35 180.41Z" /><path class="shp3" d="M710.24 602.35L675.47 658.69C675.47 658.69 609.54 694.65 632.32 704.24C655.1 713.83 710.24 693.45 716.23 681.47C722.22 669.48 724.62 667.08 727.02 669.48C729.42 671.88 759.38 662.29 760.58 658.69C761.78 655.1 760.58 614.34 749.79 609.54C739.01 604.75 710.24 602.35 710.24 602.35Z" /><path class="shp3" d="M959.57 608.35L966.76 652.7L975.15 683.87C975.15 683.87 981.15 729.42 1009.91 725.82C1024.3 724.02 1029.39 713.83 1030.89 704.09C1031.22 701.8 1031.37 699.48 1031.33 697.15C1031.3 694.83 1031.07 692.52 1030.66 690.23C1030.26 687.95 1029.67 685.7 1028.9 683.51C1028.13 681.32 1027.19 679.19 1026.09 677.15L1009.91 646.7L995.53 605.95L959.57 608.35Z" /><path class="shp3" d="M801.66 69.79C801.66 69.79 796.98 64.74 797.45 58.41C797.53 57.51 797.57 56.61 797.58 55.71C797.59 54.81 797.57 53.9 797.51 53C797.46 52.1 797.36 51.21 797.24 50.31C797.12 49.42 796.96 48.53 796.77 47.65C796.58 46.77 798.23 37.29 800.4 31.29C802.56 25.29 800.74 23.2 810.03 19.92C819.33 16.64 813.41 4.79 840.83 14.24C841.35 14.76 841.94 15.2 842.59 15.55C843.24 15.91 843.93 16.16 844.66 16.31C845.38 16.45 846.12 16.49 846.85 16.43C847.59 16.36 848.31 16.18 848.99 15.91C854.05 14.05 857.1 21.01 857.1 21.01C857.1 21.01 860.26 18.42 862.03 21.11C863.8 23.8 872.37 17.66 875.51 37.26C878.65 56.85 867.87 74.32 867.87 74.32C867.87 74.32 866.35 42.97 848.55 42.4C830.74 41.83 810.61 35.09 808.11 48.29C807.78 50.14 807.4 51.97 806.97 53.8C806.54 55.62 806.05 57.43 805.51 59.23C804.97 61.02 804.38 62.8 803.74 64.57C803.1 66.33 802.4 68.07 801.66 69.79L801.66 69.79Z" /><path class="shp2" d="M926.36 250.03C926.36 250.03 883.11 278.39 903.69 292.07C924.26 305.76 944.58 263.27 944.58 263.27L926.36 250.03Z" /><path class="shp6" d="M936.79 90.5C936.79 90.5 947.58 84.51 951.18 96.5C954.77 108.48 991.93 200.78 991.93 200.78L945.18 272.71L911.62 248.73L952.38 200.78L924.81 167.22L936.79 90.5Z" /><path class="shp0" d="M712.03 111.5L710.78 111.5L710.78 77.12C710.78 74.51 710.27 71.92 709.27 69.51C708.27 67.09 706.8 64.9 704.95 63.05C703.1 61.2 700.91 59.74 698.5 58.74C696.08 57.74 693.5 57.22 690.88 57.22L618.05 57.22C615.44 57.22 612.85 57.74 610.44 58.74C608.03 59.74 605.83 61.2 603.98 63.05C602.14 64.9 600.67 67.09 599.67 69.51C598.67 71.92 598.16 74.51 598.16 77.12L598.16 265.71C598.16 268.32 598.67 270.91 599.67 273.32C600.67 275.74 602.14 277.93 603.98 279.78C605.83 281.63 608.03 283.09 610.44 284.09C612.85 285.09 615.44 285.61 618.05 285.61L690.88 285.61C693.5 285.61 696.08 285.09 698.5 284.09C700.91 283.09 703.1 281.63 704.95 279.78C706.8 277.93 708.27 275.74 709.27 273.32C710.27 270.91 710.78 268.32 710.78 265.71L710.78 135.97L712.03 135.97L712.03 111.5Z" /><path class="shp1" d="M691.22 62.87L681.71 62.87C682.15 63.94 682.31 65.11 682.2 66.26C682.08 67.41 681.68 68.51 681.03 69.47C680.39 70.44 679.51 71.22 678.49 71.77C677.47 72.31 676.33 72.6 675.17 72.6L633.45 72.6C632.29 72.6 631.15 72.31 630.13 71.77C629.11 71.22 628.24 70.44 627.59 69.47C626.95 68.51 626.55 67.41 626.43 66.26C626.31 65.11 626.48 63.94 626.91 62.87L618.03 62.87C616.08 62.87 614.15 63.26 612.35 64C610.55 64.75 608.91 65.84 607.53 67.22C606.15 68.6 605.05 70.24 604.31 72.04C603.56 73.85 603.18 75.78 603.18 77.73L603.18 266.04C603.18 267.99 603.56 269.93 604.31 271.73C605.05 273.53 606.15 275.17 607.53 276.55C608.91 277.93 610.55 279.02 612.35 279.77C614.15 280.52 616.08 280.9 618.03 280.9L691.22 280.9C693.17 280.9 695.1 280.52 696.9 279.77C698.7 279.02 700.34 277.93 701.72 276.55C703.1 275.17 704.2 273.53 704.94 271.73C705.69 269.93 706.07 267.99 706.07 266.04L706.07 77.73C706.07 75.78 705.69 73.85 704.94 72.04C704.2 70.24 703.1 68.6 701.72 67.22C700.34 65.84 698.7 64.75 696.9 64C695.1 63.26 693.17 62.87 691.22 62.87L691.22 62.87Z" /><path class="shp0" d="M654.39 154.75L670.03 181.84L685.66 208.92L654.39 208.92L623.12 208.92L638.76 181.84L654.39 154.75L654.39 154.75Z" /><path class="shp6" d="M654.32 174.36L661.41 186.65L668.5 198.93L654.32 198.93L640.13 198.93L647.23 186.65L654.32 174.36L654.32 174.36Z" /><path class="shp6" d="M654.32 134.41L661.41 146.7L668.5 158.98L654.32 158.98L640.13 158.98L647.23 146.7L654.32 134.41L654.32 134.41Z" /><path class="shp0" d="M348.72 250.71L451.86 429.35L555 608L348.72 608L142.44 608L245.58 429.35L348.72 250.71L348.72 250.71Z" /><path class="shp6" d="M348.24 380.04L395.02 461.08L441.81 542.12L348.24 542.12L254.66 542.12L301.45 461.08L348.24 380.04L348.24 380.04Z" /><path class="shp6" d="M348.24 116.52L395.02 197.56L441.81 278.6L348.24 278.6L254.66 278.6L301.45 197.56L348.24 116.52L348.24 116.52Z" /><path class="shp0" d="M0 606.55L672.48 606.55L672.48 608.95L0 608.95L0 606.55Z" /><path class="shp0" d="M207.39 146.96C202.82 141.72 198.51 133.27 195.99 126.46C193.46 133.27 189.15 141.72 184.59 146.96L194.79 143.27L194.79 197.19L197.19 197.19L197.19 143.27L207.39 146.96Z" /><path class="shp0" d="M536.44 326.16C531.87 320.93 527.56 312.48 525.04 305.67C522.51 312.48 518.2 320.93 513.63 326.16L523.84 322.47L523.84 376.4L526.23 376.4L526.23 322.47L536.44 326.16Z" /><path class="shp0" d="M433.35 20.49C428.78 15.26 424.47 6.81 421.95 0C419.42 6.81 415.11 15.26 410.54 20.49L420.75 16.8L420.75 70.72L423.15 70.72L423.15 16.8L433.35 20.49Z" /></svg>