<svg xmlns="http://www.w3.org/2000/svg" viewBox="0 0 448 512" width="256" height="293"><style>tspan { white-space:pre }.shp0 { fill: #000000 } </style><path class="shp0" d="M100.28 448L7.4 448L7.4 148.9L100.28 148.9L100.28 448ZM53.79 108.1C24.09 108.1 0 83.5 0 53.8C0 39.53 5.67 25.85 15.75 15.76C25.84 5.68 39.52 0.01 53.79 0.01C68.06 0.01 81.74 5.68 91.83 15.76C101.91 25.85 107.58 39.53 107.58 53.8C107.58 83.5 83.48 108.1 53.79 108.1ZM447.9 448L355.22 448L355.22 302.4C355.22 267.7 354.52 223.2 306.93 223.2C258.64 223.2 251.24 260.9 251.24 299.9L251.24 448L158.46 448L158.46 148.9L247.54 148.9L247.54 189.7L248.84 189.7C261.24 166.2 291.53 141.4 336.72 141.4C430.72 141.4 448 203.3 448 283.7L448 448L447.9 448Z" /></svg>