<svg width="675" height="480" viewBox="0 0 1010 718" xmlns="http://www.w3.org/2000/svg"><style>.shp1{fill:#3f3d56}.shp2{fill:#70add8}.shp3{opacity:.102;fill:#000}.shp4{fill:#35323e}.shp5{fill:#fff}.shp6{opacity:.031;fill:#000}.shp7{fill:#464353}.shp9{fill:#be6f72}.shp13{fill:#000}.shp14{fill:#efb7b9}.shp15{fill:#f86d70}.shp17{fill:#ff6484}.shp18{fill:#925978}.shp19{fill:#444053}</style><path d="M586.55 111.4c-64.72-2.25-126.36-23.14-185.22-46S284.17 17.21 221 5.1c-40.63-7.79-87.1-8.89-119.83 12.88-31.51 21-41.69 57.15-47.16 90.73-4.12 25.26-6.54 51.84 4.74 75.49 7.84 16.42 21.74 30.22 31.36 45.95 33.47 54.72 9.81 122.2-26.45 175.63-17 25.07-36.75 49-49.88 75.66s-19.2 57.25-7.71 84.47c11.38 27 38.51 47.24 67.9 61.49 59.69 28.94 130 37.23 198.61 41.92 151.83 10.39 304.46 5.89 456.69 1.39 56.34-1.67 112.92-3.36 168.34-12.07 30.78-4.84 62.55-12.52 84.9-31 28.36-23.53 35.39-63.38 16.38-92.88-31.88-49.49-120-61.78-142.31-114.9-12.26-29.23.33-61.8 18.16-88.91 38.24-58.16 102.33-109.19 105.7-175.67 2.32-45.67-28.49-91.4-76.13-113-49.93-22.65-119.18-19.8-156 17.69-37.95 38.56-104.61 53.41-161.76 51.43z" opacity=".102" fill="#70add8"/><g opacity=".2"><path class="shp1" d="M248.96 627.27c.15.29.29.58.43.87s.27.59.39.88c.13.3.25.6.36.91.11.3.22.6.32.91-8 3.02-16 6.19-24 9.5-.17-.29-.34-.6-.5-.91a19.994 19.994 0 0 1-1.94-5.06c-.21-.88-.37-1.77-.46-2.68-.09-.9-.12-1.8-.09-2.71.21-4.69 2.29-8.73 6-10.68s8.21-1.41 12.2 1c.77.49 1.51 1.03 2.2 1.61.7.59 1.36 1.22 1.98 1.89.61.67 1.18 1.38 1.7 2.13s.99 1.53 1.41 2.34z"/><path class="shp1" d="M235.69 629.99c-6.37 3.36-15.08-.66-19.48-8.99-4.4-8.34-2.82-17.8 3.55-21.16s15.07.66 19.48 9c4.4 8.33 2.81 17.79-3.55 21.15z"/><path class="shp1" d="M225.96 611.57c-6.37 3.36-15.07-.66-19.48-9-4.4-8.34-2.81-17.79 3.55-21.15 6.37-3.37 15.08.65 19.48 8.99s2.82 17.8-3.55 21.16z"/><path class="shp1" d="M216.23 593.15c-6.37 3.36-15.07-.66-19.48-9-4.4-8.34-2.81-17.8 3.55-21.16 6.37-3.36 15.08.66 19.48 9s2.82 17.79-3.55 21.16z"/><path class="shp1" d="M206.49 574.72c-6.36 3.36-15.07-.66-19.47-8.99-4.41-8.34-2.82-17.8 3.55-21.16 6.36-3.36 15.07.66 19.47 8.99 4.41 8.34 2.82 17.8-3.55 21.16z"/><path class="shp2" d="M88.84 456.36c-.66-.29-1.31-.59-1.95-.9-.65-.32-1.29-.64-1.93-.97-.63-.34-1.26-.68-1.89-1.03-.62-.36-1.24-.72-1.85-1.1l27.63-21-32.59 17.53a62.293 62.293 0 0 1-9.23-8.7c-2.78-3.21-5.22-6.69-7.29-10.39s-3.75-7.6-5.03-11.64-2.14-8.2-2.58-12.42l55.92-.41-56.2-8.35a62.377 62.377 0 0 1 21.59-44.88c13.12-11.32 30.35-16.67 47.57-14.77s32.88 10.87 43.22 24.76a62.39 62.39 0 0 1 11.31 48.51c1.02.45 2.04.94 3.03 1.45 1 .51 1.98 1.04 2.95 1.61.97.56 1.92 1.15 2.86 1.76.94.62 1.86 1.26 2.76 1.92l-28.49 41.14 34.45-36.17c3.75 3.56 7.04 7.57 9.8 11.93 2.77 4.37 4.97 9.07 6.58 13.98 1.6 4.91 2.59 10 2.94 15.16.36 5.16.07 10.34-.86 15.42 21.83 9.7 36.2 31.02 37.01 54.9.8 23.87-12.1 46.11-33.22 57.26a62.377 62.377 0 0 1-90.49-66.38c-6.34-2.82-12.17-6.69-17.24-11.43a62.354 62.354 0 0 1-19.05-36.08c-1.05-6.86-.96-13.85.29-20.68l-.02-.03z"/><path class="shp3" d="M205.35 438.44c1.62 3.06 2.99 6.26 4.08 9.55s1.9 6.66 2.43 10.09a61.944 61.944 0 0 1-.3 20.69c21.83 9.7 36.2 31.02 37.01 54.9.8 23.87-12.1 46.11-33.22 57.26a62.377 62.377 0 0 1-90.49-66.38c-12.35-5.48 77.22-92.3 80.49-86.11z"/></g><g opacity=".2"><path class="shp1" d="M691.54 496.75c-.15.42-.29.85-.43 1.28-.13.43-.26.86-.37 1.29-.12.43-.22.87-.32 1.31-.09.44-.18.88-.26 1.32 11.61 2.61 23.23 5.44 34.85 8.49.18-.43.36-.89.53-1.35.44-1.18.8-2.39 1.09-3.62.28-1.22.48-2.47.59-3.72a27.902 27.902 0 0 0-.29-7.53c-1.19-6.4-4.82-11.56-10.31-13.55s-11.56-.37-16.58 3.76c-.96.82-1.87 1.69-2.72 2.63-.85.93-1.63 1.92-2.35 2.96s-1.36 2.13-1.94 3.25c-.57 1.13-1.07 2.29-1.49 3.48z"/><path class="shp1" d="M735.4 481.88c-4.47 12.31-15.68 19.49-25.07 16.08-9.4-3.41-13.39-16.12-8.92-28.42s15.68-19.49 25.08-16.08c9.39 3.42 13.38 16.12 8.91 28.42z"/><path class="shp1" d="M744.19 453.87c-4.45 12.3-15.64 19.5-25.04 16.1s-13.4-16.09-8.95-28.4c4.45-12.3 15.65-19.5 25.04-16.1 9.4 3.4 13.4 16.09 8.95 28.4z"/><path class="shp1" d="M755.15 427.5c-4.47 12.3-15.67 19.48-25.07 16.07s-13.38-16.12-8.91-28.42c4.46-12.3 15.67-19.49 25.07-16.07 9.4 3.41 13.38 16.11 8.91 28.42z"/><path class="shp1" d="M765.03 400.31c-4.47 12.3-15.68 19.49-25.08 16.07-9.4-3.41-13.38-16.11-8.91-28.42 4.47-12.3 15.67-19.49 25.07-16.07 9.4 3.41 13.38 16.11 8.92 28.42z"/><path class="shp2" d="M879.26 231.17c.85-.53 1.69-1.07 2.52-1.62.83-.56 1.65-1.13 2.46-1.71s1.61-1.18 2.4-1.79c.79-.62 1.57-1.24 2.34-1.88l-42-23.55 48.17 17.9a86.81 86.81 0 0 0 11.05-13.72 87.14 87.14 0 0 0 8.04-15.67 86.17 86.17 0 0 0 4.72-16.97c.99-5.81 1.39-11.7 1.19-17.58l-77 10.08 75.71-22.22a86.613 86.613 0 0 0-38.26-57.59 86.591 86.591 0 0 0-68.21-11.25 86.598 86.598 0 0 0-54.72 42.26 86.637 86.637 0 0 0-6.36 68.85c-1.32.82-2.62 1.68-3.89 2.57-1.28.89-2.53 1.81-3.75 2.77-1.23.96-2.43 1.95-3.6 2.97s-2.31 2.08-3.43 3.16l47 51.17-54.27-43.21a86.602 86.602 0 0 0-11.21 18.28 86.611 86.611 0 0 0-7.53 41.9c.5 7.16 1.89 14.22 4.14 21.04-28.16 17.51-43.85 49.56-40.41 82.54s25.41 61.1 56.58 72.42 66.06 3.85 89.86-19.24c23.81-23.09 32.34-57.74 21.97-89.24a86.696 86.696 0 0 0 21.55-19 86.676 86.676 0 0 0 14.15-25.01 86.47 86.47 0 0 0 5.19-28.26 86.67 86.67 0 0 0-4.33-28.4h-.07z"/><path class="shp3" d="M715.59 228.69a85.923 85.923 0 0 0-3.79 13.91 86.48 86.48 0 0 0-1.43 14.35c-.07 4.82.26 9.63.99 14.39s1.86 9.45 3.37 14.02c-28.16 17.51-43.85 49.56-40.41 82.54s25.41 61.1 56.58 72.42 66.06 3.85 89.86-19.24c23.81-23.09 32.34-57.74 21.97-89.24 15.91-9.86-123.82-112.28-127.14-103.15z"/></g><path class="shp2" d="M180.47 655.41c-37.22 0-67.3-5.78-67.3-12.94s30.08-12.94 67.3-12.94 67.3 5.78 67.3 12.94-30.08 12.94-67.3 12.94z"/><path class="shp1" d="M179.34 647.23c-4.34 0-7.84-4.59-7.84-10.26s3.5-10.26 7.84-10.26 7.84 4.59 7.84 10.26-3.5 10.26-7.84 10.26z"/><path class="shp1" d="M179.34 634.69c-4.34 0-7.84-4.59-7.84-10.26s3.5-10.26 7.84-10.26 7.84 4.59 7.84 10.26-3.5 10.26-7.84 10.26z"/><path class="shp1" d="M179.34 622.15c-4.34 0-7.84-4.59-7.84-10.26s3.5-10.26 7.84-10.26 7.84 4.59 7.84 10.26-3.5 10.26-7.84 10.26z"/><path class="shp1" d="M179.34 609.62c-4.34 0-7.84-4.59-7.84-10.26s3.5-10.26 7.84-10.26 7.84 4.59 7.84 10.26-3.5 10.26-7.84 10.26z"/><path class="shp1" d="M179.34 597.08c-4.34 0-7.84-4.59-7.84-10.26s3.5-10.26 7.84-10.26 7.84 4.59 7.84 10.26-3.5 10.26-7.84 10.26z"/><path class="shp1" d="M179.34 584.54c-4.34 0-7.84-4.59-7.84-10.26s3.5-10.26 7.84-10.26 7.84 4.59 7.84 10.26-3.5 10.26-7.84 10.26z"/><path class="shp1" d="M179.34 572.01c-4.34 0-7.84-4.59-7.84-10.26s3.5-10.26 7.84-10.26 7.84 4.59 7.84 10.26-3.5 10.26-7.84 10.26z"/><path class="shp2" d="M208.68 475.98c.27-.34.53-.69.78-1.04.26-.35.51-.7.75-1.06s.48-.72.71-1.09c.23-.36.45-.74.67-1.11l-20.58-3.38 22.26.17c1.07-2.32 1.89-4.74 2.47-7.22.58-2.49.9-5.03.96-7.58s-.14-5.1-.59-7.61a38.18 38.18 0 0 0-2.12-7.33l-29.87 15.49 27.55-20.24a37.543 37.543 0 0 0-24.1-17.82c-10.16-2.33-20.83-.34-29.46 5.51s-14.45 15.02-16.05 25.32 1.16 20.8 7.61 28.99a37.86 37.86 0 0 0-2.33 3.3c-.36.58-.7 1.16-1.03 1.75-.32.59-.64 1.18-.93 1.79l26.73 13.89-28.5-9.57c-1 2.95-1.62 6.01-1.87 9.11-.24 3.1-.09 6.22.43 9.28.53 3.07 1.44 6.06 2.7 8.9s2.88 5.52 4.8 7.96a37.538 37.538 0 0 0-4.26 39.6c6.28 12.92 19.39 21.13 33.76 21.13s27.48-8.21 33.76-21.13a37.538 37.538 0 0 0-4.26-39.6 37.64 37.64 0 0 0 5.97-10.93c1.36-3.95 2.06-8.1 2.06-12.28 0-4.17-.7-8.32-2.06-12.27a37.64 37.64 0 0 0-5.97-10.93h.01z"/><path class="shp3" d="M141.64 499.15c-.01 2.09.16 4.17.5 6.23.35 2.05.86 4.08 1.54 6.05s1.52 3.88 2.52 5.72c1 1.83 2.15 3.57 3.44 5.21a37.538 37.538 0 0 0-4.26 39.6c6.28 12.92 19.39 21.13 33.76 21.13s27.48-8.21 33.76-21.13a37.538 37.538 0 0 0-4.26-39.6c5.07-6.38-67-27.38-67-23.21z"/><path class="shp4" d="M275.83 178.37H744.6c4.1 0 7.42 3.32 7.42 7.42v89.51c0 4.1-3.32 7.42-7.42 7.42H275.83c-4.1 0-7.42-3.32-7.42-7.42v-89.51c0-4.1 3.32-7.42 7.42-7.42z"/><path class="shp5" d="M309.34 52.15s6.87 186.83-5.31 208.7h411.74s-17.49-143.71 0-208.7H309.34z"/><path class="shp6" d="M309.34 52.15s6.87 186.83-5.31 208.7h411.74s-17.49-143.71 0-208.7H309.34z"/><path class="shp4" d="M351.51 252.89H653.3v37.49H351.51v-37.49z"/><path class="shp7" d="M787.67 694.19H228.31c-4.19 0-8.34-.88-12.17-2.6a29.767 29.767 0 0 1-10.05-7.33c-2.8-3.13-4.91-6.81-6.19-10.81a29.989 29.989 0 0 1-1.23-12.38l11.44-103.09c.75-6.85 1.3-13.72 1.63-20.61l2.15-69.9a649.01 649.01 0 0 1 3.2-47.26c.85-8.15 1.85-16.28 3-24.39l14.71-102.48a54.067 54.067 0 0 1 18.1-33.04c4.87-4.2 10.44-7.51 16.47-9.76a54.02 54.02 0 0 1 18.83-3.4h22.34c2.81.01 5.62.25 8.39.7 2.77.46 5.51 1.14 8.17 2.04a52.662 52.662 0 0 1 14.85 7.83c23.14 17.27 88.88 29.73 166.38 29.73s143.25-12.46 166.44-29.77a52.662 52.662 0 0 1 14.85-7.83c2.66-.9 5.4-1.58 8.17-2.04 2.77-.45 5.58-.69 8.39-.7h36.19a32.317 32.317 0 0 1 20.8 7.57c2.89 2.43 5.33 5.34 7.22 8.61s3.19 6.84 3.84 10.56l19.75 112c2 11.39 3.7 22.82 5.09 34.3 2.32 19.09 3.78 38.26 4.37 57.51l2 64.95c.1 3.39.26 6.77.46 10.15.19 3.38.44 6.76.73 10.13.29 3.38.63 6.75 1.02 10.11.39 3.37.82 6.73 1.3 10.08l10.61 74.31c.66 4.57.33 9.23-.97 13.67-1.3 4.43-3.54 8.53-6.57 12.02a32.195 32.195 0 0 1-24.35 11.12z"/><path class="shp3" d="M261.51 434.88h494.3c11.04 0 19.96 8.92 19.96 19.96v189.71c0 11.04-8.92 19.96-19.96 19.96h-494.3c-11.04 0-19.96-8.92-19.96-19.96V454.84c0-11.04 8.92-19.96 19.96-19.96z"/><path class="shp2" d="M275.91 474.55c-8.47 0-15.31-5.73-15.31-12.81s6.84-12.81 15.31-12.81 15.31 5.73 15.31 12.81-6.84 12.81-15.31 12.81z"/><path class="shp3" d="M275.91 474.55c-8.47 0-15.31-5.73-15.31-12.81s6.84-12.81 15.31-12.81 15.31 5.73 15.31 12.81-6.84 12.81-15.31 12.81z"/><path class="shp2" d="M275.91 471.74c-8.47 0-15.31-5.73-15.31-12.81s6.84-12.81 15.31-12.81 15.31 5.73 15.31 12.81-6.84 12.81-15.31 12.81z"/><path class="shp4" d="M294.03 519.23c-8.47 0-15.31-5.73-15.31-12.81s6.84-12.81 15.31-12.81 15.31 5.73 15.31 12.81-6.84 12.81-15.31 12.81z"/><path class="shp3" d="M294.03 519.23c-8.47 0-15.31-5.73-15.31-12.81s6.84-12.81 15.31-12.81 15.31 5.73 15.31 12.81-6.84 12.81-15.31 12.81z"/><path class="shp4" d="M294.03 516.42c-8.47 0-15.31-5.73-15.31-12.81s6.84-12.81 15.31-12.81 15.31 5.73 15.31 12.81-6.84 12.81-15.31 12.81zM304.03 563.91c-8.47 0-15.31-5.73-15.31-12.81s6.84-12.81 15.31-12.81 15.31 5.73 15.31 12.81-6.84 12.81-15.31 12.81z"/><path class="shp3" d="M304.03 563.91c-8.47 0-15.31-5.73-15.31-12.81s6.84-12.81 15.31-12.81 15.31 5.73 15.31 12.81-6.84 12.81-15.31 12.81z"/><path class="shp4" d="M304.03 561.1c-8.47 0-15.31-5.73-15.31-12.81s6.84-12.81 15.31-12.81 15.31 5.73 15.31 12.81-6.84 12.81-15.31 12.81zM265.29 569.22c-8.47 0-15.31-5.73-15.31-12.81s6.84-12.81 15.31-12.81 15.31 5.73 15.31 12.81-6.84 12.81-15.31 12.81z"/><path class="shp3" d="M265.29 569.22c-8.47 0-15.31-5.73-15.31-12.81s6.84-12.81 15.31-12.81 15.31 5.73 15.31 12.81-6.84 12.81-15.31 12.81z"/><path class="shp4" d="M265.29 566.41c-8.47 0-15.31-5.73-15.31-12.81s6.84-12.81 15.31-12.81 15.31 5.73 15.31 12.81-6.84 12.81-15.31 12.81zM322.77 608.58c-8.47 0-15.31-5.73-15.31-12.81s6.84-12.81 15.31-12.81 15.31 5.73 15.31 12.81-6.84 12.81-15.31 12.81z"/><path class="shp3" d="M322.77 608.58c-8.47 0-15.31-5.73-15.31-12.81s6.84-12.81 15.31-12.81 15.31 5.73 15.31 12.81-6.84 12.81-15.31 12.81z"/><path class="shp4" d="M322.77 605.77c-8.47 0-15.31-5.73-15.31-12.81s6.84-12.81 15.31-12.81 15.31 5.73 15.31 12.81-6.84 12.81-15.31 12.81zM271.54 610.15c-8.47 0-15.31-5.73-15.31-12.81s6.84-12.81 15.31-12.81 15.31 5.73 15.31 12.81-6.84 12.81-15.31 12.81z"/><path class="shp3" d="M271.54 610.15c-8.47 0-15.31-5.73-15.31-12.81s6.84-12.81 15.31-12.81 15.31 5.73 15.31 12.81-6.84 12.81-15.31 12.81z"/><path class="shp4" d="M271.54 607.33c-8.47 0-15.31-5.73-15.31-12.81s6.84-12.81 15.31-12.81 15.31 5.73 15.31 12.81-6.84 12.81-15.31 12.81zM364.95 608.58c-8.47 0-15.31-5.73-15.31-12.81s6.84-12.81 15.31-12.81 15.31 5.73 15.31 12.81-6.84 12.81-15.31 12.81z"/><path class="shp3" d="M364.95 608.58c-8.47 0-15.31-5.73-15.31-12.81s6.84-12.81 15.31-12.81 15.31 5.73 15.31 12.81-6.84 12.81-15.31 12.81z"/><path class="shp4" d="M364.95 605.77c-8.47 0-15.31-5.73-15.31-12.81s6.84-12.81 15.31-12.81 15.31 5.73 15.31 12.81-6.84 12.81-15.31 12.81zM409.62 608.58c-8.47 0-15.31-5.73-15.31-12.81s6.84-12.81 15.31-12.81 15.31 5.73 15.31 12.81-6.84 12.81-15.31 12.81z"/><path class="shp3" d="M409.62 608.58c-8.47 0-15.31-5.73-15.31-12.81s6.84-12.81 15.31-12.81 15.31 5.73 15.31 12.81-6.84 12.81-15.31 12.81z"/><path class="shp4" d="M409.62 605.77c-8.47 0-15.31-5.73-15.31-12.81s6.84-12.81 15.31-12.81 15.31 5.73 15.31 12.81-6.84 12.81-15.31 12.81zM450.86 608.58c-8.47 0-15.31-5.73-15.31-12.81s6.84-12.81 15.31-12.81 15.31 5.73 15.31 12.81-6.84 12.81-15.31 12.81z"/><path class="shp3" d="M450.86 608.58c-8.47 0-15.31-5.73-15.31-12.81s6.84-12.81 15.31-12.81 15.31 5.73 15.31 12.81-6.84 12.81-15.31 12.81z"/><path class="shp4" d="M450.86 605.77c-8.47 0-15.31-5.73-15.31-12.81s6.84-12.81 15.31-12.81 15.31 5.73 15.31 12.81-6.84 12.81-15.31 12.81zM496.47 608.58c-8.47 0-15.31-5.73-15.31-12.81s6.84-12.81 15.31-12.81 15.31 5.73 15.31 12.81-6.84 12.81-15.31 12.81z"/><path class="shp3" d="M496.47 608.58c-8.47 0-15.31-5.73-15.31-12.81s6.84-12.81 15.31-12.81 15.31 5.73 15.31 12.81-6.84 12.81-15.31 12.81z"/><path class="shp4" d="M496.47 605.77c-8.47 0-15.31-5.73-15.31-12.81s6.84-12.81 15.31-12.81 15.31 5.73 15.31 12.81-6.84 12.81-15.31 12.81zM537.71 608.58c-8.47 0-15.31-5.73-15.31-12.81s6.84-12.81 15.31-12.81 15.31 5.73 15.31 12.81-6.84 12.81-15.31 12.81z"/><path class="shp3" d="M537.71 608.58c-8.47 0-15.31-5.73-15.31-12.81s6.84-12.81 15.31-12.81 15.31 5.73 15.31 12.81-6.84 12.81-15.31 12.81z"/><path class="shp4" d="M537.71 605.77c-8.47 0-15.31-5.73-15.31-12.81s6.84-12.81 15.31-12.81 15.31 5.73 15.31 12.81-6.84 12.81-15.31 12.81zM578.63 608.58c-8.47 0-15.31-5.73-15.31-12.81s6.84-12.81 15.31-12.81 15.31 5.73 15.31 12.81-6.84 12.81-15.31 12.81z"/><path class="shp3" d="M578.63 608.58c-8.47 0-15.31-5.73-15.31-12.81s6.84-12.81 15.31-12.81 15.31 5.73 15.31 12.81-6.84 12.81-15.31 12.81z"/><path class="shp4" d="M578.63 605.77c-8.47 0-15.31-5.73-15.31-12.81s6.84-12.81 15.31-12.81 15.31 5.73 15.31 12.81-6.84 12.81-15.31 12.81zM623 608.58c-8.47 0-15.31-5.73-15.31-12.81s6.84-12.81 15.31-12.81 15.31 5.73 15.31 12.81-6.84 12.81-15.31 12.81z"/><path class="shp3" d="M623 608.58c-8.47 0-15.31-5.73-15.31-12.81s6.84-12.81 15.31-12.81 15.31 5.73 15.31 12.81-6.84 12.81-15.31 12.81z"/><path class="shp4" d="M623 605.77c-8.47 0-15.31-5.73-15.31-12.81s6.84-12.81 15.31-12.81 15.31 5.73 15.31 12.81-6.84 12.81-15.31 12.81zM664.55 608.58c-8.47 0-15.31-5.73-15.31-12.81s6.84-12.81 15.31-12.81 15.31 5.73 15.31 12.81-6.84 12.81-15.31 12.81z"/><path class="shp3" d="M664.55 608.58c-8.47 0-15.31-5.73-15.31-12.81s6.84-12.81 15.31-12.81 15.31 5.73 15.31 12.81-6.84 12.81-15.31 12.81z"/><path class="shp4" d="M664.55 605.77c-8.47 0-15.31-5.73-15.31-12.81s6.84-12.81 15.31-12.81 15.31 5.73 15.31 12.81-6.84 12.81-15.31 12.81zM710.47 608.58c-8.47 0-15.31-5.73-15.31-12.81s6.84-12.81 15.31-12.81 15.31 5.73 15.31 12.81-6.84 12.81-15.31 12.81z"/><path class="shp3" d="M710.47 608.58c-8.47 0-15.31-5.73-15.31-12.81s6.84-12.81 15.31-12.81 15.31 5.73 15.31 12.81-6.84 12.81-15.31 12.81z"/><path class="shp4" d="M710.47 605.77c-8.47 0-15.31-5.73-15.31-12.81s6.84-12.81 15.31-12.81 15.31 5.73 15.31 12.81-6.84 12.81-15.31 12.81zM757.65 608.58c-8.47 0-15.31-5.73-15.31-12.81s6.84-12.81 15.31-12.81 15.31 5.73 15.31 12.81-6.84 12.81-15.31 12.81z"/><path class="shp3" d="M757.65 608.58c-8.47 0-15.31-5.73-15.31-12.81s6.84-12.81 15.31-12.81 15.31 5.73 15.31 12.81-6.84 12.81-15.31 12.81z"/><path class="shp4" d="M757.65 605.77c-8.47 0-15.31-5.73-15.31-12.81s6.84-12.81 15.31-12.81 15.31 5.73 15.31 12.81-6.84 12.81-15.31 12.81zM346.52 563.91c-8.47 0-15.31-5.73-15.31-12.81s6.84-12.81 15.31-12.81 15.31 5.73 15.31 12.81-6.84 12.81-15.31 12.81z"/><path class="shp3" d="M346.52 563.91c-8.47 0-15.31-5.73-15.31-12.81s6.84-12.81 15.31-12.81 15.31 5.73 15.31 12.81-6.84 12.81-15.31 12.81z"/><path class="shp4" d="M346.52 561.1c-8.47 0-15.31-5.73-15.31-12.81s6.84-12.81 15.31-12.81 15.31 5.73 15.31 12.81-6.84 12.81-15.31 12.81zM389 563.91c-8.47 0-15.31-5.73-15.31-12.81s6.84-12.81 15.31-12.81 15.31 5.73 15.31 12.81-6.84 12.81-15.31 12.81z"/><path class="shp3" d="M389 563.91c-8.47 0-15.31-5.73-15.31-12.81s6.84-12.81 15.31-12.81 15.31 5.73 15.31 12.81-6.84 12.81-15.31 12.81z"/><path class="shp4" d="M389 561.1c-8.47 0-15.31-5.73-15.31-12.81s6.84-12.81 15.31-12.81 15.31 5.73 15.31 12.81-6.84 12.81-15.31 12.81zM432.74 563.91c-8.47 0-15.31-5.73-15.31-12.81s6.84-12.81 15.31-12.81 15.31 5.73 15.31 12.81-6.84 12.81-15.31 12.81z"/><path class="shp3" d="M432.74 563.91c-8.47 0-15.31-5.73-15.31-12.81s6.84-12.81 15.31-12.81 15.31 5.73 15.31 12.81-6.84 12.81-15.31 12.81z"/><path class="shp4" d="M432.74 561.1c-8.47 0-15.31-5.73-15.31-12.81s6.84-12.81 15.31-12.81 15.31 5.73 15.31 12.81-6.84 12.81-15.31 12.81zM474.6 563.91c-8.47 0-15.31-5.73-15.31-12.81s6.84-12.81 15.31-12.81 15.31 5.73 15.31 12.81-6.84 12.81-15.31 12.81z"/><path class="shp3" d="M474.6 563.91c-8.47 0-15.31-5.73-15.31-12.81s6.84-12.81 15.31-12.81 15.31 5.73 15.31 12.81-6.84 12.81-15.31 12.81z"/><path class="shp4" d="M474.6 561.1c-8.47 0-15.31-5.73-15.31-12.81s6.84-12.81 15.31-12.81 15.31 5.73 15.31 12.81-6.84 12.81-15.31 12.81zM517.4 563.91c-8.47 0-15.31-5.73-15.31-12.81s6.84-12.81 15.31-12.81 15.31 5.73 15.31 12.81-6.84 12.81-15.31 12.81z"/><path class="shp3" d="M517.4 563.91c-8.47 0-15.31-5.73-15.31-12.81s6.84-12.81 15.31-12.81 15.31 5.73 15.31 12.81-6.84 12.81-15.31 12.81z"/><path class="shp4" d="M517.4 561.1c-8.47 0-15.31-5.73-15.31-12.81s6.84-12.81 15.31-12.81 15.31 5.73 15.31 12.81-6.84 12.81-15.31 12.81zM558.33 563.91c-8.47 0-15.31-5.73-15.31-12.81s6.84-12.81 15.31-12.81 15.31 5.73 15.31 12.81-6.84 12.81-15.31 12.81z"/><path class="shp3" d="M558.33 563.91c-8.47 0-15.31-5.73-15.31-12.81s6.84-12.81 15.31-12.81 15.31 5.73 15.31 12.81-6.84 12.81-15.31 12.81z"/><path class="shp4" d="M558.33 561.1c-8.47 0-15.31-5.73-15.31-12.81s6.84-12.81 15.31-12.81 15.31 5.73 15.31 12.81-6.84 12.81-15.31 12.81zM602.69 563.91c-8.47 0-15.31-5.73-15.31-12.81s6.84-12.81 15.31-12.81S618 544.02 618 551.1s-6.84 12.81-15.31 12.81z"/><path class="shp3" d="M602.69 563.91c-8.47 0-15.31-5.73-15.31-12.81s6.84-12.81 15.31-12.81S618 544.02 618 551.1s-6.84 12.81-15.31 12.81z"/><path class="shp4" d="M602.69 561.1c-8.47 0-15.31-5.73-15.31-12.81s6.84-12.81 15.31-12.81S618 541.21 618 548.29s-6.84 12.81-15.31 12.81zM644.87 563.91c-8.47 0-15.31-5.73-15.31-12.81s6.84-12.81 15.31-12.81 15.31 5.73 15.31 12.81-6.84 12.81-15.31 12.81z"/><path class="shp3" d="M644.87 563.91c-8.47 0-15.31-5.73-15.31-12.81s6.84-12.81 15.31-12.81 15.31 5.73 15.31 12.81-6.84 12.81-15.31 12.81z"/><path class="shp4" d="M644.87 561.1c-8.47 0-15.31-5.73-15.31-12.81s6.84-12.81 15.31-12.81 15.31 5.73 15.31 12.81-6.84 12.81-15.31 12.81zM687.98 563.91c-8.47 0-15.31-5.73-15.31-12.81s6.84-12.81 15.31-12.81 15.31 5.73 15.31 12.81-6.84 12.81-15.31 12.81z"/><path class="shp3" d="M687.98 563.91c-8.47 0-15.31-5.73-15.31-12.81s6.84-12.81 15.31-12.81 15.31 5.73 15.31 12.81-6.84 12.81-15.31 12.81z"/><path class="shp4" d="M687.98 561.1c-8.47 0-15.31-5.73-15.31-12.81s6.84-12.81 15.31-12.81 15.31 5.73 15.31 12.81-6.84 12.81-15.31 12.81zM731.09 563.91c-8.47 0-15.31-5.73-15.31-12.81s6.84-12.81 15.31-12.81 15.31 5.73 15.31 12.81-6.84 12.81-15.31 12.81z"/><path class="shp3" d="M731.09 563.91c-8.47 0-15.31-5.73-15.31-12.81s6.84-12.81 15.31-12.81 15.31 5.73 15.31 12.81-6.84 12.81-15.31 12.81z"/><path class="shp4" d="M731.09 561.1c-8.47 0-15.31-5.73-15.31-12.81s6.84-12.81 15.31-12.81 15.31 5.73 15.31 12.81-6.84 12.81-15.31 12.81zM337.14 519.23c-8.47 0-15.31-5.73-15.31-12.81s6.84-12.81 15.31-12.81 15.31 5.73 15.31 12.81-6.84 12.81-15.31 12.81z"/><path class="shp3" d="M337.14 519.23c-8.47 0-15.31-5.73-15.31-12.81s6.84-12.81 15.31-12.81 15.31 5.73 15.31 12.81-6.84 12.81-15.31 12.81z"/><path class="shp4" d="M337.14 516.42c-8.47 0-15.31-5.73-15.31-12.81s6.84-12.81 15.31-12.81 15.31 5.73 15.31 12.81-6.84 12.81-15.31 12.81zM380.26 519.23c-8.47 0-15.31-5.73-15.31-12.81s6.84-12.81 15.31-12.81 15.31 5.73 15.31 12.81-6.84 12.81-15.31 12.81z"/><path class="shp3" d="M380.26 519.23c-8.47 0-15.31-5.73-15.31-12.81s6.84-12.81 15.31-12.81 15.31 5.73 15.31 12.81-6.84 12.81-15.31 12.81z"/><path class="shp4" d="M380.26 516.42c-8.47 0-15.31-5.73-15.31-12.81s6.84-12.81 15.31-12.81 15.31 5.73 15.31 12.81-6.84 12.81-15.31 12.81zM421.81 519.23c-8.47 0-15.31-5.73-15.31-12.81s6.84-12.81 15.31-12.81 15.31 5.73 15.31 12.81-6.84 12.81-15.31 12.81z"/><path class="shp3" d="M421.81 519.23c-8.47 0-15.31-5.73-15.31-12.81s6.84-12.81 15.31-12.81 15.31 5.73 15.31 12.81-6.84 12.81-15.31 12.81z"/><path class="shp4" d="M421.81 516.42c-8.47 0-15.31-5.73-15.31-12.81s6.84-12.81 15.31-12.81 15.31 5.73 15.31 12.81-6.84 12.81-15.31 12.81zM463.36 519.23c-8.47 0-15.31-5.73-15.31-12.81s6.84-12.81 15.31-12.81 15.31 5.73 15.31 12.81-6.84 12.81-15.31 12.81z"/><path class="shp3" d="M463.36 519.23c-8.47 0-15.31-5.73-15.31-12.81s6.84-12.81 15.31-12.81 15.31 5.73 15.31 12.81-6.84 12.81-15.31 12.81z"/><path class="shp4" d="M463.36 516.42c-8.47 0-15.31-5.73-15.31-12.81s6.84-12.81 15.31-12.81 15.31 5.73 15.31 12.81-6.84 12.81-15.31 12.81zM505.22 519.23c-8.47 0-15.31-5.73-15.31-12.81s6.84-12.81 15.31-12.81 15.31 5.73 15.31 12.81-6.84 12.81-15.31 12.81z"/><path class="shp3" d="M505.22 519.23c-8.47 0-15.31-5.73-15.31-12.81s6.84-12.81 15.31-12.81 15.31 5.73 15.31 12.81-6.84 12.81-15.31 12.81z"/><path class="shp4" d="M505.22 516.42c-8.47 0-15.31-5.73-15.31-12.81s6.84-12.81 15.31-12.81 15.31 5.73 15.31 12.81-6.84 12.81-15.31 12.81zM546.46 519.23c-8.47 0-15.31-5.73-15.31-12.81s6.84-12.81 15.31-12.81 15.31 5.73 15.31 12.81-6.84 12.81-15.31 12.81z"/><path class="shp3" d="M546.46 519.23c-8.47 0-15.31-5.73-15.31-12.81s6.84-12.81 15.31-12.81 15.31 5.73 15.31 12.81-6.84 12.81-15.31 12.81z"/><path class="shp4" d="M546.46 516.42c-8.47 0-15.31-5.73-15.31-12.81s6.84-12.81 15.31-12.81 15.31 5.73 15.31 12.81-6.84 12.81-15.31 12.81zM590.19 519.23c-8.47 0-15.31-5.73-15.31-12.81s6.84-12.81 15.31-12.81 15.31 5.73 15.31 12.81-6.84 12.81-15.31 12.81z"/><path class="shp3" d="M590.19 519.23c-8.47 0-15.31-5.73-15.31-12.81s6.84-12.81 15.31-12.81 15.31 5.73 15.31 12.81-6.84 12.81-15.31 12.81z"/><path class="shp4" d="M590.19 516.42c-8.47 0-15.31-5.73-15.31-12.81s6.84-12.81 15.31-12.81 15.31 5.73 15.31 12.81-6.84 12.81-15.31 12.81zM631.43 519.23c-8.47 0-15.31-5.73-15.31-12.81s6.84-12.81 15.31-12.81 15.31 5.73 15.31 12.81-6.84 12.81-15.31 12.81z"/><path class="shp3" d="M631.43 519.23c-8.47 0-15.31-5.73-15.31-12.81s6.84-12.81 15.31-12.81 15.31 5.73 15.31 12.81-6.84 12.81-15.31 12.81z"/><path class="shp4" d="M631.43 516.42c-8.47 0-15.31-5.73-15.31-12.81s6.84-12.81 15.31-12.81 15.31 5.73 15.31 12.81-6.84 12.81-15.31 12.81zM675.48 519.23c-8.47 0-15.31-5.73-15.31-12.81s6.84-12.81 15.31-12.81 15.31 5.73 15.31 12.81-6.84 12.81-15.31 12.81z"/><path class="shp3" d="M675.48 519.23c-8.47 0-15.31-5.73-15.31-12.81s6.84-12.81 15.31-12.81 15.31 5.73 15.31 12.81-6.84 12.81-15.31 12.81z"/><path class="shp4" d="M675.48 516.42c-8.47 0-15.31-5.73-15.31-12.81s6.84-12.81 15.31-12.81 15.31 5.73 15.31 12.81-6.84 12.81-15.31 12.81zM718.59 519.23c-8.47 0-15.31-5.73-15.31-12.81s6.84-12.81 15.31-12.81 15.31 5.73 15.31 12.81-6.84 12.81-15.31 12.81z"/><path class="shp3" d="M718.59 519.23c-8.47 0-15.31-5.73-15.31-12.81s6.84-12.81 15.31-12.81 15.31 5.73 15.31 12.81-6.84 12.81-15.31 12.81z"/><path class="shp4" d="M718.59 516.42c-8.47 0-15.31-5.73-15.31-12.81s6.84-12.81 15.31-12.81 15.31 5.73 15.31 12.81-6.84 12.81-15.31 12.81zM315.9 474.55c-8.47 0-15.31-5.73-15.31-12.81s6.84-12.81 15.31-12.81 15.31 5.73 15.31 12.81-6.84 12.81-15.31 12.81z"/><path class="shp3" d="M315.9 474.55c-8.47 0-15.31-5.73-15.31-12.81s6.84-12.81 15.31-12.81 15.31 5.73 15.31 12.81-6.84 12.81-15.31 12.81z"/><path class="shp4" d="M315.9 471.74c-8.47 0-15.31-5.73-15.31-12.81s6.84-12.81 15.31-12.81 15.31 5.73 15.31 12.81-6.84 12.81-15.31 12.81zM358.39 474.55c-8.47 0-15.31-5.73-15.31-12.81s6.84-12.81 15.31-12.81 15.31 5.73 15.31 12.81-6.84 12.81-15.31 12.81z"/><path class="shp3" d="M358.39 474.55c-8.47 0-15.31-5.73-15.31-12.81s6.84-12.81 15.31-12.81 15.31 5.73 15.31 12.81-6.84 12.81-15.31 12.81z"/><path class="shp4" d="M358.39 471.74c-8.47 0-15.31-5.73-15.31-12.81s6.84-12.81 15.31-12.81 15.31 5.73 15.31 12.81-6.84 12.81-15.31 12.81zM399.31 474.55c-8.47 0-15.31-5.73-15.31-12.81s6.84-12.81 15.31-12.81 15.31 5.73 15.31 12.81-6.84 12.81-15.31 12.81z"/><path class="shp3" d="M399.31 474.55c-8.47 0-15.31-5.73-15.31-12.81s6.84-12.81 15.31-12.81 15.31 5.73 15.31 12.81-6.84 12.81-15.31 12.81z"/><path class="shp4" d="M399.31 471.74c-8.47 0-15.31-5.73-15.31-12.81s6.84-12.81 15.31-12.81 15.31 5.73 15.31 12.81-6.84 12.81-15.31 12.81zM441.49 474.55c-8.47 0-15.31-5.73-15.31-12.81s6.84-12.81 15.31-12.81 15.31 5.73 15.31 12.81-6.84 12.81-15.31 12.81z"/><path class="shp3" d="M441.49 474.55c-8.47 0-15.31-5.73-15.31-12.81s6.84-12.81 15.31-12.81 15.31 5.73 15.31 12.81-6.84 12.81-15.31 12.81z"/><path class="shp4" d="M441.49 471.74c-8.47 0-15.31-5.73-15.31-12.81s6.84-12.81 15.31-12.81 15.31 5.73 15.31 12.81-6.84 12.81-15.31 12.81zM483.04 474.55c-8.47 0-15.31-5.73-15.31-12.81s6.84-12.81 15.31-12.81 15.31 5.73 15.31 12.81-6.84 12.81-15.31 12.81z"/><path class="shp3" d="M483.04 474.55c-8.47 0-15.31-5.73-15.31-12.81s6.84-12.81 15.31-12.81 15.31 5.73 15.31 12.81-6.84 12.81-15.31 12.81z"/><path class="shp4" d="M483.04 471.74c-8.47 0-15.31-5.73-15.31-12.81s6.84-12.81 15.31-12.81 15.31 5.73 15.31 12.81-6.84 12.81-15.31 12.81zM525.53 474.55c-8.47 0-15.31-5.73-15.31-12.81s6.84-12.81 15.31-12.81 15.31 5.73 15.31 12.81-6.84 12.81-15.31 12.81z"/><path class="shp3" d="M525.53 474.55c-8.47 0-15.31-5.73-15.31-12.81s6.84-12.81 15.31-12.81 15.31 5.73 15.31 12.81-6.84 12.81-15.31 12.81z"/><path class="shp4" d="M525.53 471.74c-8.47 0-15.31-5.73-15.31-12.81s6.84-12.81 15.31-12.81 15.31 5.73 15.31 12.81-6.84 12.81-15.31 12.81zM567.08 474.55c-8.47 0-15.31-5.73-15.31-12.81s6.84-12.81 15.31-12.81 15.31 5.73 15.31 12.81-6.84 12.81-15.31 12.81z"/><path class="shp3" d="M567.08 474.55c-8.47 0-15.31-5.73-15.31-12.81s6.84-12.81 15.31-12.81 15.31 5.73 15.31 12.81-6.84 12.81-15.31 12.81z"/><path class="shp4" d="M567.08 471.74c-8.47 0-15.31-5.73-15.31-12.81s6.84-12.81 15.31-12.81 15.31 5.73 15.31 12.81-6.84 12.81-15.31 12.81zM609.25 474.55c-8.47 0-15.31-5.73-15.31-12.81s6.84-12.81 15.31-12.81 15.31 5.73 15.31 12.81-6.84 12.81-15.31 12.81z"/><path class="shp3" d="M609.25 474.55c-8.47 0-15.31-5.73-15.31-12.81s6.84-12.81 15.31-12.81 15.31 5.73 15.31 12.81-6.84 12.81-15.31 12.81z"/><path class="shp4" d="M609.25 471.74c-8.47 0-15.31-5.73-15.31-12.81s6.84-12.81 15.31-12.81 15.31 5.73 15.31 12.81-6.84 12.81-15.31 12.81zM652.68 474.55c-8.47 0-15.31-5.73-15.31-12.81s6.84-12.81 15.31-12.81 15.31 5.73 15.31 12.81-6.84 12.81-15.31 12.81z"/><path class="shp3" d="M652.68 474.55c-8.47 0-15.31-5.73-15.31-12.81s6.84-12.81 15.31-12.81 15.31 5.73 15.31 12.81-6.84 12.81-15.31 12.81z"/><path class="shp4" d="M652.68 471.74c-8.47 0-15.31-5.73-15.31-12.81s6.84-12.81 15.31-12.81 15.31 5.73 15.31 12.81-6.84 12.81-15.31 12.81zM695.16 474.55c-8.47 0-15.31-5.73-15.31-12.81s6.84-12.81 15.31-12.81 15.31 5.73 15.31 12.81-6.84 12.81-15.31 12.81z"/><path class="shp3" d="M695.16 474.55c-8.47 0-15.31-5.73-15.31-12.81s6.84-12.81 15.31-12.81 15.31 5.73 15.31 12.81-6.84 12.81-15.31 12.81z"/><path class="shp4" d="M695.16 471.74c-8.47 0-15.31-5.73-15.31-12.81s6.84-12.81 15.31-12.81 15.31 5.73 15.31 12.81-6.84 12.81-15.31 12.81z"/><path class="shp2" d="M736.71 474.55c-8.47 0-15.31-5.73-15.31-12.81s6.84-12.81 15.31-12.81 15.31 5.73 15.31 12.81-6.84 12.81-15.31 12.81z"/><path class="shp3" d="M736.71 474.55c-8.47 0-15.31-5.73-15.31-12.81s6.84-12.81 15.31-12.81 15.31 5.73 15.31 12.81-6.84 12.81-15.31 12.81z"/><path class="shp2" d="M736.71 471.74c-8.47 0-15.31-5.73-15.31-12.81s6.84-12.81 15.31-12.81 15.31 5.73 15.31 12.81-6.84 12.81-15.31 12.81z"/><path class="shp4" d="M284.98 625.77h449.54c5.02 0 9.07 4.05 9.07 9.07v6.54c0 5.02-4.05 9.07-9.07 9.07H284.98c-5.02 0-9.07-4.05-9.07-9.07v-6.54c0-5.02 4.05-9.07 9.07-9.07z"/><path class="shp3" d="M284.98 625.77h449.54c5.02 0 9.07 4.05 9.07 9.07v6.54c0 5.02-4.05 9.07-9.07 9.07H284.98c-5.02 0-9.07-4.05-9.07-9.07v-6.54c0-5.02 4.05-9.07 9.07-9.07z"/><path class="shp4" d="M284.98 623.89h449.54c5.02 0 9.07 4.05 9.07 9.07v6.54c0 5.02-4.05 9.07-9.07 9.07H284.98c-5.02 0-9.07-4.05-9.07-9.07v-6.54c0-5.02 4.05-9.07 9.07-9.07z"/><path class="shp3" d="M679.86 331.46c0 26.4-83.56 54.67-177.77 54.67s-164-30.46-164-56.86 69.81-38.74 164-38.74 177.77 14.53 177.77 40.93z"/><path class="shp7" d="M762.64 253.98c-5.7 0-10.31-11.38-10.31-25.46s4.61-25.46 10.31-25.46 10.31 11.38 10.31 25.46-4.61 25.46-10.31 25.46zM257.79 253.98c-5.7 0-10.31-11.38-10.31-25.46s4.61-25.46 10.31-25.46 10.31 11.38 10.31 25.46-4.61 25.46-10.31 25.46z"/><path class="shp3" d="M265.29 222.43h497.35v7.5H265.29v-7.5z"/><path class="shp7" d="M265.29 221.18h497.35v7.5H265.29v-7.5z"/><path class="shp7" d="M533.01 253.98h-22.8s7.49-24.68 11.56-23.43 11.24 23.43 11.24 23.43zm-11.56-20.31h.01-.01zm-.83.17c-.26.11-.51.27-.71.47s-.36.45-.47.71c-.11.27-.17.55-.17.84 0 .89.53 1.69 1.35 2.02.82.34 1.77.15 2.39-.48.63-.62.81-1.57.47-2.39a2.195 2.195 0 0 0-2.02-1.34c-.29 0-.57.06-.84.17zm1.15 6.89c-2.72-.66-7.66 12.31-7.66 12.31h15s-4.73-11.66-7.4-12.31h.06z" fill-rule="evenodd"/><path d="M799.07 420.17h-582c.85-8.15 1.85-16.28 3-24.39l14.71-102.48a54.067 54.067 0 0 1 18.1-33.04c4.87-4.2 10.44-7.51 16.47-9.76a54.02 54.02 0 0 1 18.83-3.4h22.34c2.81.01 5.62.25 8.39.7 2.77.46 5.51 1.14 8.17 2.04a52.662 52.662 0 0 1 14.85 7.83c23.14 17.27 88.88 29.73 166.38 29.73s143.27-12.42 166.46-29.73a52.662 52.662 0 0 1 14.85-7.83c2.66-.9 5.4-1.58 8.17-2.04 2.77-.45 5.58-.69 8.39-.7h36.19a32.317 32.317 0 0 1 20.8 7.57c2.89 2.43 5.33 5.34 7.22 8.61s3.19 6.84 3.84 10.56l19.75 112c2 11.43 3.7 22.87 5.09 34.33z" opacity=".031" fill="#fff"/><path class="shp9" d="M486.25 482.54l-4.4 1.57-1.6-2.66c-1.23-2-2.93-4.83-4.18-6.86-2.21-3.57.68-9 .68-9s.51-5.44 2.38-7.14 2.38 7.14 2.38 7.14c7.47 3.39 3.47 11.38 3.47 11.38l.72 3.17.55 2.4z"/><path class="shp3" d="M486.25 482.54l-4.4 1.57-1.6-2.66v-.23c.4-.25.83-.47 1.27-.65s.9-.31 1.36-.4c.47-.09.94-.14 1.42-.15.48 0 .95.04 1.42.12l.53 2.4z"/><path class="shp2" d="M479.13 500.42l2.21-1.87-1.11-16.82c.79-.53 1.68-.9 2.62-1.07.94-.18 1.9-.16 2.84.05.93.21 1.8.61 2.58 1.17.77.56 1.42 1.28 1.9 2.1-.02.4-.04.79-.05 1.19s-.02.79-.02 1.19.01.79.02 1.19.03.79.05 1.19c.17 1-1.19 2 0 3s0 4.42 0 4.42c.15.28.31.55.48.81.16.27.34.53.52.79.18.25.37.5.57.75.2.24.41.48.62.71.85.68 1.7 6.29 0 7.48s-4.93 3.91-4.93 5.1-4.07 4.07-4.07 4.07l-3.59-4.74-.64-10.71z"/><path class="shp9" d="M431.38 602.55c-8.24-3.49-6.41-12-4.86-16.32.08-.22.16-.43.25-.65.08-.21.17-.42.26-.64.09-.21.18-.42.28-.63s.2-.41.3-.62l4.62-2.81s.94 2.41 1.95 5.64c2.34 7.46 5.03 19.35-2.8 16.03zM442.7 680.42c-.14.27-.27.55-.39.83s-.24.56-.34.85-.2.58-.28.87c-.08.3-.16.59-.22.89-.1.48-.19.96-.26 1.45a23.27 23.27 0 0 0-.25 2.93c-.02.49-.02.98 0 1.47 0 .19.01.38.02.56 0 .19.01.38.03.57.01.18.02.37.04.56l.06.56-9.18 6.31s.05-.74.14-1.83c.24-2.89.73-8.25 1.2-8.94.11-.34.2-.69.29-1.03.08-.35.15-.7.21-1.06.05-.35.1-.7.13-1.06s.05-.71.06-1.07c.14-1.75.2-3.37.2-3.37s11.02-4.14 8.54.51zM464.36 684.98s0 1.75-.06 3.8c0 .47-.02.93-.04 1.4-.02.46-.04.93-.08 1.39-.04.47-.08.93-.14 1.39-.05.47-.11.93-.18 1.39-.06.39-.11.77-.14 1.16-.04.39-.07.78-.09 1.16-.01.39-.02.78-.02 1.17s.02.78.04 1.17c.06 2 .21 3.87.21 3.87s-9.37-8.85-8.42-9.55c.1-.15.19-.3.28-.46.08-.16.15-.33.22-.49.06-.17.11-.34.16-.52.04-.17.07-.35.09-.53.28-1.24.54-2.86.73-4.25.23-1.65.37-3 .37-3l7.07.9z"/><path class="shp3" d="M442.7 680.42c-.14.27-.27.55-.39.83s-.24.56-.34.85-.2.58-.28.87c-.08.3-.16.59-.22.89-.63-.02-1.26-.04-1.88-.07l-1.88-.12c-.63-.05-1.25-.11-1.88-.17-.62-.07-1.25-.14-1.87-.22.14-1.75.2-3.37.2-3.37s11.02-4.14 8.54.51zM464.36 684.98s0 1.75-.06 3.8c-2.92.74-5.92-.75-7.38-1.65.23-1.65.37-3 .37-3l7.07.85z"/><path class="shp2" d="M483.55 598.13c-.61 1.43-1.18 2.88-1.71 4.34s-1.01 2.94-1.45 4.43-.84 2.99-1.19 4.51c-.35 1.51-.66 3.04-.92 4.57l-1.36 8.15s.68 3.57 0 4.93-2 3.57-2 3.57 1 8.33 0 9.18 0 5.94 0 5.94l-3.4 17.17-4.75 22.06c-4.59 3.74-10.69-1-10.69-1l1.35-14.45s2-25.32 1.19-26.34.34-4.24.34-4.24 1.19-3.06.34-4.25.17-3.74.17-3.74-.34-10.37.68-12.75 0-17.1 0-17.1l-.43-4.58-.23-2.54v-.25l-.41 2.6c-.75 4.79-2.35 14.73-3 16.78-.11.37-.22.73-.35 1.09a20 20 0 0 1-.88 2.13c-.16.34-.34.68-.52 1.02s.89 5.1 0 6.46c-.12.22-.22.45-.29.69s-.11.49-.13.74c-.01.25.01.5.06.75.05.24.13.48.23.71s.85 4.25-1.7 6 0 2.55 0 2.55-1.87 4.08-2.55 5.78c-.09.33-.16.67-.21 1.01s-.07.68-.07 1.02c0 .35.02.69.07 1.03s.12.68.21 1.01l-1.36 13.77c-.16.8-.3 1.6-.43 2.4-.12.81-.22 1.61-.31 2.42-.08.81-.14 1.62-.19 2.43-.04.81-.07 1.63-.07 2.44.17 3.9-1.53 12.91-1.53 12.91s-13.08 0-15.1-1.53 3.38-16.48 3.38-16.48 1.53-26.17 1.19-26.85 0-5.78 1.19-6.8 0-3.06 0-3.06-.34-4.08 0-5.1c.04-.37.07-.74.08-1.1.02-.37.03-.74.02-1.11 0-.37-.02-.74-.05-1.11-.02-.37-.06-.73-.11-1.1s-1.13-8.32-1.3-13.08-1-15.47-1-15.47.88-6.61 1-9.77c.04-.35.09-.69.16-1.04.07-.34.16-.68.26-1.02.1-.33.22-.66.35-.99.13-.32.28-.64.44-.95.18-.38.37-.77.57-1.14.2-.38.4-.76.61-1.13s.43-.74.65-1.1c.23-.36.45-.72.69-1.08s40.28-11.89 42-10.7c.44.31 1.1 2.43 1.74 5.54 1.71 8.67 3.47 24.82.72 30.82z"/><path d="M483.55 598.13c-.61 1.43-1.18 2.88-1.71 4.34s-1.01 2.94-1.45 4.43-.84 2.99-1.19 4.51c-.35 1.51-.66 3.04-.92 4.57l-1.36 8.15s.68 3.57 0 4.93-2 3.57-2 3.57 1 8.33 0 9.18 0 5.94 0 5.94l-3.4 17.17-4.75 22.06c-4.59 3.74-10.69-1-10.69-1l1.35-14.45s2-25.32 1.19-26.34.34-4.24.34-4.24 1.19-3.06.34-4.25.17-3.74.17-3.74-.34-10.37.68-12.75 0-17.1 0-17.1l-.43-4.58-.23-2.54v-.25l-.41 2.6c-.75 4.79-2.35 14.73-3 16.78-.11.37-.22.73-.35 1.09a20 20 0 0 1-.88 2.13c-.16.34-.34.68-.52 1.02s.89 5.1 0 6.46c-.12.22-.22.45-.29.69s-.11.49-.13.74c-.01.25.01.5.06.75.05.24.13.48.23.71s.85 4.25-1.7 6 0 2.55 0 2.55-1.87 4.08-2.55 5.78c-.09.33-.16.67-.21 1.01s-.07.68-.07 1.02c0 .35.02.69.07 1.03s.12.68.21 1.01l-1.36 13.77c-.16.8-.3 1.6-.43 2.4-.12.81-.22 1.61-.31 2.42-.08.81-.14 1.62-.19 2.43-.04.81-.07 1.63-.07 2.44.17 3.9-1.53 12.91-1.53 12.91s-13.08 0-15.1-1.53 3.38-16.48 3.38-16.48 1.53-26.17 1.19-26.85 0-5.78 1.19-6.8 0-3.06 0-3.06-.34-4.08 0-5.1c.04-.37.07-.74.08-1.1.02-.37.03-.74.02-1.11 0-.37-.02-.74-.05-1.11-.02-.37-.06-.73-.11-1.1s-1.13-8.32-1.3-13.08-1-15.47-1-15.47.88-6.61 1-9.77c.04-.35.09-.69.16-1.04.07-.34.16-.68.26-1.02.1-.33.22-.66.35-.99.13-.32.28-.64.44-.95.18-.38.37-.77.57-1.14.2-.38.4-.76.61-1.13s.43-.74.65-1.1c.23-.36.45-.72.69-1.08s40.28-11.89 42-10.7c.44.31 1.1 2.43 1.74 5.54 1.71 8.67 3.47 24.82.72 30.82z" opacity=".149"/><path d="M458.74 494.28c-6.49 0-11.73-5.24-11.73-11.73s5.24-11.73 11.73-11.73 11.73 5.24 11.73 11.73-5.24 11.73-11.73 11.73z" fill="#a1616a"/><path class="shp3" d="M482.77 567.31c-1.35.69-2.25 1.17-2.25 1.17s-19 9-24.46 8.5c-4.19-.4-14.88-.18-19.53-.06.18-.38.37-.77.57-1.14.2-.38.4-.76.61-1.13s.43-.74.65-1.1c.23-.36.45-.72.69-1.08s40.28-11.89 42-10.7c.39.31 1.05 2.43 1.72 5.54z"/><path class="shp2" d="M450.58 501.27s-10.88 1.7-13.42 3.4-7.65 4.93-7.65 11.89c.01 1.36-.03 2.72-.1 4.07-.08 1.36-.19 2.71-.35 4.06-.15 1.35-.35 2.69-.59 4.03s-.51 2.67-.83 3.99c-.68 2 10.71 18.52 10.71 18.52l-4.08 25s16.33-.51 21.76 0 24.46-8.5 24.46-8.5 11.21-5.94 13.59-6.11-4.76-13.09-4.76-13.09-11-20.9-9.17-24.3c.34-.67.65-1.34.96-2.02.3-.68.59-1.37.86-2.07.27-.69.52-1.39.75-2.1.24-.71.46-1.42.66-2.14l-2-17.33c-.47-.14-.95-.23-1.44-.26s-.98-.01-1.46.06-.96.2-1.41.37c-.46.18-.89.41-1.3.68-2.55 1.87-11.22.85-11.22.85l-13.97 1z"/><path class="shp3" d="M432.14 531.52l-4.25 1.19-1.18 16s1.52 4.25 0 5.61-1.87 30.42-1.87 30.42c.78.52 1.62.93 2.51 1.24.88.3 1.8.49 2.73.57.93.07 1.87.03 2.79-.14.92-.16 1.82-.43 2.67-.82s-.85-3.23 1.7-15 2.53-17.61 2.53-17.61 0-14.61 1.19-17 0-8.33 0-8.33-2.38-3.23-2.21-4.42-6.61 8.29-6.61 8.29z"/><path class="shp3" d="M434.18 586.52c-.62.21-1.26.36-1.9.45-.65.1-1.3.13-1.96.11-.65-.03-1.3-.11-1.94-.25-.63-.15-1.26-.35-1.86-.6.08-.22.16-.43.25-.65.08-.21.17-.42.26-.64.09-.21.18-.42.28-.63s.2-.41.3-.62l4.62-2.81s.94 2.41 1.95 5.64z"/><path class="shp2" d="M431.89 531.52l-4.25 1.19-1.19 16s1.53 4.25 0 5.61-1.87 30.42-1.87 30.42c.78.52 1.62.93 2.51 1.24.88.3 1.8.49 2.74.57.93.07 1.87.03 2.79-.14.92-.16 1.82-.43 2.67-.82s-.85-3.23 1.7-15 2.54-17.61 2.54-17.61 0-14.61 1.19-17 0-8.33 0-8.33-2.37-3.23-2.2-4.42-6.63 8.29-6.63 8.29z"/><path class="shp3" d="M475.39 534.07s-2.21 19-8.67 22.6c.05 0 14.45-4.08 8.67-22.6zM442.93 535.77s8 3.91 6.12 6.62-6.12-6.62-6.12-6.62zM442.93 543.58s5.1 5.27 4.08 7.14-4.08-7.14-4.08-7.14zM484.06 499.91s2 3.4 2.18 5.61-2.18-5.61-2.18-5.61zM484.06 495.32s1-.85 3.56 0-3.56 0-3.56 0zM474.24 594.65c-1.05.15-2.1.23-3.16.24-1.05 0-2.11-.06-3.16-.2a21.78 21.78 0 0 1-3.1-.61c-1.02-.27-2.03-.61-3-1.02l-2.15 5.48-.23-2.54c.35-2.13 1-4.41 2.38-5 .9.63 1.85 1.18 2.84 1.65s2.02.87 3.08 1.18c1.05.31 2.13.53 3.21.67 1.09.14 2.19.19 3.29.15zM439.39 601.79s10.45 2.19 13.38 1.78l-13.38-1.78zM440.47 604.53s4.46-.19 6.69.7l-6.69-.7zM440.98 606.37a41.29 41.29 0 0 0 3.07.54c.52.07 1.04.13 1.55.18.52.04 1.04.08 1.56.11l-6.18-.83zM440.77 629.76c.2-.13 8.93-2.16 10-.7l-10 .7zM440.77 632.44s7.59-.89 7.78 0-7.78 0-7.78 0zM440.77 634.86s8.1-1.66 9-1.27-9 1.27-9 1.27zM441.11 691.98l-9.18 6.31s.05-.74.14-1.83c.27-.7.58-1.39.91-2.07.34-.67.7-1.33 1.09-1.98.4-.64.82-1.26 1.27-1.87.45-.6.93-1.19 1.43-1.75 2.07-.53 3.38 0 4.19.94 0 .19.01.38.02.56 0 .19.01.38.03.57.01.18.02.37.04.56l.06.56z"/><path class="shp4" d="M442 697.63c-.32.74-.6 1.49-.85 2.25-.24.77-.44 1.55-.6 2.33-.16.79-.28 1.59-.36 2.38-.07.8-.11 1.61-.1 2.41.01.66-.03 1.32-.11 1.97-.08.66-.2 1.31-.37 1.94-.17.64-.38 1.27-.64 1.87-.25.61-.55 1.2-.88 1.77l-.15.24c-.05.08-.1.16-.15.23l-.17.23c-.05.07-.11.15-.17.22s-6.38 0-8.61-1.9l-.18-.15c-.05-.06-.1-.11-.15-.17s-.1-.13-.14-.19-.08-.13-.12-.2c-1.28-2.55 2.48-12.3 2.48-12.3.26-1.06.58-2.11.96-3.13.39-1.03.83-2.03 1.34-3 .5-.97 1.07-1.91 1.69-2.81.61-.9 1.29-1.77 2.01-2.59 7.18-1.85 5.27 8.6 5.27 8.6z"/><path class="shp3" d="M438.14 714.55l-.15.24c-.05.08-.1.16-.15.23l-.17.23c-.05.07-.11.15-.17.22s-6.38 0-8.61-1.9c1.1-3.63 4.6-14.62 6.24-12.75s2.64 10.16 3.01 13.73z"/><path class="shp4" d="M437.26 701.5l-.44 16.48h2.14s.34-14.44 1.3-16.46-3-.02-3-.02z"/><path class="shp3" d="M463.86 702.85s-9.37-8.85-8.42-9.55c.1-.15.19-.3.28-.46.08-.16.15-.33.22-.49.06-.17.11-.34.16-.52.04-.17.07-.35.09-.53 1.8-.32 4.88.44 7.46 7.63.06 2.05.21 3.92.21 3.92z"/><path class="shp4" d="M465.26 712.73c-.02.01-.04.01-.06.02s-.03.01-.05.02-.04.01-.06.02c-.02 0-.04.01-.06.01-.62.04-1.24.06-1.86.08a57.533 57.533 0 0 1-3.71 0c-.62-.02-1.24-.04-1.86-.08a1.55 1.55 0 0 1-.6-.14c-.19-.08-.36-.2-.5-.35-.15-.14-.26-.32-.34-.51s-.12-.39-.12-.6v-2.16c-.11-2.51-.42-5.5-1.31-6.18-1.59-1.21-2.86-5.38 0-10.64 0 0 5.48-4.18 9.43 8.39 0 0 .38 3.59 2.1 4.87s-.24 6.87-1 7.25z"/><path class="shp3" d="M465.03 712.8c-.62.04-1.24.06-1.86.08a57.533 57.533 0 0 1-3.71 0c-.62-.02-1.24-.04-1.86-.08a1.55 1.55 0 0 1-.6-.14c-.19-.08-.36-.2-.5-.35-.15-.14-.26-.32-.34-.51s-.12-.39-.12-.6v-2.16c.69-3 1.68-6.18 3-6.89-.09-.01 3.78-.45 5.99 10.65z"/><path class="shp4" d="M455.38 701.77l1.02 13.7h1.31v-14.86l-2.33 1.16z"/><path class="shp3" d="M458.57 463.86c-.92.07-1.84.19-2.75.37-.9.17-1.8.4-2.68.69-.88.28-1.74.61-2.58 1-.84.38-1.66.82-2.45 1.3-.22.11-.42.23-.62.37-.19.14-.38.29-.55.46s-.32.36-.46.55c-.14.2-.26.4-.37.62-.05.2-.09.4-.12.6-.04.2-.06.41-.07.61-.02.21-.02.41-.02.62.01.2.03.41.05.61.11 7-7.73 12.35-7.48 19.37.1 2.79 1.5 5.38 1.75 8.16.43 4.63-2.31 8.9-4.94 12.74.67.04 1.34.02 2.01-.07.66-.08 1.32-.23 1.95-.44.64-.22 1.26-.49 1.84-.82.59-.32 1.14-.71 1.65-1.14.69 2.3 1.23 4.64 1.62 7.01.38 2.37.62 4.77.71 7.17.08 2.4.01 4.8-.21 7.19s-.6 4.77-1.12 7.11h3.76c.09-.01.19-.01.28 0 .09 0 .18.01.28.02.09.01.18.02.27.05.09.02.18.04.27.07.08.04.16.08.24.13.08.04.16.09.23.15.07.05.14.11.21.17.07.07.13.13.19.2 3.51 3.49 5.87 8.66 4.52 13.44l8-3a22.324 22.324 0 0 0 2.85-1.14c.46-.22.92-.45 1.36-.7.45-.25.89-.51 1.32-.79s.83-.6 1.19-.96c.37-.36.7-.75.99-1.17s.54-.87.75-1.34c.21-.46.37-.95.48-1.45.21-1.22.15-2.69 1.15-3.4.12-.07.25-.13.38-.18.13-.06.26-.11.39-.16s.27-.09.4-.13c.14-.04.27-.08.41-.11 2.2-.78 3.17-3.32 3.61-5.6.14-.7.25-1.4.34-2.11s.16-1.42.2-2.13c.04-.72.06-1.43.06-2.14-.01-.72-.04-1.43-.09-2.14-.35-4.77-1.76-9.62-.6-14.27.66-2.61 2.12-5 2.24-7.75.19-4.45-3.29-8.29-3.81-12.72-.36-3.08.75-6.2.39-9.29-.1-.79-.3-1.57-.58-2.32-.29-.74-.66-1.45-1.12-2.11-.45-.66-.99-1.26-1.59-1.79a9.53 9.53 0 0 0-1.96-1.36c-1-.51-2.06-.85-3-1.4-2.22-1.29-3.63-3.61-5.64-5.2s-5.37-2.19-6.88-.12l3.35-1.33z"/><path d="M458.57 463.35c-.92.07-1.84.19-2.75.37-.9.17-1.8.4-2.68.69-.88.28-1.74.61-2.58 1-.84.38-1.66.82-2.45 1.3-.22.11-.42.23-.62.37-.19.14-.38.29-.55.46s-.32.36-.46.55c-.14.2-.26.4-.37.62-.05.2-.09.4-.12.6-.04.2-.06.41-.07.61-.02.21-.02.41-.02.62.01.2.03.41.05.61.11 7-7.73 12.35-7.48 19.37.1 2.79 1.5 5.39 1.75 8.16.43 4.64-2.31 8.9-4.94 12.74.67.05 1.35.03 2.01-.06a10.184 10.184 0 0 0 3.82-1.24c.59-.32 1.14-.71 1.66-1.14.69 2.3 1.23 4.64 1.62 7.01.38 2.37.62 4.77.71 7.17.08 2.4.01 4.8-.21 7.19s-.6 4.77-1.12 7.11h3.76c.09-.01.19-.01.28 0 .09 0 .18.01.28.02.09.01.18.02.27.05.09.02.18.04.27.07.08.04.16.08.24.13.08.04.16.09.23.15.07.05.14.11.21.17.07.07.13.13.19.2 3.51 3.49 5.87 8.66 4.52 13.44l8-3a22.324 22.324 0 0 0 2.85-1.14c.46-.22.92-.45 1.36-.7.45-.25.89-.51 1.32-.79s.83-.6 1.19-.96c.37-.36.7-.75.99-1.17s.54-.87.75-1.34c.21-.46.37-.95.48-1.45.21-1.22.15-2.69 1.15-3.4.12-.07.25-.13.38-.18.13-.06.26-.11.39-.16s.27-.09.4-.13c.14-.04.27-.08.41-.11 2.2-.78 3.17-3.32 3.61-5.6.14-.7.25-1.4.34-2.11s.16-1.42.2-2.13c.04-.72.06-1.43.06-2.14-.01-.72-.04-1.43-.09-2.14-.35-4.77-1.76-9.62-.6-14.27.66-2.61 2.12-5.05 2.24-7.75.19-4.45-3.29-8.29-3.81-12.72-.36-3.08.75-6.2.39-9.29-.1-.79-.3-1.57-.58-2.32-.29-.74-.66-1.45-1.12-2.11-.45-.66-.99-1.26-1.59-1.79a9.53 9.53 0 0 0-1.96-1.36c-1-.51-2.06-.85-3-1.4-2.22-1.29-3.63-3.61-5.64-5.2s-5.37-2.19-6.88-.12l3.31-1.36z" fill="#a26565"/><g opacity=".102"><path class="shp13" d="M445.97 469.44v.47c-.01-.15 0-.31 0-.47zM475.65 485.78c.08-.54.15-1.08.2-1.61.06-.54.11-1.09.15-1.63s.06-1.08.08-1.62.02-1.09.02-1.63c-.08.54-.15 1.08-.2 1.61-.06.54-.11 1.09-.15 1.63s-.06 1.08-.08 1.62-.02 1.09-.02 1.63zM440.25 496.53c-.23-2.53-1.41-4.91-1.69-7.42-.01.12-.03.23-.03.35l-.03.34v.35c-.01.12 0 .23 0 .35.1 2.76 1.47 5.33 1.74 8.08.02-.17.03-.34.04-.51s.02-.34.02-.51c0-.18-.01-.35-.01-.52-.01-.17-.02-.34-.04-.51zM477.25 506.58c-.1.41-.18.83-.25 1.25-.06.42-.11.85-.15 1.27-.03.42-.05.85-.06 1.27 0 .43.01.86.04 1.28.01-.25.03-.49.05-.74l.09-.74c.04-.25.08-.49.12-.73.05-.25.1-.49.16-.73.66-2.61 2.12-5.05 2.24-7.75 0-.12.01-.24 0-.36 0-.12 0-.24-.01-.36 0-.12-.01-.24-.02-.36s-.02-.24-.04-.36c-.3 2.46-1.57 4.67-2.17 7.06zM442.77 506.81c-.42.35-.87.67-1.34.96-.47.28-.96.53-1.47.74s-1.03.38-1.56.5c-.54.13-1.08.22-1.63.26-.47.72-1 1.44-1.43 2.13.67.04 1.34.02 2-.06s1.31-.23 1.95-.44c.63-.2 1.25-.47 1.83-.79s1.14-.7 1.65-1.13c.37 1.24.7 2.49.98 3.74a55.077 55.077 0 0 1 1.19 7.65c.11 1.29.18 2.58.2 3.87.03-1.47.01-2.94-.08-4.41-.08-1.47-.22-2.94-.42-4.4s-.45-2.91-.76-4.35c-.32-1.43-.69-2.86-1.11-4.27zM477.35 529.37c-.45 2.29-1.42 4.83-3.62 5.6-.14.03-.27.07-.41.11-.13.04-.27.08-.4.13s-.26.1-.39.16-.26.12-.38.19c-1 .71-.94 2.18-1.15 3.39-.11.5-.27.99-.48 1.45-.21.47-.46.92-.75 1.34s-.62.81-.99 1.17c-.36.36-.76.68-1.19.96s-.87.54-1.32.79c-.44.25-.9.48-1.36.7a22.275 22.275 0 0 1-2.85 1.14l-7.63 2.86c-.01.19-.02.38-.05.57-.02.2-.04.39-.07.58-.03.18-.07.37-.11.56s-.09.37-.14.56l8-3a22.324 22.324 0 0 0 2.85-1.14c.46-.22.92-.45 1.36-.7.45-.25.89-.51 1.32-.79s.83-.6 1.19-.96c.37-.36.7-.75.99-1.17s.54-.87.75-1.34c.21-.46.37-.95.48-1.45.21-1.22.15-2.69 1.15-3.4.12-.07.25-.13.38-.18.13-.06.26-.11.39-.16s.27-.09.4-.13c.14-.04.27-.08.41-.11 2.2-.78 3.17-3.32 3.62-5.6.11-.59.21-1.19.29-1.79.09-.6.15-1.2.2-1.8.05-.61.08-1.21.09-1.82.01-.6.01-1.21-.01-1.81-.01.43-.04.85-.07 1.28s-.07.85-.12 1.28c-.05.42-.1.84-.16 1.27-.07.42-.14.84-.22 1.26zM449.54 536.06c-.06-.07-.12-.13-.19-.19-.07-.07-.14-.12-.21-.18-.08-.05-.15-.1-.23-.15s-.16-.09-.24-.13c-.09-.03-.18-.05-.27-.07-.09-.03-.18-.04-.27-.05-.1-.01-.19-.02-.28-.02a1.31 1.31 0 0 0-.28 0h-3.33c-.13.71-.27 1.42-.43 2.12h3.76c.09-.01.19-.01.28 0 .09 0 .18.01.28.02.09.01.18.02.27.05.09.02.18.04.27.07.08.04.16.08.24.13.08.04.16.09.23.15.07.05.14.11.21.17.07.07.13.13.19.2.66.63 1.26 1.31 1.81 2.04.54.73 1.02 1.51 1.43 2.32s.76 1.66 1.03 2.53.46 1.76.58 2.66c.43-4.24-1.76-8.6-4.85-11.67z"/></g><path class="shp3" d="M430.89 549.98s3-1.28 3.72 0-3.72 0-3.72 0zM431.94 552.14s3-1.28 3.72 0-3.72 0-3.72 0z"/><path class="shp14" d="M216.59 58.77l.27 2.1 9.13 1.29s.75-.56 1.92-1.32c2.17-1.41 5.79-3.53 8.89-4.13 4.77-.94 20-7.77 15.08-8.22s-4.39.57-4.39.57-5.4-5.3-11-.45c-4.23 3.68-13.54 7.63-17.77 9.32l-2.13.84z"/><path class="shp15" d="M253.04 34.56c.35-.14.7-.28 1.06-.4s.72-.22 1.09-.32c.36-.09.73-.17 1.1-.24.37-.06.74-.12 1.12-.16s.75-.04 1.13.01c.38.04.75.12 1.1.24.36.12.71.27 1.03.47.33.19.63.41.91.67.59.61 1 1.39 1.54 2 2.78 3 8.18.75 11.53 3.07 2.06 1.42 2.7 4.12 3.43 6.52s2.06 5.05 4.52 5.56c.3.03.6.05.89.05.3.01.6.01.9 0s.6-.03.89-.07c.3-.03.6-.07.89-.12s.59-.05.89-.03c.29.03.58.1.86.2.28.11.55.24.79.41.25.17.47.37.66.6 1.14 1.72-.43 4.62 1.22 5.85 1.47 1.09 4.15-.44 5.18 1.09.1.2.16.42.2.64.03.22.04.44 0 .66-.03.22-.09.44-.18.64-.1.21-.22.39-.37.56-.15.16-.3.33-.45.5s-.29.34-.43.52c-.14.17-.28.35-.41.53s-.26.36-.39.55a3.18 3.18 0 0 0-.36 1.66c.03.57.22 1.13.54 1.61s.76.86 1.29 1.1c.52.25 1.1.35 1.67.29 1-.1 2.15-.7 3.06-.18.14.1.26.21.37.34.11.12.21.26.29.41s.14.3.19.46c.04.17.06.33.07.5.04.57-.04 1.15-.22 1.69s-.46 1.05-.83 1.49-.82.8-1.32 1.07c-.51.27-1.06.44-1.63.5-1.77.11-3.4-.85-5-1.66s-3.44-1.5-5.09-.83c-.19.09-.37.19-.55.3s-.36.22-.53.35c-.17.12-.34.24-.5.38-.16.13-.32.27-.47.42a22.391 22.391 0 0 1-2.99 2.12c-.53.31-1.07.6-1.62.87s-1.11.52-1.68.74c-2 .78-4.35 1.26-6.28.28-2.17-1.11-3.29-3.82-5.59-4.64s-4.93.71-7.13 2-5.15 2.4-7.14.79-1.48-5.2-2.79-7.62c-.13-.23-.27-.44-.43-.65-.15-.22-.32-.42-.49-.61-.18-.19-.36-.38-.56-.55-.19-.17-.4-.34-.61-.49-1.47-1.14-3.14-2-4.61-3.1-.38-.26-.75-.55-1.08-.87s-.63-.68-.9-1.05c-.27-.38-.51-.78-.7-1.2-.2-.42-.36-.85-.48-1.3-.43-2.19.62-4.39 1.8-6.28s2.57-3.75 3-5.94c.28-1.64 0-3.35.37-5 .13-.49.33-.95.58-1.39.24-.44.55-.85.89-1.21.35-.37.74-.69 1.17-.96.42-.27.88-.48 1.36-.64 1.08-.37 1.28-.28 1.82-1.23.12-.24.27-.46.44-.67s.35-.39.56-.56.43-.32.67-.44c.23-.13.48-.23.74-.3z"/><g opacity=".102"><path class="shp13" d="M289.63 53.7c.06.24.1.48.14.72.04.25.06.49.07.74.02.24.02.49.01.73 0 .25-.02.5-.05.74-.06-.24-.11-.48-.15-.72-.03-.25-.06-.49-.07-.74-.02-.24-.02-.49-.01-.73.01-.25.03-.5.06-.74zM293.77 64.75c-.04.08-.08.17-.12.26-.03.08-.06.17-.09.26-.02.09-.05.18-.07.27-.01.09-.03.19-.04.28-.09-.22-.15-.44-.19-.67a3.255 3.255 0 0 1 .05-1.39c.06-.22.14-.44.25-.65.13-.19.26-.37.39-.55s.27-.36.41-.53c.14-.18.28-.35.43-.52s.3-.34.45-.5c.05-.07.1-.15.15-.22.05-.08.09-.16.13-.23.04-.08.08-.17.12-.25.03-.08.06-.16.09-.25l.02.02c0 .01.01.02.02.02 0 .01.01.02.01.03.01 0 .01.01.02.02.1.2.17.41.21.64.03.22.03.44 0 .66-.03.23-.09.44-.19.64-.09.21-.22.39-.37.56-.15.16-.3.33-.45.5-.14.17-.29.34-.43.52-.14.17-.28.35-.41.53s-.26.37-.39.55zM242.61 62.17c1.47 1.12 3.14 2 4.61 3.1.21.15.41.32.61.49.19.17.38.36.55.55.18.19.35.4.5.61s.3.42.43.65c1.31 2.42.65 5.89 2.79 7.62s4.95.53 7.14-.79 4.72-2.87 7.13-2 3.42 3.53 5.59 4.64c1.93 1 4.27.5 6.28-.28.57-.22 1.13-.47 1.68-.74s1.09-.56 1.62-.87a22.391 22.391 0 0 0 2.99-2.12c.15-.15.31-.29.47-.42.16-.14.33-.26.5-.38.17-.13.35-.24.53-.35s.36-.21.55-.3c1.65-.67 3.51 0 5.09.83s3.22 1.77 5 1.66a4.512 4.512 0 0 0 2.7-1.3 4.512 4.512 0 0 0 1.3-2.7c.03.07.05.14.07.21.03.07.05.14.07.21.01.07.03.15.04.22l.03.22a4.458 4.458 0 0 1-2.37 4.25c-.51.27-1.06.44-1.63.5-1.78.11-3.41-.85-5-1.66s-3.45-1.5-5.1-.83c-.18.09-.36.2-.54.31-.18.1-.35.22-.51.34-.17.12-.33.25-.49.38-.16.14-.31.28-.46.42a22.391 22.391 0 0 1-2.99 2.12c-.53.31-1.07.6-1.62.87s-1.11.52-1.68.74c-2 .78-4.36 1.26-6.28.28-2.18-1.11-3.29-3.82-5.6-4.64s-4.93.71-7.12 2-5.15 2.39-7.14.79c-2.15-1.73-1.49-5.2-2.8-7.62-.13-.23-.27-.45-.43-.66a7.113 7.113 0 0 0-1.05-1.15c-.19-.18-.4-.34-.61-.49-1.46-1.14-3.13-2-4.61-3.1-.38-.26-.75-.55-1.08-.87s-.63-.67-.9-1.05-.5-.78-.7-1.2c-.19-.42-.35-.85-.47-1.3-.02-.1-.04-.19-.05-.29s-.03-.19-.03-.29c-.01-.1-.02-.2-.02-.3v-.29c.14.4.31.79.51 1.16s.43.73.68 1.07c.26.34.54.65.84.95.31.29.63.56.98.8z"/></g><path d="M246.52 112.32l-3.31.71s3.27 5.37 8.3 1.85-4.99-2.56-4.99-2.56z" fill="#4c4981"/><path class="shp3" d="M246.52 112.32l-3.31.71s3.27 5.37 8.3 1.85-4.99-2.56-4.99-2.56z"/><path class="shp14" d="M318.42 162.31s4.59 2.37 8.87 5.12c3.07 2 6 4.12 6.93 5.74 2.28 3.87 13.35 8.05 13.35 8.05l11 8.37c2.59.86 5.11 4 6.14 5.41.32.43.49.7.49.7l4.41-.57 2.32-3s.59-6.65-4-6.57c-.22-.01-.45-.03-.67-.06-.22-.04-.44-.08-.65-.14-.22-.05-.43-.12-.64-.2-.21-.07-.42-.16-.62-.26-4.92-2.18-11.81-9-11.81-9s-11.71-14.63-15.21-15.11c-.09-.01-.19-.03-.28-.05l-.28-.06c-.09-.03-.18-.05-.27-.08l-.27-.09c-3.56-1.25-8.66-5.84-8.66-5.84l-10.15 7.64zM273.02 204.58c1.16 7 6.49 20.44 8.2 23.24 2.12 3.47 3.24 10.41 3.24 10.41l.62 4.82c.03.17.06.34.11.5.04.17.09.33.15.5.06.16.12.32.19.47.08.16.15.31.24.46.05.09.09.17.14.26.05.08.1.16.15.25.05.08.1.16.16.25.05.08.1.16.16.24l8.82-2.71s-.51-2-1.28-4.36-1.93-5.25-3-6.33c-2.15-2.12-2.48-9.58-2.48-9.58s-1.79-14.36-2.34-16.16c-.13-.43-.25-.87-.36-1.3-.11-.44-.2-.88-.29-1.32-.08-.45-.15-.89-.21-1.34-.06-.44-.11-.89-.14-1.34-.08-1-.14-2.06-.15-3.31-.05-.9-.11-1.79-.19-2.68-.08-.9-.18-1.79-.29-2.68-.12-.89-.25-1.77-.4-2.66-.16-.88-.32-1.76-.51-2.64l-10.29 1.87-.27 11.49c-.07.3-.12.6-.16.91-.03.3-.05.61-.05.92 0 .3.02.61.06.91.04.31.1.61.17.91z"/><path class="shp3" d="M364.7 194.98c.32.43.49.7.49.7l4.41-.57 2.32-3s.59-6.65-4-6.57c-.22-.01-.45-.03-.67-.06-.22-.04-.44-.08-.65-.14-.22-.05-.43-.12-.64-.2-.21-.07-.42-.16-.62-.26-.37 2 1.86 3.64 1.86 3.64s.92.67.7 3.8c-.13 2.13-2.02 2.58-3.2 2.66z"/><path class="shp17" d="M364.22 195.41c.29 1.07 3.07 2.65 5 3.63.95.49 1.69.83 1.84.9.45.22 2.78-2.38 3.1-4.47s5.89-8.62 5.89-8.62c.29-.64.56-1.3.79-1.96.24-.67.44-1.34.62-2.03a24.526 24.526 0 0 0 .66-4.17c.21-2.85-1-3.07-2.37-2.43-.25.13-.49.28-.73.43s-.47.32-.69.49c-.22.18-.43.36-.64.55-.21.2-.4.4-.59.61-.24.22-.49.43-.75.62-.27.19-.55.36-.84.5-.28.15-.58.28-.89.39s-.62.2-.94.26c-.44.11-.87.23-1.29.38-.43.14-.85.3-1.27.48-.41.17-.81.37-1.21.57-.4.21-.79.44-1.17.68-1.35.87-2.66 1.93-2.9 2.87-.51 2.05 1.83 3.79 1.83 3.79s.92.68.71 3.8-4.19 2.63-4.16 2.73z"/><path class="shp3" d="M369.22 199.04c.95.49 1.69.83 1.84.9.45.22 2.78-2.38 3.1-4.47s5.89-8.62 5.89-8.62c.29-.64.56-1.3.79-1.96.24-.67.44-1.34.62-2.03a24.526 24.526 0 0 0 .66-4.17c.21-2.85-1-3.07-2.37-2.43-.23 2.26-.8 6.65-2 8.94-1.34 2.72-6.98 11.47-8.53 13.84zM285.86 244.76c-.01.01-.01.03-.02.04 0 .02-.01.03-.02.05 0 .01-.01.02-.02.04 0 .01-.01.03-.02.04.05.09.09.17.14.26.05.08.1.16.15.25.05.08.1.16.16.25.05.08.1.16.16.24l8.82-2.71s-.51-2-1.28-4.36c-3.49-1-8.49 5.13-8.49 5.13l.42.77z"/><path class="shp17" d="M285.3 251.33s7.35 2.58 10.67 2.18c2.51-.3 2.62-1.47 2.45-3.87-.06-.76-.14-1.65-.18-2.68-.17-4.25-1.88-5.1-1.88-5.1-2.8-7.35-10.87 2.51-10.87 2.51l.43.8c-.15.31-.27.63-.38.96-.11.32-.2.65-.27.99s-.12.68-.15 1.02-.04.69-.03 1.03c0 .18 0 .36.01.54s.03.36.04.55c.02.18.04.36.07.53.02.18.06.36.09.54z"/><path class="shp3" d="M285.3 251.33s7.35 2.58 10.67 2.18c2.51-.3 2.62-1.47 2.45-3.87-.41.34-.86.64-1.33.89-.48.25-.97.46-1.49.6-.51.15-1.04.25-1.58.29-.53.04-1.07.02-1.6-.05-.64-.08-1.27-.19-1.89-.32-.63-.14-1.25-.29-1.86-.48a22.924 22.924 0 0 1-3.58-1.39c0 .18.01.36.01.54.01.18.03.36.04.54.02.18.04.36.07.54l.09.53z"/><path class="shp14" d="M248.77 72.84l2.86 12.59.58 2.59 5.33.67 5.48.7 6-2.17s1.67-5.67.29-9.93c-.11-.38-.25-.74-.42-1.09-.18-.35-.38-.68-.62-.99-.23-.31-.5-.6-.79-.86-.28-.26-.6-.5-.93-.7-.11-.06-.21-.13-.31-.2s-.2-.14-.29-.21c-.1-.08-.19-.16-.29-.24-.09-.08-.17-.16-.26-.25-.1-.1-.2-.2-.29-.31-.1-.1-.19-.22-.27-.33-.08-.12-.16-.23-.24-.36-.07-.12-.14-.24-.2-.37-.07-.16-.14-.32-.2-.48s-.11-.33-.15-.5a4.88 4.88 0 0 1-.17-1.02c-.3-3.39 1.85-7.1 1.85-7.1s-12.66-4.32-11.67-1.53c.64 1.81-1.14 5-2.47 6.94-.72 1.08-1.31 1.82-1.31 1.82l-1.51 3.33z"/><path class="shp3" d="M260.22 68.01c-6.08 0-10.99-4.91-10.99-10.99s4.91-10.99 10.99-10.99 10.99 4.91 10.99 10.99-4.91 10.99-10.99 10.99z"/><path class="shp14" d="M260.16 67.6c-6.08 0-10.99-4.91-10.99-10.99s4.91-10.99 10.99-10.99 10.99 4.91 10.99 10.99-4.91 10.99-10.99 10.99z"/><path class="shp17" d="M249.59 114.62c.52 2.42 2.91 6.23 2.91 6.23l15.34 3.77 11-11.44v-.07c-.34-1.07-4.53-14.6-1.5-17.94s2-13.24 2-13.24-5.48-6.31-6.58-7.83-8.22-2.72-8.22-2.72c.35.48.68.94 1 1.37.19.29.37.58.54.88s.33.6.47.91c.15.32.29.63.41.95s.23.65.33.98a5.713 5.713 0 0 1 .3 2.01c-.01.35-.06.68-.13 1.02-.08.33-.18.66-.32.97-.04.08-.08.16-.11.24-.04.08-.07.17-.1.25s-.06.17-.09.25c-.02.09-.05.17-.07.26-1.2 5.25-6.66 4.52-8.84 4-.56-.14-.9-.26-.9-.26l-5.23.17-3.28.11s1.49 25.86 1.14 27.92c-.03.1-.05.2-.06.3-.02.1-.03.2-.04.3v.31l.03.3z"/><path class="shp18" d="M248.45 86.83l9.52-1.25h-.18c-.08-.02-.15-.04-.23-.05l-.22-.06c-.08-.02-.15-.05-.23-.07-.07-.02-.15-.05-.22-.07l-5.23.17-3.28.11s.03.42.07 1.22zM259.12 122.51l4.13 1.01 6.49-.85 1.7-1.77-12.32 1.61zM265.98 124.19l1.87.46.77-.8-2.64.34z"/><path class="shp3" d="M249.59 114.62c2.45.25 4.71.37 4.71.37l12.64-.47v-13.21c-.38-.35-.76-.68-1.17-.99-.4-.32-.81-.61-1.24-.9-.43-.28-.86-.54-1.31-.79-.45-.24-.9-.47-1.37-.68-2.2-.76-4.8-3.09-4.31-9.26 0-.35.06-.72.11-1.1.02-.17.04-.34.05-.52.02-.17.03-.34.04-.51.01-.18.02-.35.02-.52v-.52c0-.76-.07-1.52-.22-2.26-.15-.75-.38-1.48-.68-2.17-.3-.7-.67-1.37-1.11-1.99s-.94-1.2-1.49-1.72l-.19-.16-2.06-9.58c-.03 0-.07 0-.1.01-.04 0-.07 0-.11.01-.03 0-.06 0-.1.01-.03.01-.07.01-.1.02-.72 1.08-1.31 1.82-1.31 1.82l-1.52 3.33 2.86 12.59-3.28.11s1.49 25.86 1.14 27.92c-.01.1-.02.19-.02.29s0 .2.01.29c.01.1.02.2.04.3.02.09.04.19.07.28z"/><path class="shp19" d="M253.89 115.04l12.64-.47v-13.2c-.37-.35-.76-.68-1.16-1s-.81-.62-1.23-.9c-.42-.29-.86-.55-1.31-.8-.44-.25-.9-.48-1.36-.69-2.33-.81-5.1-3.37-4.2-10.37.16-.92.2-1.86.13-2.79s-.26-1.85-.55-2.74c-.3-.88-.7-1.73-1.2-2.52s-1.09-1.51-1.77-2.16l-.19-.16-2.06-9.58c-.32.03-.64.09-.95.19s-.6.23-.89.39c-.28.16-.54.35-.78.57-.24.21-.45.46-.64.72l-.18.27c-.06.1-.12.19-.18.27-.06.09-.13.18-.2.27-.06.08-.13.17-.2.25a1.997 1.997 0 0 1-1.13.86c-.23.07-.47.1-.71.08s-.48-.08-.7-.18c-1.33-.59-7.06-3-8.35-.64s-1.53 16.52-1.53 16.52c.47.39.91.81 1.31 1.27.39.46.75.95 1.07 1.47s.59 1.07.81 1.64c.23.56.4 1.14.53 1.74.88 4 2.35 4.14 2.35 4.14l1.58 11.6s1.44 2.52.37 3.91"/><path class="shp19" d="M247.61 70.62l2.15 6.45 4.12.36-.19-.16-2.06-9.58c-.32.03-.64.09-.95.19s-.6.23-.89.39c-.28.16-.54.35-.78.57-.24.21-.45.46-.64.72l-.18.27c-.06.1-.12.19-.18.27-.06.09-.13.18-.2.27-.06.08-.13.17-.2.25z"/><path class="shp3" d="M216.59 58.77l.27 2.1 9.13 1.29s.75-.56 1.92-1.32c-1-.22-5.5-1.21-7.88-2-.87-.27-1.46-.5-1.48-.66s.06-.18.2-.3l-2.16.89z"/><path class="shp19" d="M205.88 72.39s10.34 7.85 16.75 9.12c0 0 9 2.67 12.56 5.75l3.89-14.89-2.31-1.63s-2.83 1.75-5.27 1.17-5.12-.92-5.12-.92c-.53-.2-1.07-.38-1.61-.55-.54-.18-1.08-.34-1.63-.49s-1.1-.29-1.65-.41c-.56-.13-1.11-.25-1.67-.35-1.74-.14-1-2.4.7-3.6.06-.04.12-.08.18-.11.06-.04.12-.07.18-.11.06-.03.12-.07.18-.1s.13-.06.19-.09a2.242 2.242 0 0 0 2.16.93c.27-.04.53-.13.77-.27a7.068 7.068 0 0 0 .92-.71c.14-.14.28-.27.41-.42.13-.14.25-.29.37-.45.18-.23.36-.46.53-.7.17-.23.33-.47.49-.71.16-.25.32-.49.47-.74s.29-.5.43-.76-5.39-1.15-8.08-2c-.87-.27-1.46-.5-1.48-.65-.08-.62 4.81-2.57 4.81-2.57s-4.19-2-5.89-.56c0 0 1.09.83.21 1.64s-11.62 9.05-11.62 9.05-5.33 2.61.13 6.13z"/><path class="shp3" d="M214.77 64.77l5.72.82c.06-.04.12-.08.18-.11.06-.04.12-.07.18-.11.06-.03.12-.07.18-.1s.13-.06.19-.09a2.242 2.242 0 0 0 2.16.93c.27-.04.53-.13.77-.27a7.068 7.068 0 0 0 .92-.71c.14-.14.28-.27.41-.42.13-.14.25-.29.37-.45.14-.19.29-.39.42-.59.14-.2.28-.4.41-.6.13-.21.25-.41.38-.62l.36-.63c.12-.21-5.4-1.16-8.08-2l-4.57 4.95z"/><path class="shp19" d="M215.1 64.31l6.1.87a2.242 2.242 0 0 0 2.16.93c.27-.04.53-.13.77-.27 1.75-1 3.62-4.5 3.62-4.5s-5.39-1.15-8.08-2l-4.57 4.97z"/><path class="shp3" d="M328.57 154.63l-10.15 7.68s4.59 2.37 8.87 5.12c3.74-2.53 7.27-4.86 9.94-7-3.56-1.21-8.66-5.8-8.66-5.8zM273.02 204.58c.63-.08 1.27-.18 1.89-.29.63-.11 1.26-.25 1.88-.39.62-.15 1.24-.32 1.85-.5s1.22-.38 1.82-.6 1.87-.41 4.65-1.34c-.08-1-.14-2.06-.15-3.31-.05-.9-.11-1.79-.19-2.68-.08-.9-.18-1.79-.29-2.68-.12-.89-.25-1.77-.4-2.66-.16-.88-.32-1.76-.51-2.64l-10.29 1.87-.27 11.49c-.08.3-.13.61-.17.93-.04.31-.06.62-.05.94 0 .31.02.62.06.93.03.32.09.63.17.93z"/><path class="shp17" d="M254.69 157.91c2.08 3.07 7.73 16.07 7.73 16.07.32.58.65 1.15.98 1.72a58.291 58.291 0 0 0 2.16 3.31c.37.54.76 1.07 1.16 1.6 2.25 2.84 3.81 9.2 5.52 14.29s-.51 4.13-.26 6.81 9.9-.77 9.9-.77 19.76-4.35 25.79-16.4 30.14-23 35-29.79-1.39-4-1.14-7.66-2.55-6.76-2.55-6.76-9.09-2.56-10.57-4.35-8.74-6.26-8.74-6.26-6.84-3-7.71-4-9-4.24-11.47-4.86-4.92-4.15-4.92-4.15-1.54.2-3.81-2-11.78-4.09-11.78-4.09c-16.27 11.92-27.5 10.22-27.5 10.22l-.26 2.26c-8.63 11.25.41 31.75 2.47 34.81z"/><path class="shp3" d="M252.24 123.11s14 4.63 27.76-12.48c-16.27 11.92-27.5 10.22-27.5 10.22l-.26 2.26zM276.42 131.11s18.87 27.23 20 28.23-19.01-28.57-20-28.23zM267.7 128.98s13.07 20.29 12.8 23c0 .06-12.65-19.44-12.8-23zM260.09 134.59s2.41 11.35-1.22 17.77l1.22-17.77zM255.07 135.25s-.16 9.81-1.26 11.83l1.26-11.83zM287.07 126.49l17.35 6.8-6.35.83-11-7.63zM252.91 50.51c.87.57 1.59 1.5 2.62 1.63.19.01.37 0 .55-.02.19-.02.37-.05.55-.1.18-.04.36-.1.53-.17s.34-.15.5-.24c1.73-.75 3.69-1.33 5.48-.74 2.55.85 3.95 3.78 6.49 4.65.31.11.63.18.96.21.33.04.66.04.99 0 .32-.04.65-.11.96-.21.31-.11.61-.25.89-.42.25-.15.48-.33.69-.53.22-.2.41-.41.58-.65.17-.23.32-.48.44-.75.12-.26.22-.54.29-.82.08-.49.1-.99.05-1.49-.04-.5-.16-.99-.33-1.45-.18-.47-.41-.91-.7-1.32s-.63-.77-1.02-1.09c-.39-.31-.8-.6-1.22-.86-.43-.26-.87-.5-1.32-.71-.45-.2-.92-.38-1.4-.53-.47-.15-.96-.26-1.45-.35-5.1-1.13-10.4-.75-15.61-.36-.11 0-.21 0-.32.02-.1.01-.21.03-.31.05-.11.03-.21.07-.3.11-.1.04-.2.09-.29.14-.79.59-2.14 3.56-1.86 4.56.42 1.34 3.42.32 3.56 1.44z"/><path class="shp15" d="M252.85 50.1c.87.57 1.59 1.5 2.63 1.63.19.01.37 0 .55-.02.19-.02.37-.05.55-.1.18-.04.36-.1.53-.17s.34-.15.5-.24c1.73-.75 3.69-1.33 5.47-.74 2.55.85 3.95 3.78 6.5 4.65.31.11.63.18.96.21.33.04.66.04.99 0 .32-.04.65-.11.96-.21.31-.11.61-.25.89-.42.25-.15.48-.33.69-.53.22-.19.41-.41.58-.65.17-.23.32-.48.44-.75a4 4 0 0 0 .29-.82c.08-.49.1-.99.05-1.49-.04-.5-.16-.99-.33-1.45-.17-.47-.41-.91-.7-1.32s-.63-.77-1.02-1.09c-.39-.31-.8-.6-1.22-.86-.43-.27-.87-.5-1.32-.71-.46-.2-.93-.38-1.4-.53-.48-.15-.97-.26-1.46-.35-5.1-1.13-10.4-.75-15.6-.36-.11 0-.21 0-.32.02-.1.01-.21.03-.31.05-.11.03-.21.07-.3.11-.1.04-.2.09-.29.14-.79.59-2.15 3.56-1.86 4.56.38 1.32 3.41.32 3.55 1.44z"/><path class="shp14" d="M320.05 58.19l1.66 6.71 2.16-1.3 11.7-7.07s8.86-.32 9.55-7.45-9.85-.07-10.41.48-1.84 1.49-1.84 1.49l-10.9 6.07-1.92 1.07z"/><path class="shp3" d="M320.05 58.19l1.66 6.71 2.16-1.3c-.48-3-1.22-5.83-1.9-6.48l-1.92 1.07zM262.28 102.07l2.38 14 14.12-3c-.34-1.07-4.53-14.6-1.5-17.94s2-13.24 2-13.24-5.48-6.31-6.58-7.83-8.22-2.72-8.22-2.72c-.07-.16-.14-.32-.2-.48s-.11-.33-.15-.5a4.88 4.88 0 0 1-.17-1.02c-.06.12-.11.24-.16.36-.06.12-.1.25-.15.37-.04.13-.09.25-.12.38-.04.12-.08.25-.11.38 0 2.56 1 4.31 3.77 5.6l.76.33c.43.17.9.33 1.4.49l.23.07c4.55 1.35 5.53 4.07 5.53 4.07.39.52.74 1.07 1.03 1.65.29.59.53 1.2.7 1.82.18.63.3 1.27.35 1.92.06.65.06 1.3-.01 1.95-.51 4.38-14.9 13.34-14.9 13.34z"/><path class="shp19" d="M263.1 101.98l2.38 14 15.89-3.32s-.48-5.29-1.59-7.44-.89-10.51-.89-10.51c6.76-7.28 3.21-13.21 3.21-13.21s19.86-3.21 20.2-3.81 7-4.18 7-4.18 7.2-1.84 8.17-2.87c.09-.1.18-.19.28-.29.09-.09.19-.18.29-.27s.2-.18.3-.26c.1-.09.2-.17.31-.25.03-.02.06-.05.09-.07.04-.02.07-.04.1-.06s.07-.04.1-.06.07-.04.1-.06l.53 4.59h.2c.29-.03.57-.08.86-.15.28-.07.56-.16.83-.26.27-.11.53-.23.78-.38.25-.14.5-.3.73-.47 1.64-1.26-.43-15-2-15.51-.08-.02-.15-.03-.23-.04s-.15-.02-.23-.02-.15.01-.23.02-.15.02-.23.04c-.31.1-.62.21-.92.33a10.39 10.39 0 0 0-2.51 1.52l-.27.22-.1.08s-9 3.53-10.79 5.15-15.78 3.69-15.78 3.69-6.27 1.48-7.08.58-10.38-2.36-11.18-1-3 1.16-3 1.16c-1.58-1.81-2.67-1.11-3.34-.07-.1.15-.18.31-.27.47-.08.17-.16.33-.23.5s-.13.34-.19.51-.11.34-.15.52c0 2.79 1.22 4.61 4.53 5.93.49.2 1 .38 1.63.56 4.55 1.35 5.53 4.07 5.53 4.07.39.52.74 1.07 1.03 1.66.29.58.53 1.19.7 1.82.18.63.3 1.27.35 1.92.06.65.06 1.3-.01 1.95-.51 4.27-14.9 13.27-14.9 13.27z"/><path class="shp3" d="M320.03 57.1c.04-.01.08-.01.13-.02h.25c.05.01.09.01.13.02 1.59.49 3.66 14.25 2 15.51-.2.15-.42.3-.64.43s-.45.24-.68.34c-.24.11-.48.19-.72.27-.25.07-.5.13-.75.17h-.24l-.53-4.59c-.03.02-.07.04-.1.06s-.07.04-.1.06-.06.04-.1.06c-.03.02-.06.05-.09.07v-.19a12.032 12.032 0 0 0 .04-5.35c-.2-.88-.49-1.74-.88-2.55-.39-.82-.86-1.58-1.42-2.29l3.7-2z"/><path class="shp19" d="M319 69.3l.53 4.59c.31-.02.62-.06.92-.13.3-.06.6-.15.89-.26s.58-.24.85-.39c.27-.14.53-.31.78-.5 1.64-1.26-.43-15-2-15.51-1.26-.39-3.47 1.18-4.35 1.85.58.71 1.08 1.48 1.49 2.31.4.82.71 1.69.92 2.59.2.89.3 1.81.3 2.72-.01.92-.12 1.84-.33 2.73zM268.77 76.69l2.28-2.15-6-5.79c-.1.15-.18.31-.27.47-.08.17-.16.33-.23.5s-.13.34-.19.51-.11.34-.15.52c0 2.8 1.21 4.62 4.56 5.94z"/><path class="shp3" d="M252.77 49.28c.87.57 1.59 1.5 2.62 1.63.19.01.37 0 .55-.02.19-.02.37-.05.55-.1.18-.04.36-.1.53-.17s.34-.15.5-.24c1.73-.75 3.69-1.33 5.48-.74 2.55.85 4 3.78 6.49 4.65.31.11.63.18.96.21.33.04.66.04.99 0 .32-.04.65-.11.96-.21.31-.11.61-.25.89-.42.25-.15.48-.33.69-.53.22-.2.41-.41.58-.65.17-.23.32-.48.44-.75.12-.26.22-.54.29-.82l.06-.3c.01-.1.03-.2.04-.31.01-.1.01-.2.01-.3.01-.11 0-.21 0-.31.04.16.06.33.08.5a4.07 4.07 0 0 1 0 1c-.02.17-.04.34-.08.5a4.532 4.532 0 0 1-1.2 2.14c-.3.29-.63.53-1 .73-.36.2-.75.34-1.16.43-.2.04-.4.07-.61.09-.2.02-.41.02-.61.01-.21-.01-.41-.04-.61-.07a3.77 3.77 0 0 1-.6-.16c-2.55-.87-3.95-3.8-6.49-4.65-1.79-.59-3.75 0-5.48.74-.16.09-.33.17-.5.24s-.35.13-.53.17c-.18.05-.36.08-.55.1-.18.02-.36.03-.55.02-1-.13-1.76-1.06-2.63-1.63-.14-1.12-3.16-.1-3.54-1.44-.01-.05-.02-.1-.02-.15-.01-.05-.01-.1-.01-.15 0-.06 0-.11.01-.16 0-.05.01-.1.02-.15.57 1.06 3.27.22 3.43 1.27zM262.14 80.89s-1.27 3.56.34 4.75c0 0-1.76-4.7-2.79-4.6"/><path class="shp14" d="M340.77 46.28s-8.17 7.06-2.27 8.19 2.27-8.19 2.27-8.19z"/><path class="shp5" d="M308.93 52.16l1.57 41.35 45.48-41.35h-47.05z"/><path class="shp6" d="M308.93 52.16l1.57 41.35 45.48-41.35h-47.05z"/><path class="shp2" d="M847.47 698.63c-18.69 0-33.8-2.91-33.8-6.5s15.11-6.5 33.8-6.5 33.8 2.91 33.8 6.5-15.11 6.5-33.8 6.5z"/><path class="shp1" d="M846.9 694.52c-2.18 0-3.94-2.3-3.94-5.15s1.76-5.15 3.94-5.15 3.94 2.3 3.94 5.15-1.76 5.15-3.94 5.15z"/><path class="shp1" d="M846.9 688.22c-2.18 0-3.94-2.3-3.94-5.15s1.76-5.15 3.94-5.15 3.94 2.3 3.94 5.15-1.76 5.15-3.94 5.15z"/><path class="shp1" d="M846.9 681.92c-2.18 0-3.94-2.3-3.94-5.15s1.76-5.15 3.94-5.15 3.94 2.3 3.94 5.15-1.76 5.15-3.94 5.15z"/><path class="shp1" d="M846.9 675.63c-2.18 0-3.94-2.3-3.94-5.15s1.76-5.15 3.94-5.15 3.94 2.3 3.94 5.15-1.76 5.15-3.94 5.15z"/><path class="shp1" d="M846.9 669.33c-2.18 0-3.94-2.3-3.94-5.15s1.76-5.15 3.94-5.15 3.94 2.3 3.94 5.15-1.76 5.15-3.94 5.15z"/><path class="shp1" d="M846.9 663.03c-2.18 0-3.94-2.3-3.94-5.15s1.76-5.15 3.94-5.15 3.94 2.3 3.94 5.15-1.76 5.15-3.94 5.15z"/><path class="shp1" d="M846.9 656.74c-2.18 0-3.94-2.3-3.94-5.15s1.76-5.15 3.94-5.15 3.94 2.3 3.94 5.15-1.76 5.15-3.94 5.15z"/><path class="shp2" d="M861.64 608.5c.13-.17.26-.35.39-.52.13-.18.25-.36.37-.54.13-.18.24-.36.36-.54.12-.19.23-.37.34-.56l-10.33-1.7 11.18.08c.54-1.16.95-2.38 1.24-3.63.29-1.24.45-2.52.48-3.8.04-1.28-.06-2.56-.29-3.82s-.59-2.49-1.07-3.68l-15 7.78 13.84-10.17a18.846 18.846 0 0 0-12.1-8.88c-5.09-1.15-10.43-.15-14.75 2.78a18.842 18.842 0 0 0-4.29 27.2c-.21.27-.41.54-.6.81-.2.28-.38.56-.56.85s-.36.58-.52.87c-.16.3-.32.6-.47.9l13.43 7-14.32-4.81c-.5 1.48-.82 3.01-.94 4.57-.13 1.56-.06 3.12.2 4.66s.71 3.05 1.34 4.47c.63 1.43 1.44 2.78 2.4 4.01a18.84 18.84 0 0 0-2.13 19.89c3.15 6.49 9.73 10.61 16.95 10.61s13.8-4.12 16.95-10.61a18.84 18.84 0 0 0-2.13-19.89 18.68 18.68 0 0 0 2.99-5.49 18.75 18.75 0 0 0 1.04-6.16c0-2.1-.35-4.19-1.04-6.17a18.68 18.68 0 0 0-2.99-5.49l.03-.02z"/><path class="shp3" d="M827.97 620.15c0 1.05.08 2.09.25 3.13.17 1.03.43 2.05.77 3.04a18.784 18.784 0 0 0 2.98 5.49 18.84 18.84 0 0 0-2.13 19.89c3.15 6.49 9.73 10.61 16.95 10.61s13.8-4.12 16.95-10.61a18.84 18.84 0 0 0-2.13-19.89c2.55-3.21-33.64-13.78-33.64-11.66z"/></svg>