<svg xmlns="http://www.w3.org/2000/svg" viewBox="0 0 1135 710" width="720" height="450"><style>tspan { white-space:pre }.shp0 { fill: #f2f2f2 } .shp1 { fill: #3f3d56 } .shp2 { fill: #70add8 } .shp3 { fill: #2f2e41 } .shp4 { fill: #575a89 } .shp5 { opacity: 0.102;fill: #000000 } .shp6 { fill: #fbbebe } .shp7 { fill: #f1f1f1 } </style><path class="shp0" d="M1118.26 286.73C1076.63 123.04 932.8 4.88 763.97 0.14C674.72 -2.36 580.79 27.24 512.41 130.83C390.17 316 519.92 443.97 610.38 504.77C621.29 512.12 631.94 519.84 642.31 527.93C652.68 536.02 662.77 544.47 672.55 553.26C682.34 562.06 691.81 571.19 700.95 580.64C710.1 590.09 718.91 599.86 727.38 609.93C788.48 682.43 906.03 772.53 1046.02 631.36C1147.49 529.04 1145.99 395.76 1118.26 286.73Z" /><path class="shp1" d="M156.24 410.83C155.12 409.16 154.02 407.46 152.96 405.76L154.66 404.7C155.7 406.39 156.79 408.07 157.9 409.71L156.24 410.83Z" /><path class="shp1" d="M146.93 395.04C145.08 391.4 143.35 387.64 141.81 383.86L143.66 383.1C145.18 386.83 146.88 390.54 148.71 394.13L146.93 395.04ZM137.63 372.3C136.4 368.4 135.32 364.41 134.42 360.43L136.37 359.98C137.26 363.91 138.33 367.85 139.54 371.69L137.63 372.3ZM132.21 348.33C131.64 344.29 131.24 340.18 131 336.1L133 335.98C133.23 340.01 133.63 344.07 134.19 348.05L132.21 348.33ZM132.79 323.85L130.79 323.8C130.89 319.72 131.16 315.59 131.58 311.54L133.57 311.75C133.15 315.74 132.89 319.82 132.79 323.85L132.79 323.85ZM135.34 299.75L133.38 299.38C134.14 295.37 135.08 291.34 136.17 287.41L138.09 287.94C137.02 291.82 136.09 295.79 135.34 299.75L135.34 299.75ZM141.82 276.4L139.94 275.7C141.36 271.87 142.95 268.05 144.68 264.35L146.49 265.2C144.78 268.85 143.21 272.62 141.82 276.4L141.82 276.4ZM415.72 270.22C414.16 266.51 412.42 262.82 410.55 259.24L412.32 258.32C414.22 261.94 415.98 265.68 417.56 269.44L415.72 270.22ZM152.07 254.42L150.33 253.43C152.36 249.89 154.56 246.38 156.87 243.01L158.52 244.14C156.24 247.47 154.07 250.93 152.07 254.42ZM404.49 248.74C402.34 245.34 400.01 241.98 397.59 238.76L399.18 237.56C401.64 240.82 404 244.22 406.18 247.67L404.49 248.74ZM165.79 234.43L164.24 233.17C166.82 230 169.57 226.91 172.4 223.96L173.84 225.35C171.05 228.25 168.34 231.31 165.79 234.43ZM389.89 229.39C387.21 226.38 384.37 223.45 381.45 220.68L382.83 219.23C385.78 222.04 388.66 225.01 391.38 228.06L389.89 229.39ZM182.6 216.96L181.27 215.46C184.33 212.76 187.54 210.15 190.81 207.71L192.01 209.31C188.78 211.72 185.61 214.29 182.6 216.96ZM372.32 212.68C369.19 210.15 365.9 207.73 362.57 205.46L363.7 203.81C367.07 206.1 370.4 208.56 373.58 211.13L372.32 212.68ZM202.02 202.46L200.96 200.76C204.42 198.6 208.01 196.55 211.64 194.68L212.55 196.46C208.98 198.3 205.43 200.32 202.02 202.46ZM352.26 199.07C348.75 197.09 345.11 195.23 341.46 193.55L342.29 191.73C346 193.43 349.68 195.32 353.24 197.33L352.26 199.07ZM223.55 191.35L222.78 189.5C226.55 187.94 230.43 186.51 234.31 185.26L234.92 187.17C231.09 188.4 227.26 189.81 223.55 191.35ZM330.24 188.94C326.45 187.56 322.56 186.33 318.67 185.27L319.19 183.35C323.14 184.42 327.08 185.66 330.92 187.06L330.24 188.94ZM246.61 183.94L246.16 181.99C250.13 181.07 254.2 180.31 258.24 179.72L258.53 181.7C254.54 182.28 250.53 183.03 246.61 183.94L246.61 183.94ZM306.84 182.58C302.89 181.86 298.85 181.28 294.83 180.88L295.03 178.89C299.1 179.3 303.19 179.88 307.2 180.62L306.84 182.58ZM270.59 180.44L270.47 178.44C274.53 178.19 278.68 178.09 282.76 178.17L282.72 180.17C278.7 180.09 274.61 180.19 270.59 180.44L270.59 180.44Z" /><path class="shp1" d="M421.75 287.42C421.21 285.52 420.63 283.6 420.02 281.72L421.92 281.1C422.54 283.01 423.13 284.95 423.67 286.88L421.75 287.42Z" /><path class="shp1" d="M409.55 175.42L407.55 175.42C407.55 173.42 407.59 171.39 407.66 169.39L409.65 169.46C409.59 171.44 409.55 173.44 409.55 175.42Z" /><path class="shp1" d="M410.5 157.43L408.51 157.22C408.94 153.19 409.52 149.13 410.24 145.15L412.2 145.5C411.5 149.44 410.93 153.45 410.5 157.43ZM414.76 133.73L412.82 133.24C413.82 129.31 414.98 125.37 416.26 121.54L418.16 122.17C416.89 125.96 415.75 129.85 414.76 133.73L414.76 133.73ZM733.72 112.63C732.23 108.92 730.58 105.21 728.82 101.62L730.62 100.74C732.4 104.38 734.06 108.13 735.58 111.88L733.72 112.63ZM422.39 110.88L420.54 110.11C422.09 106.37 423.81 102.64 425.63 99.02L427.42 99.92C425.61 103.5 423.92 107.18 422.39 110.88L422.39 110.88ZM723.14 91C721.13 87.54 718.97 84.11 716.71 80.81L718.36 79.68C720.65 83.03 722.83 86.49 724.87 89.99L723.14 91ZM433.22 89.35L431.5 88.33C433.58 84.85 435.81 81.41 438.13 78.08L439.77 79.23C437.47 82.51 435.27 85.92 433.22 89.35L433.22 89.35ZM709.57 71.1C707.08 67.96 704.45 64.87 701.76 61.93L703.23 60.57C705.96 63.56 708.62 66.68 711.14 69.86L709.57 71.1ZM447.02 69.6L445.47 68.34C448.02 65.19 450.71 62.1 453.48 59.15L454.94 60.52C452.21 63.43 449.54 66.49 447.02 69.6ZM693.31 53.33C690.4 50.58 687.36 47.9 684.27 45.36L685.54 43.81C688.66 46.38 691.74 49.09 694.68 51.88L693.31 53.33ZM463.48 52.02L462.13 50.55C465.09 47.8 468.2 45.12 471.36 42.59L472.61 44.15C469.49 46.66 466.42 49.3 463.48 52.02L463.48 52.02ZM674.68 38.05C671.42 35.74 668.02 33.52 664.6 31.45L665.64 29.74C669.1 31.83 672.53 34.08 675.84 36.42L674.68 38.05ZM482.27 36.96L481.14 35.31C484.47 33.01 487.92 30.81 491.41 28.75L492.42 30.47C488.98 32.5 485.56 34.69 482.27 36.96L482.27 36.96ZM654.07 25.59C650.51 23.76 646.83 22.05 643.15 20.49L643.93 18.65C647.65 20.23 651.37 21.96 654.98 23.8L654.07 25.59ZM503.01 24.73L502.12 22.94C505.75 21.14 509.48 19.45 513.22 17.92L513.98 19.77C510.28 21.29 506.59 22.96 503.01 24.73L503.01 24.73ZM631.88 16.2C628.1 14.91 624.22 13.75 620.34 12.73L620.85 10.8C624.77 11.82 628.7 13.01 632.53 14.31L631.88 16.2ZM525.28 15.61L524.65 13.71C528.5 12.45 532.44 11.31 536.37 10.33L536.85 12.27C532.97 13.24 529.07 14.37 525.28 15.61L525.28 15.61ZM608.58 10.11C604.65 9.38 600.64 8.78 596.66 8.34L596.89 6.35C600.91 6.8 604.97 7.4 608.95 8.14L608.58 10.11ZM548.64 9.78L548.3 7.81C552.28 7.12 556.34 6.56 560.37 6.15L560.58 8.14C556.59 8.54 552.58 9.09 548.64 9.78L548.64 9.78ZM584.65 7.42C580.64 7.26 576.57 7.24 572.6 7.35L572.54 5.36C576.56 5.24 580.68 5.26 584.73 5.42L584.65 7.42Z" /><path class="shp1" d="M739.57 129.79C739.04 127.89 738.46 125.97 737.86 124.08L739.76 123.47C740.37 125.38 740.96 127.32 741.5 129.25L739.57 129.79Z" /><path class="shp2" d="M155.07 435.65C136.65 435.65 121.76 434.53 121.76 433.15C121.76 431.77 136.65 430.65 155.07 430.65C173.49 430.65 188.38 431.77 188.38 433.15C188.38 434.53 173.49 435.65 155.07 435.65Z" /><path class="shp2" d="M420.74 314.89C402.32 314.89 387.42 313.77 387.42 312.39C387.42 311.01 402.32 309.89 420.74 309.89C439.16 309.89 454.05 311.01 454.05 312.39C454.05 313.77 439.16 314.89 420.74 314.89Z" /><path class="shp2" d="M748.86 189.14C730.44 189.14 715.55 188.02 715.55 186.64C715.55 185.26 730.44 184.14 748.86 184.14C767.29 184.14 782.18 185.26 782.18 186.64C782.18 188.02 767.29 189.14 748.86 189.14Z" /><path class="shp1" d="M635.49 278.61L735.67 178.44L737.08 179.85L636.91 280.02L635.49 278.61Z" /><path class="shp1" d="M438.23 291.41L606.45 291.41L606.45 293.41L438.23 293.41L438.23 291.41Z" /><path class="shp1" d="M313.43 399.13L407.52 305.04L408.94 306.45L314.84 400.54L313.43 399.13Z" /><path class="shp1" d="M172.56 412.16L284.99 412.16L284.99 414.16L172.56 414.16L172.56 412.16Z" /><path class="shp1" d="M30.27 536.54L142 424.82L143.41 426.24L31.69 537.96L30.27 536.54Z" /><path fill-rule="evenodd" class="shp1" d="M137.99 420.24C135.13 413.33 136.71 405.38 142 400.09C147.28 394.8 155.24 393.22 162.15 396.08C169.05 398.94 173.56 405.68 173.56 413.16C173.56 415.59 173.08 417.99 172.15 420.24C171.22 422.48 169.85 424.51 168.14 426.23C166.42 427.95 164.38 429.31 162.14 430.24C159.9 431.17 157.5 431.65 155.07 431.65C147.59 431.65 140.85 427.15 137.99 420.24ZM139.84 406.85C137.28 413.01 138.69 420.11 143.41 424.82C148.13 429.54 155.22 430.95 161.38 428.4C167.54 425.84 171.56 419.83 171.56 413.16C171.56 411 171.13 408.86 170.3 406.86C169.47 404.86 168.25 403.04 166.72 401.51C165.19 399.98 163.38 398.76 161.38 397.93C159.38 397.1 157.23 396.68 155.07 396.67C148.4 396.67 142.39 400.69 139.84 406.85Z" /><path fill-rule="evenodd" class="shp1" d="M285.4 420.24C282.53 413.33 284.12 405.38 289.4 400.09C294.69 394.8 302.64 393.22 309.55 396.08C316.46 398.94 320.97 405.68 320.97 413.16C320.96 415.59 320.48 417.99 319.55 420.24C318.62 422.48 317.26 424.51 315.55 426.23C313.83 427.95 311.79 429.31 309.55 430.24C307.31 431.17 304.9 431.65 302.48 431.65C295 431.65 288.26 427.15 285.4 420.24ZM287.24 406.85C284.69 413.01 286.1 420.11 290.82 424.82C295.53 429.54 302.63 430.95 308.79 428.4C314.95 425.84 318.97 419.83 318.97 413.16C318.96 411 318.54 408.86 317.71 406.86C316.88 404.86 315.66 403.04 314.13 401.51C312.6 399.98 310.78 398.76 308.78 397.93C306.79 397.1 304.64 396.68 302.48 396.67C295.81 396.67 289.8 400.69 287.24 406.85Z" /><path fill-rule="evenodd" class="shp1" d="M403.66 299.48C400.79 292.57 402.38 284.62 407.66 279.33C412.95 274.04 420.9 272.46 427.81 275.32C434.72 278.19 439.23 284.93 439.23 292.41C439.22 294.83 438.74 297.24 437.81 299.48C436.88 301.72 435.52 303.76 433.8 305.47C432.09 307.19 430.05 308.55 427.81 309.48C425.57 310.41 423.16 310.89 420.74 310.89C413.26 310.89 406.52 306.39 403.66 299.48ZM405.5 286.1C402.95 292.26 404.36 299.35 409.08 304.07C413.79 308.78 420.89 310.19 427.05 307.64C433.21 305.09 437.23 299.07 437.23 292.41C437.22 290.24 436.8 288.1 435.97 286.1C435.14 284.1 433.92 282.28 432.39 280.75C430.86 279.22 429.04 278.01 427.04 277.18C425.04 276.35 422.9 275.92 420.74 275.92C414.07 275.92 408.06 279.93 405.5 286.1Z" /><path fill-rule="evenodd" class="shp1" d="M606.86 299.48C604 292.57 605.58 284.62 610.87 279.33C616.16 274.04 624.11 272.46 631.02 275.32C637.93 278.19 642.43 284.93 642.43 292.41C642.43 294.83 641.95 297.24 641.02 299.48C640.09 301.72 638.73 303.76 637.01 305.47C635.29 307.19 633.26 308.55 631.01 309.48C628.77 310.41 626.37 310.89 623.94 310.89C616.46 310.89 609.72 306.39 606.86 299.48ZM608.71 286.1C606.16 292.26 607.57 299.35 612.28 304.07C617 308.78 624.09 310.19 630.25 307.64C636.41 305.09 640.43 299.07 640.43 292.41C640.43 290.24 640 288.1 639.17 286.1C638.34 284.1 637.13 282.28 635.6 280.75C634.07 279.22 632.25 278.01 630.25 277.18C628.25 276.35 626.11 275.92 623.94 275.92C617.27 275.92 611.26 279.93 608.71 286.1Z" /><path fill-rule="evenodd" class="shp1" d="M731.78 173.73C728.92 166.82 730.5 158.87 735.79 153.58C741.08 148.29 749.03 146.71 755.94 149.57C762.85 152.43 767.35 159.17 767.35 166.65C767.35 169.08 766.87 171.48 765.94 173.72C765.01 175.96 763.65 178 761.93 179.72C760.22 181.43 758.18 182.8 755.94 183.73C753.69 184.66 751.29 185.14 748.86 185.14C741.39 185.14 734.64 180.64 731.78 173.73ZM733.63 160.34C731.08 166.5 732.49 173.59 737.21 178.31C741.92 183.03 749.01 184.44 755.17 181.88C761.34 179.33 765.35 173.32 765.35 166.65C765.35 164.49 764.92 162.34 764.09 160.34C763.26 158.34 762.05 156.53 760.52 155C758.99 153.47 757.17 152.25 755.17 151.42C753.17 150.59 751.03 150.16 748.86 150.16C742.2 150.16 736.18 154.18 733.63 160.34Z" /><path fill-rule="evenodd" class="shp1" d="M1.41 556.82C-1.45 549.91 0.13 541.96 5.41 536.67C10.7 531.38 18.66 529.8 25.56 532.66C32.47 535.52 36.98 542.27 36.98 549.74C36.98 552.17 36.5 554.57 35.57 556.82C34.63 559.06 33.27 561.1 31.56 562.81C29.84 564.53 27.8 565.89 25.56 566.82C23.32 567.75 20.92 568.23 18.49 568.23C11.01 568.23 4.27 563.73 1.41 556.82ZM3.25 543.43C0.7 549.6 2.11 556.69 6.83 561.4C11.54 566.12 18.64 567.53 24.8 564.98C30.96 562.43 34.98 556.41 34.98 549.74C34.98 547.58 34.55 545.44 33.72 543.44C32.89 541.44 31.67 539.62 30.14 538.09C28.61 536.56 26.8 535.34 24.8 534.52C22.8 533.69 20.65 533.26 18.49 533.25C11.82 533.25 5.81 537.27 3.25 543.43Z" /><path fill-rule="evenodd" class="shp2" d="M155.07 304.06C159.44 304.06 163.78 304.93 167.82 306.6C171.86 308.27 175.53 310.73 178.63 313.82C181.72 316.92 184.17 320.59 185.85 324.63C187.52 328.67 188.38 333 188.38 337.38C188.38 355.78 155.07 416.49 155.07 416.49C155.07 416.49 121.76 355.78 121.76 337.38C121.76 333 122.62 328.67 124.29 324.63C125.97 320.59 128.42 316.92 131.51 313.82C134.61 310.73 138.28 308.27 142.32 306.6C146.36 304.93 150.7 304.06 155.07 304.06ZM155.07 354.87C157.37 354.87 159.64 354.41 161.76 353.53C163.88 352.66 165.81 351.37 167.44 349.74C169.06 348.12 170.35 346.19 171.23 344.07C172.11 341.95 172.56 339.67 172.56 337.38C172.56 330.3 168.3 323.93 161.76 321.22C155.23 318.51 147.71 320.01 142.7 325.01C137.7 330.01 136.21 337.53 138.91 344.07C141.62 350.61 148 354.87 155.07 354.87Z" /><path fill-rule="evenodd" class="shp2" d="M420.74 179.14C425.11 179.14 429.44 180 433.48 181.68C437.53 183.35 441.2 185.81 444.29 188.9C447.39 191.99 449.84 195.67 451.51 199.71C453.19 203.75 454.05 208.08 454.05 212.46C454.05 230.85 420.74 291.57 420.74 291.57C420.74 291.57 387.42 230.85 387.42 212.46C387.42 208.08 388.29 203.75 389.96 199.71C391.63 195.67 394.09 191.99 397.18 188.9C400.27 185.81 403.95 183.35 407.99 181.68C412.03 180 416.36 179.14 420.74 179.14ZM427.43 228.61C429.55 227.73 431.48 226.45 433.1 224.82C434.73 223.2 436.02 221.27 436.89 219.15C437.77 217.03 438.23 214.75 438.23 212.46C438.23 205.38 433.96 199 427.43 196.3C420.89 193.59 413.37 195.09 408.37 200.09C403.37 205.09 401.87 212.61 404.58 219.15C407.29 225.68 413.66 229.94 420.74 229.94C423.03 229.94 425.31 229.49 427.43 228.61Z" /><path class="shp3" d="M621.18 707.34L1074.71 707.34L1074.71 709.78L621.18 709.78L621.18 707.34Z" /><path class="shp3" d="M995.43 72.43C988.38 93.31 977.57 112.33 955.54 112.33C933.5 112.33 916.88 94.43 915.64 72.43C914.05 44.32 932.99 32.42 955.54 32.54C982.17 32.67 1003.8 47.66 995.43 72.43Z" /><path class="shp3" d="M915.64 69.28L994.38 69.28L994.38 169.02L915.64 169.02L915.64 69.28Z" /><path class="shp4" d="M996.7 143.59L1003.39 143.59C1003.39 143.59 1019.76 164.43 1012.32 192.71C1004.88 220.98 1010.83 226.19 1010.83 226.19C1010.83 226.19 1020.52 256.82 1010.1 302.96C999.69 349.1 1019.76 361.63 1019.76 361.63L1001.16 324.43L990.74 226.19L996.7 143.59Z" /><path class="shp5" d="M996.7 146.04L1003.39 146.04C1003.39 146.04 1019.76 166.87 1012.32 195.15C1004.88 223.43 1010.83 228.64 1010.83 228.64C1010.83 228.64 1020.52 259.27 1010.1 305.4C999.69 351.54 1019.76 364.08 1019.76 364.08L1001.16 326.87L990.74 228.64L996.7 146.04Z" /><path class="shp6" d="M973.25 107.5C973.25 107.5 967.3 131.31 970.28 131.31C973.25 131.31 983.67 143.96 983.67 143.96L990.37 168.52L985.16 186.38L967.3 182.66L944.97 158.1L938.28 151.4L932.32 129.82C932.32 129.82 939.77 120.89 934.56 113.45C929.35 106.01 973.25 107.5 973.25 107.5Z" /><path class="shp5" d="M973.25 107.5C973.25 107.5 967.3 131.31 970.28 131.31C973.25 131.31 983.67 143.96 983.67 143.96L990.37 168.52L985.16 186.38L967.3 182.66L944.97 158.1L938.28 151.4L932.32 129.82C932.32 129.82 939.77 120.89 934.56 113.45C929.35 106.01 973.25 107.5 973.25 107.5Z" /><path class="shp6" d="M793.16 173.73L776.79 146.94C776.79 146.94 759.12 107.84 746.47 121.98C733.82 136.12 765.63 164.8 765.63 164.8L782 186.38L793.16 173.73Z" /><path class="shp6" d="M1010.46 406.66L998.56 493.73C998.56 493.73 1000.04 500.42 985.16 524.98C970.28 549.54 930.09 603.12 930.09 603.12L918.18 580.79C918.18 580.79 932.32 510.1 956.88 495.21L953.9 388.05L1010.46 406.66Z" /><path class="shp5" d="M1010.46 406.66L998.56 493.73C998.56 493.73 1000.04 500.42 985.16 524.98C970.28 549.54 930.09 603.12 930.09 603.12L918.18 580.79C918.18 580.79 932.32 510.1 956.88 495.21L953.9 388.05L1010.46 406.66Z" /><path class="shp3" d="M918.18 571.86L934.56 603.12C934.56 603.12 921.16 641.07 926.37 644.79C931.58 648.52 938.28 682 924.14 678.28C910 674.56 898.84 659.68 898.84 657.45C898.84 655.21 907.02 623.96 902.56 616.52C898.09 609.07 895.11 606.84 895.11 606.84L883.95 625.45L880.23 623.21L898.84 591.96C898.84 591.96 901.07 586 910 582.28L918.18 571.86Z" /><path class="shp5" d="M918.18 571.86L934.56 603.12C934.56 603.12 921.16 641.07 926.37 644.79C931.58 648.52 938.28 682 924.14 678.28C910 674.56 898.84 659.68 898.84 657.45C898.84 655.21 907.02 623.96 902.56 616.52C898.09 609.07 895.11 606.84 895.11 606.84L883.95 625.45L880.23 623.21L898.84 591.96C898.84 591.96 901.07 586 910 582.28L918.18 571.86Z" /><path class="shp6" d="M954.08 394.3C954.08 394.3 959.86 476.61 947.21 498.19L947.21 605.35L930.09 607.59C930.09 607.59 895.53 550.85 908.18 495.04C920.83 439.22 895.11 388.05 895.11 388.05L954.08 394.3Z" /><path class="shp6" d="M949.81 125.73C932.53 125.73 918.56 111.76 918.56 94.47C918.56 77.19 932.53 63.22 949.81 63.22C967.1 63.22 981.07 77.19 981.07 94.47C981.07 111.76 967.1 125.73 949.81 125.73Z" /><path class="shp4" d="M981.44 176.71L950.18 137.26L932.32 125.36L924.88 135.03L904.04 140.99C904.04 140.99 890.65 143.96 876.51 160.33C862.37 176.71 837.07 186.38 837.07 186.38L816.23 182.66C816.23 182.66 791.67 171.5 791.67 168.52C791.67 165.54 770.09 188.61 775.3 197.54C780.51 206.47 791.67 217.64 797.63 223.59C803.58 229.54 805.81 246.66 842.28 241.45C878.74 236.24 892.14 218.38 892.14 218.38C892.14 218.38 898.84 252.61 918.18 259.31C937.53 266.01 1000.79 270.47 1000.79 270.47L1014.18 225.82C1014.18 225.82 1029.07 206.47 1008.97 178.19C1008.97 178.19 1008.59 162.38 1006.43 151.85C1005.59 147.76 1004.48 144.47 1003.02 143.22C997.81 138.75 970.28 131.31 970.28 131.31C970.28 131.31 974.74 146.19 976.97 146.94C979.21 147.68 984.42 172.98 981.44 176.71Z" /><path class="shp3" d="M881.35 398.84C918.82 396.24 940.64 402.38 950.38 407.06C950.83 407.26 951.27 407.48 951.71 407.71C952.15 407.94 952.58 408.19 953.01 408.45C953.43 408.7 953.85 408.97 954.26 409.26C954.66 409.54 955.06 409.83 955.45 410.14C956.17 410.74 956.51 411.21 956.51 411.49C956.51 413.73 1007.86 418.19 1026.46 413.73C1045.07 409.26 1013.81 313.26 1005.63 305.08C997.44 296.89 1001.85 266.93 1001.85 266.93C1001.85 266.93 985.53 263.4 981.07 264.89C976.6 266.38 953.53 262.66 945.35 258.19C937.16 253.73 926.74 256.71 920.04 255.22C917.05 254.55 915.54 255.67 914.79 257.11C914.5 257.65 914.17 258.17 913.81 258.66C913.44 259.15 913.04 259.62 912.61 260.05C912.18 260.49 911.72 260.89 911.24 261.26C910.75 261.63 910.24 261.96 909.7 262.26C893.9 271.36 881.22 334.29 871.67 369.08C861.25 407.03 881.35 398.84 881.35 398.84Z" /><path class="shp3" d="M950.18 598.66L953.16 615.03C953.16 615.03 968.79 637.35 964.32 655.96C964.32 655.96 968.04 680.51 981.44 687.21C994.83 693.91 983.67 709.54 971.02 708.79C958.37 708.05 946.46 709.54 944.97 705.82C943.49 702.1 934.56 665.63 934.56 665.63L932.11 708.3L924.67 709.05L927.11 659.68C927.11 659.68 921.16 648.52 929.35 629.91L927.28 601.35C927.28 601.35 947.95 606.1 950.18 598.66Z" /><path class="shp5" d="M950.38 407.06C950.83 407.26 951.28 407.48 951.71 407.71C952.15 407.94 952.58 408.19 953.01 408.45C953.43 408.7 953.85 408.97 954.26 409.26C954.66 409.54 955.06 409.83 955.45 410.14C955.85 403.11 958.12 360.58 955.39 361.26L950.38 407.06Z" /><path class="shp3" d="M936.87 51.43C936.87 51.43 936.53 49.51 922.99 54.58C909.45 59.66 901.34 97.12 908.11 119.12C910.83 127.99 908.61 134.38 904.99 138.85C891.4 155.63 896.75 180.84 916.55 189.47C917.11 189.72 917.68 189.96 918.26 190.19L926.72 195.27C926.72 195.27 915.93 181.08 921.33 162.92C922.5 159.08 923.41 155.16 924.07 151.19C924.73 147.23 925.13 143.23 925.27 139.21C925.42 135.19 925.3 131.17 924.92 127.17C924.54 123.17 923.9 119.19 923.01 115.27C922.39 112.62 921.69 109.88 920.89 107.08C914.12 83.39 917.41 86.12 941.1 62.43C941.1 62.43 954.64 72.59 966.49 77.66C978.33 82.74 988.49 87.82 980.02 104.74C971.56 121.66 951.26 136.89 964.79 158.89C978.33 180.89 980.02 172.43 978.33 180.89L978.33 180.89L976.64 189.35L986.79 179.2L980.02 192.73C980.02 192.73 1002.02 192.73 1008.79 175.81L1012.18 179.2C1012.18 179.2 1025.71 155.5 1000.33 133.51C1000.33 133.51 991.87 128.43 1003.72 111.51C1015.56 94.58 1006.46 58.2 991.23 51.43C976 44.66 936.87 51.43 936.87 51.43Z" /><path class="shp3" d="M955.54 40.93C946.83 40.93 939.79 33.89 939.79 25.19C939.79 16.48 946.83 9.44 955.54 9.44C964.25 9.44 971.28 16.48 971.28 25.19C971.28 33.89 964.25 40.93 955.54 40.93Z" /><path class="shp3" d="M936.64 16.79C936.64 14.85 936.99 12.93 937.69 11.13C938.39 9.32 939.41 7.66 940.71 6.22C942.01 4.79 943.56 3.6 945.29 2.73C947.01 1.86 948.89 1.31 950.81 1.12C950.29 1.07 949.77 1.04 949.24 1.04C945.06 1.04 941.05 2.7 938.1 5.65C935.15 8.6 933.49 12.61 933.49 16.79C933.49 20.96 935.15 24.97 938.1 27.92C941.05 30.88 945.06 32.54 949.24 32.54C949.77 32.54 950.29 32.51 950.81 32.46C948.89 32.26 947.01 31.72 945.29 30.84C943.56 29.97 942.01 28.79 940.71 27.35C939.41 25.92 938.39 24.25 937.69 22.45C936.99 20.64 936.64 18.72 936.64 16.79Z" /><path fill-rule="evenodd" class="shp2" d="M748.86 59.22C753.24 59.22 757.57 60.08 761.61 61.75C765.65 63.43 769.33 65.88 772.42 68.98C775.51 72.07 777.97 75.74 779.64 79.78C781.32 83.82 782.18 88.16 782.18 92.53C782.18 110.93 748.86 171.65 748.86 171.65C748.86 171.65 715.55 110.93 715.55 92.53C715.55 88.16 716.41 83.82 718.09 79.78C719.76 75.74 722.22 72.07 725.31 68.98C728.4 65.88 732.07 63.43 736.12 61.75C740.16 60.08 744.49 59.22 748.86 59.22ZM748.86 110.02C751.16 110.02 753.44 109.57 755.56 108.69C757.68 107.81 759.61 106.52 761.23 104.9C762.85 103.27 764.14 101.35 765.02 99.22C765.9 97.1 766.35 94.83 766.35 92.53C766.35 85.46 762.09 79.08 755.56 76.37C749.02 73.67 741.5 75.16 736.5 80.16C731.5 85.17 730 92.69 732.71 99.22C735.41 105.76 741.79 110.02 748.86 110.02Z" /><path class="shp7" d="M480.32 679.05C470.35 679.05 462.29 670.99 462.29 661.02C462.29 651.06 470.35 643 480.32 643C490.29 643 498.35 651.06 498.35 661.02C498.35 670.99 490.29 679.05 480.32 679.05Z" /><path class="shp7" d="M592.47 602.8C582.5 602.8 574.44 594.75 574.44 584.78C574.44 574.81 582.5 566.75 592.47 566.75C602.43 566.75 610.49 574.81 610.49 584.78C610.49 594.75 602.43 602.8 592.47 602.8Z" /><path class="shp7" d="M453.78 531.81C443.81 531.81 435.75 523.75 435.75 513.78C435.75 503.82 443.81 495.76 453.78 495.76C463.75 495.76 471.8 503.82 471.8 513.78C471.8 523.75 463.75 531.81 453.78 531.81Z" /></svg>