<svg width="720" height="529" viewBox="0 0 1097 806" xmlns="http://www.w3.org/2000/svg"><defs><linearGradient id="a" x1="647.69" x2="647.69" y1="799.76" y2="499.1" gradientUnits="userSpaceOnUse"><stop stop-color="gray" stop-opacity=".25" offset="0"/><stop stop-color="gray" stop-opacity=".12" offset=".54"/><stop stop-color="gray" stop-opacity=".1" offset="1"/></linearGradient></defs><style>.shp0{opacity:.102;fill:#70add8}.shp1{fill:#3a3768}.shp2{fill:#e6e8ec}.shp3{fill:#70add8}.shp4{opacity:.102;fill:#000}.shp5{fill:#ffd037}.shp8{opacity:.302;fill:#3a3768}.shp9{fill:#fff}.shp10{fill:#514e7f}.shp11{fill:#464353}.shp12{fill:#a1616a}.shp13{fill:#fbbebe}.shp14{opacity:.051;fill:#000}.shp15{fill:#3f3d56}.shp17{fill:#2d293d}.shp18{fill:#000}.shp19{fill:#ffcdd3}.shp20{fill:#dce6f2}.shp21{fill:#575988}</style><path class="shp0" d="M641.82 111.4c-64.72-2.25-126.36-23.14-185.22-46S339.44 17.21 276.23 5.1c-40.59-7.79-87.06-8.89-119.8 12.88-31.5 21-41.68 57.15-47.15 90.72-4.12 25.27-6.54 51.85 4.74 75.5 7.84 16.42 21.74 30.22 31.36 46 33.47 54.72 9.81 122.2-26.45 175.63-17 25.06-36.75 49-49.88 75.66s-19.2 57.25-7.71 84.46c11.38 27 38.51 47.24 67.9 61.5 59.69 28.94 130 37.23 198.61 41.92 151.83 10.39 304.46 5.89 456.69 1.39 56.34-1.67 112.92-3.36 168.34-12.07 30.78-4.84 62.55-12.52 84.89-31 28.37-23.53 35.4-63.38 16.39-92.88-31.88-49.49-120-61.79-142.31-114.9-12.26-29.23.33-61.8 18.16-88.91 38.24-58.17 102.33-109.19 105.7-175.68 2.32-45.66-28.49-91.39-76.13-113-49.93-22.65-119.18-19.8-156 17.69-37.95 38.52-104.61 53.37-161.76 51.39z"/><g opacity=".902"><path class="shp1" d="M710.62 248.78h4.28c1.27 0 2.29 1.02 2.29 2.29v68.44c0 1.27-1.02 2.29-2.29 2.29h-4.28c-1.27 0-2.29-1.02-2.29-2.29v-68.44c0-1.27 1.02-2.29 2.29-2.29zM416.18 191.58h.39c1.27 0 2.29 1.02 2.29 2.29v19.46c0 1.27-1.02 2.29-2.29 2.29h-.39c-1.27 0-2.29-1.02-2.29-2.29v-19.46c0-1.27 1.02-2.29 2.29-2.29zM416 235.59h1.02c1.27 0 2.29 1.02 2.29 2.29v37.26c0 1.27-1.02 2.29-2.29 2.29H416c-1.27 0-2.29-1.02-2.29-2.29v-37.26c0-1.27 1.02-2.29 2.29-2.29zM416.09 292.07h.75c1.27 0 2.29 1.02 2.29 2.29v37.62c0 1.27-1.02 2.29-2.29 2.29h-.75c-1.27 0-2.29-1.02-2.29-2.29v-37.62c0-1.27 1.02-2.29 2.29-2.29z"/><path class="shp1" d="M455.7 112.14h218.42c21.56 0 38.99 17.43 38.99 38.99v524.41c0 21.56-17.43 38.99-38.99 38.99H455.7c-21.56 0-38.99-17.43-38.99-38.99V151.13c0-21.56 17.43-38.99 38.99-38.99z"/><path class="shp2" d="M540.18 130.12h33.65c2.14 0 3.87 1.73 3.87 3.87v.66c0 2.14-1.73 3.87-3.87 3.87h-33.65c-2.14 0-3.87-1.73-3.87-3.87v-.66c0-2.14 1.73-3.87 3.87-3.87zM588.73 139.1c-2.64 0-4.77-2.13-4.77-4.77s2.13-4.77 4.77-4.77 4.77 2.13 4.77 4.77-2.13 4.77-4.77 4.77z"/></g><path class="shp0" d="M238.04 748.77c-110.58 0-199.97-9.11-199.97-20.38s89.39-20.38 199.97-20.38 199.97 9.11 199.97 20.38-89.39 20.38-199.97 20.38zM682.68 805.97c-51.81 0-93.68-4.27-93.68-9.55s41.87-9.55 93.68-9.55 93.68 4.27 93.68 9.55-41.87 9.55-93.68 9.55zM1002.8 757.85c-51.81 0-93.68-4.27-93.68-9.55s41.87-9.55 93.68-9.55 93.68 4.27 93.68 9.55-41.87 9.55-93.68 9.55z"/><path class="shp3" d="M671.23 127.82h-33.9v4.09c0 2.55-.5 5.07-1.48 7.42-.97 2.35-2.4 4.48-4.2 6.28s-3.93 3.23-6.28 4.2c-2.35.98-4.87 1.48-7.42 1.48H509.77c-2.55 0-5.07-.5-7.42-1.48-2.35-.97-4.48-2.4-6.28-4.2s-3.23-3.93-4.2-6.28c-.98-2.35-1.48-4.87-1.48-7.42v-4.09h-31.84c-3.09 0-6.15.61-9.01 1.79a23.578 23.578 0 0 0-7.63 5.11 23.392 23.392 0 0 0-5.1 7.63 23.623 23.623 0 0 0-1.79 9.01v523.93c0 3.09.61 6.15 1.79 9.01 1.18 2.85 2.91 5.45 5.1 7.63 2.18 2.19 4.78 3.92 7.63 5.11 2.86 1.18 5.92 1.79 9.01 1.79h212.68c3.09 0 6.15-.61 9.01-1.79a23.7 23.7 0 0 0 7.64-5.1 23.7 23.7 0 0 0 5.1-7.64c1.18-2.86 1.79-5.92 1.79-9.01V151.36c0-3.09-.61-6.15-1.79-9.01a23.7 23.7 0 0 0-5.1-7.64 23.7 23.7 0 0 0-7.64-5.1 23.623 23.623 0 0 0-9.01-1.79zM815.72 85.71s-84.2-5.08-74.27 53.92c0 0-2 10.43 7.48 15.16 0 0 .15-4.37 8.63-2.89.75.13 1.51.23 2.27.31.76.09 1.53.15 2.29.18.77.04 1.53.05 2.3.05.76-.01 1.53-.05 2.29-.1 1.02-.07 2.04-.22 3.04-.45 1-.24 1.98-.55 2.93-.94s1.87-.86 2.74-1.4c.88-.54 1.7-1.15 2.48-1.82 0 0 23.66-9.78 32.87-48.46 0 0 6.81-8.44 6.54-10.61l-14.21 6.07s4.85 10.25 1 18.77c0 0-.46-18.4-3.19-18-.56.08-7.39 3.55-7.39 3.55s8.36 17.85 2 30.83c0 0 2.39-22-4.66-29.54l-10 5.84s9.76 18.44 3.15 33.49c0 0 1.69-23.08-5.25-32.07l-9.06 7.07s9.17 18.17 3.58 30.65c0 0-.74-26.86-5.55-28.89 0 0-7.93 7-9.14 9.86 0 0 6.28 13.2 2.39 20.16 0 0-2.39-17.9-4.35-18 0 0-7.9 11.86-8.72 20 0 0 .34-12.09 6.8-21.12 0 0-7.63 1.31-12.09 6.26 0 0 1.23-8.38 14-9.12 0 0 6.53-9 8.28-9.54 0 0-12.75-1.07-20.48 2.36 0 0 6.8-7.91 22.82-4.31l8.94-7.31s-16.78-2.29-23.9.24c0 0 8.2-7 26.32-1.9l9.74-5.82s-14.31-3.09-22.84-2c0 0 9-4.85 25.69.41l7-3.13s-10.49-2.06-13.56-2.39-3.23-1.17-3.23-1.17c1.66-.28 3.34-.44 5.03-.48a36.242 36.242 0 0 1 14.8 2.74c1.56.64 14.74-5.53 14.49-6.46zM729.36 59.47s-38-2.29-33.56 24.37c0 0-.89 4.71 3.38 6.85 0 0 .07-2 3.9-1.31.34.06.68.1 1.03.14.34.04.68.07 1.03.08.34.02.69.03 1.03.02.35 0 .7-.02 1.04-.04.46-.03.92-.1 1.38-.2.45-.11.89-.25 1.32-.43a8.5 8.5 0 0 0 2.36-1.45s10.69-4.42 14.85-21.9c0 0 3.08-3.81 3-4.79l-6.42 2.74s2.19 4.63.46 8.48c0 0-.2-8.31-1.44-8.12-.25 0-3.33 1.61-3.33 1.61s3.77 8.06.92 13.93c0 0 1.08-9.94-2.1-13.35l-4.52 2.64s4.41 8.33 1.42 15.13c0 0 .77-10.43-2.37-14.49l-4.1 3.2s4.15 8.21 1.62 13.85c0 0-.33-12.14-2.5-13.06 0 0-3.59 3.16-4.13 4.46 0 0 2.83 6 1.07 9.11 0 0-1.08-8.09-2-8.13 0 0-3.57 5.36-3.94 9 .04-.84.14-1.68.29-2.52.16-.83.36-1.65.62-2.45a19.112 19.112 0 0 1 2.16-4.57c-.51.1-1.01.23-1.51.4-.49.17-.97.38-1.43.61-.46.24-.9.52-1.32.82-.43.3-.83.64-1.2 1s.55-3.79 6.34-4.12c0 0 2.95-4.07 3.74-4.32 0 0-5.76-.48-9.25 1.07 0 0 3.07-3.57 10.31-2l4-3.3s-7.58-1-10.8.11c0 0 3.71-3.16 11.89-.86l4.4-2.63s-6.46-1.39-10.31-.89c0 0 4.06-2.19 11.6.18l3.15-1.41s-4.73-.93-6.12-1.08-1.46-.53-1.46-.53c.75-.12 1.5-.2 2.25-.22.76-.02 1.51.02 2.26.1.76.08 1.5.22 2.23.41s1.45.42 2.15.71 6.72-2.43 6.61-2.85zM40.21 685.37c-22.24 0-40.21-3.04-40.21-6.8s17.97-6.8 40.21-6.8 40.21 3.04 40.21 6.8-17.97 6.8-40.21 6.8z"/><path class="shp3" d="M56.83 667.44c.46-.37.88-.77 1.28-1.21.39-.43.76-.9 1.08-1.39a11.51 11.51 0 0 0 1.48-3.18c.49-2.3-.49-5-2.68-5.89-2.46-.95-5.09.76-7.08 2.48s-4.28 3.69-6.89 3.32c.67-.61 1.25-1.3 1.74-2.05a10.429 10.429 0 0 0 1.66-5.08c.05-.89-.01-1.8-.19-2.68-.03-.18-.07-.36-.12-.54s-.11-.35-.19-.52a3.798 3.798 0 0 0-.59-.94c-1.36-1.46-3.84-.83-5.48.32-5.2 3.66-6.65 10.72-6.67 17.08-.53-2.3-.09-4.69-.1-7s-.66-5-2.64-6.22a8.12 8.12 0 0 0-.95-.43c-.32-.12-.65-.23-.99-.31s-.68-.13-1.02-.17c-.35-.04-.69-.05-1.04-.04-2.34-.08-4.94.15-6.54 1.86-2 2.12-1.47 5.69.26 8s4.35 3.8 6.76 5.42a14.733 14.733 0 0 1 3.83 3.26c.36.43.7.88 1.01 1.35.04.07.07.13.11.2.03.06.06.13.09.2l.09.21c.02.07.05.14.07.21h14.65c.82-.42 1.63-.86 2.42-1.33s1.56-.97 2.32-1.49c.76-.53 1.5-1.07 2.22-1.65.72-.57 1.42-1.17 2.1-1.79zM830.57 583.52s8.65 11.32-4 28.4-23.07 31.5-18.85 42.15c0 0 19.08-31.72 34.61-32.17s5.32-19.3-11.76-38.38z"/><path class="shp4" d="M830.57 583.52c.19.27.37.55.53.84.17.28.33.58.48.87.15.3.28.6.41.91.13.3.24.62.35.93 15.15 17.8 23.22 34.42 8.65 34.83-13.56.39-29.84 24.65-33.73 30.77.03.12.06.24.1.36.03.11.07.23.11.35.04.11.08.23.12.35.04.11.08.23.13.34s19.08-31.72 34.61-32.17 5.32-19.3-11.76-38.38z"/><path class="shp5" d="M846.65 597.98c0 4-.45 7.21-1 7.21s-1-3.23-1-7.21.56-2.1 1.11-2.1.89-1.9.89 2.1z"/><path class="shp5" d="M852.17 602.7c-3.5 1.9-6.54 3.06-6.81 2.57s2.36-2.42 5.86-4.33 2.11-.51 2.38 0 2.07-.15-1.43 1.76z"/><path class="shp3" d="M784.87 583.52s-8.65 11.32 4 28.4 23.07 31.5 18.86 42.15c0 0-19.08-31.72-34.61-32.17s-5.33-19.3 11.75-38.38z"/><path class="shp4" d="M784.87 583.52c-.19.27-.37.55-.54.84-.17.28-.32.57-.47.87s-.29.6-.41.91c-.13.3-.25.61-.35.93-15.15 17.8-23.22 34.42-8.66 34.83 13.57.39 29.84 24.65 33.74 30.77-.03.12-.07.24-.1.35-.04.12-.07.24-.11.36-.04.11-.08.23-.12.34-.04.12-.09.24-.13.35s-19.08-31.72-34.61-32.17-5.32-19.3 11.76-38.38z"/><path class="shp5" d="M768.78 597.98c0 4 .45 7.21 1 7.21s1-3.23 1-7.21-.56-2.1-1.11-2.1-.89-1.9-.89 2.1z"/><path class="shp5" d="M763.23 602.7c3.49 1.9 6.54 3.06 6.8 2.57s-2.35-2.42-5.85-4.33-2.12-.51-2.38 0-2.03-.15 1.43 1.76z"/><path d="M771.54 652.59s24.19-.75 31.48-5.94 37.21-11.39 39-3.06 36.35 41.41 9 41.63-63.46-4.26-70.73-8.69-8.75-23.94-8.75-23.94z" fill="#a8a8a8"/><path d="M851.57 682.32c-27.31.22-63.46-4.26-70.73-8.69-5.55-3.37-7.75-15.48-8.49-21.07h-.81s1.53 19.51 8.81 23.94 43.42 8.91 70.73 8.69c7.88-.07 10.61-2.87 10.46-7-1.1 2.51-4.1 4.08-9.97 4.13z" opacity=".2"/><path class="shp8" d="M584.53 487.87h78.03v78.03h-78.03v-78.03zM469.53 384.87h78.03v78.03h-78.03v-78.03zM477.03 589.11h78.03v78.03h-78.03v-78.03z"/><path class="shp9" d="M459.62 193.28h78.03v78.03h-78.03v-78.03z"/><path class="shp3" d="M513.78 218.77l-2.77 2.76a9.804 9.804 0 0 1 2.87 6.92 9.804 9.804 0 0 1-2.87 6.91l2.77 2.78a13.74 13.74 0 0 0 2.97-4.44 13.73 13.73 0 0 0 0-10.49 13.74 13.74 0 0 0-2.97-4.44z"/><path class="shp3" d="M519.32 213.44l-2.73 2.73c1.61 1.61 2.89 3.53 3.76 5.64a17.363 17.363 0 0 1 0 13.28c-.87 2.11-2.15 4.03-3.76 5.64l2.73 2.73a21.31 21.31 0 0 0 4.6-6.88c1.06-2.58 1.61-5.33 1.61-8.12s-.55-5.54-1.61-8.12a21.31 21.31 0 0 0-4.6-6.88v-.02zm-13 10.22v-12.5h-3.85l-11.52 9.6h-15.36l-3.84 1.92v13.45l3.84 1.92 9.64 15.37h5.76l-3.6-15.37h3.6l11.52 7.69h3.85v-12.5c1.09-.24 2.06-.85 2.76-1.72.69-.87 1.07-1.96 1.07-3.07s-.38-2.2-1.07-3.07c-.7-.87-1.67-1.48-2.76-1.72h-.04z"/><path class="shp9" d="M589.06 512.09l57.86-52.35 52.35 57.86-57.86 52.35-52.35-57.86z"/><path class="shp3" d="M621.57 504.12l5.66-5.14 31 34.17-5.7 5.16-30.96-34.19zm13.37 32l5.7-5.15 9 10-5.7 5.15-9-10zm11.94-21.16l5.7-5.16 14.17 15.67-5.69 5.15-14.18-15.66zm.81-16.28l5.7-5.16 21.91 24.21-5.7 5.16-21.91-24.21z"/><path class="shp9" d="M583.24 287.31h78.03v78.03h-78.03v-78.03z"/><path class="shp3" d="M637.07 316.98l-10.47 16a5.566 5.566 0 0 1 .97 1.71c.11.31.19.62.25.95.05.32.08.65.08.98-.06 1.49-.7 2.89-1.77 3.92a5.798 5.798 0 0 1-4 1.61c-1.48 0-2.91-.58-3.99-1.61a5.764 5.764 0 0 1-1.77-3.92c0-.09 0-.18.01-.27 0-.09.01-.18.02-.27l.03-.26c.01-.09.02-.18.04-.27l-6.92-4c-.45.42-.96.78-1.51 1.04-.56.26-1.15.44-1.76.52-.61.07-1.23.05-1.84-.07-.6-.12-1.18-.33-1.72-.63l-7.36 6.89v6.87a5.078 5.078 0 0 0 1.51 3.62 5.07 5.07 0 0 0 3.62 1.51h43.54c.67 0 1.34-.14 1.96-.4.62-.25 1.19-.63 1.66-1.11.48-.47.86-1.04 1.11-1.66.26-.62.4-1.29.4-1.96v-25.52l-7-4.67c-.25.2-.51.37-.79.52-.28.16-.57.28-.87.39a5.895 5.895 0 0 1-1.87.31c-.13 0-.26-.01-.38-.01-.13-.01-.26-.03-.39-.05-.12-.01-.25-.03-.38-.06l-.37-.09-.04-.01z"/><path class="shp3" d="M605.56 321.64c.76 0 1.51.15 2.21.44a5.71 5.71 0 0 1 3.12 3.11c.29.7.44 1.45.44 2.21 0 .25 0 .51-.05.75l7.22 4a5.566 5.566 0 0 1 1.71-.97c.31-.11.63-.2.96-.25.32-.06.65-.08.98-.08.1 0 .21 0 .31.01.11 0 .21.01.31.02.11.02.21.03.31.05.11.02.21.04.31.06l10.5-16.26a5.747 5.747 0 0 1-.76-5.16c.58-1.74 1.96-3.1 3.71-3.66s3.66-.25 5.14.84a5.724 5.724 0 0 1 2.37 4.64c0 .11 0 .23-.01.34l-.03.34c-.01.12-.03.23-.05.34-.02.12-.04.23-.07.34l5 3.31v-9.62c0-.67-.14-1.34-.4-1.96-.25-.62-.63-1.18-1.11-1.66-.47-.47-1.04-.85-1.66-1.11s-1.29-.39-1.96-.39h-43.57c-.67 0-1.34.13-1.96.39s-1.19.63-1.66 1.11a5.07 5.07 0 0 0-1.51 3.62v27.54l4.8-4.6c-.06-.16-.11-.32-.16-.49-.04-.16-.08-.33-.11-.49-.03-.17-.05-.34-.07-.51a5.759 5.759 0 0 1 .42-2.71c.29-.69.72-1.33 1.25-1.86a5.71 5.71 0 0 1 1.87-1.24c.7-.29 1.45-.44 2.2-.44z"/><path class="shp9" d="M484.6 374.31h78.03v78.03H484.6v-78.03z"/><path class="shp3" d="M547.16 388.47l-48 26c-.16.09-.3.22-.39.38-.09.17-.14.35-.13.54.01.18.07.36.17.52.1.15.25.27.42.35l8.19 3.09c.12.05.23.1.34.17.1.07.2.14.3.23.09.08.17.18.25.28.07.1.14.21.19.32l6.36 13.1c.12.58 1.19.74 1.2.15l-1-10.83c.01-.2.04-.4.09-.59.04-.2.1-.39.18-.57.07-.19.16-.37.26-.54.11-.17.22-.34.35-.49l24.88-24.38.12-.09c.04-.02.09-.04.14-.06a.757.757 0 0 1 .29-.01.6.6 0 0 1 .25.13c.07.07.12.15.15.24a.54.54 0 0 1-.09.54l-21.45 26.22c-.11.16-.22.33-.31.5s-.17.35-.24.53-.13.37-.18.56c-.05.18-.09.38-.11.57l-1.28 9.35c.1.82.74 1.13 1.26.4l4.62-5.43c.08-.1.17-.19.28-.25.11-.07.23-.11.36-.13a1.003 1.003 0 0 1 .72.16l11.91 8.68c.13.09.28.14.44.15.16.02.32 0 .47-.06.14-.06.27-.15.38-.27.1-.12.18-.26.22-.41l9.77-48c.03-.18.01-.36-.05-.53-.07-.17-.18-.32-.32-.43-.15-.11-.32-.18-.5-.2s-.36 0-.53.08l.02.03zM971.84 732.59c4.54.59 9.25 1 13.6-.46.67-.21 1.44-.67 1.35-1.36-.01-.06-.03-.12-.05-.18s-.04-.11-.07-.17c-.02-.05-.05-.11-.08-.16-.04-.05-.07-.1-.11-.15-.41-.61-.81-1.24-1.18-1.87-.38-.64-.75-1.28-1.09-1.94-.34-.65-.67-1.31-.98-1.98-.31-.68-.61-1.35-.88-2.04a.3.3 0 0 0-.04-.1.313.313 0 0 0-.05-.1l-.08-.08c-.02-.03-.05-.05-.08-.07l-.11-.03c-.04-.01-.07-.01-.11-.01s-.07 0-.11.01l-.11.03c-2 .52-3.74 1.82-5.74 2.37-.25.07-.51.13-.77.17-.26.05-.52.08-.78.1s-.52.03-.78.02c-.27 0-.53-.02-.79-.05-.9-.1-2.14-.85-2.95-.76.5 2.97 1.64 5.78 1.99 8.81zM1057.8 724.98c3-2 6.1-4.22 7.87-7.39.03-.05.06-.09.08-.14.03-.06.05-.11.07-.16s.03-.11.04-.16c.01-.06.02-.11.02-.17l-.03-.17c-.02-.05-.03-.1-.05-.16-.03-.05-.05-.1-.08-.15s-.06-.09-.09-.14c-.42-.67-.87-1.31-1.35-1.94-.48-.62-.99-1.23-1.53-1.81-.53-.57-1.09-1.13-1.68-1.65-.59-.53-1.2-1.03-1.83-1.5-.33.23-.65.48-.97.73-.32.26-.62.52-.92.8a17.441 17.441 0 0 0-1.68 1.76c-.75.79-2.83 2.09-2.85 3.27 0 .71.79 1.48 1.16 2 .5.74 1 1.5 1.43 2.26.23.46 2.61 4.6 2.39 4.72z"/><path class="shp10" d="M989.64 741.77c.02.18.02.35 0 .53-.02.17-.05.35-.09.52-.05.17-.11.33-.18.49-.08.16-.17.32-.27.46-.08.08-.16.15-.25.22s-.19.13-.28.19l-.3.15c-.11.04-.21.08-.32.11-6.36 2.27-13.68-.57-20 1.68-1.31.46-2.54 1.12-3.85 1.56-.39.12-.78.22-1.17.32-.4.09-.79.17-1.19.24-.4.08-.8.13-1.2.18s-.81.09-1.21.11c-2.25.22-4.5.35-6.75.41-.43.03-.85.04-1.28.04s-.85-.02-1.28-.06c-.42-.04-.85-.09-1.27-.16s-.84-.16-1.25-.26c-.41-.11-.81-.26-1.2-.45-.38-.19-.74-.42-1.08-.68a6.326 6.326 0 0 1-1.62-1.96c-.08-.17-.15-.35-.2-.53s-.09-.36-.1-.55c-.02-.19-.02-.38 0-.57.02-.18.06-.37.11-.55.02-.06.05-.13.08-.19s.06-.12.1-.18c.03-.06.07-.12.11-.18.03-.05.08-.11.12-.16.11-.12.22-.24.34-.35.11-.11.24-.21.36-.31.13-.11.26-.2.39-.29s.27-.18.41-.26l2.34-1.51c.27-.19.55-.38.84-.55.28-.18.57-.35.87-.5.3-.16.6-.31.9-.45.31-.13.62-.26.93-.38.92-.3 1.91-.43 2.84-.7 3.29-1 5.79-3.57 8.12-6.07l3.18-3.39a2.91 2.91 0 0 1 .5-.5c.09-.08.19-.15.29-.21s.2-.12.31-.17c.11-.04.22-.07.33-.09.11-.03.23-.05.34-.06.12-.01.23-.02.35-.01.11 0 .23.01.34.02.77.06 1.53.16 2.29.31.75.16 1.5.36 2.23.6a18.874 18.874 0 0 1 4.15 2.01c.17.12.34.24.51.35.17.12.35.23.53.33.18.11.36.21.54.31.19.09.37.18.56.27.5.14 1.01.24 1.53.28.51.04 1.03.03 1.55-.04.51-.06 1.02-.18 1.51-.34.49-.17.96-.39 1.41-.65.82-.43.64-.7 1-1.47s1.18-1.27 1.9-.56c.05.06.1.13.15.19.05.07.09.14.13.21.03.08.07.15.1.23.03.07.05.15.07.23.7 2.27.43 4.7.43 7.07 0 .09-.01.19 0 .28 0 .09.01.18.02.28.01.09.03.18.05.27s.04.18.07.27c.04.09.09.17.14.26s.1.17.15.25c.05.09.1.17.16.25.05.08.11.16.17.24.01.02.03.04.04.06s.02.05.03.07l.03.06c.01.02.02.05.03.07.1.27.18.54.24.82.07.27.12.55.15.84.03.28.04.57.04.85-.01.28-.03.57-.07.85z"/><path class="shp11" d="M989.64 741.77c.02.18.02.35 0 .53-.02.17-.05.35-.09.52-.05.17-.11.33-.18.49-.08.16-.17.32-.27.46-.08.08-.16.15-.25.22s-.19.13-.28.19l-.3.15c-.11.04-.21.08-.32.11-6.36 2.27-13.68-.57-20 1.68-1.31.46-2.54 1.12-3.85 1.56-.39.12-.78.22-1.17.32-.4.09-.79.17-1.19.24-.4.08-.8.13-1.2.18s-.81.09-1.21.11c-2.25.22-4.5.35-6.75.41-.43.03-.85.04-1.28.04s-.85-.02-1.28-.06c-.42-.04-.85-.09-1.27-.16s-.84-.16-1.25-.26c-.41-.11-.81-.26-1.2-.45-.38-.19-.74-.42-1.08-.68a6.326 6.326 0 0 1-1.62-1.96c-.08-.17-.15-.35-.2-.53s-.09-.36-.1-.55c-.02-.19-.02-.38 0-.57.02-.18.06-.37.11-.55.02-.06.05-.13.08-.19s.06-.12.1-.18c.03-.06.07-.12.11-.18.03-.05.08-.11.12-.16.38.78.65 1.8.88 2.17.16.28.34.53.56.77.21.23.45.45.71.63.25.19.53.34.82.47.29.12.6.22.91.28.23.01.46.01.69 0 .23 0 .45-.02.68-.05s.45-.07.68-.12c.22-.05.44-.11.66-.18 5.76-1.43 11.88-1.45 17.4-3.61a35.024 35.024 0 0 1 2.81-1.2c.48-.18.95-.36 1.44-.52.48-.17.96-.32 1.45-.47.51-.08 1.02-.14 1.53-.2s1.03-.11 1.54-.16c.52-.04 1.03-.07 1.54-.09.52-.03 1.03-.04 1.55-.05 3.25-.26 6.39-1.24 9.6-1.75.1.27.18.54.25.81.06.28.11.56.14.84s.05.57.04.85c0 .29-.02.57-.06.85z"/><path class="shp10" d="M1072.3 724.59c-.3 2.41-1.83 4.49-3.51 6.25-.45.41-.89.83-1.32 1.26-.42.43-.84.87-1.25 1.31-.41.45-.81.91-1.2 1.38-.39.46-.76.94-1.13 1.42-1.66 2.52-2.39 5.63-4.53 7.76-.2.2-.41.39-.63.57-.21.18-.43.36-.66.52-.23.17-.46.33-.7.48s-.48.3-.73.43c-.28.16-.56.32-.85.47s-.58.3-.87.43c-.3.14-.6.26-.9.38s-.6.24-.91.34c-3.19 1-6.63.79-10 .55-.27 0-.54-.02-.81-.05-.27-.02-.53-.06-.8-.12-.26-.05-.53-.11-.78-.19-.26-.07-.52-.16-.77-.26-.12-.06-.23-.12-.35-.18-.11-.06-.23-.13-.34-.2-.11-.06-.22-.13-.33-.21a6.1 6.1 0 0 1-.32-.22 5.9 5.9 0 0 1-.59-.43c-.18-.15-.36-.32-.53-.49s-.32-.36-.47-.55-.29-.39-.41-.6c-.06-.11-.11-.23-.15-.35s-.07-.25-.08-.38c-.02-.12-.02-.25-.02-.38.01-.13.03-.26.06-.38.05-.14.11-.28.18-.41.06-.13.14-.26.22-.39.09-.12.18-.24.28-.35s.21-.21.32-.31c.19-.19.38-.39.57-.57.2-.19.4-.38.6-.56s.4-.36.61-.53l.63-.51c.29-.19.58-.39.86-.6s.55-.43.81-.66c.26-.24.52-.48.76-.73.25-.24.48-.5.71-.77a8.595 8.595 0 0 0 .72-1.33c.1-.23.19-.47.28-.7.08-.24.15-.49.21-.73.12-.43.23-.86.33-1.29.09-.44.18-.87.25-1.31.08-.44.14-.88.19-1.32s.08-.89.11-1.33c0-.29.01-.59.02-.88.02-.3.04-.59.07-.88.03-.3.07-.59.12-.88.04-.29.1-.58.16-.87.51-1.8 1.85-3.43 1.69-5.3l-.03-.2v-.21c.01-.06.02-.13.04-.2.01-.06.03-.13.06-.19.04-.05.09-.09.13-.13.05-.04.1-.08.16-.11.05-.04.1-.06.16-.09l.18-.06c.26-.1.53-.2.8-.28s.54-.15.81-.22c.28-.06.55-.11.83-.15.28-.05.56-.08.84-.1s.56 0 .83.04c.28.04.54.12.8.22s.51.23.74.39.44.34.63.54c.47.56.77 1.34 1.46 1.59.08.02.17.03.25.04s.17.01.25.01.17 0 .25-.01.17-.02.25-.04c1.68-.17 3.47-.38 4.76-1.47.31-.27.59-.58.83-.91.25-.33.46-.69.63-1.07.17-.37.3-.76.39-1.16.09-.41.14-.82.15-1.23 0-.62-.28-1.27.67-1.4.73-.1 1.3.66 1.67 1.16.36.43.71.87 1.02 1.33.32.46.62.94.89 1.43s.51.99.73 1.51.41 1.04.57 1.58c.05-.02.1-.04.15-.05.05-.02.1-.03.15-.04s.1-.02.15-.02c.06-.01.11-.01.16-.01a2.646 2.646 0 0 1 1.76.65c.16.14.3.3.42.47.14.22.27.46.37.7.1.25.18.5.23.76.06.26.09.52.09.79.01.26-.01.53-.05.79z"/><path class="shp11" d="M1072.3 724.59c-.3 2.41-1.83 4.49-3.51 6.25-.45.41-.89.83-1.32 1.26-.42.43-.84.87-1.25 1.31-.41.45-.81.91-1.2 1.38-.39.46-.76.94-1.13 1.42-1.66 2.52-2.39 5.63-4.53 7.76-.2.2-.41.39-.63.57-.21.18-.43.36-.66.52-.23.17-.46.33-.7.48s-.48.3-.73.43c-.28.16-.56.32-.85.47s-.58.3-.87.43c-.3.14-.6.26-.9.38s-.6.24-.91.34c-3.19 1-6.63.79-10 .55-.27 0-.54-.02-.81-.05-.27-.02-.53-.06-.8-.12-.26-.05-.53-.11-.78-.19-.26-.07-.52-.16-.77-.26-.12-.06-.23-.12-.35-.18-.11-.06-.23-.13-.34-.2-.11-.06-.22-.13-.33-.21a6.1 6.1 0 0 1-.32-.22 5.9 5.9 0 0 1-.59-.43c-.18-.15-.36-.32-.53-.49s-.32-.36-.47-.55-.29-.39-.41-.6c.16-.08.32-.15.49-.21s.34-.11.51-.15c.18-.04.35-.07.53-.09.17-.03.35-.04.53-.04 1.49.08 2.57 1.48 4 1.91 2 .61 4-.82 6.09-1.31 1.34-.31 2.76-.22 4.07-.65.27-.11.54-.22.81-.35.26-.13.52-.28.77-.43s.5-.31.73-.49c.24-.17.47-.36.69-.55.3-.22.6-.45.89-.68.28-.24.56-.49.83-.75s.53-.53.78-.81c.24-.28.48-.56.71-.86.19-.3.37-.6.55-.9.17-.31.34-.62.5-.93.15-.31.3-.63.44-.95.14-.33.28-.65.4-.98.27-.63.55-1.26.85-1.88.29-.62.6-1.23.92-1.84.31-.61.64-1.21.98-1.8.34-.6.7-1.19 1.06-1.77.05-.09.11-.18.17-.27s.12-.17.19-.26c.06-.08.13-.16.2-.24s.14-.16.22-.23c.31-.29.7-.5 1-.76 1.37-1 1.94-2.77 2.42-4.41.03-.13.07-.25.11-.38.03-.12.08-.25.12-.37.05-.12.09-.24.15-.36.05-.12.1-.24.16-.36a2.646 2.646 0 0 1 1.76.65c.16.14.3.3.42.47.14.22.26.45.36.69s.18.49.23.74c.06.26.09.51.1.77 0 .26-.01.52-.05.78z"/><path class="shp12" d="M928.63 510.98a14.822 14.822 0 0 1 2.3 2.16c.34.4.66.82.96 1.26.3.43.57.88.82 1.35 1 1.88 6.49 16.48 6.17 18.57 1.8-1.82 8.94-2.12 10.73-3.93.76-.76 4.87-4.56 5.48-5.44s5.19-2.77 5.69-3.67c1.87-3.35-13.26-16-11.33-19.36.03-.04.05-.08.07-.12s.04-.08.05-.13c.02-.04.03-.09.03-.13.01-.05.01-.09.01-.14a.358.358 0 0 0-.04-.11c-.02-.04-.03-.07-.05-.11-.03-.03-.05-.06-.08-.1-.02-.03-.05-.05-.08-.08-.34-.29-.68-.57-1.03-.84s-.71-.53-1.08-.78c-.36-.25-.74-.49-1.11-.72-.38-.23-.77-.45-1.16-.66s-.76-.46-1.11-.74c-.34-.28-.66-.6-.95-.94-.28-.34-.53-.71-.75-1.1-.21-.39-.39-.8-.53-1.22a14.071 14.071 0 0 0-2.04 1.15c-.33.22-.64.45-.95.7-.3.24-.6.5-.88.77-2.77 2.37-5.49 4.79-8.18 7.28-1.06 1-3.08 2.27-3.57 3.66s1.6 2.6 2.61 3.42z"/><path class="shp10" d="M953.12 505.59c-.58.39-1.15.79-1.71 1.21-.56.41-1.12.84-1.66 1.28-.54.45-1.07.9-1.59 1.37s-1.02.95-1.52 1.44c-1.88 1.85-3.66 4-4.13 6.61-.19 1-.16 2.06-.32 3.09-.67 4.48-4.56 7.77-6.27 12-.13.32-.24.65-.35.98s-.21.66-.3.99c-.09.34-.18.67-.25 1.01-.08.34-.14.68-.2 1.02a43.974 43.974 0 0 0-.55 3.91 43.647 43.647 0 0 0-.23 3.95c0 2.56 2.46 4.32 3.38 6.71.19.59.37 1.19.53 1.79.17.6.32 1.2.45 1.81.14.6.26 1.21.37 1.83.11.61.2 1.22.28 1.84.25 1.15.52 2.29.82 3.43s.61 2.28.96 3.4c.34 1.13.7 2.25 1.09 3.36.38 1.11.79 2.21 1.22 3.31 3.38 9.33 14.33 35.13 17.71 44.47 10.35-2.6 37.91-8.57 47.07-14 3.06-1.82-21.2-22.38-17.93-23.8.09-.03.18-.06.27-.11.09-.04.17-.1.25-.15.07-.06.15-.13.21-.2.07-.07.13-.15.18-.23.03-.08.05-.16.06-.25.01-.08.02-.17.02-.25s-.01-.17-.02-.25c-.01-.09-.03-.17-.06-.25-3.26-14.29-13.49-26-18.12-40-1.61-4.83-4.5-8.95-6.7-13.55-2-4.16-3.05-8.75-5.42-12.7-.11-.2-.23-.4-.36-.59-.13-.2-.27-.38-.42-.57-.14-.18-.29-.35-.45-.52s-.33-.33-.5-.49c-.15-.11-.3-.22-.46-.33-.15-.1-.31-.2-.47-.3-.16-.09-.32-.18-.49-.27-.16-.09-.33-.17-.5-.25-1.31-.7-2.57-1.09-3.89-1.75z"/><path class="shp12" d="M929.18 509.35c-8.96 0-16.2-7.24-16.2-16.2s7.24-16.2 16.2-16.2 16.2 7.24 16.2 16.2-7.24 16.2-16.2 16.2z"/><path class="shp11" d="M945.66 500.76c.4-.37.86-.68 1.35-.91.49-.24 1.02-.39 1.56-.47s1.09-.07 1.63.01c.54.09 1.06.26 1.55.5.28.12.54.28.77.48s.43.44.59.7c.17.25.29.54.36.83.08.3.11.61.09.91l8 .12c.32-.01.64-.01.96.01.32.01.64.03.96.06.31.03.63.06.95.11.31.05.63.1.94.17s.62.16.91.28c.3.13.58.27.85.44.28.17.53.37.77.58.23.21.45.45.65.7.1.13.21.28.37.31.03 0 .07 0 .1-.01s.06-.01.1-.03c.03-.01.06-.02.09-.04.03-.01.05-.03.08-.05.31-.16.62-.29.95-.4s.66-.19 1-.25c.34-.07.68-.1 1.02-.11s.69 0 1.03.04c4.34.28 8.36 2.46 11.76 5.17.16.1.3.22.44.35.14.12.27.26.39.4.12.15.22.3.32.46.09.16.18.33.25.5.28.91 0 2.08.66 2.7 0 7.55 2.59 14.58 4.32 21.93.3 1.31 1.56 2.46 2.43 3.49a12.756 12.756 0 0 1 1.46 1.83c.22.33.42.66.61 1s.37.69.53 1.05c1.46 3.81-.56 8.28.87 12.11.18.39.37.78.58 1.15a19.706 19.706 0 0 0 1.38 2.18c.26.35.52.69.8 1.02.32.4.61.83.87 1.27s.5.9.69 1.38a10.881 10.881 0 0 1 .79 2.97c.06.92-.06 1.84 0 2.77.02.31.05.62.09.92.04.31.08.61.14.92.06.3.12.6.19.9.07.31.15.6.24.9.58 2.21 1.2 4.42 1.84 6.62 1 3.56 2.4 7.41 5.59 9.31-7.71 1.31-15.83 2.58-23.18-.09-.26-.09-.51-.18-.76-.29-.25-.1-.49-.22-.73-.34-.25-.12-.48-.25-.72-.39-.23-.13-.46-.28-.68-.43-2.65-1.89-3.93-5.13-5.07-8.18-1.28-3.43-2.58-6.91-2.84-10.56 0-.29-.01-.58-.03-.87s-.04-.58-.08-.87c-.05-.29-.1-.58-.16-.86-.06-.29-.13-.57-.21-.85-.75-2-2.73-3.19-4.55-4.29-.51-.28-1.01-.58-1.49-.9-.49-.32-.96-.66-1.41-1.01-.46-.36-.91-.73-1.33-1.13-.43-.39-.84-.8-1.24-1.22-.39-.43-.74-.89-1.04-1.39s-.54-1.03-.74-1.58a8.28 8.28 0 0 1-.39-1.69c-.08-.58-.09-1.16-.05-1.74.14-1.13.58-2.22.63-3.36.03-.28.02-.57-.03-.85-.06-.27-.16-.54-.3-.79s-.31-.47-.52-.66c-.21-.2-.45-.35-.71-.47-5.61-1.7-8.29-8.34-9.54-14.07-.14-.74-.25-1.49-.35-2.23a42.917 42.917 0 0 1-.36-4.51c-.02-.75-.03-1.51-.01-2.26l-.07-5.79c-.39-.35-.74-.74-1.04-1.16-.31-.42-.58-.87-.79-1.35-.22-.47-.39-.97-.5-1.48-.12-.51-.18-1.03-.19-1.55.02-.15.04-.3.05-.46.01-.15.02-.3.02-.46 0-.15-.01-.3-.02-.45-.01-.16-.03-.31-.05-.46-.07-.19-.14-.37-.23-.55s-.19-.36-.29-.53c-.11-.16-.23-.33-.35-.48-.13-.15-.27-.3-.41-.44-.31-.31-.61-.63-.9-.97-.29-.33-.56-.67-.82-1.03a16.054 16.054 0 0 1-1.39-2.24zM928.4 519.29c-.18 1.81.23 3.66-.18 5.44-.16.68-.43 1.33-.63 2-.15.63-.25 1.28-.29 1.93-.04.64-.03 1.3.03 1.94a11.74 11.74 0 0 0 1.01 3.75c.27.59.56 1.18.85 1.75.3.58.61 1.15.94 1.71.32.57.66 1.12 1.01 1.67s.71 1.09 1.09 1.62c.13.18.25.36.37.55s.23.38.33.57c.1.2.2.4.29.6.1.2.18.4.26.61l.18.66c.05.22.1.44.14.66s.07.45.1.67c.02.23.05.45.06.68.1.9.21 1.81.34 2.71s.28 1.8.43 2.69c.16.9.34 1.79.53 2.68s.39 1.78.61 2.66c.76 3.08 1.75 6.19 3.78 8.63.09.13.2.26.31.37s.24.21.37.31c.13.09.28.16.42.23.15.06.3.11.46.15.11 0 .23 0 .34-.01.12-.01.23-.03.34-.05s.22-.05.33-.09.22-.08.32-.13l4.14-1.57.27-.09c.09-.04.17-.08.26-.12.08-.04.16-.09.24-.14.08-.06.16-.11.23-.17.09-.11.18-.23.25-.36s.13-.26.18-.4.09-.28.11-.42c.03-.15.04-.29.04-.44.29-3.34-.71-6.65-1.82-9.81-3.36-9.54-7.82-18.73-10-28.6-.61-2.76-.93-7-2.94-9.15-.83-.9-.55-.52-1.54 0-.12.06-.25.11-.37.17s-.25.13-.37.19c-.12.07-.24.13-.36.2s-.23.14-.35.21c-.3.2-.57.43-.82.68a4.852 4.852 0 0 0-1.08 1.82c-.11.34-.18.69-.21 1.04z"/><path class="shp3" d="M940.88 537.39c1.1 5.82 2.22 11.64 3.37 17.47l16.08-4.22c.13-1.68-.77-3.24-1.39-4.81-1.47-3.68-1.5-7.77-2.69-11.55-.9-2.88-2.46-5.53-3.3-8.43-.49-1.68-.73-3.44-1.21-5.13-.13-.42-.27-.83-.41-1.25-.14-.41-.3-.82-.45-1.23-.16-.4-.33-.81-.5-1.21s-.35-.8-.53-1.2a32.099 32.099 0 0 0-1.56-3.36c-.29-.54-.6-1.08-.93-1.6-.32-.53-.66-1.04-1.02-1.55-2.06.77-4.25 1.66-5.42 3.51a6.742 6.742 0 0 0-.71 1.67c-.09.29-.15.59-.2.89-.05.29-.08.6-.09.9-.28 3.62 1 7.25.59 10.83a31.427 31.427 0 0 0-.23 5.15c.03.86.1 1.72.2 2.57.1.86.23 1.71.4 2.55z"/><path class="shp11" d="M960.6 614.98c.9 3.44-.41 7-1.47 10.42-.4 1.28-.77 2.56-1.11 3.86-.34 1.29-.65 2.59-.92 3.9s-.51 2.63-.72 3.95-.39 2.65-.53 3.98a11.672 11.672 0 0 1-.25 2.03c-.06.34-.15.67-.24 1s-.2.65-.32.97c-.15.27-.3.55-.46.82-.15.27-.31.54-.47.8-.17.27-.33.54-.5.8s-.34.52-.52.78c-1.62 2.86-1.58 6.36-1.23 9.63.23 2.16.58 4.31 1 6.44.53 2.59 1.18 5.31.42 7.84 1.27-.28 2.14 1.36 2.09 2.67s-.51 2.71.11 3.86c1.58.57 1.6 2.74 1.55 4.41.01.73.03 1.45.08 2.18s.12 1.45.21 2.17.2 1.44.34 2.16c.13.71.29 1.42.46 2.13 2.39 11.46 4.92 22.89 7.6 34.29 5.79 1.8 12.55 3.67 18.07 1.18.27-.09.52-.2.76-.35s.46-.32.66-.52.38-.42.52-.66c.15-.25.26-.5.35-.77.01-.15.02-.3.02-.45s-.02-.3-.03-.45c-.02-.15-.05-.29-.08-.44-.04-.14-.08-.29-.13-.43l-2.62-9.52c-.2-.56-.36-1.13-.5-1.71-.14-.57-.25-1.15-.33-1.74s-.12-1.18-.14-1.77c-.02-.6-.01-1.19.03-1.78.26-1.77 1-3.67.16-5.22-.3-.53-.76-1-1.1-1.46-1.38-2-.66-4.69-.54-7.13.01-.14.02-.27.02-.41s-.01-.27-.02-.41-.03-.27-.05-.41c-.02-.13-.04-.27-.07-.4-.05-.16-.1-.31-.15-.46-.06-.16-.12-.31-.18-.46-.07-.15-.14-.29-.21-.44s-.15-.29-.23-.43c-.54-1.04-1.01-2.12-1.4-3.23-.4-1.1-.73-2.23-.98-3.38-.25-1.14-.43-2.3-.54-3.47-.1-1.17-.13-2.35-.08-3.52a3.401 3.401 0 0 0-.24-1.78c-.04-.06-.08-.11-.12-.17l-.12-.18c-.04-.06-.07-.12-.1-.18-.04-.06-.07-.13-.1-.19-.03-.11-.04-.22-.05-.33s-.01-.23 0-.34c.02-.11.04-.22.07-.33.03-.1.07-.21.12-.31-.2-.14-.39-.29-.57-.45-.19-.15-.37-.32-.55-.48-.18-.17-.35-.34-.51-.52a8.21 8.21 0 0 1-.48-.55c.37-.24.69-.57.92-.94.23-.38.38-.81.43-1.25.04-.44-.01-.89-.15-1.31-.15-.42-.39-.8-.7-1.12a1.535 1.535 0 0 0 1.18-1.94c-.08-.27-.23-.52-.44-.71-.34-.24-.78-.34-1-.68-.37-.5-.07-1.21.23-1.75l1.6-2.89c1.19-2.14 1.46-4.79 2.74-6.88.43-.76.85-1.54 1.24-2.32.39-.79.76-1.58 1.12-2.39a51.478 51.478 0 0 0 1.86-4.92l4.56-12.7 3.1 2.69c.26.2.51.41.74.63.24.22.47.45.68.7.22.24.42.5.61.76.18.26.36.54.52.82.11.28.21.56.3.85.09.28.17.57.24.86s.12.58.17.88.08.59.11.89c1.14 6.9 5.49 12.88 7.1 19.69.06.38.13.77.22 1.14.09.38.19.76.32 1.12.12.37.26.74.41 1.09.16.36.33.71.51 1.05.08.1.15.2.23.3l.22.31c.07.11.13.21.2.32.06.11.13.22.19.33.06.17.11.34.15.51s.08.35.11.52c.03.18.05.35.07.53.01.18.02.35.02.53.07.69.22 1.38.43 2.04a9.641 9.641 0 0 0 2.11 3.59c.47.51 1 .97 1.57 1.37 1.52 1 3.45 1.77 4.25 3.43.04.13.09.25.14.38s.11.25.17.37c.05.12.12.24.18.36.07.12.14.24.21.35.74.89 2.34 1 2.66 2.11.17.63-.16 1.37.2 1.92.05.06.1.12.16.18.05.05.11.1.18.15.06.05.13.09.2.13.06.04.14.07.21.1l4.47 2.24c5 2.49 7.52 8.2 11.21 12.39.32.34.63.69.93 1.04.3.36.59.72.87 1.09a28.915 28.915 0 0 1 1.55 2.31c1.59 2.84 2.33 6.41 5 8.24a7.105 7.105 0 0 1 1.03.64c.16.12.32.25.47.38.15.14.3.28.44.42.85 1.11.54 2.67.61 4.07s1.15 3.06 2.48 2.64c-.12.42-.21.85-.26 1.28a9.504 9.504 0 0 0 0 2.61c.05.43.14.86.26 1.28 1.45-.07 2.88-.27 4.3-.58 1.41-.32 2.8-.75 4.14-1.29 1.34-.55 2.63-1.2 3.87-1.96 1.23-.76 2.4-1.62 3.49-2.57 1.3-1.14 2.56-2.59 2.57-4.31v-.22c-.01-.08-.02-.15-.04-.22-.01-.08-.03-.15-.06-.22s-.06-.13-.09-.2c-.06-.08-.13-.16-.21-.24a2.326 2.326 0 0 0-.79-.52c-4.17-2.26-5.43-7.5-7.52-11.76-1.85-3.75-4.57-7-6.88-10.48-5-7.5-8.34-16.57-15.85-21.53-1.65-1.09-3.57-2.06-4.39-3.86-.09-.26-.17-.53-.25-.79-.08-.27-.16-.53-.23-.8-.08-.26-.15-.53-.21-.8-.07-.27-.13-.54-.19-.81-.07-.27-.18-.52-.32-.75-.15-.23-.33-.44-.54-.62s-.44-.32-.7-.43a2.7 2.7 0 0 0-.79-.2c.12-.4.22-.81.3-1.23.08-.41.15-.83.19-1.25.05-.41.07-.84.08-1.26s0-.84-.03-1.26c.01-.18.01-.36.01-.54-.01-.18-.02-.37-.04-.55s-.05-.36-.09-.53c-.03-.18-.08-.36-.13-.53-.07-.19-.15-.37-.23-.55-.08-.19-.17-.37-.26-.54-.09-.18-.19-.35-.29-.53-.1-.17-.21-.33-.32-.5-.49-.83-.91-1.69-1.28-2.57-.37-.89-.67-1.8-.91-2.73s-.41-1.87-.52-2.83c-.11-.95-.15-1.91-.12-2.87.06-2 .41-4-.19-5.91-.3-1-.82-1.83-1.19-2.76-.14-.41-.26-.84-.36-1.26-.11-.42-.19-.85-.27-1.28a19.212 19.212 0 0 1-.23-2.61l-.41-6.59c-.01-.55-.04-1.1-.08-1.64-.05-.55-.1-1.09-.18-1.64a30.213 30.213 0 0 0-.59-3.23c-1.39-5.11-2.72-26.52-7.43-28.93s-12.75 14.06-18 14.39c-.59.03-1.17.07-1.75.14s-1.16.16-1.74.27a23.372 23.372 0 0 0-3.39.91c-3.51 1.32-6.46 3.78-9.33 6.19l-9.72 8.16c-.46.41-.94.82-1.42 1.2-.48.39-.98.77-1.48 1.13-.5.37-1.02.72-1.54 1.05-.52.34-1.05.66-1.59.97zM913.97 475.16a11.96 11.96 0 0 1 4.2-3.36c.81-.4 1.66-.71 2.54-.91.88-.21 1.79-.32 2.69-.33.9 0 1.81.06 2.71.17.89.11 1.78.27 2.66.49s1.74.5 2.59.83c.84.32 1.66.7 2.46 1.13.24.13.48.26.72.38s.49.23.74.34c.25.1.51.2.76.29.26.09.52.17.78.24 1.72.35 3.62-.12 5.17.7 2.06 1.09 2.45 3.87 2.27 6.19s-.61 4.86.62 6.85c.11.14.21.29.32.43.1.15.2.29.3.44s.2.3.29.45c.1.15.19.31.28.46.09.31.16.63.21.95.04.32.06.64.05.96a6.123 6.123 0 0 1-.37 1.9c-.18-.2-.35-.4-.52-.61-.18-.2-.35-.41-.51-.62a26.9 26.9 0 0 1-.49-.63c-.17-.22-.32-.43-.48-.65-.72-.79-1.95-1.33-2.83-.74s-.88 1.68-.92 2.65-.3 2.14-1.22 2.46c-.19.04-.38.04-.57.03a2.118 2.118 0 0 1-1.04-.42c-.15-.12-.28-.26-.39-.41-1.57-1.92-.94-5-2.49-6.92-.89-1.1-2.36-1.63-3.18-2.78-.64-.9-.8-2.07-1.36-3s-1.87-1.69-2.75-1c-.07.07-.15.15-.21.23-.07.07-.14.16-.2.24s-.12.17-.17.26l-.15.27c-.27.39-.6.72-.98 1-.38.27-.81.48-1.26.62-.45.13-.92.19-1.39.17s-.93-.12-1.37-.29c-.17-.1-.34-.2-.52-.29-.17-.09-.35-.17-.53-.25s-.37-.15-.56-.21c-.18-.07-.37-.13-.56-.18-.25-.01-.49.01-.73.06-.25.05-.48.14-.7.26a2.747 2.747 0 0 0-1.04 1.02c-.12.22-.22.44-.31.67-.09.24-.16.47-.22.71-.05.25-.09.49-.11.74-.02.24-.02.49-.01.74 0 1.35.24 2.83-.54 3.93-.08.1-.16.2-.25.29s-.19.18-.28.27c-.1.08-.2.16-.31.23-.1.08-.21.15-.32.21-1.15.73-2.72 1.22-3.8.39-.18-.17-.33-.35-.46-.56s-.24-.43-.31-.66c-.08-.23-.12-.47-.13-.71-.02-.25 0-.49.05-.73s.11-.48.17-.71c.06-.24.12-.47.19-.71l.21-.7.24-.69c.6-2.12-.18-4.51.48-6.51.17-.45.37-.9.57-1.34a19.576 19.576 0 0 1 1.43-2.54c.26-.41.54-.8.84-1.19z"/><path class="shp3" d="M922.65 523.49c-.03.12-.04.25-.05.38 0 .12 0 .25.01.38.01.12.04.25.07.37s.07.24.12.36c.05.08.11.16.17.23s.12.14.19.21l.21.18c.08.06.16.11.24.16.57.36 1.17.68 1.78.96.62.28 1.25.53 1.89.74s1.3.38 1.96.5c.67.13 1.34.22 2.01.27.09 0 .17.01.26.02l.26.06c.08.02.16.05.24.08s.16.07.24.11c.14.13.26.28.36.45.09.17.16.35.2.54s.05.39.03.58c-.01.19-.06.38-.14.56s-.15.36-.21.54a5.99 5.99 0 0 0-.24 1.14c-.02.19-.03.39-.03.58.2 1.43 1.89 2.08 3.33 2.26.49.1 1 .15 1.5.16.51 0 1.01-.05 1.51-.15.49-.09.98-.24 1.44-.43.47-.19.92-.42 1.34-.7.27-.24.52-.51.76-.78.23-.28.45-.57.65-.87.21-.3.39-.62.55-.94s.31-.66.43-1c3.93-9 5.31-19 9.29-28 .08-.15.15-.29.21-.45.06-.15.12-.3.17-.46s.09-.31.13-.47c.04-.17.07-.33.09-.49s.02-.33 0-.49c-.03-.16-.07-.32-.14-.48-.06-.15-.14-.29-.25-.42-.1-.13-.22-.24-.35-.34-.74-.46-1.89-.2-2.39-.91-.25-.37-.22-.86-.44-1.24-.46-.82-1.66-.72-2.49-1.16-.64-.35-1.09-1-1.8-1.19a2.36 2.36 0 0 0-1.04.18c-.16.07-.31.16-.45.27-.15.1-.28.22-.39.36-2.33 2.18-3.56 5.27-4.86 8.19a77.49 77.49 0 0 1-1.57 3.32c-.54 1.1-1.1 2.19-1.69 3.27-.58 1.07-1.18 2.14-1.81 3.19-.62 1.06-1.27 2.1-1.93 3.13.31-.48-1.48-4.13-2.18-4.27-1.22-.25-2.8 1.9-3.46 2.71-.51.63-.97 1.29-1.39 1.98s-.78 1.41-1.1 2.16c-.32.74-.58 1.5-.78 2.28-.21.78-.36 1.58-.46 2.38z"/><path class="shp9" d="M930.83 536.29h78.03v78.03h-78.03v-78.03z"/><path class="shp3" d="M994.82 562.49v35.86h-49.95v-46.1h25.58v10.24h24.37zM955.1 588.1h-5.11v5.12h5.11v-5.12zm0-10.24h-5.11v5.12h5.11v-5.12zm0-10.25h-5.11v5.13h5.11v-5.13zm0-10.25h-5.11v5.13h5.11v-5.13zm10.24 30.74h-5.11v5.12h5.1l.01-5.12zm0-10.24h-5.11v5.12h5.1l.01-5.12zm0-10.25h-5.11v5.13h5.1l.01-5.13zm0-10.25h-5.11v5.13h5.1l.01-5.13zm24.37 10.25h-19.26v5.12h5.11v5.13h-5.11v5.12h5.11v5.12h-5.11v5.12h19.26v-25.61zm-4.48 10.26h-5.11v-5.13h5.11v5.13zm0 10.24h-5.11v-5.13h5.11v5.13z" fill-rule="evenodd"/><path class="shp12" d="M1008.2 579.27c-.34.3-.66.6-.99.91-.32.31-.63.63-.94.95s-.61.66-.91.99c-.29.34-.58.68-.86 1.03s-.53.72-.75 1.12c-.21.39-.4.8-.54 1.23s-.25.86-.32 1.31c-.07.44-.1.89-.09 1.34 0 .13.01.26.03.39a2.75 2.75 0 0 0 .25.74c.06.11.12.22.2.33.08.1.17.19.28.27.1.07.22.13.35.17.12.04.25.06.38.05.13 0 .26-.02.38-.06.07-.04.13-.08.2-.12.06-.05.12-.09.18-.15.05-.05.11-.1.16-.16s.1-.12.14-.18c.18-.22.36-.43.55-.65l.57-.63c.19-.21.38-.41.58-.62l.6-.6c.3-.29.68-.6 1.08-.49.04.02.09.03.13.05.04.03.08.05.12.08.04.02.08.05.12.08.03.03.07.06.1.1.12.1.23.2.33.32.1.11.2.23.28.36s.16.26.22.4c.07.14.13.28.17.43.03.27.02.53-.01.8a3.696 3.696 0 0 1-.54 1.49c-.15.23-.32.43-.51.62s-.38.38-.55.59c-.17.2-.34.42-.49.64s-.29.45-.41.69c-.13.24-.24.48-.34.73a.83.83 0 0 0-.06.21c-.02.07-.02.14-.02.21 0 .08 0 .15.02.22.01.07.03.14.06.21.03.05.07.1.11.14s.08.09.13.12c.04.04.09.08.14.11l.15.09c.49.27 1.01.48 1.54.63.54.16 1.09.26 1.65.29.56.04 1.11.01 1.67-.07.55-.08 1.09-.23 1.61-.43 1.39-.55 2.59-1.51 4-2 .15-.04.3-.08.45-.13s.3-.1.45-.16c.15-.05.3-.11.44-.17.15-.06.29-.13.43-.2.2-.13.39-.29.56-.46.17-.16.33-.35.46-.55.14-.2.25-.42.34-.64s.16-.45.21-.69c.04-.24.08-.48.11-.72.02-.24.04-.48.05-.72s.01-.48 0-.73c-.01-.24-.02-.48-.05-.72-.04-.93-.13-1.87-.25-2.79-.13-.93-.29-1.85-.49-2.76-.2-.92-.44-1.82-.72-2.71s-.6-1.77-.95-2.64a.774.774 0 0 0-.07-.16.507.507 0 0 0-.09-.16c-.03-.05-.06-.09-.1-.14-.04-.04-.09-.08-.13-.12-.05-.03-.1-.06-.15-.08-.06-.02-.11-.04-.17-.06-.05-.01-.11-.03-.17-.03a.88.88 0 0 0-.17-.02c-1.75-.18-4.63-1.08-6.32-.43-.15.08-.29.17-.43.26-.14.1-.27.21-.39.32-.13.11-.25.23-.36.35-.11.13-.21.26-.31.4-.39.35-2.33 1.92-2.33 2.38z"/><path class="shp11" d="M1007.6 577.72c0-1.68-2.08-5.71 1.21-6 0-1.78-2.53-2.9-2.07-4.78.16-.64.67-1.15.75-1.79.21-1.83-3.09-2.82-2.55-4.58.2-.67.93-1.08 1.09-1.76.37-1.58-2.46-2.29-2.51-3.91 0-.55.3-1.07.28-1.61 0-.69-.6-1.21-.93-1.8-.85-1.53-.44-3.9-2-4.68 1 .08 1.39-1.45.95-2.39s-1.3-1.75-1.3-2.79l.03-.29c0-.09.01-.19.01-.28 0-.1-.01-.2-.01-.29l-.03-.29c-.29-1-1.93-1.07-2.2-2.07 0-.09-.01-.19-.01-.28V537.56c0-.09.01-.19.01-.28-.1-.78-.9-1.26-1.65-1.49-.19-.03-.38-.07-.57-.12s-.38-.11-.56-.17c-.19-.07-.37-.14-.55-.22s-.35-.17-.52-.27c-.48-.37-1-1-1.55-.65-.19.11-.29.33-.44.5-.61.71-1.78.4-2.56-.13-2.29-1.55-3.42-4.34-3.92-7.06s-.47-5.53-1.07-8.23c-.05-.21-.1-.42-.15-.62-.05-.21-.11-.42-.17-.62-.06-.21-.13-.41-.2-.61-.06-.21-.14-.41-.21-.61-.12-.19-.23-.39-.34-.59s-.21-.4-.31-.61c-.09-.2-.18-.41-.27-.62s-.17-.43-.24-.64c-.12-1.57 3.14-.5 4.38-.34.3.03.6.06.9.11.3.04.6.09.9.14.29.06.59.12.88.19.3.07.59.15.88.23.31.12.62.24.92.36.31.13.61.25.92.39.3.13.6.27.9.41s.59.28.89.43c5 2.19 10.92 2.46 14.9 6.13 1.31 1.21 2.41 2.79 4.1 3.33.19.04.39.08.58.13.19.04.39.09.58.14s.38.1.57.16c.19.05.38.11.57.17 1.89.89 2.18 3.39 3.21 5.2.08.12.16.24.23.36.08.12.15.25.22.37.08.13.14.26.21.38.07.13.13.26.19.39.05.15.09.31.13.47.03.16.06.32.08.48.03.16.04.32.05.48.01.17.01.33.01.49l.14 4.75c.23 8 .47 15.93-.38 23.84-.28 2.6-.67 5.29.09 7.8.2.68.49 1.33.66 2 .04.2.08.41.11.61.03.21.05.41.08.62.02.21.04.41.05.62s.02.41.02.62l.11 3.07c.01.06.01.12.01.18 0 .07-.01.13-.02.19s-.03.12-.05.18c-.03.05-.06.11-.09.16a.76.76 0 0 1-.19.12c-.06.03-.13.06-.2.07-.07.02-.15.03-.22.03s-.15-.01-.22-.02c-4.29-.38-8.61-2.8-12.66-1.34"/><path class="shp12" d="M927.89 565.19c-.05.02-.09.05-.14.08l-.12.09c-.04.03-.08.07-.12.11-.03.04-.07.08-.1.12-.22.29-.38.62-.5.96-.11.35-.17.71-.17 1.07s.06.72.17 1.07c.12.34.28.67.5.96.03.03.05.06.07.09.03.03.05.07.07.1s.04.07.05.1c.02.04.04.07.05.11.01.06.01.12.01.17 0 .06-.01.12-.02.18s-.02.11-.04.17c-.02.05-.04.11-.07.16-.1.2-.18.41-.22.64-.04.22-.04.44-.01.67.02.22.08.44.18.65.09.2.21.39.36.56.31.26.73.39.93.73.35.58-.14 1.32-.06 2 .1.89 1.15 1.33 2 1.44.17.04.35.06.52.06.18-.01.35-.03.52-.07.17-.05.33-.12.49-.2.15-.09.29-.19.42-.31.09-.13.15-.27.2-.42a1.835 1.835 0 0 0 0-.93c-.05-.15-.11-.29-.2-.42s-.18-.26-.28-.38-.2-.23-.31-.35c-.12-.11-.23-.21-.35-.31s-.25-.19-.38-.28c.24-.01.47-.07.69-.16.22-.1.43-.23.6-.4s.31-.36.41-.58c.11-.22.17-.45.19-.69s.01-.48-.04-.71c-.04-.24-.11-.46-.21-.68s-.23-.42-.38-.61c-.15-.18-.32-.35-.51-.49-.18-.15-.4-.3-.45-.54s.19-.57.41-.8c1-1 1.77-3.45-.11-4a4.26 4.26 0 0 0-1-.06c-.17 0-.34.02-.51.05-.16.02-.33.06-.49.1-.48.15-.48.44-.85.64s-.78.1-1.2.31z"/><path class="shp4" d="M947.54 496.12c-.25.01-.49.04-.73.1s-.47.14-.68.25c-.22.11-.43.25-.62.4-.19.16-.36.34-.51.53-.16.26-.3.52-.42.79-.12.28-.23.56-.32.84-.09.29-.16.58-.21.88-.06.29-.09.59-.11.89-.15.96-.35 1.91-.6 2.85-.24.94-.53 1.87-.87 2.78-.33.91-.71 1.8-1.14 2.67-.42.88-.88 1.73-1.39 2.56M951.04 498.86c-.34.01-.67.06-1 .15s-.64.23-.93.41c-.29.17-.55.38-.79.63a3.7 3.7 0 0 0-.6.81c-.11.27-.22.54-.31.82s-.17.56-.24.84c-.07.29-.13.57-.18.86s-.09.58-.11.87c-.15.64-.33 1.28-.54 1.9-.21.63-.46 1.24-.74 1.83-.28.6-.59 1.18-.94 1.75-.34.56-.71 1.11-1.11 1.63"/><path class="shp13" d="M305.89 562.57c.58 6.32-4.19 12.44-2.8 18.62.3 1.32.87 2.57 1.08 3.9.57 3.67-1.62 7.15-3.71 10.22l-17.94 26.34c-.18.29-.37.57-.57.85s-.41.55-.62.81c-.21.27-.44.53-.67.78s-.47.49-.71.73c-3.44 3-8.58 2.73-13.09 3.64-.79.16-1.57.37-2.33.61-.77.25-1.52.53-2.26.86-.74.32-1.45.69-2.15 1.09s-1.37.84-2.02 1.32c-.06.04-.11.1-.15.16-.04.07-.06.14-.07.21s-.01.15.01.22.05.14.09.2a7.543 7.543 0 0 0 2.87 2.36c.57.26 1.17.46 1.78.58.62.12 1.24.16 1.87.12.47.62 0 1.53-.65 2-1 .67-2.29.84-2.48 2.48-.02.14-.02.28-.02.42.01.15.03.29.05.43.03.14.07.27.12.4.05.14.11.27.18.39.18.27.38.53.61.76.23.24.48.45.75.64.27.18.55.34.85.48.3.13.61.23.93.3 6.21 1.9 12.93-1.43 17.57-6s8-10.27 12.56-14.9c2.53-2.55 5.4-4.75 8-7.23 5.2-4.94 9.23-11 13.13-17 .32-.44.62-.89.89-1.35.28-.46.54-.93.78-1.42.24-.48.45-.98.65-1.48.19-.5.37-1.01.52-1.53.48-2.06.26-4.23.82-6.27.72-2.66 2.68-4.79 4.3-7 3.19-4.38 5.31-9.75 4.89-15.15s-3.76-10.74-8.86-12.57c-.39-.16-.8-.29-1.21-.38-.42-.09-.84-.15-1.26-.18-.43-.03-.85-.02-1.28.02-.42.05-.84.12-1.25.23-2.09.65-3.63 2.38-5.06 4l-3.4 3.94c-.21.21-.42.44-.61.67s-.37.48-.54.73-.32.51-.47.78c-.14.27-.27.54-.38.82s-.18.58-.2.88c-.03.3-.01.6.06.9.06.29.16.58.3.85.15.26.33.51.54.72"/><path class="shp14" d="M305.89 562.57c.58 6.32-4.19 12.44-2.8 18.62.3 1.32.87 2.57 1.08 3.9.57 3.67-1.62 7.15-3.71 10.22l-17.94 26.34c-.18.29-.37.57-.57.85s-.41.55-.62.81c-.21.27-.44.53-.67.78s-.47.49-.71.73c-3.44 3-8.58 2.73-13.09 3.64-.79.16-1.57.37-2.33.61-.77.25-1.52.53-2.26.86-.74.32-1.45.69-2.15 1.09s-1.37.84-2.02 1.32c-.06.04-.11.1-.15.16-.04.07-.06.14-.07.21s-.01.15.01.22.05.14.09.2a7.543 7.543 0 0 0 2.87 2.36c.57.26 1.17.46 1.78.58.62.12 1.24.16 1.87.12.47.62 0 1.53-.65 2-1 .67-2.29.84-2.48 2.48-.02.14-.02.28-.02.42.01.15.03.29.05.43.03.14.07.27.12.4.05.14.11.27.18.39.18.27.38.53.61.76.23.24.48.45.75.64.27.18.55.34.85.48.3.13.61.23.93.3 6.21 1.9 12.93-1.43 17.57-6s8-10.27 12.56-14.9c2.53-2.55 5.4-4.75 8-7.23 5.2-4.94 9.23-11 13.13-17 .32-.44.62-.89.89-1.35.28-.46.54-.93.78-1.42.24-.48.45-.98.65-1.48.19-.5.37-1.01.52-1.53.48-2.06.26-4.23.82-6.27.72-2.66 2.68-4.79 4.3-7 3.19-4.38 5.31-9.75 4.89-15.15s-3.76-10.74-8.86-12.57c-.39-.16-.8-.29-1.21-.38-.42-.09-.84-.15-1.26-.18-.43-.03-.85-.02-1.28.02-.42.05-.84.12-1.25.23-2.09.65-3.63 2.38-5.06 4l-3.4 3.94c-.21.21-.42.44-.61.67s-.37.48-.54.73-.32.51-.47.78c-.14.27-.27.54-.38.82s-.18.58-.2.88c-.03.3-.01.6.06.9.06.29.16.58.3.85.15.26.33.51.54.72"/><path class="shp12" d="M169.23 589.42c1 3.16 2 6.32 3.21 9.4a81.87 81.87 0 0 0 1.76 3.95c.63 1.31 1.29 2.59 1.98 3.86.7 1.26 1.42 2.51 2.19 3.74.76 1.22 1.55 2.43 2.38 3.61.53.78 1.08 1.55 1.63 2.32.55.76 1.12 1.52 1.69 2.27s1.15 1.49 1.75 2.23c.59.73 1.19 1.46 1.8 2.18 3.06 3.61 6.48 7.24 7.56 11.85.63 2.66.42 5.45.68 8.17s1.15 5.61 3.35 7.24c.42.26.85.49 1.29.7.44.2.9.38 1.36.54.47.15.94.28 1.42.37.48.1.96.17 1.45.21 1.38.22 3.11.29 3.83-.91.06-.12.12-.25.17-.37.04-.13.08-.26.12-.4.03-.13.05-.26.07-.4.01-.14.02-.27.02-.41l.34-4c.07-.86.37-2 1.23-2s1.3 1.11 2 1.62c.26.14.55.23.84.25.3.03.6-.01.88-.1.28-.1.54-.25.76-.44.22-.2.4-.44.52-.71.11-.28.2-.56.26-.86.06-.29.09-.58.1-.88 0-.3-.02-.6-.06-.89-.05-.3-.12-.59-.22-.87-.3-1.13-.71-2.22-1.24-3.26-.53-1.05-1.16-2.03-1.9-2.94-.73-.9-1.56-1.73-2.46-2.47-.91-.73-1.89-1.37-2.93-1.9-.36-.15-.72-.31-1.08-.47-.35-.17-.7-.34-1.05-.52s-.69-.37-1.03-.57c-.34-.19-.67-.4-1-.61-.33-.29-.65-.59-.96-.91-.3-.32-.59-.65-.87-1-.27-.34-.53-.7-.77-1.07s-.46-.75-.67-1.14c-7.56-12.45-15.16-25-20.5-38.51-.26-.6-.5-1.22-.72-1.84s-.42-1.25-.6-1.88c-.18-.64-.33-1.28-.46-1.92-.13-.65-.24-1.3-.33-1.95-.03-.67-.04-1.34-.04-2 0-.67.01-1.34.04-2.01.03-.66.07-1.33.12-2 .06-.66.13-1.33.21-1.99.08-1.2.11-2.4.09-3.6-.01-1.2-.08-2.4-.19-3.59-.11-1.2-.27-2.39-.47-3.57s-.45-2.36-.75-3.52c-.06-.31-.14-.61-.23-.91s-.2-.59-.31-.88-.24-.58-.38-.86-.29-.55-.45-.82c-2.19-3.34-7.36-3.83-10.62-1.53-.6.46-1.15.98-1.64 1.56-.49.57-.92 1.19-1.28 1.86-.36.66-.66 1.36-.87 2.08-.22.72-.36 1.47-.43 2.22-.24 2.69 1.32 5.5 2.11 8 2.45 7.75 4.88 15.5 7.3 23.25z"/><path class="shp14" d="M169.23 589.42c1 3.16 2 6.32 3.21 9.4a81.87 81.87 0 0 0 1.76 3.95c.63 1.31 1.29 2.59 1.98 3.86.7 1.26 1.42 2.51 2.19 3.74.76 1.22 1.55 2.43 2.38 3.61.53.78 1.08 1.55 1.63 2.32.55.76 1.12 1.52 1.69 2.27s1.15 1.49 1.75 2.23c.59.73 1.19 1.46 1.8 2.18 3.06 3.61 6.48 7.24 7.56 11.85.63 2.66.42 5.45.68 8.17s1.15 5.61 3.35 7.24c.42.26.85.49 1.29.7.44.2.9.38 1.36.54.47.15.94.28 1.42.37.48.1.96.17 1.45.21 1.38.22 3.11.29 3.83-.91.06-.12.12-.25.17-.37.04-.13.08-.26.12-.4.03-.13.05-.26.07-.4.01-.14.02-.27.02-.41l.34-4c.07-.86.37-2 1.23-2s1.3 1.11 2 1.62c.26.14.55.23.84.25.3.03.6-.01.88-.1.28-.1.54-.25.76-.44.22-.2.4-.44.52-.71.11-.28.2-.56.26-.86.06-.29.09-.58.1-.88 0-.3-.02-.6-.06-.89-.05-.3-.12-.59-.22-.87-.3-1.13-.71-2.22-1.24-3.26-.53-1.05-1.16-2.03-1.9-2.94-.73-.9-1.56-1.73-2.46-2.47-.91-.73-1.89-1.37-2.93-1.9-.36-.15-.72-.31-1.08-.47-.35-.17-.7-.34-1.05-.52s-.69-.37-1.03-.57c-.34-.19-.67-.4-1-.61-.33-.29-.65-.59-.96-.91-.3-.32-.59-.65-.87-1-.27-.34-.53-.7-.77-1.07s-.46-.75-.67-1.14c-7.56-12.45-15.16-25-20.5-38.51-.26-.6-.5-1.22-.72-1.84s-.42-1.25-.6-1.88c-.18-.64-.33-1.28-.46-1.92-.13-.65-.24-1.3-.33-1.95-.03-.67-.04-1.34-.04-2 0-.67.01-1.34.04-2.01.03-.66.07-1.33.12-2 .06-.66.13-1.33.21-1.99.08-1.2.11-2.4.09-3.6-.01-1.2-.08-2.4-.19-3.59-.11-1.2-.27-2.39-.47-3.57s-.45-2.36-.75-3.52c-.06-.31-.14-.61-.23-.91s-.2-.59-.31-.88-.24-.58-.38-.86-.29-.55-.45-.82c-2.19-3.34-7.36-3.83-10.62-1.53-.6.46-1.15.98-1.64 1.56-.49.57-.92 1.19-1.28 1.86-.36.66-.66 1.36-.87 2.08-.22.72-.36 1.47-.43 2.22-.24 2.69 1.32 5.5 2.11 8 2.45 7.75 4.88 15.5 7.3 23.25z"/><path class="shp15" d="M320.98 708.16c-3.92 2.39-8.8 2.53-13.36 2-.73-.09-1.6-.15-2.07.42-.68.82.12 2 .95 2.7a20.355 20.355 0 0 0 4.35 2.47c.77.31 1.57.58 2.37.8.81.22 1.63.39 2.46.5.75.1 1.49.19 2.24.27s1.5.14 2.25.19 1.5.09 2.25.11c.76.02 1.51.03 2.26.03 8.19.14 16.42.27 24.53-.91.12-.01.23-.02.35-.04.11-.02.23-.05.34-.08s.22-.07.33-.12c.11-.04.22-.09.32-.15.13-.09.25-.19.35-.31.11-.11.21-.24.29-.37.09-.13.16-.27.22-.41.06-.15.11-.3.14-.45.1-.54.12-1.08.08-1.62-.05-.55-.17-1.08-.35-1.59-.19-.51-.45-1-.76-1.44-.32-.44-.69-.84-1.11-1.19-.43-.34-.87-.66-1.32-.96s-.92-.58-1.4-.83c-.48-.26-.97-.5-1.47-.71s-1.01-.4-1.53-.57l-7.12-2.77c-1.67-.65-4.36-2.38-6.17-2.24-3.36.22-6.59 5.61-9.42 7.27z"/><path class="shp15" d="M338.87 724.89a17.598 17.598 0 0 1-5.55 3.36c-1.02.38-2.08.66-3.15.85-1.07.18-2.16.27-3.25.25-1.12 0-2.68.21-2.68 1.33 0 .08.01.17.03.25l.06.24c.03.08.06.15.1.23.04.07.08.14.13.21.35.57.74 1.11 1.19 1.62.44.5.93.96 1.45 1.37.53.41 1.09.78 1.69 1.09.59.31 1.21.56 1.85.76.61.14 1.22.26 1.84.36.62.09 1.25.15 1.87.19s1.25.06 1.88.04c.62-.01 1.25-.05 1.87-.12l7.3-.38c1.38-.07 2.77-.14 4.14-.31s2.86-.45 4.29-.67a58.98 58.98 0 0 1 5.3-.5 59.46 59.46 0 0 1 5.33 0c.23.04.46.06.7.06.23-.01.46-.05.69-.11s.45-.14.65-.25c.21-.11.4-.25.58-.4.65-.82.27-2 .06-3-.44-2.11 0-4.33-.41-6.46-.7-3.72-3.9-6.58-7.45-7.93-3.28-1.25-9.1-2.68-12.21-.6-3.34 2.21-5.35 5.85-8.3 8.52z"/><path class="shp11" d="M324.45 630.43c-3 3.95-6 8.51-5.3 13.39.4 2.63 1.87 4.95 2.95 7.39.34.84.66 1.68.95 2.53.3.86.57 1.72.82 2.58.25.87.48 1.74.68 2.62.21.88.39 1.76.55 2.65 1.11 5.17 2.22 10.35 2.91 15.59.19 1.48.35 2.97.47 4.46s.21 2.98.27 4.48c.05 1.49.07 2.98.06 4.48-.02 1.49-.07 2.99-.15 4.48-.09 1.44-.25 3-1.25 4-.4.4-.92.73-1.09 1.27-.03.13-.04.26-.05.38a2.615 2.615 0 0 0 .12.77c.04.12.1.24.16.35.45.93.99 1.81 1.61 2.64s1.31 1.59 2.07 2.29 1.58 1.33 2.46 1.88c.87.54 1.8 1.01 2.76 1.38s1.94.69 2.94.98a34.648 34.648 0 0 0 6.07 1.13c1.03.1 2.06.15 3.09.15.14.02.27.02.41.02s.28-.01.41-.03c.14-.01.27-.04.41-.07.13-.04.26-.08.39-.13.14-.08.27-.18.39-.28.13-.1.24-.22.35-.34a3.375 3.375 0 0 0 .51-.81c3-5.7 1.33-12.58 1.38-19 0-5.37 1.3-10.69 1.07-16.06-.19-4.3-1.34-8.5-1.76-12.79-.69-7 .6-14.1 1.89-21.05 1-5.32 2-10.65 3.25-15.92.16-.81.35-1.61.57-2.41.23-.79.48-1.58.77-2.35s.61-1.54.96-2.28c.35-.75.73-1.48 1.14-2.2 1.4-2.21 3.3-4.06 4.9-6.14 1.09-1.44 2.04-2.97 2.84-4.59s1.43-3.31 1.9-5.06c.47-1.74.77-3.52.89-5.32.13-1.8.08-3.61-.15-5.4-.1-.72-10.3 2.58-11.18 3-.92.39-1.82.81-2.7 1.27-.88.47-1.74.97-2.58 1.5-.83.54-1.65 1.11-2.44 1.72-.78.61-1.55 1.25-2.28 1.92-2.36 2.24-4.21 5.24-6.28 7.76-2.92 3.55-5.79 7.13-8.62 10.72-3.23 4.12-6.41 8.27-9.54 12.45z"/><path class="shp14" d="M324.45 630.43c-3 3.95-6 8.51-5.3 13.39.4 2.63 1.87 4.95 2.95 7.39.34.84.66 1.68.95 2.53.3.86.57 1.72.82 2.58.25.87.48 1.74.68 2.62.21.88.39 1.76.55 2.65 1.11 5.17 2.22 10.35 2.91 15.59.19 1.48.35 2.97.47 4.46s.21 2.98.27 4.48c.05 1.49.07 2.98.06 4.48-.02 1.49-.07 2.99-.15 4.48-.09 1.44-.25 3-1.25 4-.4.4-.92.73-1.09 1.27-.03.13-.04.26-.05.38a2.615 2.615 0 0 0 .12.77c.04.12.1.24.16.35.45.93.99 1.81 1.61 2.64s1.31 1.59 2.07 2.29 1.58 1.33 2.46 1.88c.87.54 1.8 1.01 2.76 1.38s1.94.69 2.94.98a34.648 34.648 0 0 0 6.07 1.13c1.03.1 2.06.15 3.09.15.14.02.27.02.41.02s.28-.01.41-.03c.14-.01.27-.04.41-.07.13-.04.26-.08.39-.13.14-.08.27-.18.39-.28.13-.1.24-.22.35-.34a3.375 3.375 0 0 0 .51-.81c3-5.7 1.33-12.58 1.38-19 0-5.37 1.3-10.69 1.07-16.06-.19-4.3-1.34-8.5-1.76-12.79-.69-7 .6-14.1 1.89-21.05 1-5.32 2-10.65 3.25-15.92.16-.81.35-1.61.57-2.41.23-.79.48-1.58.77-2.35s.61-1.54.96-2.28c.35-.75.73-1.48 1.14-2.2 1.4-2.21 3.3-4.06 4.9-6.14 1.09-1.44 2.04-2.97 2.84-4.59s1.43-3.31 1.9-5.06c.47-1.74.77-3.52.89-5.32.13-1.8.08-3.61-.15-5.4-.1-.72-10.3 2.58-11.18 3-.92.39-1.82.81-2.7 1.27-.88.47-1.74.97-2.58 1.5-.83.54-1.65 1.11-2.44 1.72-.78.61-1.55 1.25-2.28 1.92-2.36 2.24-4.21 5.24-6.28 7.76-2.92 3.55-5.79 7.13-8.62 10.72-3.23 4.12-6.41 8.27-9.54 12.45z"/><path class="shp11" d="M346.11 600.05c.64 3.06 3.61 5.4 3.69 8.53.07 2.5-1.71 4.6-3 6.75a53.867 53.867 0 0 0-1.68 3.41c-.25.57-.49 1.16-.72 1.75-.24.59-.45 1.18-.66 1.78-.61 1.56-1.25 3.1-1.93 4.62-.68 1.53-1.4 3.04-2.15 4.53s-1.53 2.96-2.36 4.42c-.82 1.45-1.67 2.89-2.56 4.3-1.71 2.72-3.63 5.67-3.23 8.86.07.37.15.74.25 1.1a12.35 12.35 0 0 0 .78 2.13c.16.34.33.67.52 1l5.14 10.21c.28.51.55 1.03.8 1.55a32.288 32.288 0 0 1 1.31 3.23c.19.55.36 1.11.51 1.67.45 1.94.49 4 .75 5.92.81 6.26 3.74 12.56 2 18.63-.15.52-.7 1.15-1.11.79 1.7 3.17 3.07 6.37 2.93 10-.06 1.89-.64 3.85.06 5.61.1.16.19.33.27.51.08.17.16.34.22.52.07.18.12.37.17.55s.09.37.12.56c0 .51-.24 1-.29 1.51-.14 1.44 1.18 2.65 2.56 3.11s2.88.43 4.27.84c2.68.8 4.58 3.1 6.88 4.7.58.4 1.18.76 1.81 1.07s1.28.58 1.95.79c.66.22 1.35.39 2.04.51s1.39.18 2.09.2c.1.01.2.01.3.01.1-.01.2-.02.3-.04s.19-.04.29-.08c.09-.03.18-.07.27-.12.1-.09.19-.19.27-.29.08-.11.15-.22.21-.35.05-.12.09-.24.12-.37s.05-.27.05-.4c.06-.64.04-1.28-.05-1.91-.1-.64-.27-1.26-.51-1.85-.25-.59-.57-1.15-.95-1.66-.38-.52-.82-.98-1.32-1.39-.1-.07-.2-.15-.3-.23-.09-.08-.18-.17-.27-.26a3.253 3.253 0 0 1-.43-.61c-.03-.1-.06-.2-.08-.3s-.03-.21-.04-.31-.01-.21-.01-.31.01-.21.03-.31c.1-1.4.18-2.81.22-4.21.04-1.41.05-2.82.02-4.22-.03-1.41-.08-2.81-.17-4.22-.09-1.4-.22-2.8-.37-4.2-.07-.44-.12-.89-.17-1.33-.04-.45-.08-.9-.1-1.34-.02-.45-.03-.9-.03-1.35 0-.44.02-.89.04-1.34.07-.37.14-.74.19-1.11.06-.37.1-.74.14-1.11.04-.38.06-.75.08-1.13.02-.37.02-.75.02-1.12-.08-.37-.17-.73-.26-1.09-.1-.36-.21-.72-.32-1.08s-.24-.71-.37-1.06-.27-.7-.42-1.04c-.79-2.55-.57-5.29-.65-8-.07-1.16-.18-2.31-.31-3.46s-.29-2.3-.48-3.44-.41-2.28-.65-3.41c-.25-1.14-.52-2.26-.82-3.38-.07-.45-.16-.89-.28-1.33a10.602 10.602 0 0 0-1.85-3.61c-1.07-1.12-2.8-2.18-2.39-3.67.06-.14.12-.27.19-.4s.15-.26.23-.38c.09-.13.18-.24.27-.36.1-.11.2-.22.31-.32.25-.31.46-.65.65-1a5.715 5.715 0 0 0 .62-2.28c.03-.4.01-.8-.04-1.19.22.06.45.07.68.05s.46-.08.66-.18c.21-.1.4-.23.56-.39.17-.16.3-.35.4-.56 2.1-1.04 4.09-2.28 5.95-3.71 1.86-1.42 3.57-3.03 5.12-4.78 1.55-1.76 2.92-3.67 4.1-5.69 1.17-2.03 2.15-4.16 2.91-6.38.04-.16.09-.32.15-.48s.12-.31.19-.47c.06-.15.14-.3.22-.45.08-.14.16-.29.25-.43.77-1.08 2.12-1.55 3.31-2.15 3.74-1.88 6.32-5.41 8.69-8.86.37-.48.72-.98 1.05-1.49s.63-1.04.92-1.58c.28-.53.53-1.09.77-1.65.23-.56.44-1.13.62-1.71a21.599 21.599 0 0 0 .36-2.31c.04-.38.06-.77.08-1.16s.02-.78.02-1.17l.21-8c.01-.13.01-.26.01-.4 0-.13 0-.26-.02-.39-.01-.13-.03-.26-.05-.39l-.09-.39c-.05-.12-.11-.24-.17-.35s-.13-.23-.2-.33c-.08-.11-.15-.21-.24-.31-.08-.1-.17-.2-.26-.29-.57-.6-1.18-1.15-1.83-1.65-.66-.5-1.35-.94-2.07-1.33-.73-.39-1.48-.73-2.26-1-.77-.27-1.57-.48-2.38-.62-2.19-.39-4.43-.32-6.65-.5-4.3-.36-8.55-1.69-12.86-1.38-6.76.5-12.78 5.19-16 11.17-1.18 2.14-2.36 3.94-4.76 4.01z"/><path class="shp10" d="M121.72 722.52c.37.13.74.23 1.12.32s.76.16 1.15.2c.39.05.78.07 1.16.08.39 0 .78-.01 1.17-.05.11-1.27 1.82-1.55 3.09-1.49.16-.01.31-.01.47.01.16.01.31.03.47.07.15.03.3.08.45.13s.29.12.43.19c.32.2.56.5.87.71.14.08.28.14.42.2.15.06.3.1.45.14a3.735 3.735 0 0 0 .93.12l6.62.56c2.95.25 6 .48 8.78-.58.14-.04.27-.09.4-.15s.26-.13.38-.21.23-.17.33-.27c.11-.09.21-.2.3-.31.75-1.07 0-2.61-1-3.39s-2.37-1.14-3.41-1.94c-2.3-1.75-2.61-5-3.83-7.64-.21-.41-.44-.82-.68-1.22s-.49-.79-.75-1.18c-.27-.38-.54-.75-.83-1.12s-.59-.72-.9-1.07c-.23-.3-.46-.59-.7-.87-.25-.29-.5-.56-.76-.83s-.53-.53-.81-.78-.57-.49-.86-.72c-2.65-1.92-5.71-1.88-8.82-2.15-2.2-.2-4.27-.33-5.85 1.62-1.95 2.42-1.17 7.3-1.05 10.19.03.96.08 1.92.15 2.87.06.96.15 1.92.25 2.87.11.95.23 1.9.38 2.85.14.95.3 1.9.48 2.84z"/><path class="shp14" d="M121.72 722.52c.37.13.74.23 1.12.32s.76.16 1.15.2c.39.05.78.07 1.16.08.39 0 .78-.01 1.17-.05.11-1.27 1.82-1.55 3.09-1.49.16-.01.31-.01.47.01.16.01.31.03.47.07.15.03.3.08.45.13s.29.12.43.19c.32.2.56.5.87.71.14.08.28.14.42.2.15.06.3.1.45.14a3.735 3.735 0 0 0 .93.12l6.62.56c2.95.25 6 .48 8.78-.58.14-.04.27-.09.4-.15s.26-.13.38-.21.23-.17.33-.27c.11-.09.21-.2.3-.31.75-1.07 0-2.61-1-3.39s-2.37-1.14-3.41-1.94c-2.3-1.75-2.61-5-3.83-7.64-.21-.41-.44-.82-.68-1.22s-.49-.79-.75-1.18c-.27-.38-.54-.75-.83-1.12s-.59-.72-.9-1.07c-.23-.3-.46-.59-.7-.87-.25-.29-.5-.56-.76-.83s-.53-.53-.81-.78-.57-.49-.86-.72c-2.65-1.92-5.71-1.88-8.82-2.15-2.2-.2-4.27-.33-5.85 1.62-1.95 2.42-1.17 7.3-1.05 10.19.03.96.08 1.92.15 2.87.06.96.15 1.92.25 2.87.11.95.23 1.9.38 2.85.14.95.3 1.9.48 2.84z"/><path class="shp11" d="M124.4 593.84c-2 .65-2.9 3.17-2.53 5.27s1.63 3.9 2.67 5.75c2.94 5.27 4.22 11.3 6.69 16.8 1.85 4.11 4.35 7.91 6.18 12s3 8.77 1.85 13.14c-.54 2.13-1.58 4.09-2.28 6.17a33.57 33.57 0 0 0-.85 3.47 35.484 35.484 0 0 0-.49 3.53c-.22 2-.4 4.01-.53 6.03-.14 2.01-.22 4.02-.26 6.04s-.04 4.03.02 6.05c.05 2.01.15 4.03.29 6.04 0 .25.02.49.04.73.03.25.07.49.12.73s.12.48.19.71c.08.24.16.47.26.69.41.8 1.13 1.64.78 2.47-.14.33-.44.57-.59.9-.42.92.43 1.88 1.2 2.53-.07.12-.15.24-.24.35-.09.1-.2.2-.31.28-.11.09-.23.16-.35.23a1.9 1.9 0 0 1-.4.14 3.082 3.082 0 0 1 1.22 1.49c.12.31.19.63.2.96.02.33-.02.65-.11.97-.69.1-.73 1.15-.29 1.7s1.11.9 1.42 1.52c.09.25.13.52.12.79 0 .27-.06.54-.17.78-.11.25-.26.47-.46.66-.19.19-.41.34-.66.45-.25.1-.51.18-.78.24a5.475 5.475 0 0 1-2.41 0 31.488 31.488 0 0 1-2.69-.48c-.45-.1-.89-.2-1.33-.32-.44-.11-.88-.24-1.32-.37-.15-.04-.29-.08-.43-.13-.15-.05-.29-.1-.43-.17-.13-.06-.27-.13-.4-.21a3.03 3.03 0 0 1-.38-.24c-.22-.21-.42-.44-.59-.69s-.33-.51-.45-.79c-.13-.28-.23-.57-.3-.86-.07-.3-.11-.6-.13-.9-.1-.83-.19-1.66-.25-2.49-.07-.83-.12-1.67-.15-2.5-.03-.84-.04-1.67-.04-2.51.01-.83.03-1.67.07-2.5.29-16.16 0-32.34-.7-48.49-.29-6.5-2.24-12.84-4.76-18.84-.35-.77-.7-1.53-1.07-2.29-.37-.77-.75-1.52-1.13-2.27-.39-.75-.79-1.5-1.19-2.24-.41-.74-.82-1.47-1.25-2.2-3.62-6.66-6.84-14-6-21.55.09-.81.39-1.79 1.19-1.92.08-.01.16-.01.24-.01.07 0 .15.01.23.02s.15.03.23.06c.08.02.15.05.22.08.42.2.83.4 1.24.61.42.21.82.43 1.23.65.4.22.8.45 1.2.69s.79.48 1.18.73a18.43 18.43 0 0 0 4.06 1.77c.71.21 1.43.38 2.16.51.73.12 1.46.2 2.2.24z"/><path class="shp14" d="M124.4 593.84c-2 .65-2.9 3.17-2.53 5.27s1.63 3.9 2.67 5.75c2.94 5.27 4.22 11.3 6.69 16.8 1.85 4.11 4.35 7.91 6.18 12s3 8.77 1.85 13.14c-.54 2.13-1.58 4.09-2.28 6.17a33.57 33.57 0 0 0-.85 3.47 35.484 35.484 0 0 0-.49 3.53c-.22 2-.4 4.01-.53 6.03-.14 2.01-.22 4.02-.26 6.04s-.04 4.03.02 6.05c.05 2.01.15 4.03.29 6.04 0 .25.02.49.04.73.03.25.07.49.12.73s.12.48.19.71c.08.24.16.47.26.69.41.8 1.13 1.64.78 2.47-.14.33-.44.57-.59.9-.42.92.43 1.88 1.2 2.53-.07.12-.15.24-.24.35-.09.1-.2.2-.31.28-.11.09-.23.16-.35.23a1.9 1.9 0 0 1-.4.14 3.082 3.082 0 0 1 1.22 1.49c.12.31.19.63.2.96.02.33-.02.65-.11.97-.69.1-.73 1.15-.29 1.7s1.11.9 1.42 1.52c.09.25.13.52.12.79 0 .27-.06.54-.17.78-.11.25-.26.47-.46.66-.19.19-.41.34-.66.45-.25.1-.51.18-.78.24a5.475 5.475 0 0 1-2.41 0 31.488 31.488 0 0 1-2.69-.48c-.45-.1-.89-.2-1.33-.32-.44-.11-.88-.24-1.32-.37-.15-.04-.29-.08-.43-.13-.15-.05-.29-.1-.43-.17-.13-.06-.27-.13-.4-.21a3.03 3.03 0 0 1-.38-.24c-.22-.21-.42-.44-.59-.69s-.33-.51-.45-.79c-.13-.28-.23-.57-.3-.86-.07-.3-.11-.6-.13-.9-.1-.83-.19-1.66-.25-2.49-.07-.83-.12-1.67-.15-2.5-.03-.84-.04-1.67-.04-2.51.01-.83.03-1.67.07-2.5.29-16.16 0-32.34-.7-48.49-.29-6.5-2.24-12.84-4.76-18.84-.35-.77-.7-1.53-1.07-2.29-.37-.77-.75-1.52-1.13-2.27-.39-.75-.79-1.5-1.19-2.24-.41-.74-.82-1.47-1.25-2.2-3.62-6.66-6.84-14-6-21.55.09-.81.39-1.79 1.19-1.92.08-.01.16-.01.24-.01.07 0 .15.01.23.02s.15.03.23.06c.08.02.15.05.22.08.42.2.83.4 1.24.61.42.21.82.43 1.23.65.4.22.8.45 1.2.69s.79.48 1.18.73a18.43 18.43 0 0 0 4.06 1.77c.71.21 1.43.38 2.16.51.73.12 1.46.2 2.2.24z"/><path class="shp11" d="M97.08 574.19c-.26-.17-.54-.32-.82-.45s-.57-.24-.87-.34a6.948 6.948 0 0 0-1.83-.32c-.36.06-.71.14-1.06.25-.34.11-.68.25-1 .41s-.64.34-.93.55c-.3.21-.58.44-.84.69-.33.26-.66.52-.99.79-.32.27-.65.54-.96.82a37.78 37.78 0 0 0-1.85 1.73 20.856 20.856 0 0 0-3.14 4.38c-.84 1.6-1.47 3.3-1.87 5.06s-.56 3.56-.48 5.36c.08 1.81.4 3.59.95 5.31 1.21 3.59 3.4 6.76 5.56 9.86l4.4 6.32c6.71 9.64 13.43 19.28 20.46 28.69 0 .11.02.22.06.33.04.1.09.2.16.29s.15.17.24.23c.09.07.19.12.3.15.26.07.57.06.73.27.02.03.03.07.05.1l.03.11c0 .03.01.07.01.11v.11c-.01.17-.02.34-.04.51s-.04.34-.08.51c-.03.16-.07.33-.11.49-.05.17-.1.33-.16.49-.03.05-.05.11-.07.16-.02.06-.03.12-.04.18v.17c0 .06.01.12.03.18.22.53 1.19.23 1.49.73.21.32 0 .75-.32 1s-.6.59-.55 1 .72.79.69 1.29c0 .28-.24.49-.41.71-.12.17-.21.37-.26.57s-.07.42-.05.62c.02.21.08.42.17.61s.21.36.36.51c.46 4.6-2 8.95-2.53 13.55-.79 7.23 2.48 14.29 2.88 21.55-.01.2 0 .41.02.61.01.2.04.4.08.6s.08.4.14.6c.06.19.13.38.21.57.68 1.25 2.42 2 2.36 3.43-.03.15-.06.29-.1.44-.04.14-.07.29-.12.43-.04.15-.08.29-.13.43-.04.15-.09.29-.14.43 0 .21.01.41.02.62.02.21.03.41.05.62.03.21.05.41.08.62.03.2.07.41.11.61 0 .83-.7 1.82-1.47 1.5.58 1.92 1.09 3.86 1.54 5.81l15.4 1.27c.04-.35.07-.69.08-1.04a12.257 12.257 0 0 0-.07-2.09c-.04-.34-.09-.69-.15-1.03-.32-1.48-1-2.87-1.34-4.35-.11-.36-.19-.73-.22-1.11s-.02-.76.04-1.13c.05-.38.14-.75.28-1.1.13-.36.3-.69.51-1.01-.2 0-.4-.03-.59-.1a1.654 1.654 0 0 1-.9-.74 1.8 1.8 0 0 1-.21-.56c-.03-.2-.06-.4-.08-.6-.02-.19-.02-.39-.02-.6 0-.2 0-.4.02-.59.02-.2.05-.4.08-.6.41-4-1.28-8-1.23-12 .05-3.18 1.16-6.23 1.73-9.35 1.2-6.68-.05-13.93 2.92-20 1.8-3.68 4.29-7.76 2.27-11.32-1-1.76-2.75-3-3.89-4.62-.23-.39-.45-.79-.66-1.19-.2-.4-.39-.82-.57-1.23-.17-.42-.33-.85-.47-1.28-.15-.43-.28-.86-.39-1.3-2.38-7.36-6.21-14.15-9.58-21.12-.23-.44-.45-.88-.65-1.33-.21-.45-.39-.91-.57-1.38-.17-.46-.32-.93-.47-1.4-.14-.48-.26-.96-.37-1.44a27.45 27.45 0 0 1-.27-3.84c-.01-.42 0-.85.02-1.28 0-.77-.02-1.54-.04-2.31-.03-.76-.06-1.53-.11-2.3a88.982 88.982 0 0 0-.42-4.59c-.02-.33-.05-.67-.11-1-.06-.32-.13-.65-.23-.97-.09-.32-.2-.64-.34-.94a7.49 7.49 0 0 0-.44-.9c-.16-.22-.34-.43-.52-.63s-.37-.4-.57-.58c-.21-.18-.42-.36-.63-.52-.22-.17-.45-.32-.68-.46-5.05-3.44-11.07-5.43-16.52-8.3z"/><path class="shp10" d="M115.53 728.16c.37.13.74.23 1.12.32s.76.16 1.15.2c.39.05.78.07 1.16.08.39 0 .78-.01 1.17-.05.12-1.27 1.82-1.55 3.09-1.49.15 0 .31 0 .46.02.15.01.3.04.45.07s.3.08.44.13c.14.06.28.12.42.19.32.2.56.5.88.71a3.997 3.997 0 0 0 .87.35c.15.03.31.06.46.08.16.02.31.03.47.03l6.61.56c2.95.25 6 .48 8.79-.58.14-.04.27-.09.4-.15.13-.07.25-.14.37-.22s.23-.16.34-.26c.1-.1.2-.2.29-.31.75-1.07 0-2.61-1-3.39s-2.37-1.14-3.42-1.94c-2.29-1.75-2.61-5-3.83-7.64-.21-.41-.44-.82-.68-1.22s-.49-.79-.75-1.18c-.27-.38-.54-.75-.83-1.12s-.59-.72-.9-1.07c-.22-.3-.46-.59-.7-.87-.24-.29-.5-.56-.76-.83s-.53-.53-.8-.78c-.28-.25-.57-.49-.86-.72-2.66-1.92-5.71-1.88-8.82-2.15-2.21-.2-4.28-.33-5.85 1.62-2 2.42-1.18 7.3-1.06 10.19.04.96.09 1.92.16 2.87.08.96.17 1.91.28 2.87.11.95.24 1.9.38 2.85.15.94.32 1.89.5 2.83z"/><path class="shp9" d="M199.03 612.17h78.03v78.03h-78.03v-78.03z"/><path class="shp3" d="M261.1 648.57c0 8.9-4.17 14.5-10.76 14.5-3.37 0-5.94-1.8-6.39-4.47h-.48c-.28.67-.66 1.3-1.13 1.85-.47.56-1.02 1.04-1.64 1.42s-1.29.67-2 .85c-.71.17-1.43.24-2.16.19-5.86 0-9.77-4.7-9.77-11.69 0-6.71 3.94-11.38 9.69-11.38.68-.03 1.35.04 2.01.21.65.17 1.28.43 1.86.78.58.34 1.11.77 1.56 1.27.46.5.84 1.06 1.14 1.67h.48v-3.34h4.79v15.55c-.05.41-.01.83.13 1.22.13.39.35.75.63 1.04.29.3.64.53 1.03.67.38.15.8.21 1.21.17 3.32 0 5.44-4 5.44-10.3 0-10-7.5-16.69-18.57-16.69s-18.75 8-18.75 19.28c0 11.55 7.72 18.93 19.74 18.93.55 0 1.09-.01 1.64-.03s1.09-.06 1.64-.1c.54-.05 1.09-.11 1.63-.18s1.08-.15 1.62-.25c.48-.08.97.03 1.38.3.4.28.68.7.78 1.17a1.9 1.9 0 0 1-1.36 2.24c-.62.14-1.24.26-1.86.37-.62.1-1.25.19-1.88.25-.62.07-1.25.12-1.89.16-.63.03-1.26.04-1.89.04-14.61 0-24-9-24-23 0-13.68 9.55-23.07 23.46-23.07 13.4-.08 22.67 8.27 22.67 20.37zm-29.15 2.76c0 4.44 2.08 7.13 5.48 7.13 3.58 0 5.84-2.76 5.84-7.13s-2.26-7.07-5.78-7.07-5.54 2.62-5.54 7.07z" fill-rule="evenodd"/><path class="shp12" d="M183.77 547.53c-8.43 0-15.25-6.82-15.25-15.25s6.82-15.25 15.25-15.25 15.25 6.82 15.25 15.25-6.82 15.25-15.25 15.25z"/><path class="shp12" d="M169.39 536.8c-2.19 1.89-5.32 2-8.19 2.32-1.53.16-3.05.38-4.56.67-1.51.3-3 .66-4.48 1.08-1.48.43-2.93.93-4.37 1.48-1.43.56-2.83 1.18-4.21 1.87a5.6 5.6 0 0 0-.55.27c-.18.11-.35.21-.52.33s-.33.25-.48.38c-.16.13-.31.27-.45.42-.12.16-.23.33-.33.5-.11.18-.2.35-.28.54-.09.18-.16.37-.23.56-.06.19-.12.38-.16.58a14.551 14.551 0 0 0-.54 2.62 15.05 15.05 0 0 0-.04 2.68c.05.43.12.86.21 1.29.08.43.19.85.31 1.27s.26.84.42 1.24c.16.41.34.81.53 1.2.53 1.09 1.13 2.14 1.79 3.15.67 1.01 1.41 1.97 2.21 2.88.79.91 1.65 1.77 2.57 2.56.91.8 1.88 1.53 2.89 2.19.17.13.35.24.53.35.19.11.38.22.57.31s.39.17.59.25c.2.07.4.14.61.19 2 .42 3.95-.75 5.92-1.27.45-.12.9-.2 1.36-.25s.93-.07 1.39-.05c.46.01.92.06 1.38.14.45.08.9.19 1.34.34 1.66.55 3.41 1.56 5 .89.26-.14.5-.31.73-.49.22-.19.44-.39.63-.61s.37-.46.52-.71c.16-.25.29-.51.4-.78.39-.74.77-1.48 1.14-2.23s.72-1.51 1.07-2.27.68-1.52 1.01-2.29c.32-.77.64-1.54.94-2.32.11-.3.22-.6.34-.9s.24-.6.37-.89c.12-.3.25-.59.39-.88.13-.29.27-.58.41-.87 1.77-3.37 4.83-6 6.35-9.46.08-.13.14-.27.18-.42.05-.15.08-.3.09-.45.01-.16.01-.31-.01-.46-.03-.16-.07-.31-.12-.45-.07-.1-.15-.19-.23-.27-.08-.09-.17-.17-.27-.24-.09-.07-.19-.14-.3-.2-.1-.06-.21-.11-.32-.15-.56-.32-1.11-.66-1.65-1.03-.54-.36-1.06-.74-1.57-1.14s-1-.82-1.48-1.25c-.48-.44-.94-.89-1.39-1.36-1-1-2.85-3.56-4.29-3.79-1.58-.21-2.07 1.99-3.17 2.93z"/><path class="shp10" d="M169.75 567.79c-1.77.85-3.85.47-5.77.07-4.94-1-9.93-2.08-14.5-4.22-.35-.13-.7-.29-1.03-.48-.33-.18-.65-.39-.95-.62s-.59-.49-.85-.76-.51-.56-.73-.87c-.14-.26-.27-.53-.38-.81s-.21-.56-.3-.85a9.09 9.09 0 0 1-.2-.87c-.06-.3-.1-.59-.12-.89l-.84-5.67c-.29-2 .22-3.82.26-5.82.02-.11.02-.22.01-.34 0-.11-.02-.22-.05-.33s-.06-.21-.11-.31-.11-.2-.18-.29c-.07-.06-.14-.11-.22-.15s-.16-.08-.25-.1a1.219 1.219 0 0 0-.53-.06c-2.29 0-3.67 2.43-5.28 4.06-.23.23-.47.46-.72.67-.26.2-.52.4-.79.58-.27.19-.55.36-.84.51-.29.16-.59.3-.89.42-1.47.6-3.28 1-3.87 2.49-.25.61-.22 1.31-.47 1.92-1 2.44-5.4 1.63-6.51 4-.32.68-.3 1.54-.83 2.08s-1.5.52-2.3.66c-3.18.52-4.73 4.2-7.45 5.93-2.29 1.46-5.24 1.43-7.7 2.57-.32.19-.64.38-.97.56s-.66.35-.99.52c-.34.16-.67.32-1.01.48-.34.15-.68.3-1.03.44-.38.07-.77.12-1.15.16-.39.05-.78.08-1.16.1-.39.02-.78.02-1.17.02s-.77-.02-1.16-.05a1.045 1.045 0 0 0-.5.06c-.08.02-.15.05-.23.1-.07.04-.14.09-.2.14-.05.07-.08.15-.11.23s-.06.17-.07.25c-.01.09-.01.18-.01.26 0 .09.02.18.04.26.38 2.4 1.06 4.74 2.04 6.96s2.24 4.31 3.76 6.2a27.92 27.92 0 0 0 11.55 8.57c.13.04.26.09.39.14.12.05.25.11.37.17.13.05.25.12.37.19.12.06.24.13.35.21 1.39 1 1.63 3.27 3.2 4 .28.1.58.16.88.17.3.02.6 0 .89-.07.29-.06.58-.16.84-.3.27-.14.51-.31.73-.52.21-.21.43-.42.63-.64.21-.21.42-.43.62-.65s.39-.45.59-.68l.57-.69c.36-.37.74-.71 1.15-1.02.42-.31.85-.59 1.31-.83.45-.23.93-.44 1.41-.6.49-.16.99-.29 1.5-.37 1.89-.3 4-.08 5.53-1.24.16-.14.31-.29.46-.44s.3-.3.44-.46c.15-.15.29-.31.43-.47s.28-.32.41-.49c.29-.27.59-.51.9-.75.31-.23.64-.45.97-.65.34-.19.69-.37 1.04-.53.36-.17.72-.31 1.09-.43 1-.39 2.01-.73 3.04-1.03 1.02-.31 2.06-.57 3.1-.79 1.05-.22 2.1-.4 3.17-.54 1.06-.14 2.12-.23 3.19-.28 4-.23 8.15.14 11.94-1.17.25-.07.49-.16.72-.26.24-.1.47-.22.69-.34.23-.13.44-.27.65-.42s.41-.31.6-.48c.2-.22.39-.45.57-.69s.34-.49.49-.75a7.681 7.681 0 0 0 .72-1.65c.34-.99.62-2.01.83-3.04.2-1.03.34-2.07.41-3.12s.07-2.1-.01-3.15c-.07-1.05-.21-2.09-.42-3.12z"/><path class="shp10" d="M150.09 545.32c1.13-.1 2.26 0 3.39 0 1.33 0 2.64-.32 4-.33 1.04.02 2.08.2 3.07.54.98.34 1.91.84 2.74 1.47.83.64 1.56 1.4 2.15 2.26s1.05 1.81 1.34 2.81c.03.08.05.16.07.24.01.09.03.17.03.26.01.08.01.16 0 .25-.01.08-.02.17-.04.25a.696.696 0 0 1-.29.4c-.07.05-.15.09-.23.11s-.17.02-.25.01c-.11-.3-.23-.6-.35-.89-.13-.3-.26-.59-.41-.87-.14-.29-.29-.57-.45-.85s-.33-.55-.5-.82c-.31-.43-.66-.83-1.04-1.19-.38-.37-.79-.71-1.23-1.01-.43-.3-.89-.57-1.37-.8s-.97-.41-1.48-.56c-.51-.14-1.03-.26-1.55-.34a14.244 14.244 0 0 0-3.18-.12c-.52.05-1.05.12-1.57.23-.86.16-1.71.39-2.56.63l-4.15 1.12c-.75.2-1.5.41-2.23.68-.56.2-1.53 1-2.08 1-.75 0-.14-.65.19-1.09.16-.23.35-.44.54-.63.2-.2.41-.38.64-.54.22-.17.46-.31.71-.44s.51-.23.77-.32c.43-.18.86-.34 1.29-.49.44-.15.88-.28 1.32-.4.45-.13.9-.23 1.35-.33.45-.09.9-.17 1.36-.24z"/><path class="shp12" d="M160.37 591.13c1 3.16 2 6.32 3.21 9.4.55 1.33 1.14 2.65 1.77 3.95.62 1.31 1.28 2.59 1.98 3.86a82.66 82.66 0 0 0 2.18 3.74 86.66 86.66 0 0 0 2.39 3.61c.53.78 1.08 1.55 1.63 2.32.55.76 1.12 1.52 1.69 2.27s1.15 1.49 1.75 2.23c.59.73 1.19 1.46 1.8 2.18 3.06 3.61 6.48 7.24 7.56 11.85.63 2.66.42 5.45.68 8.17s1.15 5.61 3.35 7.24c.42.26.85.49 1.29.7.44.2.9.38 1.36.54.47.15.94.28 1.42.37.48.1.96.17 1.45.21 1.38.22 3.11.29 3.83-.91.06-.12.12-.25.17-.37.04-.13.08-.26.12-.4.03-.13.05-.26.07-.4.01-.14.02-.27.02-.41l.33-4c.08-.86.38-2 1.24-2s1.3 1.11 2 1.62c.26.14.55.23.84.25.3.03.6-.01.88-.1.28-.1.54-.25.76-.44.22-.2.4-.44.52-.71.11-.28.19-.56.25-.86.06-.29.09-.58.1-.88s-.01-.6-.06-.89c-.04-.3-.11-.59-.21-.87-.3-1.13-.71-2.22-1.24-3.26-.52-1.05-1.15-2.03-1.89-2.94a15.96 15.96 0 0 0-2.46-2.47c-.9-.74-1.88-1.38-2.92-1.91-.36-.15-.72-.31-1.08-.47-.35-.17-.7-.34-1.05-.52s-.69-.37-1.03-.57c-.34-.19-.67-.4-1-.61-.33-.29-.65-.59-.96-.91s-.6-.65-.87-1c-.27-.34-.53-.7-.77-1.07s-.47-.75-.67-1.14c-7.57-12.45-15.17-25-20.5-38.51-.26-.6-.5-1.22-.72-1.84s-.42-1.25-.6-1.88c-.18-.64-.33-1.28-.46-1.92-.13-.65-.24-1.3-.33-1.95-.03-.67-.04-1.34-.04-2 0-.67.01-1.34.04-2.01.03-.66.07-1.33.12-2 .06-.66.13-1.33.21-1.99.08-1.2.11-2.4.1-3.6s-.07-2.4-.18-3.6-.26-2.39-.47-3.57c-.2-1.19-.45-2.36-.74-3.53-.06-.31-.14-.61-.23-.91s-.2-.59-.31-.88-.24-.58-.38-.86-.29-.55-.45-.82c-2.19-3.34-7.36-3.83-10.62-1.53-.6.46-1.15.98-1.64 1.56-.49.57-.92 1.19-1.28 1.86-.36.66-.66 1.36-.87 2.08-.22.72-.36 1.47-.43 2.22-.24 2.69 1.32 5.5 2.11 8 2.41 7.77 4.83 15.53 7.24 23.28z"/><path class="shp11" d="M205.96 521.5c.12-1.27-1-2.42-2.31-3.23-.34-.18-.68-.36-1.01-.55-.34-.19-.67-.38-.99-.58-.33-.2-.65-.41-.97-.62s-.64-.43-.95-.65c-1.16-1-1.79-2.31-2.95-3.31-.33-.25-.67-.48-1.02-.7s-.71-.42-1.08-.6c-.36-.19-.74-.35-1.13-.5-.38-.15-.77-.28-1.17-.39a32.885 32.885 0 0 0-5.18-1.37c-.88-.16-1.77-.28-2.66-.37-.89-.08-1.79-.13-2.68-.15-.88-.02-1.76.02-2.63.12-.88.1-1.74.26-2.6.49-.85.22-1.68.51-2.49.85s-1.6.75-2.35 1.2c-.17.1-.33.21-.48.33-.16.12-.31.25-.45.38-.15.13-.28.27-.41.42s-.26.3-.37.46c-.11.2-.21.4-.3.6s-.17.41-.24.63c-.07.21-.13.42-.17.64-.05.22-.09.44-.12.66-.16.68-.34 1.36-.53 2.04s-.4 1.35-.62 2.02c-.22.66-.45 1.33-.7 1.98-.24.66-.51 1.31-.78 1.96-1.13 2.88-2.34 5.86-5 8.08-2.85 2.38-7.22 3.75-9.1 6.62-.1.13-.19.27-.26.41-.07.15-.12.31-.16.47s-.05.32-.05.48c0 .17.02.33.06.49.27.72 1.14 1.21 1.93 1.67 4.63 2.66 8.62 6.1 10.68 10.22.54.99.93 2.05 1.17 3.16.23 1.1.31 2.23.23 3.35-.09 1.13-.33 2.23-.72 3.29-.4 1.05-.94 2.05-1.62 2.95-1.07 1.4-2.55 3.06-1.5 4.47 1.59 2.14 7.08.92 8.34 3.18.07.19.12.38.16.57.04.2.07.39.08.59s.02.39 0 .59c-.01.2-.03.4-.07.59 0 2.37 2.29 4.49 5.07 5.58.73.25 1.48.47 2.23.65.75.19 1.5.35 2.27.48.76.12 1.53.21 2.3.28.77.06 1.55.09 2.32.09.21-.46.37-.94.49-1.43.11-.49.18-.99.2-1.5.02-.5-.01-1.01-.09-1.51-.07-.49-.2-.99-.37-1.46-.05-.1-.09-.21-.13-.32s-.06-.22-.08-.33c-.02-.12-.03-.23-.04-.35 0-.11.01-.23.02-.34.05-.13.12-.25.19-.37s.14-.23.23-.34c.08-.11.17-.21.27-.31s.2-.19.31-.27c3.35-3.16 2.64-7.81.63-11.56s-5.13-7.19-6.29-11.14c-.58-2-.59-4.17 1-5.8.22-.2.45-.39.68-.57.23-.19.47-.37.71-.54.24-.18.48-.35.73-.51.25-.17.5-.33.75-.48.45-.31.87-.64 1.27-1.01s.77-.77 1.11-1.19a11.266 11.266 0 0 0 1.62-2.8c.93-2.6.79-5.73 3.53-7.45s6.29-1.16 9.18-2.27c2.33-.93 4.88-4.32 5.06-6.17z"/><path class="shp13" d="M291.47 543.52c-9.2 0-16.63-7.43-16.63-16.63s7.43-16.63 16.63-16.63 16.63 7.43 16.63 16.63-7.43 16.63-16.63 16.63z"/><path class="shp13" d="M306.44 526.19c.77 1.22 1.65 2.37 2.65 3.41a21.435 21.435 0 0 0 7.04 4.93c1.32.57 2.7 1.01 4.11 1.31l-1.25 4.54c-2.16 7.82-4.6 16.1-10.64 21.52.13-.67.19-1.35.19-2.03-.01-.69-.09-1.37-.23-2.03-.15-.67-.36-1.32-.64-1.95-.27-.62-.61-1.21-1.01-1.77-.4-.55-.82-1.09-1.25-1.62-.44-.52-.89-1.03-1.36-1.53-.48-.49-.96-.97-1.47-1.43-.5-.46-1.02-.9-1.56-1.32l-9.57-8.33c-.07-.05-.14-.11-.21-.17s-.13-.13-.19-.19c-.06-.07-.12-.14-.17-.21-.06-.08-.1-.15-.15-.23-.06-.14-.1-.29-.13-.45-.03-.15-.05-.3-.05-.46s.02-.31.05-.46c.03-.16.07-.31.13-.45 1.22-3.8 4.7-6.17 7.52-8.73.35-.33.7-.67 1.04-1.02.33-.35.66-.71.98-1.08.31-.37.62-.75.91-1.13.3-.39.59-.78.86-1.18 1.96-2.7 3.19.03 4.4 2.06z"/><path class="shp15" d="M308.56 547.7a9.697 9.697 0 0 1-.05 1.86 9.955 9.955 0 0 1-.44 1.81c-.12.28-.28.55-.49.77a2.454 2.454 0 0 1-1.6.82c-.3.04-.61.02-.91-.05.35-.79-.57-1.69-1.43-1.59a2.789 2.789 0 0 0-1.15.57 2.767 2.767 0 0 0-.75 1.04c-.14.28-.26.58-.36.88-.1.31-.17.62-.21.94-.05.31-.07.63-.07.95.01.32.04.64.09.95.27 1.58 1.18 3.09.94 4.67-.19 1.31-1.16 2.62-.64 3.85.08.14.17.27.27.41.09.13.19.25.29.38.11.12.21.24.33.36.11.11.23.22.35.33.34.41.59.89.75 1.4.15.5.21 1.04.17 1.57s-.18 1.05-.42 1.53c-.23.47-.55.9-.95 1.26l13 .25c-.48 2.17.5 4.39 1.61 6.31a39.796 39.796 0 0 0 12.54 13.15 39.8 39.8 0 0 0 8.18 4.08c2.88 1.05 5.86 1.75 8.9 2.11-.33.19-.61.46-.83.77-.21.32-.35.68-.41 1.05-.06.38-.04.77.07 1.13.11.37.3.71.55.99 1.06 1.05 2.84.92 4.16.24.31-.2.62-.41.93-.62.3-.21.6-.43.9-.65s.59-.45.88-.69c.29-.23.58-.47.86-.71.53-.38 1.08-.71 1.67-.98.58-.28 1.19-.51 1.81-.68s1.26-.28 1.9-.34c.65-.06 1.3-.06 1.94 0 1.63.15 3.2.67 4.83.76 4.8.26 8.93-3.2 13.52-4.61 3.37-1 7.18-1 10-3.14 1.22-.9 2.22-2.38 1.86-3.86-.07-.21-.16-.42-.26-.62-.09-.2-.2-.4-.32-.58-.12-.19-.24-.38-.38-.55-.14-.18-.28-.35-.44-.51-1.63-2.11-2.58-4.64-3.75-7a38.5 38.5 0 0 0-1.89-3.45c-.68-1.12-1.42-2.21-2.2-3.26-.79-1.05-1.62-2.07-2.5-3.04s-1.81-1.9-2.78-2.79a67.09 67.09 0 0 0-2.23-1.88c-.75-.62-1.51-1.22-2.29-1.81-.77-.59-1.55-1.16-2.35-1.72-.79-.56-1.6-1.11-2.41-1.64-.2-.15-.4-.29-.6-.42-.21-.14-.41-.27-.62-.39-.21-.13-.43-.25-.64-.37l-.66-.33c-.29-.1-.59-.2-.88-.3-.29-.11-.58-.22-.87-.34-.28-.11-.57-.24-.85-.36-.28-.13-.56-.26-.84-.4-1.53-1-2.4-2.65-3.57-4-2.57-3-6.52-4.37-9.69-6.73-2.12-1.58-4-3.66-6.53-4.43-1.23-.37-2.55-.4-3.78-.77-2.8-.85-4.84-3.34-7.59-4.34-2.17-.8-4.57-.59-6.87-.88-.63-.08-1.26-.19-1.87-.35-.62-.15-1.23-.34-1.82-.56-.59-.23-1.17-.49-1.74-.78-.56-.29-1.11-.62-1.63-.98-.17-.14-.35-.27-.53-.4s-.37-.25-.56-.36-.38-.22-.58-.31c-.2-.1-.4-.19-.61-.27-3.47-1-3.75 5.42-4.08 7.66-.52 3.27-1.38 6.62-1.38 9.99z"/><path class="shp13" d="M311.95 569.41c.58 6.31-4.19 12.43-2.8 18.62.3 1.32.86 2.57 1.07 3.9.58 3.67-1.61 7.14-3.7 10.21l-18 26.34c-.18.29-.37.57-.56.85-.2.28-.4.55-.62.82-.21.26-.43.52-.67.77-.23.25-.46.49-.71.73-3.44 3.05-8.58 2.73-13.09 3.65-.79.16-1.57.36-2.34.61-.76.24-1.52.53-2.25.86a21.832 21.832 0 0 0-4.18 2.41c-.06.05-.11.1-.14.16-.04.07-.06.14-.07.21s-.01.14.01.21.05.14.09.2c.37.51.8.96 1.29 1.36.48.4 1.01.74 1.58 1 .57.27 1.17.46 1.78.58.62.12 1.24.16 1.87.12.47.62 0 1.54-.65 2-1 .67-2.29.85-2.48 2.48-.02.14-.02.28-.02.43.01.14.03.28.05.42.03.14.07.28.12.41.04.13.1.26.17.39.18.27.39.53.61.76.23.24.48.45.75.64.27.18.56.34.86.47.3.14.61.24.93.31 6.21 1.9 12.92-1.44 17.57-6s8-10.27 12.56-14.9c2.53-2.56 5.4-4.75 8-7.23 5.19-5 9.23-11 13.13-17 .32-.44.62-.89.89-1.35.28-.46.54-.94.78-1.42a19.653 19.653 0 0 0 1.17-3.02c.48-2.05.26-4.23.82-6.26.72-2.67 2.67-4.8 4.3-7 3.19-4.39 5.31-9.75 4.89-15.16s-3.77-10.73-8.86-12.57c-.39-.16-.8-.28-1.22-.38a8.69 8.69 0 0 0-1.26-.18c-.42-.02-.85-.01-1.27.03s-.84.12-1.25.23c-2.09.64-3.63 2.37-5.06 4l-3.41 3.94c-.21.21-.42.44-.61.67-.19.24-.37.48-.54.73a9.985 9.985 0 0 0-.85 1.6c-.11.28-.18.58-.2.88-.03.3-.01.6.06.9.06.29.16.58.3.85.15.26.33.51.54.72"/><path class="shp15" d="M321.03 543.48c-2.36.14-5 .37-6.63 2-.17.19-.34.39-.5.6-.15.21-.3.42-.44.64s-.27.44-.39.67c-.12.24-.23.47-.33.71-1.62 3.29-3.2 6.74-3.31 10.41-.1 2.93.75 5.8 1.2 8.7.37 2.41-.57 4.87-.75 7.31.81-.22 1.62-.46 2.43-.73.8-.26 1.59-.54 2.38-.85.79-.3 1.57-.62 2.34-.96.77-.35 1.54-.71 2.29-1.09.44-.28.88-.56 1.33-.82s.9-.51 1.36-.75c.47-.24.93-.47 1.41-.69.47-.21.95-.42 1.43-.61 2.81-.94 7.55.67 10.21 2 .15-1.88-1.26-5.15-1.11-7 0-.2.02-.4.04-.59.02-.2.04-.4.08-.59.03-.2.08-.39.13-.58s.11-.38.17-.57c.1-.2.2-.39.31-.59.11-.19.22-.38.34-.57s.24-.37.37-.55c.12-.19.25-.36.39-.54.51-.82.88-1.72 1.11-2.66s.31-1.91.23-2.88c-.07-.97-.3-1.91-.66-2.81-.37-.89-.88-1.72-1.51-2.46-2.37-2.67-6.09-3.67-9.64-4.09-.56-.06-1.12-.12-1.68-.16s-1.12-.07-1.69-.09c-.56-.02-1.12-.03-1.68-.02-.57 0-1.13.01-1.69.04"/><path class="shp11" d="M269.56 510.17l-.38-3.13c2.63.67 5.12-1.55 6.8-3.86s3.23-5 5.78-6c3.11-1.17 6.4.7 9.37 2.24.83.47 1.68.89 2.54 1.28.87.38 1.76.73 2.66 1.02a28.707 28.707 0 0 0 5.55 1.26l.45.03.45.06c.15.03.3.05.44.09.15.03.3.07.44.11 1.93.69 2.85 3.11 3.13 5.31s.2 4.54 1.15 6.5c.73 1.48 2 2.59 2.72 4 2 3.93.07 9.31 2.22 13.17l-5.33-4.88c-.49-.45-1.18-.92-1.71-.54s-.46 1-.64 1.47c-.15.35-.37.66-.65.91-.27.26-.6.46-.95.59s-.73.18-1.11.16c-.37-.02-.74-.11-1.08-.28-.34-.19-.66-.4-.97-.63s-.61-.47-.9-.73c-.28-.26-.55-.54-.81-.83-.25-.29-.49-.59-.71-.91-.55-.71-1.15-1.37-1.78-2-.64-.63-1.32-1.22-2.03-1.76-.72-.54-1.46-1.03-2.24-1.47-.78-.45-1.58-.84-2.41-1.18-.72-.28-1.47-.48-2.23-.6s-1.53-.15-2.3-.11c-.77.05-1.54.18-2.28.38-.74.21-1.46.5-2.14.86-2.49 1.41-4.31 4.68-7.36 4.79-4.18.16-5.92-7.62-7.85-10.69.35-.27.65-.59.89-.96s.41-.77.51-1.2.13-.87.08-1.31c-.06-.43-.18-.86-.38-1.25.29-.1 3-.39 3.06.09z"/><path d="M718.46 793.5c-.81-3.43-1.3-6.43-1.3-6.43.02-.56 0-1.13-.06-1.69-.05-.56-.14-1.12-.27-1.67-.12-.55-.28-1.09-.48-1.62-.19-.53-.42-1.05-.68-1.55v-7.84c.12-.31.24-.62.38-.93.13-.31.27-.61.41-.91.15-.3.3-.6.46-.9.15-.29.32-.58.49-.87 1.24-2.16 0-10.1 0-10.1s-4.6-11.19-3.49-18.29-9.44-31.53-9.44-31.53c.02-.59.05-1.18.1-1.77s.12-1.17.2-1.76c.08-.58.18-1.17.3-1.74.12-.58.25-1.16.4-1.73.03-.12.05-.24.07-.36s.04-.24.05-.37c.01-.12.02-.24.02-.36s0-.25-.01-.37V700.53v.06c-.16-4.68-3.86-13.46-3.86-13.46l.5-16.72s2.36-9.87-1.49-23.11c-1.35-4.62-2.21-8.31-2.76-11.17-.06-.32-.12-.63-.17-.93 7.93-1.21 14-2.22 14-2.22s-4.6-19.25-7.71-22.62-5.59-13.95-5.59-13.95-1.62-13.6 1-17.57 3-10.83 3-10.83 6-4.33 6.71-6.26c.26-.68.5-1.38.72-2.08s.41-1.41.58-2.12c.16-.71.31-1.43.42-2.16.12-.72.21-1.45.28-2.18 0-2.29-.75-4.33-.5-5.54s-1.74-5.77-.74-7.94c.06-.17.12-.34.17-.51s.09-.34.12-.52c.03-.17.06-.35.08-.53.01-.17.02-.35.02-.53V537.58c0-.47-.01-.95-.03-1.42s-.06-.95-.1-1.42-.1-.94-.17-1.41c-.06-.47-.14-.93-.23-1.4-.43-.36-.88-.7-1.34-1.02-.47-.32-.95-.61-1.44-.87-.5-.27-1.01-.51-1.53-.72s-1.05-.39-1.59-.55l-.13-.51-.34-1.35c-.05-.03-.09-.06-.14-.1l-.15-.09c-.05-.03-.1-.05-.15-.08s-.1-.05-.15-.08v-2.5l.93-4.4c1.84-7.63-8.36-8.77-8.36-8.77a5 5 0 0 0-.53-.82c-.21-.26-.43-.5-.68-.72-.25-.21-.51-.41-.79-.58-.29-.16-.58-.31-.89-.42-2-.72-.34 11.5.62 12.28.72.58 3 4.42 4 6.3l.18.31c-.04.04-.08.08-.13.12-.04.03-.08.07-.12.12-.03.04-.07.08-.11.12s-.07.09-.11.13l.39 2.65.06.41c-.17.21-.33.42-.48.65-.16.22-.3.44-.44.67-.13.24-.26.47-.38.71-.12.25-.23.49-.33.74s1.87 2.05 1.49 4.34c-.04.45-.05.89-.04 1.34s.04.89.09 1.34c.05.44.12.88.22 1.32.1.43.21.86.35 1.29-.11-.13-1.42-1.55-2.73-1.2s-5 1.44-5 1.44-2.74.48-2.49 1.08-1.86 3.25-1.86 3.25l-7.35-7c-.08-.21-.15-.42-.22-.63-.08-.24-.14-.49-.21-.74-.06-.25-.12-.5-.17-.75-.06-.25-.1-.5-.14-.75-.05-.25-.08-.51-.11-.76l.6-.15.58-.18c.2-.06.39-.13.59-.2.19-.07.38-.14.57-.22.19-.07.37-.14.55-.23s.36-.19.53-.3.33-.23.48-.36c.16-.13.3-.26.44-.41.15-.24.29-.49.42-.74a7.668 7.668 0 0 0 .59-1.59c.07-.28.13-.56.17-.84.58-2.14 1.83-4.05 2.73-6.08.37-.85.68-1.72.92-2.61.25-.89.44-1.8.56-2.71.12-.92.17-1.85.16-2.77s-.08-1.85-.22-2.76a5.89 5.89 0 0 0-.14-.84c-.06-.28-.14-.56-.23-.83s-.2-.53-.33-.79c-.12-.25-.27-.5-.42-.74-1.2-1.65-3.38-2.32-5-3.64s-2.6-3.32-4.45-4.31c-.44-.19-.89-.34-1.35-.46s-.93-.2-1.4-.24-.95-.04-1.42 0c-.48.03-.95.11-1.41.22-.92.15-1.83.34-2.72.58-.9.23-1.79.51-2.66.82-.87.32-1.73.68-2.57 1.07-.84.4-1.66.84-2.46 1.31-1.08.64-2.25 1.37-3.49 1.15-.25-.08-.5-.18-.74-.29a4.69 4.69 0 0 1-.67-.42c-.21-.15-.41-.33-.6-.52a4.92 4.92 0 0 1-.5-.61v-.11l-.09-.09c-.19.43-.36.87-.51 1.32-.14.45-.26.91-.36 1.37-.09.46-.16.93-.21 1.4-.04.47-.06.94-.06 1.41V513.18c0 .03 0 .07-.01.1 0 .03 0 .06-.01.1 0 .03-.01.06-.02.09 0 .04-.01.07-.02.1-.04.09-.08.19-.13.28s-.1.17-.16.26c-.05.08-.11.16-.18.24s-.14.15-.21.22c-.06.06-.11.13-.17.19-.05.07-.1.13-.15.2l-.15.21c-.04.07-.09.15-.13.22 0-.1.06-.2.1-.3-.12.17-.22.35-.31.53-.1.18-.18.37-.24.57-.07.2-.12.39-.15.6a4.067 4.067 0 0 0-.06 1.06c.02.15.06.29.11.44.04.14.11.27.18.4s.16.26.26.37c.09.09.18.18.28.27.09.09.19.18.29.26l.3.24c.11.08.21.16.32.23-.04.2-.07.4-.09.61a11.716 11.716 0 0 0-.11 1.22c-.01.2-.01.41-.01.61.01 1.22.17 2.43.48 3.61.32 1.17.78 2.3 1.39 3.36.6 1.06 1.34 2.04 2.19 2.91s1.81 1.62 2.86 2.25l.25.63a18.382 18.382 0 0 1 1.14 3.92c.11.67.18 1.35.21 2.04.03.68.03 1.36-.02 2.04 0 .2 0 .39-.09.59l-.26.3s-12.14.12-15-2.47-7.21 6.32-7.21 6.32-4.35.85-5.22 0-6-.12-6-.12c-.52-.46-1.07-.86-1.67-1.22-.59-.35-1.21-.64-1.86-.88s-1.31-.41-1.99-.52-1.37-.16-2.06-.14c-.42-.32-.86-.63-1.31-.92-.44-.3-.9-.57-1.36-.83a24 24 0 0 0-1.43-.73c-.48-.22-.97-.43-1.47-.62l-.14-.05c-.22-.08-.44-.15-.67-.2-.22-.05-.45-.1-.68-.12-.23-.03-.46-.05-.69-.05-.24 0-.47.01-.7.03s-6-4.94-7.7-7.58-10-12.47-10.07-12.52v-.47l-.1-1.43-.18.03c-.07 0-.13.01-.19.02-.06 0-.12.01-.18.01-.07.01-.13.01-.19.01 0-.15-.1-.31-.17-.5-.12-.34-.25-.69-.38-1.03s-.27-.67-.42-1.01c-.15-.33-.3-.66-.46-.99s-.33-.65-.5-.97 0-1.8.53-2.25-.22-7.07-.22-7.07-5.38-12.57-10.19-3.19c0 0-9.11 6.07-1.47 13.15 0 0 3 1.47 3.48 2.64.29.76 1.32 2.89 2 4.3l.31.63-.09.07.12 1.18v.46c-1.44.81-2.41 1.62-2.18 2.24.11.26.21.52.3.79s.17.54.24.81.14.54.19.82c.06.27.1.55.14.83s10.57 13.23 11.94 18.89c0 0 28.34 16.84 37.66 18.05l-1.61 8.42c-.06.57-.11 1.14-.16 1.71-.04.57-.08 1.14-.11 1.72-.03.57-.06 1.14-.07 1.71-.02.57-.03 1.15-.03 1.72.12 1.8-1.12 10-1.12 10s-1.62 12-3 13.71-1.12 8.91-1.12 8.91c-.08.86-.18 1.72-.3 2.58s-.25 1.72-.41 2.57c-.15.85-.33 1.7-.52 2.55-.19.84-.4 1.68-.63 2.52-1.37 4.58-.37 10.23-.37 10.23s-4.73 10.83 6.59 3.49c0 0 5.55-.34 12-.56v3.29c-.08 6.2-.12 14.75.16 21.22.5 11.43 4 34 4 34v11.36c-.05.27-.1.54-.14.81-.04.26-.08.54-.1.81-.03.27-.05.54-.06.81-.02.27-.02.55-.02.82a21.174 21.174 0 0 0 .72 5.91c.26.96.58 1.9.97 2.82.4.91.85 1.8 1.37 2.65l.87 7.58s2 5 2.08 8c0 .06-.01.12-.01.18s-.01.12-.02.18-.01.12-.03.18l-.03.18c-.02.1-.03.19-.05.29l-.03.29c-.01.09-.02.19-.02.29v.29c-.11 3.44 2 11.68 2 11.68s.13 8.3 1.37 8.78c1.06.41-1.42 4.79-2.16 6-.01-.02-.01-.04-.02-.06 0-.02 0-.04-.01-.06 0-.02-.01-.04-.01-.06s-.01-.04-.01-.06c-.09.16-.15.25-.15.25-.06.17-.12.34-.17.51s-.09.35-.12.52c-.03.18-.06.36-.08.53-.01.18-.02.36-.02.54-.04.28-.03.57.01.85.05.28.13.55.25.81.13.26.28.5.47.71s.41.4.65.55c2.36 1.45 3.63 2.65 1.63 3.13l-.55.09c-.19.03-.37.07-.55.11l-.55.12c-.18.05-.36.09-.54.14 0-.09-.08-.19-.11-.28-.13.06-.25.14-.36.23a1.46 1.46 0 0 0-.41.74c-.02.14-.03.28-.01.42.01.24.03.49.06.73s.08.48.15.72c.06.24.14.47.23.7.09.22.19.45.31.66.22.54.45 1.08.7 1.61.25.52.52 1.05.8 1.56s.58 1.02.89 1.51c.31.5.63.98.97 1.46l1-.11c-.04.09-.08.18-.12.26-.04.09-.08.17-.13.26l-.15.24c-.05.08-.1.16-.16.24-.09.13-.19.25-.29.37s-.22.23-.33.34c-.12.1-.25.2-.38.29s-.26.17-.4.24c-.13.08-.26.15-.4.21-.14.07-.28.12-.42.17s-.29.09-.43.13c-.15.03-.3.06-.45.08-.34.01-.67.05-1 .13-.32.08-.64.2-.94.34a4.782 4.782 0 0 0-1.58 1.24c-1.24 1.6-2 3.79.43 5.71l8.89 3.06s15.29 2 14.48-1.44-1.3-6.43-1.3-6.43c.01-.52 0-1.05-.05-1.57-.04-.52-.12-1.04-.22-1.55-.11-.51-.24-1.02-.4-1.51-.17-.5-.36-.99-.58-1.46-.04-.08-.08-.16-.12-.23-.04-.08-.09-.16-.13-.23-.05-.08-.09-.15-.14-.22-.05-.08-.1-.15-.15-.22l.54-.06s1.12-7.58 2.61-9c.35-.33.43-.59.34-.79.16-.41-.23-.65-.73-.79l-.11.3c-.12-.03-.24-.05-.37-.07-.12-.02-.24-.03-.37-.05l-.37-.03c-.12 0-.25-.01-.37-.01s-.5-4 1.11-5.42c.07-.08.12-.17.17-.26.05-.1.09-.2.11-.3.03-.1.05-.2.05-.31.01-.1.01-.21-.01-.31 0-.14 0-.27-.01-.41 0-.13-.01-.27-.03-.41a5.46 5.46 0 0 0-.13-.8l-.06.1c-.23-.8-.48-1.6-.74-2.39s-.54-1.57-.84-2.35-.62-1.55-.95-2.32c-.33-.76-.68-1.52-1.04-2.27s-.12-3.61.87-5.06-.12-19.61-.12-19.61.37-8.78-.75-12.87 1.37-8.91 1.37-8.91v-.32s-.06-.54-.15-1.39v.09c-.25-2.33-.72-6.54-1.07-8.48-.5-2.77.12-16 .12-16l2.24-5.65 4 9.74 4.22 13c.3.4.57.82.81 1.26.25.43.46.89.64 1.35.18.47.33.95.45 1.43.12.49.2.98.25 1.48v.41c0 .07-.01.14-.01.22v.43c0 .08.01.15.01.22-.02.41 0 .81.04 1.22a7.795 7.795 0 0 0 .66 2.34c.17.37.36.73.59 1.07s1.12 6.14 2.86 7.7 1.74 4.57 1.74 4.57 2.11 8.91 3.11 10.47c.84 1.32.88 4.94.87 6v.33s.29 3.18.28 5.86v1-.07c0 .18-.01.36-.02.54-.01.19-.03.37-.05.55s-.05.36-.08.54-.07.35-.11.53v.13-.45a21.836 21.836 0 0 0-.49 2.75c-.06.47-.1.93-.12 1.4-.03.47-.04.93-.03 1.4-.06 3.2.43 7 2.37 9.21 3.36 3.85 5.47 3.37 5.47 3.37s-1.62 4.81-3.61 5.78c-.02.01-.04.02-.05.03l-.06.03c-.02.01-.03.02-.05.03-.02.02-.03.03-.05.04 0-.09 0-.19-.05-.28-.11.12-.2.25-.28.39-.08.15-.15.29-.2.45-.05.15-.08.31-.1.47-.02.17-.02.33 0 .49a12.912 12.912 0 0 0 .7 3.75c.2.6.46 1.19.75 1.76.3.56.63 1.1 1.01 1.62.12.12.24.23.37.33s.27.19.41.28c.14.08.29.16.44.22.15.07.3.12.46.17l-.31.19c-.06.03-.11.06-.17.09s-.11.06-.17.08c-.06.03-.12.06-.17.08-.06.03-.12.06-.18.08-.08.03-.16.07-.24.09-.08.03-.17.06-.25.08l-.25.06-.26.03c-.34.01-.67.05-1 .13-.32.08-.64.2-.94.34a4.782 4.782 0 0 0-1.58 1.24c-1.24 1.6-2 3.79.43 5.71l8.89 3.06s15.1 2.04 14.33-1.44z" fill="url(#a)"/><path class="shp17" d="M660.06 799.18l-8.61-3.06c-2.37-1.92-1.61-4.11-.41-5.71.2-.26.43-.49.69-.7.25-.2.53-.38.82-.53s.6-.26.92-.34.64-.13.97-.14c.15-.02.29-.05.43-.08.15-.04.29-.08.43-.13.13-.05.27-.1.4-.17.14-.06.26-.13.39-.21.14-.07.27-.16.39-.25.13-.09.25-.18.36-.29.12-.1.23-.21.33-.33s.19-.24.28-.37a6.433 6.433 0 0 0 .93-2.45c.04-.29.07-.59.07-.88s9.45-2.76 12 0c.12.13.23.25.33.39.11.13.21.27.31.41.09.14.18.28.27.43.08.15.17.3.24.45.21.48.4.97.55 1.46.16.5.29 1.01.39 1.52s.17 1.03.22 1.55c.04.52.06 1.04.04 1.56s.48 3 1.26 6.43-14 1.44-14 1.44zM702.17 794.98l-8.6-3.06c-2.38-1.92-1.62-4.11-.42-5.7.2-.26.43-.49.69-.7.25-.21.53-.39.82-.54.3-.15.61-.26.93-.34.31-.08.64-.13.97-.14l.26-.03.25-.06c.08-.02.17-.05.25-.07.08-.03.16-.06.24-.1.06-.02.11-.05.17-.07.06-.03.11-.06.17-.08.05-.03.11-.06.16-.09s.11-.06.16-.09c2.41-1.32 2.35-4.57 2.35-4.57s9.44-2.77 12 0c.09.09.17.19.25.29l.24.3c.07.1.14.21.21.31.07.11.14.22.2.33.25.5.47 1.02.66 1.56.19.53.35 1.07.47 1.62s.21 1.11.26 1.67c.06.56.08 1.13.06 1.69s.48 3 1.26 6.43-14.01 1.44-14.01 1.44z"/><path class="shp4" d="M670.46 783.54c.12.13.23.25.33.39.11.13.21.27.31.41.09.14.18.28.27.43.08.15.17.3.24.45l-14.16 1.64a6.433 6.433 0 0 0 .93-2.45c.04-.29.07-.59.07-.88s9.43-2.75 12.01.01zM713.48 780.53v2.65c-2.2 3.63-12.85 2.84-15.94 1 .06-.02.11-.05.17-.07.06-.03.11-.06.17-.08.05-.03.11-.06.16-.09s.11-.06.16-.09c2.41-1.32 2.35-4.57 2.35-4.57s9.44-2.77 12 0c.09.09.18.19.26.29s.16.2.24.31c.08.1.15.21.23.32.07.11.14.22.2.33z"/><path class="shp11" d="M715.17 769.1c-.17.29-.33.58-.48.87-.15.3-.3.6-.44.9s-.28.6-.41.91l-.36.93v9.51c-2.4 4-14.92 2.65-16.6.48s-3.49-7.82-1.57-8.78 3.49-5.78 3.49-5.78-2 .48-5.29-3.37-2.28-12.39-1.68-14.44 0-8.9 0-8.9.12-4.81-.84-6.38-3-10.47-3-10.47 0-3-1.68-4.57-2.77-7.7-2.77-7.7c-.24-.38-.45-.78-.63-1.2-.18-.41-.32-.84-.42-1.28s-.16-.89-.19-1.34c-.02-.45-.01-.9.04-1.35.36-3-2.05-6.26-2.05-6.26l-4.09-13-3.85-9.75-2.16 5.65s-.61 13.24-.12 16 1.2 10.1 1.2 10.1-2.41 4.82-1.32 8.91.72 12.87.72 12.87 1.08 18.17.12 19.62-.84 5-.84 5 4.93 10.59 3.36 12-1.08 5.42-1.08 5.42 3.37 0 1.93 1.44-2.53 9-2.53 9l-14.57 1.84c-.33-.48-.64-.97-.94-1.46-.3-.5-.59-1-.86-1.52a28.349 28.349 0 0 1-1.46-3.16c-1.92-4.45.36-4 2.3-4.45s.71-1.68-1.58-3.13-1-4.69-1-4.69 3.49-5.9 2.29-6.38-1.33-8.78-1.33-8.78-2.4-9.87-1.8-12.51-1.93-9-1.93-9l-.84-7.58c-.63-1.07-1.17-2.19-1.61-3.35-.43-1.16-.76-2.36-.98-3.59-.23-1.22-.34-2.46-.34-3.7s.11-2.48.33-3.7v-11.71s-3.37-22.62-3.86-34c-.3-7.32-.22-17.31-.12-23.55.06-3.49.12-5.81.12-5.81l52-5.41c.02.65.06 1.3.11 1.94a41.085 41.085 0 0 0 .47 3.87c.11.64.23 1.28.37 1.91.53 2.85 1.36 6.55 2.66 11.17 3.73 13.23 1.45 23.1 1.45 23.1l-.48 16.72s4.57 11.19 3.61 15c-.15.57-.28 1.15-.4 1.73-.11.58-.21 1.16-.3 1.74-.08.59-.15 1.17-.2 1.76s-.08 1.18-.1 1.77 10.23 24.43 9.15 31.53 3.38 18.24 3.38 18.24 1.2 8 0 10.12z"/><path class="shp14" d="M685.45 706.42l15.78-2.11s-8.92 9.14-15.78 2.11z"/><path class="shp4" d="M698.98 688.85s.55 5.59-2.88 7.7c0 0 6.13-.96 2.88-7.7zM698.01 671.04s-13.22 10.89-18 10 18-10 18-10zM665.83 711.53s-10 2.29-10.34 6.32 10.34-6.32 10.34-6.32z"/><path class="shp14" d="M668.04 761.7s-14.19 2.65-10.16 4.46c.86.34 1.73.67 2.61.97a63.065 63.065 0 0 0 5.33 1.62c.9.24 1.8.45 2.71.65s4.57.24-.49-7.7z"/><g opacity=".051"><path class="shp18" d="M655.01 768.98c-.18-.11-.34-.24-.49-.39s-.28-.31-.39-.49c-.12-.18-.21-.37-.28-.57s-.12-.4-.14-.61l-.14.26s-1.33 3.24 1 4.69c.26.16.51.33.74.49.42-.08.88-.14 1.31-.25 1.9-.44.68-1.65-1.61-3.13zM673.3 768.06c.39-.36.37-1.29.14-2.48-.14.27-.27.54-.38.82-.11.29-.19.58-.26.87s-.12.59-.15.89c-.03.31-.03.61-.02.91.04-.1.08-.19.12-.28.05-.09.1-.18.16-.26.05-.09.11-.17.18-.25s.14-.15.21-.22zM671.11 708.2c-.13.35-.25.71-.36 1.08-.11.36-.21.73-.29 1.1-.09.37-.16.74-.21 1.11-.06.38-.11.75-.14 1.13.07-.26.14-.51.22-.77.08-.25.17-.5.26-.76.09-.25.19-.49.29-.74.11-.25.22-.49.33-.73s.02-.58-.1-1.42zM703.62 701.88l.06-.33c.02-.11.03-.22.04-.33l.03-.33v-.33c-.18.9-.3 1.74-.39 2.47.08-.38.16-.76.26-1.15zM670.77 750.98c.07-.21.13-.43.18-.65s.09-.45.12-.67a7.576 7.576 0 0 0 .06-1.35c-.11.27-.21.54-.3.81-.08.28-.15.56-.21.84s-.1.57-.13.86c-.03.28-.05.57-.05.86.02-.06.04-.12.07-.18.02-.06.05-.12.07-.18.03-.06.06-.12.09-.17.03-.06.07-.12.1-.17zM673.75 773.66c-.19.6-.36 1.21-.52 1.82s-.31 1.23-.45 1.84c-.14.62-.26 1.24-.38 1.86-.11.62-.21 1.24-.3 1.87l-14.55 1.69a28.28 28.28 0 0 1-1.81-2.98c-.27-.51-.53-1.03-.77-1.56-.24-.52-.47-1.06-.68-1.6-.04-.09-.08-.17-.11-.26-.04-.09-.07-.18-.11-.26-.03-.09-.07-.18-.1-.27l-.09-.27c-.87.4-1.22 1.3-.07 4 .21.54.44 1.07.68 1.6s.5 1.05.77 1.56.56 1.02.86 1.51c.3.5.62.98.95 1.46l14.54-1.69s1.09-7.58 2.53-9c.71-.77.26-1.13-.39-1.32zM654.53 752.05s.12 8.31 1.32 8.79c.61-1.37 1-2.67.47-2.89-1.2-.48-1.32-8.78-1.32-8.78s-2.41-9.87-1.8-12.52-1.93-9-1.93-9l-.84-7.58c-.64-1.06-1.18-2.18-1.62-3.34-.43-1.16-.77-2.36-.99-3.58-.23-1.22-.35-2.46-.35-3.7-.01-1.24.1-2.48.31-3.7v-11.69s-3.37-22.62-3.85-34.05c-.31-7.32-.22-17.31-.12-23.55v-3h-.41s-.06 2.31-.12 5.81c-.1 6.23-.19 16.23.12 23.55.48 11.43 3.85 34.05 3.85 34.05v11.67a21.22 21.22 0 0 0-.32 3.74c.01 1.25.13 2.5.36 3.73s.57 2.44 1.02 3.6c.45 1.17 1 2.3 1.65 3.37l.84 7.58s2.53 6.37 1.92 9 1.81 12.49 1.81 12.49zM697.36 779.49c-.29-.43-.56-.87-.81-1.33-.25-.45-.47-.92-.66-1.4s-.36-.97-.5-1.47-.25-1.01-.33-1.52c-1.49 1.34.22 6.55 1.82 8.61s14.2 3.49 16.61-.49v-2.29c-3.26 3.23-14.53 1.94-16.13-.11zM715.65 765.89c-.16.29-.32.58-.48.88-.15.29-.29.59-.43.89-.15.3-.28.61-.41.91-.12.31-.25.62-.36.93v1.69c.27-.62.66-1.44 1.2-2.41a6.837 6.837 0 0 0 .42-1.47c.05-.25.08-.51.1-.76.01-.26.02-.51.01-.77l-.05.11zM698.1 767.79c.11-.23.23-.46.33-.7.11-.23.21-.47.31-.71s.2-.48.29-.72.18-.49.26-.73-2 .48-5.3-3.37c-2.36-2.8-2.49-8.09-2.16-11.55-.6 2.05-1.57 10.59 1.68 14.44 2.13 2.53 3.72 3.18 4.59 3.34zM691.83 741.11c.05.59.1 1.19.13 1.78a53.013 53.013 0 0 1 .12 3.57c.01.59 0 1.19-.01 1.78.08-.47.17-.85.24-1.12.61-2 0-8.9 0-8.9s.12-4.82-.84-6.38-3-10.47-3-10.47 0-3-1.68-4.57-2.77-7.7-2.77-7.7c-.24-.38-.46-.78-.63-1.19-.18-.42-.32-.85-.42-1.29-.11-.44-.17-.89-.2-1.34-.02-.45-.01-.9.04-1.35.37-3-2-6.26-2-6.26l-4.09-13-3.9-9.69-2.17 5.65s0 .71-.07 1.83l1.76-4.59 3.85 9.74 4.09 13s2.4 3.25 2 6.25c-.04.45-.05.89-.02 1.34s.1.89.21 1.33c.1.43.25.86.42 1.27.18.41.39.81.64 1.18s1.08 6.13 2.76 7.7 1.69 4.57 1.69 4.57 2 8.9 3 10.47.85 6.39.85 6.39z"/></g><path class="shp19" d="M701.93 519.73l-.9 4.4.05 2v1.44l-5 .52-.56-1c-1-1.88-3.2-5.71-3.9-6.3-.93-.78-2.58-13-.6-12.27.3.12.59.26.86.43.28.17.54.36.78.57.23.22.45.46.65.71.19.26.36.53.51.82s9.89 1.04 8.11 8.68z"/><path class="shp4" d="M701.12 527.52l-5 .52-.56-1c.34-.38.73-.7 1.18-.95.44-.25.93-.42 1.43-.5s1.01-.08 1.51.02c.5.09.98.27 1.42.52l.02 1.39z"/><path class="shp20" d="M702.38 529.9l-6.61 1.54-.14-1-.38-2.65c.36-.48.81-.89 1.33-1.19.52-.31 1.1-.51 1.69-.59a4.7 4.7 0 0 1 1.79.11c.58.16 1.12.42 1.6.79l.33 1.35.39 1.64z"/><path class="shp19" d="M595.14 520.21l-7.06 3.8-.64-1.34c-.68-1.41-1.68-3.53-2-4.29-.42-1.17-3.37-2.65-3.37-2.65-7.4-7.07 1.41-13.14 1.41-13.14 4.67-9.39 9.87 3.18 9.87 3.18s.72 6.63.21 7.07-.51 2.26-.51 2.26c.17.32.33.65.49.97.15.33.3.66.44 1 .15.33.28.67.41 1.01.13.33.25.68.37 1.02.27.7.38 1.11.38 1.11z"/><path class="shp4" d="M595.14 520.21l-7.06 3.8-.64-1.34c1-.83 4.53-3.7 5.69-3.57l.42.03c.14.01.28.01.42.01s.28 0 .42-.01l.42-.03c.22.7.33 1.11.33 1.11z"/><path class="shp20" d="M595.86 522.35l-7.94 3.91-.16-1.71-.11-1.17s4.6-3.95 6-3.8l.52.06c.17.01.35.01.52.01s.35 0 .52-.01l.52-.06.09 1.43.04 1.34z"/><path class="shp19" d="M682.68 548.91s-34.63 3.91-28.16 1.81c4.51-1.47 6.3-4.33 6.68-7.51.04-.68.05-1.36.02-2.04-.04-.68-.11-1.36-.22-2.03-.1-.67-.25-1.34-.43-2-.19-.65-.41-1.3-.66-1.93-.2-.55-.42-1.09-.66-1.62-.23-.54-.47-1.07-.73-1.59s-.53-1.04-.82-1.55c-.28-.5-.58-1.01-.89-1.5s26.47-14.56 21.18-1.32c-.21.5-.39 1.01-.56 1.52a19.9 19.9 0 0 0-.43 1.56c-.13.52-.24 1.05-.32 1.58-.08.54-.15 1.07-.19 1.61a17.101 17.101 0 0 0 .05 3.2c.05.53.13 1.06.24 1.58.1.53.23 1.05.38 1.56.25.83.56 1.64.92 2.43s.77 1.56 1.24 2.29.98 1.43 1.54 2.09c.57.66 1.17 1.28 1.82 1.86z"/><path class="shp4" d="M677.99 527.62c-.21.5-.39 1.01-.56 1.52a19.9 19.9 0 0 0-.43 1.56c-.13.52-.24 1.05-.32 1.58-.08.54-.15 1.07-.19 1.61-2.5 2.09-5.23 2-8.74 2-2.7 0-5.69.66-7.84-.64-.2-.55-.42-1.09-.66-1.62-.23-.54-.47-1.07-.73-1.59s-.53-1.04-.82-1.55c-.28-.5-.58-1.01-.89-1.5s26.47-14.61 21.18-1.37z"/><path class="shp19" d="M667.28 536.77c-7.92 0-14.32-6.4-14.32-14.32s6.4-14.32 14.32-14.32 14.32 6.4 14.32 14.32-6.4 14.32-14.32 14.32z"/><path class="shp4" d="M682.68 548.91s-34.63 3.91-28.16 1.81c4.51-1.47 6.3-4.33 6.68-7.51 1.72-1.87 5.18-3.22 7.41-3.93.5-.17 1.02-.3 1.54-.39.53-.09 1.06-.14 1.59-.15s1.06.03 1.59.1c.52.07 1.04.19 1.55.34.2.05.4.12.6.19.19.06.39.14.58.22.19.09.38.18.56.28.18.09.36.2.54.31.25.84.55 1.65.91 2.45.36.79.78 1.56 1.24 2.3.47.74.99 1.44 1.55 2.11.56.66 1.17 1.29 1.82 1.87zM702.38 529.9l-6.61 1.54-.14-1c.35-.48.77-.91 1.26-1.27.48-.35 1.01-.63 1.57-.83.57-.19 1.16-.3 1.76-.31.6-.02 1.2.06 1.77.23l.39 1.64zM595.86 522.35l-7.94 3.91-.16-1.71c.64-.34 1.29-.68 1.95-1 .65-.32 1.32-.62 1.98-.92.67-.3 1.34-.58 2.02-.85s1.36-.53 2.05-.77l.1 1.34zM696.38 636.17c-13.41 2.11-32.5 4.87-35.53 3.95-2.51-.77-10.53-.69-17.52-.45.06-3.49.12-5.81.12-5.81l52-5.41a41.28 41.28 0 0 0 .29 3.88c.08.65.17 1.29.28 1.93.1.64.22 1.28.36 1.91z"/><path class="shp15" d="M709.75 632.98s-44.16 7.58-48.9 6.13-29.07.13-29.07.13c-10.95 7.33-6.37-3.49-6.37-3.49s-1-5.66.36-10.23c.22-.84.42-1.68.61-2.53a67.623 67.623 0 0 0 .9-5.12c.11-.86.21-1.72.29-2.58s-.24-7.22 1.08-8.9 2.89-13.72 2.89-13.72 1.21-8.18 1.09-10 .36-6.85.36-6.85l1.56-8.43c-9-1.2-36.46-18.05-36.46-18.05-1.32-5.65-11.55-18.89-11.55-18.89-.04-.28-.08-.55-.14-.83-.05-.28-.11-.55-.18-.82s-.15-.54-.24-.81c-.08-.26-.18-.53-.28-.79-.72-1.92 10.11-5.77 10.11-5.77s8.06 9.87 9.74 12.51 7.46 7.58 7.46 7.58c.22-.02.45-.03.67-.03.23.01.45.02.68.05.22.03.44.07.66.13.22.05.43.12.64.2h.14c.48.19.96.4 1.43.62.46.23.92.47 1.37.73s.89.53 1.32.82.85.6 1.26.92c.67-.02 1.34.03 2 .14a10.714 10.714 0 0 1 3.74 1.41c.57.36 1.11.76 1.6 1.22s4.94-.72 5.78.12 5 0 5 0 4.22-8.9 7-6.32 14.51 2.47 14.51 2.47c1.57-2.08 5.37-3.57 7.76-4.34.5-.17 1.02-.3 1.54-.39.53-.09 1.06-.14 1.59-.15s1.06.03 1.59.1c.52.07 1.04.19 1.55.34.22.06.44.13.66.22.21.08.43.17.63.27.21.1.41.21.61.33s.39.24.58.38l7.12 7s2-2.65 1.81-3.25 2.41-1.08 2.41-1.08 3.49-1.08 4.81-1.45 2.54 1.08 2.64 1.2c-.13-.43-.25-.86-.34-1.3a14.85 14.85 0 0 1-.3-2.65c-.01-.45.01-.89.04-1.34.03-.39.02-.78-.03-1.17s-.14-.77-.26-1.14c-.13-.37-.28-.73-.48-1.06a6.35 6.35 0 0 0-.67-.96c4.25-10.28 13.76-1.58 13.76-1.58s1.08 5.65.12 7.82 1 6.74.72 7.94.48 3.25.48 5.53c-.06.73-.15 1.46-.26 2.18-.12.72-.25 1.44-.41 2.16-.16.71-.35 1.42-.56 2.13-.2.7-.44 1.39-.69 2.08-.73 1.92-6.5 6.25-6.5 6.25s-.36 6.86-2.89 10.83-1 17.57-1 17.57 2.4 10.59 5.41 14 7.5 22.51 7.5 22.51z"/><path class="shp4" d="M645.38 553.85s-1.32-4-2.53-4.34c-.3-.11-.6-.23-.89-.35-.3-.12-.59-.24-.88-.37s-.58-.27-.87-.41c-.28-.14-.57-.28-.85-.43l.78-1.48s4.52 1.24 5.24 2.56 0 4.82 0 4.82zM621.23 545.06c-.24 1.21-10.94 2.29-10.94 2.29l5.41-5.43.14.05c.48.19.96.4 1.43.62.47.23.93.47 1.38.73s.89.53 1.32.82.85.6 1.26.92z"/><path class="shp21" d="M590.21 529.51a.96.96 0 1 1 0-1.92.96.96 0 0 1 0 1.92zM591.44 531.44a.96.96 0 1 1 0-1.92.96.96 0 0 1 0 1.92zM592.65 533.21a.96.96 0 1 1 0-1.92.96.96 0 0 1 0 1.92zM593.91 535.14a.96.96 0 1 1 0-1.92.96.96 0 0 1 0 1.92zM707.33 534.85a.781.781 0 0 1 0-1.56.781.781 0 0 1 0 1.56zM707.45 536.63a.781.781 0 0 1 0-1.56.781.781 0 0 1 0 1.56zM707.55 538.4a.781.781 0 0 1 0-1.56.781.781 0 0 1 0 1.56z"/><path class="shp4" d="M645.44 586.45c-.11-.14 27 34.11 48.07 14.32 0 0-33.28 4.51-48.07-14.32zM629.86 604.26s16.23.44 17.93 5.11v4.86c-.23.13-.47.22-.73.29-.25.06-.51.1-.77.1s-.52-.04-.77-.1c-.26-.07-.5-.16-.73-.29-1.64-.88-11.45-5.87-14.91-3.47l-.02-6.5z"/><path class="shp15" d="M630.16 604.26s15.52.42 17.15 4.87v4.64c-.22.12-.46.21-.7.28-.24.06-.49.09-.74.09-.26 0-.51-.03-.75-.09-.24-.07-.48-.16-.7-.28-1.57-.85-11-5.6-14.26-3.31v-6.2z"/><path class="shp4" d="M638.72 568.98c.41.96.86 1.9 1.33 2.83.47.94.97 1.85 1.49 2.75.53.9 1.08 1.79 1.66 2.66s1.18 1.72 1.81 2.55c.68.92 1.41 1.81 2.16 2.67.76.87 1.56 1.7 2.38 2.49.83.8 1.68 1.56 2.57 2.29s1.81 1.42 2.75 2.07-15.88-18.04-16.15-20.31zM633.41 550.16s2.71 11.69 9.68 15.66l-9.68-15.66zM629.23 551.34c-.07-.22-2.41 9.24 9 14.48 0 0-4.82-1.64-9-14.48zM700.13 543.5c-.18 0 5.62 3.7 7.2 5.41 0 0-3.77-5.65-7.2-5.41z"/><path class="shp17" d="M663.41 535.42c.03.19.07.37.13.56.07.18.15.35.24.52.1.16.21.32.33.46.12.15.26.28.41.4a3.374 3.374 0 0 0 .66.23c.11.02.23.04.34.05.12.01.23.02.35.02 4.37.27 8.91.46 13-1.22.19-.07.38-.14.56-.23s.35-.19.52-.3.33-.23.49-.36c.15-.13.29-.27.43-.42.14-.24.27-.49.39-.74s.22-.51.31-.78c.09-.26.16-.53.22-.8.06-.28.11-.55.14-.83.57-2.14 1.78-4 2.65-6.08.36-.86.67-1.73.91-2.63s.43-1.81.54-2.73c.12-.92.18-1.85.17-2.78s-.08-1.86-.21-2.78c-.03-.28-.07-.56-.13-.84s-.14-.55-.23-.82-.2-.54-.32-.79c-.12-.26-.26-.51-.41-.75-1.16-1.65-3.27-2.32-4.8-3.64s-2.52-3.33-4.3-4.32c-.42-.19-.86-.34-1.3-.45-.45-.12-.9-.2-1.36-.24s-.92-.04-1.38-.01c-.46.04-.91.11-1.36.22-.89.15-1.77.35-2.64.58-.88.24-1.74.52-2.58.84-.85.31-1.68.67-2.49 1.07-.81.39-1.6.83-2.37 1.3-1 .64-2.18 1.37-3.37 1.15-.25-.08-.5-.18-.73-.31-.24-.12-.46-.26-.68-.42-.21-.17-.4-.35-.58-.54-.18-.2-.35-.41-.49-.63-.21.49-.39.99-.55 1.5a13.915 13.915 0 0 0-.54 3.14c-.02.53-.02 1.06.02 1.59l.03.23c0 .08.01.16.01.24s-.01.16-.01.24l-.03.23c-.04.09-.08.18-.13.27s-.1.18-.15.26c-.06.09-.12.17-.19.25-.06.07-.13.15-.2.22-1.08 1.25-1.75 3.23-.69 4.49.47.55 1.18.85 1.63 1.41.81 1 .53 2.45.51 3.74-.01.11-.01.22 0 .33s.03.22.05.33c.03.11.07.22.11.32.05.1.1.2.16.29.12.11.25.2.39.27a1.82 1.82 0 0 0 1.38.15c.15-.05.31-.08.46-.11.16-.03.31-.06.47-.07.16-.02.32-.03.48-.02.15 0 .31 0 .47.02.17.06.33.13.48.21.16.08.31.18.45.28.13.11.27.23.38.36.12.13.23.26.33.41 1.98 2.56 2.77 5.37 3.62 8.46z"/><g opacity=".102"><path class="shp18" d="M681.23 534.03c-.14.15-.28.29-.43.42-.16.13-.32.25-.49.36s-.34.21-.52.29c-.18.09-.37.17-.56.23-4 1.69-8.58 1.49-12.94 1.22-.12 0-.23 0-.35-.01-.11-.02-.23-.03-.34-.06-.12-.02-.23-.06-.34-.1-.11-.03-.22-.08-.32-.13a3.12 3.12 0 0 1-.75-.86 3.04 3.04 0 0 1-.23-.52c-.07-.18-.11-.36-.14-.55-.85-3.09-1.63-5.91-3.65-8.47-.1-.15-.2-.29-.32-.42-.12-.12-.25-.24-.39-.35s-.29-.2-.45-.28c-.15-.09-.31-.16-.48-.21-.16-.02-.32-.02-.47-.02-.16-.01-.32 0-.48.02-.16.01-.31.04-.47.07-.15.03-.31.06-.46.11-.15.04-.31.07-.47.07s-.32-.01-.47-.05-.3-.09-.44-.17c-.14-.07-.27-.16-.39-.27-.06-.09-.11-.19-.16-.29-.04-.1-.08-.21-.11-.32-.02-.11-.04-.22-.05-.33 0-.11 0-.22.01-.33 0-1.29.29-2.74-.52-3.74-.45-.56-1.16-.86-1.63-1.41a2.7 2.7 0 0 1-.36-.67 2.59 2.59 0 0 1-.17-.73c-.03-.26-.02-.51.03-.76.04-.25.12-.49.23-.72-.77 1.22-1.1 2.78-.21 3.84.47.55 1.18.85 1.63 1.41.81 1 .53 2.45.51 3.74-.01.11-.01.22 0 .33s.03.22.05.33c.03.11.07.22.11.32.05.1.1.2.16.29.12.11.25.2.39.27.14.08.29.14.44.17.15.04.31.06.47.05.16 0 .32-.03.47-.07.15-.05.31-.08.46-.11.16-.03.31-.06.47-.07.16-.02.32-.03.48-.02.15 0 .31 0 .47.02.17.06.33.13.48.21.16.08.31.18.45.28.13.11.27.23.38.36.12.13.23.26.33.41 2 2.57 2.8 5.38 3.65 8.47.03.19.07.37.13.56.07.18.15.35.24.52.1.16.21.32.33.46.12.15.26.28.41.4a3.374 3.374 0 0 0 .66.23c.11.02.23.04.34.05.12.01.23.02.35.02 4.37.27 8.91.46 13-1.22.19-.07.38-.14.56-.23s.35-.19.52-.3.33-.23.48-.36c.16-.13.3-.27.44-.42a4.444 4.444 0 0 0 .36-.55c.05-.1.1-.2.14-.3.05-.1.09-.21.12-.31-.06.07-.1.15-.19.2zM653.41 513.17c.05-.05.1-.11.14-.16l.12-.18c.04-.06.07-.13.1-.19.03-.07.06-.13.08-.2l.03-.23c0-.08.01-.16.01-.24s-.01-.16-.01-.24l-.03-.23c-.03-.44-.04-.88-.03-1.31.02-.44.05-.88.11-1.31.05-.44.13-.87.23-1.3.1-.42.22-.85.36-1.26l-.08-.09c-.21.49-.4.99-.55 1.5a13.915 13.915 0 0 0-.54 3.14c-.02.53-.02 1.06.02 1.59.01.06.02.12.02.18.01.06.01.11.02.17v.36z"/></g><path class="shp4" d="M660.85 544.1s17.89 2.37 19.5-.32M695.63 536.7s9.93 0 12.12 3.74"/></svg>