<svg xmlns="http://www.w3.org/2000/svg" viewBox="0 0 847 714" width="720" height="607"><style>tspan { white-space:pre }.shp0 { fill: #70add8 } .shp1 { fill: #3f3d56 } .shp2 { fill: #f2f2f2 } .shp3 { fill: none;stroke: #3f3d56;stroke-width: 2 } .shp4 { fill: #2f2e41 } .shp5 { fill: #9f616a } .shp6 { opacity: 0.102;fill: #000000 } .shp7 { fill: #d0cde1 } </style><path class="shp0" d="M93.48 679.88C93.48 702.34 80.13 710.19 63.65 710.19C63.27 710.19 62.89 710.19 62.51 710.18C61.74 710.16 60.99 710.12 60.24 710.07C45.37 709.02 33.82 700.77 33.82 679.88C33.82 658.25 61.45 630.96 63.53 628.94L63.53 628.94C63.61 628.86 63.65 628.82 63.65 628.82C63.65 628.82 93.48 657.41 93.48 679.88Z" /><path class="shp1" d="M62.56 706.75L73.47 691.51L62.54 708.43L62.51 710.18C61.74 710.16 60.99 710.12 60.24 710.07L61.42 687.59L61.41 687.42L61.43 687.39L61.54 685.26L50.57 668.3L61.57 683.67L61.6 684.12L62.49 667.14L53.1 649.61L62.6 664.16L63.53 628.94L63.53 628.82L63.53 628.94L63.38 656.71L72.72 645.7L63.34 659.1L63.09 674.31L71.82 659.71L63.05 676.54L62.92 685L75.58 664.69L62.87 687.95L62.56 706.75Z" /><path class="shp2" d="M733.09 394.39C733.09 570.57 653.1 709.55 554.59 713.39C426.13 718.39 258.23 590.3 376.09 394.39C466.91 243.42 456.01 75.39 554.59 75.39C653.17 75.39 733.09 218.21 733.09 394.39Z" /><path class="shp0" d="M374.95 488.05L629.46 488.05L629.46 709.07L374.95 709.07L374.95 488.05Z" /><path class="shp3" d="M0 709.07L846.02 709.07" /><path class="shp1" d="M558.72 0C553.12 0 547.7 1.93 543.35 5.45C539.01 8.98 536.02 13.9 534.87 19.37C533.72 24.85 534.49 30.55 537.06 35.53C539.62 40.5 543.81 44.44 548.94 46.69C548.91 46.22 548.9 45.75 548.91 45.28C548.91 44.81 548.93 44.35 548.97 43.88C549 43.41 549.05 42.94 549.12 42.48C549.19 42.02 549.27 41.56 549.36 41.1C549.83 39.12 552.5 27.81 552.5 27.81C552.36 27.51 552.25 27.2 552.15 26.89C552.05 26.57 551.96 26.25 551.9 25.93C551.83 25.61 551.78 25.28 551.75 24.95C551.72 24.62 551.71 24.29 551.71 23.96C551.71 20.35 553.8 17.65 556.41 17.65C558.63 17.65 559.7 19.32 559.7 21.31C559.7 23.54 558.27 26.87 557.54 29.96C557.4 30.53 557.39 31.13 557.52 31.7C557.65 32.28 557.91 32.82 558.28 33.28C558.66 33.73 559.13 34.09 559.67 34.33C560.21 34.57 560.8 34.68 561.39 34.65C566.01 34.65 569.12 28.72 569.12 21.69C569.12 16.35 565.52 12.36 558.98 12.36C557.41 12.3 555.85 12.55 554.39 13.11C552.93 13.67 551.6 14.53 550.47 15.62C549.35 16.71 548.46 18.02 547.86 19.46C547.26 20.91 546.96 22.46 546.98 24.03C546.96 24.46 546.98 24.89 547.04 25.31C547.11 25.74 547.2 26.16 547.34 26.57C547.48 26.97 547.65 27.37 547.86 27.74C548.07 28.12 548.32 28.47 548.59 28.8C548.69 28.88 548.77 28.98 548.84 29.08C548.9 29.19 548.95 29.31 548.99 29.43C549.02 29.55 549.03 29.67 549.02 29.8C549.01 29.92 548.98 30.05 548.94 30.16C548.82 30.61 548.56 31.69 548.44 32.12C548.42 32.25 548.37 32.38 548.29 32.49C548.21 32.59 548.1 32.68 547.99 32.74C547.87 32.8 547.73 32.83 547.6 32.83C547.47 32.83 547.34 32.79 547.22 32.73C543.81 31.34 542.23 27.62 542.23 23.42C542.23 16.5 548.07 8.2 559.64 8.2C568.94 8.2 575.07 14.94 575.07 22.16C575.07 31.72 569.75 38.86 561.92 38.86C559.28 38.86 556.81 37.43 555.97 35.82C555.97 35.82 554.55 41.43 554.25 42.52C554.11 42.98 553.95 43.44 553.78 43.89C553.6 44.34 553.41 44.78 553.21 45.22C553 45.66 552.78 46.09 552.55 46.51C552.31 46.93 552.06 47.34 551.8 47.74C558.58 49.75 565.9 48.7 571.85 44.89C577.8 41.08 581.81 34.86 582.82 27.87C583.83 20.87 581.76 13.77 577.13 8.43C572.51 3.08 565.79 0 558.72 0L558.72 0Z" /><path class="shp1" d="M799.28 176.22C798.8 176.44 798.31 176.63 797.81 176.81C797.32 176.98 796.82 177.14 796.31 177.28C795.81 177.42 795.3 177.54 794.78 177.64C794.27 177.74 793.75 177.82 793.23 177.89C793.77 177.56 794.29 177.19 794.76 176.77C795.24 176.35 795.68 175.89 796.08 175.39C796.47 174.9 796.82 174.37 797.12 173.81C797.42 173.25 797.67 172.66 797.86 172.06C797.35 172.36 796.82 172.65 796.28 172.91C795.74 173.17 795.19 173.41 794.63 173.62C794.07 173.84 793.5 174.03 792.92 174.19C792.34 174.36 791.76 174.5 791.17 174.61C789.73 173.07 787.85 171.99 785.79 171.53C783.73 171.07 781.58 171.23 779.61 172.01C777.65 172.79 775.96 174.14 774.77 175.89C773.58 177.64 772.95 179.7 772.95 181.81C772.95 182.02 772.96 182.22 772.97 182.42C772.98 182.62 772.99 182.82 773.02 183.02C773.04 183.23 773.07 183.43 773.1 183.62C773.14 183.82 773.18 184.02 773.22 184.22C771.13 184.11 769.06 183.79 767.04 183.26C765.02 182.72 763.06 181.97 761.19 181.02C759.33 180.08 757.57 178.94 755.94 177.62C754.31 176.31 752.83 174.82 751.51 173.2C750.84 174.35 750.4 175.62 750.2 176.93C750.01 178.25 750.06 179.59 750.36 180.89C750.66 182.18 751.21 183.41 751.96 184.5C752.72 185.6 753.68 186.54 754.79 187.27C754.37 187.26 753.95 187.23 753.54 187.17C753.12 187.11 752.72 187.02 752.31 186.91C751.91 186.8 751.51 186.66 751.13 186.5C750.74 186.35 750.36 186.16 750 185.96L750 186.09C750 187.3 750.21 188.5 750.61 189.63C751.02 190.77 751.62 191.83 752.38 192.76C753.15 193.7 754.07 194.5 755.1 195.12C756.13 195.74 757.27 196.18 758.45 196.42C758.23 196.48 758 196.54 757.77 196.58C757.54 196.63 757.31 196.67 757.08 196.7C756.85 196.73 756.61 196.75 756.38 196.77C756.15 196.79 755.91 196.79 755.68 196.79C755.51 196.79 755.35 196.79 755.18 196.78C755.01 196.77 754.85 196.76 754.68 196.74C754.52 196.73 754.35 196.71 754.19 196.68C754.02 196.66 753.86 196.63 753.7 196.6C754.03 197.64 754.53 198.62 755.16 199.51C755.8 200.4 756.57 201.18 757.45 201.84C758.32 202.49 759.3 203 760.33 203.35C761.37 203.71 762.45 203.9 763.54 203.92C762.62 204.64 761.63 205.29 760.6 205.86C759.57 206.42 758.49 206.89 757.38 207.28C756.27 207.66 755.13 207.95 753.97 208.14C752.81 208.34 751.63 208.43 750.46 208.43C750.25 208.43 750.04 208.43 749.83 208.42C749.62 208.42 749.41 208.41 749.2 208.39C748.99 208.38 748.78 208.36 748.57 208.35C748.36 208.33 748.15 208.31 747.94 208.28C749.14 209.06 750.38 209.74 751.67 210.34C752.96 210.93 754.29 211.43 755.66 211.84C757.02 212.24 758.41 212.54 759.82 212.75C761.22 212.95 762.64 213.05 764.07 213.04C783.46 213.04 794.06 196.98 794.06 183.04C794.06 182.59 794.04 182.13 794.02 181.68C794.54 181.31 795.03 180.92 795.51 180.5C795.99 180.08 796.45 179.64 796.89 179.19C797.33 178.73 797.75 178.25 798.15 177.76C798.55 177.26 798.92 176.75 799.28 176.22Z" /><path class="shp1" d="M393.92 31.02L356.76 31.02C356.46 31.02 356.16 31.08 355.88 31.19C355.6 31.31 355.35 31.48 355.13 31.69C354.92 31.91 354.75 32.16 354.63 32.44C354.52 32.72 354.46 33.02 354.46 33.32L354.46 70.48C354.46 70.78 354.52 71.08 354.63 71.36C354.75 71.64 354.92 71.9 355.13 72.11C355.35 72.33 355.6 72.5 355.88 72.61C356.16 72.73 356.46 72.79 356.76 72.79L375.34 72.79L375.34 56.25L370.35 56.25L370.35 50.16L375.34 50.16L375.34 45.66C375.34 40.26 379.09 37.33 383.9 37.33C386.21 37.33 388.69 37.5 389.27 37.58L389.27 43.21L385.43 43.21C382.81 43.21 382.3 44.45 382.3 46.28L382.3 50.16L388.55 50.16L387.73 56.25L382.31 56.25L382.31 72.79L393.92 72.79C394.23 72.79 394.53 72.73 394.8 72.61C395.08 72.5 395.34 72.33 395.55 72.11C395.77 71.9 395.94 71.64 396.05 71.36C396.17 71.08 396.23 70.78 396.23 70.48L396.23 33.32C396.23 33.02 396.17 32.72 396.05 32.44C395.94 32.16 395.77 31.91 395.55 31.69C395.34 31.48 395.08 31.31 394.8 31.19C394.53 31.08 394.23 31.02 393.92 31.02L393.92 31.02Z" /><path fill-rule="evenodd" class="shp1" d="M398.61 182.21C400.21 182.22 401.79 182.53 403.26 183.15C404.74 183.76 406.08 184.66 407.21 185.79C408.34 186.92 409.24 188.26 409.85 189.74C410.47 191.21 410.79 192.8 410.79 194.39L410.79 211.8C410.79 213.4 410.47 214.98 409.85 216.46C409.24 217.93 408.34 219.27 407.21 220.4C406.08 221.53 404.74 222.43 403.26 223.05C401.79 223.66 400.21 223.98 398.61 223.98L381.2 223.98C379.6 223.98 378.02 223.66 376.55 223.05C375.07 222.43 373.73 221.53 372.6 220.4C371.47 219.27 370.57 217.93 369.96 216.46C369.34 214.98 369.02 213.4 369.02 211.8L369.02 194.39C369.02 192.8 369.34 191.21 369.96 189.74C370.57 188.26 371.47 186.92 372.6 185.79C373.73 184.66 375.07 183.76 376.55 183.15C378.02 182.53 379.6 182.22 381.2 182.21L398.61 182.21ZM381.2 185.69C380.06 185.7 378.93 185.92 377.88 186.36C376.82 186.8 375.86 187.44 375.06 188.25C374.25 189.06 373.61 190.01 373.17 191.07C372.73 192.12 372.5 193.25 372.5 194.39L372.5 211.8C372.5 212.94 372.73 214.07 373.17 215.13C373.61 216.18 374.25 217.14 375.06 217.95C375.86 218.75 376.82 219.39 377.88 219.83C378.93 220.27 380.06 220.5 381.2 220.5L398.61 220.5C399.75 220.5 400.88 220.27 401.93 219.83C402.99 219.39 403.95 218.75 404.75 217.95C405.56 217.14 406.2 216.18 406.64 215.13C407.08 214.07 407.31 212.94 407.31 211.8L407.31 194.39C407.31 193.25 407.08 192.12 406.64 191.07C406.2 190.01 405.56 189.06 404.75 188.25C403.95 187.44 402.99 186.8 401.93 186.36C400.88 185.92 399.75 185.7 398.61 185.69L381.2 185.69Z" /><path fill-rule="evenodd" class="shp1" d="M401.22 194.39C400.16 194.39 399.21 193.76 398.81 192.78C398.4 191.81 398.63 190.68 399.37 189.94C400.12 189.19 401.24 188.97 402.22 189.37C403.19 189.78 403.83 190.73 403.83 191.78C403.83 192.13 403.76 192.47 403.63 192.78C403.5 193.1 403.31 193.39 403.07 193.63C402.82 193.87 402.54 194.07 402.22 194.2C401.9 194.33 401.56 194.4 401.22 194.39ZM389.91 192.65C391.28 192.65 392.63 192.92 393.9 193.45C395.17 193.97 396.32 194.74 397.29 195.71C398.26 196.68 399.03 197.83 399.55 199.1C400.08 200.37 400.35 201.73 400.35 203.1C400.35 207.32 397.8 211.13 393.9 212.74C390 214.36 385.51 213.47 382.52 210.48C379.53 207.49 378.64 203 380.26 199.1C381.87 195.2 385.68 192.65 389.91 192.65ZM389.91 196.14C388.99 196.14 388.09 196.32 387.24 196.67C386.4 197.02 385.63 197.53 384.98 198.18C384.34 198.82 383.83 199.59 383.48 200.43C383.13 201.28 382.94 202.18 382.94 203.1C382.94 205.91 384.64 208.45 387.24 209.53C389.84 210.61 392.84 210.01 394.83 208.02C396.82 206.03 397.41 203.03 396.34 200.43C395.26 197.83 392.72 196.14 389.91 196.14Z" /><path fill-rule="evenodd" class="shp1" d="M702.58 10.51C703.02 10.49 703.46 10.56 703.86 10.72C704.27 10.88 704.64 11.11 704.96 11.42C705.27 11.72 705.52 12.09 705.68 12.49C705.85 12.9 705.93 13.33 705.92 13.77L705.92 48.69C705.94 49.15 705.86 49.6 705.7 50.03C705.54 50.45 705.29 50.84 704.98 51.17C704.67 51.5 704.3 51.77 703.89 51.96C703.47 52.15 703.03 52.25 702.57 52.27L667.73 52.27C667.27 52.26 666.81 52.16 666.38 51.97C665.95 51.79 665.56 51.52 665.23 51.19C664.91 50.86 664.64 50.47 664.46 50.05C664.28 49.62 664.18 49.16 664.16 48.69L664.16 13.77C664.18 13.32 664.29 12.88 664.48 12.47C664.67 12.06 664.94 11.7 665.27 11.4C665.6 11.1 665.99 10.86 666.41 10.71C666.84 10.56 667.28 10.49 667.73 10.51L702.58 10.51ZM677.11 26.72L671.13 26.72L671.13 45.32L677.11 45.32L677.11 26.72ZM677.55 20.63C677.55 18.84 676.09 17.39 674.3 17.39C672.51 17.39 671.05 18.84 671.05 20.63C671.04 22.42 672.49 23.88 674.28 23.89L674.32 23.89C676.12 23.88 677.56 22.42 677.55 20.63ZM698.97 34.45C698.97 28.87 696 26.29 692.08 26.29C691.53 26.27 690.99 26.33 690.47 26.46C689.94 26.59 689.44 26.79 688.96 27.06C688.49 27.32 688.06 27.65 687.67 28.03C687.28 28.41 686.95 28.84 686.68 29.31L686.68 26.72L680.7 26.72L680.7 45.32L686.68 45.32L686.68 34.73C686.67 34.6 686.68 34.48 686.68 34.35C686.69 34.23 686.7 34.11 686.72 33.98C686.73 33.86 686.76 33.74 686.78 33.62C686.81 33.5 686.85 33.38 686.89 33.26C687 32.94 687.15 32.64 687.36 32.37C687.56 32.1 687.8 31.86 688.07 31.67C688.34 31.47 688.64 31.32 688.96 31.21C689.28 31.11 689.62 31.05 689.95 31.05C692.12 31.05 692.99 32.71 692.99 35.15L692.99 45.32L698.97 45.32L698.97 34.45Z" /><path class="shp4" d="M537.45 268.12C537.45 268.12 579.79 269.27 586.79 271.81C593.78 274.36 596.91 292.55 596.91 292.55L564.03 302.89L539.44 301.5L520.93 302.8L531.26 275.74L537.45 268.12Z" /><path class="shp5" d="M539.27 254.22C539.27 254.22 542.06 264.98 535.88 272.6C529.69 280.22 562.46 307.37 562.46 307.37L579.74 304.4C579.74 304.4 575.93 271.34 581.05 262.97C586.17 254.59 539.27 254.22 539.27 254.22Z" /><path class="shp6" d="M539.27 254.22C539.27 254.22 542.06 264.98 535.88 272.6C529.69 280.22 562.46 307.37 562.46 307.37L579.74 304.4C579.74 304.4 575.93 271.34 581.05 262.97C586.17 254.59 539.27 254.22 539.27 254.22Z" /><path class="shp5" d="M654.23 568.84L616.09 619.42L642.12 634.62L677.94 576.01L654.23 568.84L654.23 568.84Z" /><path class="shp4" d="M627.48 620.27C627.48 620.27 613.43 603.95 614.06 607.59C614.68 611.23 604.07 642.09 613.95 645.08C623.82 648.06 708.55 655.98 709.71 646.41C710.88 636.85 684.44 630.15 684.44 630.15C684.44 630.15 668.73 615.06 665.25 616.59C661.76 618.13 627.48 620.27 627.48 620.27Z" /><path class="shp5" d="M645.67 617.14L676.14 669.04L699.14 655.73L668.42 613.24L645.67 617.14L645.67 617.14Z" /><path class="shp4" d="M693.76 493.67L684.72 506.47C684.72 506.47 641.62 566.33 646.2 571.16C650.78 575.99 669.84 594.26 679.53 590.72C689.23 587.18 723.67 526 723.67 526L714.69 490.08L693.76 493.67Z" /><path class="shp4" d="M508.1 481.56C508.1 481.56 517.75 499.57 542.22 505.67C566.68 511.77 592.24 524.24 593.15 524.08C594.06 523.92 596.63 522.54 597.26 526.18C597.88 529.82 604.59 536.16 604.59 536.16C604.59 536.16 631.61 627.99 641.93 628.09C652.25 628.19 673.46 620.8 673.9 617.91C674.34 615.03 642.3 521.25 641.99 519.43L638.24 497.6C638.24 497.6 680.61 504.36 684.56 505.56C688.52 506.75 723.67 526 723.67 526C723.67 526 759.51 500.17 725.99 474.09C692.47 448 634.85 428.87 634.85 428.87L614.19 423.05L596.17 421.98L593.52 411.81L550.86 414.27L506.34 433.16L508.1 481.56Z" /><path class="shp5" d="M564.4 275.64C546.03 275.64 531.17 260.79 531.17 242.41C531.17 224.03 546.03 209.18 564.4 209.18C582.78 209.18 597.64 224.03 597.64 242.41C597.64 260.79 582.78 275.64 564.4 275.64Z" /><path class="shp7" d="M534.34 269.12L538.34 268.43C538.34 268.43 545.56 296.23 567.89 300.82C567.89 300.82 578.91 287.62 578.44 285.39C577.97 283.16 587.16 271.28 592.05 277.93C596.94 284.59 590.86 401.77 594.97 403.88C599.08 405.98 607.89 408.21 600.8 415.99C593.7 423.77 565.53 434.23 559.29 430.62C553.05 427.01 540.3 396.42 534.78 386.12C529.27 375.83 520.44 340.82 520.44 340.82C520.44 340.82 509.17 302.48 516.1 293.8C523.04 285.11 534.34 269.12 534.34 269.12Z" /><path class="shp4" d="M566.14 413.39C565.96 415.43 565.74 417.47 565.49 419.5C565.24 421.53 564.95 423.56 564.63 425.59C564.32 427.61 563.97 429.63 563.58 431.64C563.2 433.65 562.79 435.66 562.34 437.66C560.71 444.17 558.81 448.1 556.65 447.93C551.12 447.52 548.61 455.62 547.31 464.96C545.93 474.88 545.93 486.18 545.17 490.18C544.17 495.46 537.74 499.49 524.89 498.31C522.98 498.09 521.07 497.81 519.18 497.47C517.29 497.14 515.41 496.74 513.54 496.28C511.67 495.82 509.82 495.3 507.98 494.73C506.15 494.15 504.33 493.52 502.54 492.83C485.19 486.52 485.71 435.37 488.61 397.42C490.38 374.15 493.05 355.84 493.05 355.84C493.05 355.84 487.78 340.12 486.1 329.35C486.01 328.85 485.94 328.36 485.88 327.87C485.81 327.37 485.76 326.88 485.72 326.38C485.68 325.89 485.64 325.39 485.62 324.89C485.6 324.39 485.59 323.89 485.59 323.4C485.85 313.99 503.03 288.56 513.41 272.72C523.8 256.88 537.98 268.5 537.98 268.5L533.05 283.39C533.05 283.39 540.69 295.19 540.75 306.42C540.81 317.65 559.06 325.75 565.61 331.19C569.73 334.6 569.63 380.2 566.14 413.39Z" /><path class="shp4" d="M580.57 273.82C580.57 273.82 581.77 275.23 587.26 274.54C593.83 273.72 602.87 275.99 604.97 282.27C608.83 293.78 619.69 340.62 619.69 340.62C619.69 340.62 624.21 394.17 626.24 406C628.27 417.82 627.26 428.3 629.27 434.51C631.27 440.72 609.48 422.93 601.45 425.24C593.42 427.56 588.26 397.54 589.27 387.06C590.28 376.59 591.13 365.2 588.34 354.44C585.56 343.68 590.5 315.2 590.31 308.67C590.13 302.15 572.6 285.7 580.57 273.82Z" /><path class="shp5" d="M604.09 440.24C604.09 440.24 639.27 459.44 642.64 486.76C646.01 514.08 595.58 460.31 595.58 460.31L604.09 440.24Z" /><path class="shp5" d="M624.17 420.87C624.17 420.87 634.96 475.21 651.75 472.33C668.55 469.44 642.37 417.74 642.37 417.74L624.17 420.87Z" /><path class="shp4" d="M681.69 657.79C681.69 657.79 673.09 667.69 670.96 666.19C668.83 664.68 663.93 685.19 668.35 689.12C672.77 693.04 689.8 699.48 689.98 706C690.17 712.53 735.84 711.23 737.47 704.4C739.11 697.56 731.74 681.97 726.57 679.11C721.4 676.25 702.26 649.95 702.26 649.95C702.26 649.95 687.28 652.14 681.69 657.79Z" /><path class="shp6" d="M598.48 473.48C590.32 467.72 567.54 466.29 547.31 464.96C538.44 464.39 530.06 463.84 523.61 462.93C517.41 462.07 511.83 456.4 506.87 447.95C499.36 435.15 493.28 415.95 488.61 397.42C490.38 374.15 493.05 355.84 493.05 355.84C493.05 355.84 487.78 340.12 486.1 329.35C486.39 328.93 486.71 328.54 487.05 328.16C487.39 327.78 487.74 327.42 488.12 327.08C488.5 326.74 488.89 326.43 489.3 326.13C489.72 325.83 490.14 325.56 490.58 325.31C512.04 316.1 532.52 406.73 535.12 420.95C535.17 421.18 535.2 421.41 535.23 421.6C536.5 428.92 550.13 435.18 562.34 437.66C569.86 439.19 576.86 439.29 580.09 437.3C588.56 432.1 614.61 452.92 616.59 453.51C618.57 454.11 610.2 481.78 598.48 473.48Z" /><path class="shp4" d="M490.59 319.73C490.59 319.73 474.99 327.09 481.84 361.5C488.7 395.92 502.5 454.43 523.61 457.36C544.72 460.28 586.75 459.62 598.48 467.9C610.21 476.19 618.56 448.53 616.59 447.93C614.61 447.33 588.56 426.52 580.08 431.73C571.61 436.93 537.27 427.84 535.24 416.02C533.2 404.19 512.39 310.36 490.59 319.73Z" /><path class="shp4" d="M602.96 303.22L620.09 342.99C620.09 342.99 621.82 342.13 623.82 348.34C625.83 354.55 626.77 360.01 630.28 364.09C633.79 368.17 649.41 426.37 649.88 429.1C650.35 431.82 628.3 441.23 623.38 433.65C618.45 426.07 602.96 303.22 602.96 303.22Z" /><path class="shp4" d="M545.5 241.95C546.77 241.61 546.96 239.92 547 238.6C547.23 231.54 551.48 224.3 558.23 222.25C558.88 222.07 559.53 221.93 560.19 221.82C560.85 221.72 561.52 221.64 562.19 221.61C562.86 221.57 563.53 221.57 564.2 221.6C564.86 221.64 565.53 221.71 566.19 221.81C567.14 221.94 568.07 222.11 569 222.32C569.93 222.54 570.85 222.8 571.75 223.1C572.66 223.4 573.54 223.74 574.42 224.13C575.29 224.52 576.14 224.94 576.97 225.41C578.73 226.4 580.45 227.59 582.45 227.89C583.77 228.09 589.47 229.75 590.78 229.98C593.67 230.5 596.35 233.08 599.12 232.12C601.77 231.2 602.35 227.77 602.42 224.97C602.56 218.58 597.72 209.74 593.45 205C590.21 201.39 585.33 199.73 580.56 198.86C579.17 198.64 577.77 198.45 576.37 198.29C574.97 198.14 573.57 198.02 572.16 197.93C570.75 197.85 569.34 197.8 567.93 197.78C566.53 197.76 565.12 197.78 563.71 197.84C556.08 197.97 548.23 198.56 541.35 201.86C534.47 205.17 528.69 211.74 528.36 219.36C528.29 220.95 528.46 222.55 528.32 224.13C528 227.99 525.95 231.49 524.98 235.24C524.64 236.62 524.44 238.02 524.39 239.44C524.34 240.86 524.44 242.27 524.68 243.67C524.92 245.06 525.31 246.43 525.84 247.75C526.37 249.06 527.03 250.32 527.82 251.49C530.38 255.25 534.39 258.65 534.24 263.19L539.78 257.46C540.19 257.14 540.54 256.76 540.83 256.33C541.11 255.9 541.32 255.42 541.44 254.92C541.56 254.41 541.6 253.9 541.54 253.38C541.49 252.87 541.35 252.37 541.13 251.9L539.17 244.25C539.05 243.92 538.95 243.57 538.88 243.21C538.81 242.86 538.77 242.5 538.75 242.14C538.74 241.78 538.75 241.42 538.79 241.06C538.83 240.7 538.9 240.35 539 240C541.1 234.81 543.37 242.52 545.5 241.95Z" /><path class="shp2" d="M292.58 468.93C292.58 574.88 229.6 611.88 151.9 611.88C74.21 611.88 11.22 574.88 11.22 468.93C11.22 362.99 151.9 228.2 151.9 228.2C151.9 228.2 292.58 362.99 292.58 468.93Z" /><path class="shp1" d="M146.78 595.67L148.22 507L208.18 397.3L148.44 493.09L149.09 453.22L190.42 373.86L149.26 442.67L149.26 442.67L150.43 370.96L194.68 307.78L150.61 359.69L151.34 228.2L146.76 402.26L147.14 395.08L102.15 326.22L146.42 408.87L142.23 488.95L142.1 486.83L90.23 414.36L141.94 494.34L141.42 504.35L141.33 504.5L141.37 505.32L130.73 708.51L144.94 708.51L146.65 603.56L198.23 523.77L146.78 595.67L146.78 595.67Z" /></svg>